<?xml version="1.0" standalone="no"?>
<!DOCTYPE svg PUBLIC "-//W3C//DTD SVG 1.1//EN" "http://www.w3.org/Graphics/SVG/1.1/DTD/svg11.dtd" >
<svg xmlns="http://www.w3.org/2000/svg">
<metadata></metadata>
<defs>
<font id="cocogooselight" horiz-adv-x="529" >
<font-face units-per-em="2048" ascent="1638" descent="-410" />
<missing-glyph horiz-adv-x="642" />
<glyph horiz-adv-x="0" />
<glyph unicode="&#xd;" horiz-adv-x="642" />
<glyph horiz-adv-x="0" />
<glyph horiz-adv-x="0" />
<glyph unicode=" "  horiz-adv-x="642" />
<glyph unicode="&#x09;" horiz-adv-x="642" />
<glyph unicode="&#xa0;" horiz-adv-x="642" />
<glyph unicode="!" horiz-adv-x="612" d="M157 45v106q0 20 12.5 32.5t32.5 12.5h105q23 0 35 -13t12 -32v-106q0 -45 -45 -45h-105q-47 0 -47 45zM167 460v1104q0 45 47 45h103q20 0 34 -12t14 -33v-1104q0 -45 -48 -45h-103q-18 0 -32.5 11t-14.5 34z" />
<glyph unicode="&#x22;" horiz-adv-x="897" d="M166 1113v367q0 45 45 45h107q45 0 46 -45v-367q0 -16 -4.5 -25.5t-11 -14t-15 -6t-18.5 -1.5h-104q-45 0 -45 47zM530 1113v367q0 45 45 45h108q45 0 45 -45v-367q0 -16 -4 -25.5t-10.5 -14t-15.5 -6t-18 -1.5h-105q-45 0 -45 47z" />
<glyph unicode="#" horiz-adv-x="1058" d="M71 471v103q0 45 47 46h115v304h-115q-47 0 -47 47v106q0 45 47 45h115v354q0 18 11.5 31.5t34.5 13.5h103q18 0 33.5 -12.5t15.5 -32.5v-354h199v354q0 18 11 31.5t34 13.5h105q18 0 32.5 -12.5t14.5 -32.5v-354h127q18 0 31.5 -11.5t13.5 -33.5v-106q0 -18 -12 -32.5 t-33 -14.5h-127v-304h127q18 0 31.5 -11.5t13.5 -34.5v-103q0 -18 -12 -34t-33 -16h-127v-376q0 -45 -47 -45h-105q-45 0 -45 45v376h-199v-376q0 -45 -49 -45h-103q-45 0 -46 45v376h-115q-47 0 -47 50zM431 620h199v304h-199v-304z" />
<glyph unicode="$" horiz-adv-x="1317" d="M111 276q0 18 17 33l81 68q16 13 31 13q9 1 16.5 -4.5t15.5 -13.5l14 -14q43 -48 97.5 -83t109.5 -58t105 -34.5t85 -11.5q62 0 128 16.5t120 50t89 85.5t35 121q0 58 -34.5 99t-93 71t-136.5 54t-167 51q-123 36 -211 75.5t-145 87t-83.5 106.5t-26.5 132q0 80 28 149.5 t80 123.5t127 90.5t168 50.5v152q0 18 11.5 31.5t33.5 13.5h106q18 0 32.5 -12.5t14.5 -32.5v-149q58 -8 117 -27t113.5 -46.5t103 -64t84.5 -77.5q7 -8 10.5 -16t3.5 -17q0 -16 -15 -32l-73 -69q-14 -14 -32 -14t-33 15q-14 9 -47 35.5t-80.5 54.5t-107 50t-127.5 22 q-81 0 -139.5 -19.5t-96.5 -52t-55.5 -73t-17.5 -81.5q0 -57 37.5 -96t100 -67.5t142 -51.5t162 -48.5t162 -57.5t142 -79t100 -112.5t37.5 -158.5q0 -98 -37 -180.5t-103.5 -143t-156 -98.5t-194.5 -48v-138q0 -47 -47 -47h-106q-45 0 -45 47v144q-130 20 -244 86t-194 170 q-12 15 -12 30z" />
<glyph unicode="%" horiz-adv-x="1978" d="M97 1147q0 82 31 153.5t84 125.5t125.5 84.5t154.5 30.5t153.5 -30.5t125 -84.5t84.5 -125.5t31 -153.5t-31 -154t-84.5 -125.5t-125.5 -84t-153 -30.5q-82 0 -154.5 30.5t-125.5 84t-84 125.5t-31 154zM278 1147q0 -45 16 -84t45.5 -68t68 -45.5t84.5 -16.5 q44 0 83 16.5t68 45.5t46 68t17 84q0 44 -17 83.5t-46 68t-68 45.5t-83 17q-45 0 -84 -17t-68.5 -45.5t-45.5 -68t-16 -83.5zM562.5 29.5q-0.5 1.5 4.5 13.5l600 1433q11 26 24 35.5t39 9.5h112q43 0 43 -27q0 -5 -2 -14t0 -9q-154 -360 -302 -716.5t-302 -716.5 q-8 -18 -20.5 -28t-30.5 -10h-129q-36 0 -36 23q0 5 -0.5 6.5zM1097 372q0 82 30.5 153.5t84.5 125.5t125.5 84.5t153.5 30.5t154 -30.5t125.5 -84.5t84 -125.5t30.5 -153.5t-30.5 -154t-84 -125.5t-125.5 -84.5t-154 -31t-153.5 31t-125.5 84.5t-84.5 125.5t-30.5 154z M1277 372q0 -45 17 -84t45.5 -68.5t67.5 -45.5t84 -16t84 16t68 45.5t45.5 68.5t16.5 84q0 100 -68 157q-67 56 -146 57q-45 0 -84 -16.5t-67.5 -45.5t-45.5 -68t-17 -84z" />
<glyph unicode="&#x26;" horiz-adv-x="1774" d="M131 451q0 150 61.5 248t169.5 159q-59 48 -93.5 121t-34.5 161q0 84 34 155.5t91 122.5t131 80.5t156 29.5t156.5 -23.5t130 -72t89 -121t33.5 -171.5q0 -26 -12 -35.5t-33 -9.5h-102q-24 0 -38 11.5t-14 33.5h2q0 95 -52.5 150t-156.5 55q-57 0 -98.5 -18t-67.5 -48 t-38.5 -67t-12.5 -76q0 -37 13 -72t38 -63t62 -47.5t84 -25.5q26 -2 36.5 -13.5t10.5 -33.5l-13 -81q-4 -23 -13.5 -32t-29.5 -9q-150 0 -220.5 -78.5t-70.5 -227.5q0 -65 26 -117.5t70 -90t102.5 -58t123.5 -20.5q58 0 114 17.5t100 52.5t73 89.5t33 128.5l-173 37 q-18 0 -30.5 13t-12.5 34q0 17 7 38.5t23 40t40 30.5t58 12q43 0 96.5 -10t108.5 -24t107 -28.5t93 -23.5q32 -7 66 -8t63.5 8.5t53 30.5t34.5 58q6 19 9.5 36t9 28.5t14 17.5t26.5 3l107 -23q24 -3 30.5 -13.5t6.5 -35.5q0 -65 -30.5 -122t-80 -99.5t-111.5 -67.5t-125 -25 q-52 0 -100 12.5t-94 23.5q-11 -113 -57 -193t-115.5 -131t-158 -75t-185.5 -24q-105 0 -200 35t-166 98t-112.5 150.5t-41.5 192.5z" />
<glyph unicode="'" horiz-adv-x="540" d="M166 1113v367q0 45 45 45h107q45 0 46 -45v-367q0 -16 -4.5 -25.5t-11 -14t-15 -6t-18.5 -1.5h-104q-45 0 -45 47z" />
<glyph unicode="(" horiz-adv-x="752" d="M167 757q0 281 75 537t216 479q10 17 26.5 20t31.5 -9l88 -57q18 -13 20.5 -31.5t-9.5 -32.5q-130 -206 -193.5 -434t-63.5 -472q0 -248 63 -473q33 -114 81.5 -221.5t112.5 -210.5q11 -15 9.5 -33.5t-20.5 -32.5l-88 -56q-15 -11 -31.5 -8.5t-26.5 19.5 q-140 222 -215.5 478.5t-75.5 537.5z" />
<glyph unicode=")" horiz-adv-x="752" d="M128 -182q-2 18 9 34q65 103 113.5 210.5t80.5 221.5q33 115 48 232t15 241q0 245 -64 472.5t-193 433.5q-11 14 -9 32.5t20 31.5l89 57q15 12 31.5 9t26.5 -20q140 -222 215.5 -479t75.5 -537q0 -281 -75.5 -537.5t-215.5 -478.5q-10 -17 -26.5 -20t-31.5 9l-89 56 q-18 14 -20 32z" />
<glyph unicode="*" horiz-adv-x="1006" d="M126 620v103q0 45 45 45l180 -23l-79 122q-8 11 -17 31.5t-9 32.5q0 22 26 36l90 51q10 7 19 7q5 0 17 -5.5t17 -7.5l20 -28l65 -162l79 180q10 23 31 23q5 0 15 -2.5t15 -4.5l90 -51q25 -18 25 -41q0 -5 -2 -9t-2 -9l-102 -163l187 23q18 0 31.5 -11.5t13.5 -33.5v-103 q0 -18 -12.5 -34t-32.5 -16l-185 23l83 -127q8 -14 19 -32.5t11 -32.5q0 -24 -23 -36l-90 -52q-5 -4 -11 -5.5t-11 -1.5q-7 0 -20.5 4.5t-13.5 6.5l-95 201l-72 -171q-11 -18 -28.5 -29.5t-25.5 -11.5q-12 0 -23 7l-90 55q-23 9 -22 33q0 13 8.5 32t20.5 33l81 127l-158 -23 q-33 0 -49 8.5t-16 41.5z" />
<glyph unicode="+" horiz-adv-x="921" d="M83 612v107q0 45 45 45h232v231q0 48 50 48h104q45 0 45 -48v-231h234q19 0 32 -12t13 -33v-107q0 -18 -12.5 -32.5t-32.5 -14.5h-234v-234q0 -18 -11.5 -31.5t-33.5 -13.5h-104q-18 0 -34 12t-16 33v234h-232q-45 0 -45 47z" />
<glyph unicode="," horiz-adv-x="540" d="M166 36v115q0 20 13.5 32.5t31.5 12.5h105q23 0 35.5 -13t12.5 -32v-151q0 -83 -32.5 -147.5t-84.5 -93.5h-14q-11 0 -18 9l-38 36q-9 8 -9 23q0 10 8.5 20.5t19.5 24t19.5 31t8.5 41.5v33q0 10 -5.5 15t-12.5 8q-37 0 -40 36z" />
<glyph unicode="-" horiz-adv-x="1058" d="M153 579v106q0 45 48 45h664q18 0 31.5 -11.5t13.5 -33.5v-106q0 -18 -12 -33t-33 -15h-664q-48 0 -48 48z" />
<glyph unicode="." horiz-adv-x="540" d="M166 45v106q0 20 12.5 32.5t32.5 12.5h105q23 0 35.5 -13t12.5 -32v-106q0 -45 -46 -45h-105q-47 0 -47 45z" />
<glyph unicode="/" horiz-adv-x="1017" d="M99.5 12.5q-6.5 12.5 1.5 32.5l599 1431q12 26 25 35.5t39 9.5h113q33 0 42.5 -11t-3.5 -42q-154 -359 -301.5 -714.5t-301.5 -715.5q-17 -38 -52 -38h-128q-27 0 -33.5 12.5z" />
<glyph unicode="0" horiz-adv-x="2042" d="M197 983l18 48q3 10 8 16q7 9 16 11q4 2 7.5 3t8.5 1t9 -0.5t9 -1.5q9 -4 15 -11q5 -2 6.5 -6t3.5 -8t3 -8.5t2 -7.5q0 -9 -3 -19l-10 -30l50 -19l-7 -19zM222 994l48 -17l12 31q0 2 0.5 4.5t0.5 4.5q0 3 -0.5 5t-1.5 5q-1 2 -3 4l-4 4q-3 3 -7 5q-3 1 -6 1h-5 q-3 0 -5 -0.5t-4 -1.5q-2 -2 -4 -2.5t-4 -2.5l-6 -9zM244 1101l43 79l17 -11l-34 -60l37 -20l28 50l17 -10l-27 -49l37 -22l34 61l18 -9l-43 -79zM248 351l13 7q9 6 17 4l101 -10l-32 55l29 16l56 -97l-13 -8q-6 -2 -7 -2q-3 -2 -9 -2l-101 12l33 -56l-29 -17zM306 1209 l31 42q4 2 7 5.5t6 5.5q4 3 7.5 4t8.5 2h8t8 -1q9 -2 15 -9q3 -2 5 -4.5t5 -5.5q2 -2 3.5 -5l2.5 -5q1 -5 1 -8v-6q0 -6 -2 -13l76 -2l-7 -11q-3 -4 -8 -6q-3 -1 -5 -2t-4 -1l-65 2l-13 -17l48 -37l-12 -17zM329 222l111 94l64 -75l-26 -21l-42 47l-15 -14l32 -37l-26 -22 l-32 37l-19 -14l40 -47l-25 -23zM334 1213l36 -27l19 26q2 1 2.5 3.5t2.5 4.5v8q0 2 -1 4t-2 5q-4 4 -6 5q-4 4 -8 4q-2 1 -8 1q-2 -1 -4.5 -1t-4.5 -1q-4 -2 -6 -6zM364 732q0 91 23.5 175t66.5 156t102 130t131 99t153.5 63.5t167.5 22.5q139 0 256.5 -53t203.5 -142.5 t134.5 -206.5t48.5 -244q0 -116 -37 -216t-100.5 -180t-149.5 -136.5t-184 -86.5q-42 -11 -84 -17.5t-88 -6.5q-91 0 -174.5 23.5t-155.5 66.5t-130 102.5t-98.5 130.5t-63 152.5t-22.5 167.5zM401 1312q2 11 6 15q2 5 8 13q6 5 11 7q4 4 10 4q10 2 13 2q7 0 10 -1l-1 -6 q0 -3 -4 -10q-4 -4 -8 -4q-4 -1 -6 -1t-4 -1t-5 -4q-4 -3 -6 -7q-3 -3 -3 -8v-7q1 -3 4 -7t6 -5h6q3 0 9 2q3 2 6 2.5t7 2.5q2 1 3.5 2.5t2.5 1.5q2 1 8 3q4 0 7 3q1 0 2.5 0.5t3.5 0.5q20 2 33 -13q10 -6 11 -16q1 -5 2 -8t1 -8q-1 -5 -2.5 -10t-3.5 -9q-2 -5 -5.5 -8.5 t-5.5 -6.5q-13 -12 -32 -16h-6q-3 2 -6 3q-2 0 -3.5 0.5t-2.5 0.5t-1 0.5t-1 0.5l1 5q1 2 1.5 3.5t1.5 3.5q8 5 12 5h3q3 0 10 2q4 1 10 6q2 2 2.5 4t2.5 4q3 4 3 12q2 4 0 9q0 3 -1.5 5t-3.5 4q-3 5 -9 5q-5 3 -10 0q-6 0 -9 -3q-8 -2 -11 -5q-4 -1 -14 -5q-4 -2 -8.5 -2 t-6.5 -1q-10 0 -14 1q-3 2 -7 4t-6 6q-7 6 -10 14q-2 9 -1 15zM418 732q0 -80 20.5 -154.5t58.5 -140.5t91 -121t118.5 -94.5t142 -61.5t159.5 -22q122 0 230 46.5t188 127t126.5 188.5t46.5 232q0 109 -34.5 202.5t-94 167.5t-139 125t-168.5 76q-35 11 -73.5 16.5 t-81.5 5.5q-85 0 -162 -22t-142.5 -61.5t-118.5 -94.5t-90 -120.5t-57 -140.5t-20 -154zM449 94l71 85l-32 27l23 25l88 -74l-20 -25l-32 27l-73 -87zM476 732q0 98 31 182.5t89 155.5h707l-694 -695q-63 72 -98 163t-35 194zM494.5 1373.5q0.5 4.5 0.5 9.5q2 5 3.5 10 t3.5 9q2 5 4.5 8t5.5 8q6 6 15 13q8 7 18 8q9 4 19 4q9 3 20 0q5 -1 8 -2.5t8 -3.5t9 -4.5t8 -6.5q4 -3 7 -6.5t7 -8.5q2 -4 4.5 -8t3.5 -9q4 -9 4 -19q2 -10 0 -19q-1 -5 -2.5 -9.5t-3.5 -9.5q-5 -10 -11 -16q-4 -3 -7 -6.5t-8 -5.5q-14 -10 -26 -12q-15 -4 -30 0 q-7 1 -13 4t-14 6q-12 8 -20 20q-2 4 -4.5 8.5t-3.5 10.5q-5 10 -5 18q-1 5 -0.5 9.5zM502 46l130 92l23 -16l-19 -156l-22 11q-1 3 -4 5q-3 3 -3 5q-2 4 -2 6v6l2 17l-48 29l-14 -10q-1 -1 -2.5 -1t-2.5 -1h-6q-2 -1 -4 -0.5t-3 0.5q-2 1 -4 1t-3 1zM515 1359q2 -5 3.5 -10 t6.5 -10q4 -10 15 -15q8 -5 19 -7q10 -3 22 0q10 2 18 8q11 6 15 15q3 5 5 9.5t4 9.5q1 11 0 22q-2 4 -4 9t-6 10q-5 9 -15 15q-10 7 -18 8q-11 2 -21 0q-11 -2 -20 -9q-9 -6 -16 -15q-3 -5 -4.5 -10t-3.5 -10q-2 -9 0 -20zM590 67l22 -15l2 28q0 1 1 1.5t1 1.5q0 2 0.5 2 t0.5 1t0.5 1.5t0.5 1.5l-2 -2q-4 -2 -3 -2l-1 -2q0 -1 -1 -1zM624 1489l14 6q4 2 8 2q5 0 6 -2l112 -72l1 -1q1 -2 1 -3q2 0 2 -0.5t1 -0.5l-47 112l19 7l56 -134l-15 -6q-4 -1 -8 -1q-5 0 -8 1l-109 71q-2 0 -2 0.5t-2 0.5q0 2 -1 4q-1 0 -1 1v2l47 -114l-19 -8zM649 1129 q73 65 164 101.5t195 36.5q103 0 193.5 -37t159.5 -101h-712zM651 334h716q-74 -61 -165 -98t-194 -37t-193 36.5t-164 98.5zM655 -41l55 134l89 -35l-11 -30l-59 21l-8 -21l48 -20l-13 -32l-48 20l-19 -50zM711 391l693 701q68 -84 101.5 -173t33.5 -187t-31 -183.5 t-88 -157.5h-709zM778 -23.5q0 5.5 2 10.5q1 8 6 19q6 6 12 14q3 4 6.5 7.5l6.5 6.5q5 3 9 4.5t9 3.5q4 2 9.5 2.5t10.5 1.5h9.5t9.5 -2t10 -3t9 -3q10 -5 16 -10q4 -4 7 -7.5t5 -7.5q7 -8 9 -18q2 -5 3 -9t2 -10v-9.5t-1 -9.5q-1 -10 -7 -19l-6 -8l-6 -8q-4 -7 -13 -12 q-5 -2 -9 -4t-9 -4t-9.5 -3t-9.5 -1h-9.5t-11.5 2q-5 1 -9 2t-9 3q-4 2 -8 4.5t-8 6.5q-4 3 -6.5 7t-5.5 7q-2 4 -5 8.5t-5 8.5q-2 12 -4 19v10.5zM797 1404l33 156l20 3l90 -130l-11 -2q-2 -1 -4 -0.5t-4 0.5q-5 1 -8 6l-14 20l-73 -14l-5 -25q-2 -5 -5 -8q-1 -2 -3.5 -3 t-4.5 -1zM815 -20q-1 -9 0 -17q1 -3 2 -6.5t3 -7.5q4 -6 10 -11q3 -2 7.5 -3.5t9.5 -2.5q6 -3 14 0q9 1 15 5q7 6 11 12q2 4 4 7.5t3 6.5q2 8 0 18q-1 5 -7 13q-2 4 -4.5 6.5l-5.5 5.5q-4 2 -7.5 3t-8.5 3q-8 2 -14 0q-5 -2 -8.5 -3t-8.5 -3q-2 -2 -4.5 -5t-4.5 -7 q-4 -4 -6 -14zM830 1464l57 12l-38 54q-2 2 -2 4t-2 4v-4v-4zM936 1576l19 1l6 -126l64 3l1 -21l-85 -3zM939 29h15h14q7 0 9 -1q4 -3 5 -5l51 -73q1 -1 1 -2t1 -2q0 -2 1 -2.5t1 -1.5q0 -4 1 -5l-3 93h36l1 -146l-31 -1l-66 98l1 -98l-35 -1zM1082 32l115 20l6 -32l-40 -8 l22 -109l-34 -6l-21 109l-41 -8zM1085 1471q0 10 1 16l15 87l20 -4l-15 -87q-2 -8 0 -16q1 -3 2.5 -6.5t3.5 -5.5q2 -3 4.5 -5.5l4.5 -4.5l8 -4t8 -3q10 0 14 1q5 0 8 2l6 4q6 4 11 10q2 3 3.5 6.5t3.5 7.5l14 87l21 -2l-18 -89q-1 -3 -1.5 -6.5t-2.5 -7.5l-3.5 -7t-3.5 -6 q-3 -2 -6.5 -4.5t-5.5 -5.5q-5 -4 -13 -6q-4 -2 -8 -2.5t-7 -1.5q-10 0 -15 1q-5 0 -8.5 1.5t-7.5 3.5q-4 1 -6.5 3.5t-5.5 4.5q-7 5 -11 11q-2 5 -6 13q-3 7 -4 15zM1203 1430v3l6 2q4 0 8 -2q6 -1 9 -8v-1l3 -4.5t3 -3.5q4 -2 6 -3.5t5 -2.5q2 0 4.5 -0.5t4.5 -0.5h6.5 t5.5 1q7 2 9 5q5 5 6 9q3 6 0 11q0 2 -1 4l-2 4q-2 2 -3.5 4t-3.5 4q-2 1 -4 2.5t-7 3.5q-2 3 -5 5.5t-5 5.5q-3 2 -5 5.5t-4 7.5q-2 2 -3.5 5t-1.5 6q-2 7 3 17q1 8 7 15q7 6 13 7q5 2 9 2.5t7 0.5q4 0 8 -1t9 -2q4 -1 9 -6q5 -4 10 -9q2 -2 4 -4.5t3 -4.5q1 -3 1.5 -5 t1.5 -4l-6 -3q-5 -2 -10 0q-6 4 -8 6q-1 2 -2.5 3.5t-2.5 3.5q-2 1 -4 1.5t-4 1.5q-3 2 -9 2h-7q-3 -3 -8 -4q-3 -3 -3 -6q-3 -5 -1 -8q0 -4 2 -6q1 -2 2.5 -3.5t4.5 -3.5q3 -3 9 -7q2 -2 3 -4t3 -3t3 -2.5t3 -2.5l2.5 -2.5t3.5 -2.5l1.5 -3t2.5 -3q10 -15 4 -34 q-2 -5 -4.5 -9t-4.5 -7q-5 -3 -8.5 -5.5t-7.5 -3.5q-8 -4 -18 -4q-5 0 -9 0.5t-9 1.5q-18 8 -28 23q0 1 -1.5 2.5l-2.5 2.5q0 2 -0.5 3t-0.5 3q-1 1 -1 5zM1217 28v8q1 5 2 8.5t4 7.5q2 5 4.5 7.5l6.5 6.5q7 5 15 8q2 1 5 2t9 1q2 0 5 -1t7 -1q2 -1 5 -1.5t8 -2.5 q2 -2 4.5 -2.5t4.5 -2.5l-6 -12q-1 -3 -3 -7q-3 -1 -5 -1.5t-4 -0.5q-1 -1 -4 -1h-5h-5q-2 0 -3 -2q-4 0 -7 -2q-3 0 -3 -2l-2 -4q0 -1 1 -2q0 -3 3 -4q1 0 1.5 -1t2.5 -1h11h10h9t9 -1q4 -2 7 -2.5t7 -3.5q7 -5 12 -9t7 -14q4 -9 3 -19q0 -6 -2 -9.5t-4 -8.5 q-2 -4 -4.5 -7.5t-7.5 -8.5q-5 -2 -9 -5t-10 -5l-8 -2t-9 -1q-6 -2 -15 2q-8 1 -16 6q-3 2 -6 4.5t-5 6.5l7 10q2 2 4 3q3 3 4 3q3 1 11 1q2 0 3.5 -0.5t3.5 -0.5t3.5 -1t3.5 -1q5 0 7 2q3 0 4 0.5l3 1.5l5 5q2 2 2 8v6l-3 3q-1 1 -5 1q-2 2 -4 2h-4h-10h-7t-9 1q-6 0 -14 2 q-4 2 -7.5 4t-5.5 4q-5 5 -10 15q-2 5 -2 10zM1291 1373l66 130l80 -42l-9 -18l-61 33l-19 -38l50 -26l-10 -18l-51 26l-19 -38l62 -32l-9 -19zM1352 -13q0 5 2 7q0 2 3 7q1 3 6 5q3 1 4.5 1t3.5 1q2 0 3.5 -0.5t3.5 -0.5q5 -2 6 -4q3 -1 6 -7q4 -4 4 -7q0 -5 -2 -7t-2.5 -4 t-1.5 -3q-1 -2 -3 -3t-4 -3q-6 -2 -7 -2q-5 0 -7 1q-5 0 -9 4q-3 3 -4 8q0 2 -1 3.5t-1 3.5zM1365 85v9t2 9q1 9 5 19q3 4 5 8t6 8q3 4 7.5 7t9.5 7q7 4 13 7q4 2 7.5 2.5t9.5 2.5h17q5 0 9 -1t7 -2l-1 -14q-2 -4 -3 -7l-3 -3l-3 -3q-8 -4 -13 -4q-7 0 -12 -2q-5 -1 -12 -4 q-7 -4 -10 -11q-5 -8 -5 -15q-2 -8 0 -16q2 -10 6 -14q2 -6 11 -12q3 -3 6.5 -4t8.5 -3q6 -2 15 0q4 0 7 2t7 4q3 2 5 4.5t6 5.5l6 9q2 7 7 11q2 2 4 2t4 1h8l12 -2q-1 -5 -2 -9.5t-3 -8.5q-1 -5 -6 -16q-3 -8 -10 -13q-7 -7 -11 -10l-10 -6t-10 -4q-8 -4 -18 -4 q-5 -1 -9.5 -0.5t-10.5 1.5q-3 2 -7.5 2.5t-9.5 3.5q-4 3 -8 5.5t-7 6.5l-8 6t-7 7q-2 5 -4 9.5t-4 10.5q-1 4 -1.5 8.5t-2.5 9.5zM1444 1307q0 16 4 28q5 16 14 25q7 10 17 13q3 3 7 5l8 4q5 2 9.5 2t9.5 1h10t10 -1q9 -2 18 -6q7 -3 16 -11q4 -3 8 -6.5t6 -8.5q6 -7 7 -17 q4 -8 4 -18v-9.5t-1 -10.5q-2 -5 -3 -9.5t-3 -8.5q-5 -10 -11 -15q-4 -5 -7 -9t-7 -7q-5 -2 -9.5 -4t-9.5 -3q-9 -3 -18 -3h-10t-10 1q-3 1 -7.5 2t-9.5 4q-5 2 -8.5 4.5t-9.5 4.5q-5 7 -9.5 13t-7.5 12q-2 7 -4 13.5t-3 14.5zM1463 1309q0 -6 1.5 -11t3.5 -10q4 -5 7 -9.5 t7 -7.5q5 -4 9.5 -6t9.5 -5q11 -3 20 -3q13 0 20 7q5 2 9.5 5t9.5 6q8 9 9 19q5 9 3 21q0 5 -1 10t-4 10q-2 5 -5 9t-8 8q-4 4 -9 6.5t-10 4.5t-10 2.5t-11 0.5q-5 0 -10 -2l-10 -4q-9 -5 -15 -12q-9 -9 -13 -19q-2 -5 -2.5 -10t-0.5 -10zM1474 169v9t0.5 10t1.5 10t3 9t4 9 q3 3 5.5 7t6.5 7q4 4 8 7.5t8 6.5q4 2 8.5 3.5t9.5 2.5q5 2 9 2h9h10t10 -2q5 -1 9.5 -2.5t8.5 -3.5q5 -3 8 -6.5t9 -7.5q3 -4 5.5 -7.5t5.5 -8.5q2 -4 3.5 -8t3.5 -9q1 -5 1 -10v-10q0 -7 -2 -17q-1 -5 -3 -10t-4 -9q-4 -8 -13 -16q-4 -4 -7.5 -6.5t-7.5 -4.5q-5 -2 -9 -4 t-9 -4q-9 -3 -20 -3q-9 0 -18 3q-5 1 -9.5 3.5t-9.5 4.5q-3 2 -7 5l-8 6q-4 4 -6.5 7.5t-5.5 8.5q-2 5 -3.5 9.5t-2.5 9.5q-2 5 -2 9zM1507 178q0 -10 2 -14t4.5 -7.5t5.5 -6.5t6.5 -5.5t7.5 -4.5q6 -2 14 -2q11 0 16 2q4 1 7 3.5t6 6.5q8 6 9 12q3 7 3 15q0 7 -3 16 q-1 7 -9 13q-6 7 -13 10q-6 3 -16 3q-4 0 -7 -0.5t-7 -1.5q-4 -2 -7.5 -4t-6.5 -6q-5 -4 -10 -13q-2 -3 -2 -7.5v-8.5zM1530 1200l117 88l11 -13q2 -4 3 -7v-8l-43 -123q0 -1 -0.5 -1t-0.5 -1t-1 -1t-1 -1l-1 -3l97 72l12 -15l-116 -87l-10 12q-3 2 -5 7q0 5 1 7l42 125 q0 1 1 1t1 1l1 1q1 2 2 3l-98 -71zM1546 278l14 19q3 5 9 8q3 1 6.5 1h5.5l86 -13l-48 72q-2 4 -3 6.5t-1 5.5q0 4 1 6.5t3 5.5l13 20l123 -79l-18 -30l-60 38l42 -63l-15 -24l-73 13l57 -38l-20 -28zM1614 1082l130 67l8 -16l-112 -59l30 -55l-18 -10zM1660 985l58 23l2 1 l4 2q0 2 0.5 2.5t0.5 1.5q3 0 4 2l48 75l3 -13q2 -4 2.5 -7t0.5 -5q-1 -2 -2 -4.5t-2 -4.5l-32 -48l-2 -2l-1 -1h2q0 1 3 0l55 -17q2 -1 4.5 -2t5.5 -3q4 -2 5 -8l5 -13l-84 24q-2 0 -3 1h-4h-4q-3 0 -5 -1l-57 -21z" />
<glyph unicode="1" horiz-adv-x="2042" d="M197 983l18 48q3 10 8 16q7 9 16 11q4 2 7.5 3t8.5 1t9 -0.5t9 -1.5q9 -4 15 -11q5 -2 6.5 -6t3.5 -8t3 -8.5t2 -7.5q0 -9 -3 -19l-10 -30l50 -19l-7 -19zM222 994l48 -17l12 31q0 2 0.5 4.5t0.5 4.5q0 3 -0.5 5t-1.5 5q-1 2 -3 4l-4 4q-3 3 -7 5q-3 1 -6 1h-5 q-3 0 -5 -0.5t-4 -1.5q-2 -2 -4 -2.5t-4 -2.5l-6 -9zM244 1101l43 79l17 -11l-34 -60l37 -20l28 50l17 -10l-27 -49l37 -22l34 61l18 -9l-43 -79zM248 351l13 7q9 6 17 4l101 -10l-32 55l29 16l56 -97l-13 -8q-6 -2 -7 -2q-3 -2 -9 -2l-101 12l33 -56l-29 -17zM306 1209 l31 42q4 2 7 5.5t6 5.5q4 3 7.5 4t8.5 2h8t8 -1q9 -2 15 -9q3 -2 5 -4.5t5 -5.5q2 -2 3.5 -5l2.5 -5q1 -5 1 -8v-6q0 -6 -2 -13l76 -2l-7 -11q-3 -4 -8 -6q-3 -1 -5 -2t-4 -1l-65 2l-13 -17l48 -37l-12 -17zM329 222l111 94l64 -75l-26 -21l-42 47l-15 -14l32 -37l-26 -22 l-32 37l-19 -14l40 -47l-25 -23zM334 1213l36 -27l19 26q2 1 2.5 3.5t2.5 4.5v8q0 2 -1 4t-2 5q-4 4 -6 5q-4 4 -8 4q-2 1 -8 1q-2 -1 -4.5 -1t-4.5 -1q-4 -2 -6 -6zM364 732q0 91 23.5 175t66.5 156t102 130t131 99t153.5 63.5t167.5 22.5q139 0 256.5 -53t203.5 -142.5 t134.5 -206.5t48.5 -244q0 -116 -37 -216t-100.5 -180t-149.5 -136.5t-184 -86.5q-42 -11 -84 -17.5t-88 -6.5q-91 0 -174.5 23.5t-155.5 66.5t-130 102.5t-98.5 130.5t-63 152.5t-22.5 167.5zM401 1312q2 11 6 15q2 5 8 13q6 5 11 7q4 4 10 4q10 2 13 2q7 0 10 -1l-1 -6 q0 -3 -4 -10q-4 -4 -8 -4q-4 -1 -6 -1t-4 -1t-5 -4q-4 -3 -6 -7q-3 -3 -3 -8v-7q1 -3 4 -7t6 -5h6q3 0 9 2q3 2 6 2.5t7 2.5q2 1 3.5 2.5t2.5 1.5q2 1 8 3q4 0 7 3q1 0 2.5 0.5t3.5 0.5q20 2 33 -13q10 -6 11 -16q1 -5 2 -8t1 -8q-1 -5 -2.5 -10t-3.5 -9q-2 -5 -5.5 -8.5 t-5.5 -6.5q-13 -12 -32 -16h-6q-3 2 -6 3q-2 0 -3.5 0.5t-2.5 0.5t-1 0.5t-1 0.5l1 5q1 2 1.5 3.5t1.5 3.5q8 5 12 5h3q3 0 10 2q4 1 10 6q2 2 2.5 4t2.5 4q3 4 3 12q2 4 0 9q0 3 -1.5 5t-3.5 4q-3 5 -9 5q-5 3 -10 0q-6 0 -9 -3q-8 -2 -11 -5q-4 -1 -14 -5q-4 -2 -8.5 -2 t-6.5 -1q-10 0 -14 1q-3 2 -7 4t-6 6q-7 6 -10 14q-2 9 -1 15zM418 732q0 -80 20.5 -154.5t58.5 -140.5t91 -121t118.5 -94.5t142 -61.5t159.5 -22q122 0 230 46.5t188 127t126.5 188.5t46.5 232q0 109 -34.5 202.5t-94 167.5t-139 125t-168.5 76q-35 11 -73.5 16.5 t-81.5 5.5q-85 0 -162 -22t-142.5 -61.5t-118.5 -94.5t-90 -120.5t-57 -140.5t-20 -154zM449 94l71 85l-32 27l23 25l88 -74l-20 -25l-32 27l-73 -87zM476 732q0 98 31 182.5t89 155.5h707l-694 -695q-63 72 -98 163t-35 194zM494.5 1373.5q0.5 4.5 0.5 9.5q2 5 3.5 10 t3.5 9q2 5 4.5 8t5.5 8q6 6 15 13q8 7 18 8q9 4 19 4q9 3 20 0q5 -1 8 -2.5t8 -3.5t9 -4.5t8 -6.5q4 -3 7 -6.5t7 -8.5q2 -4 4.5 -8t3.5 -9q4 -9 4 -19q2 -10 0 -19q-1 -5 -2.5 -9.5t-3.5 -9.5q-5 -10 -11 -16q-4 -3 -7 -6.5t-8 -5.5q-14 -10 -26 -12q-15 -4 -30 0 q-7 1 -13 4t-14 6q-12 8 -20 20q-2 4 -4.5 8.5t-3.5 10.5q-5 10 -5 18q-1 5 -0.5 9.5zM502 46l130 92l23 -16l-19 -156l-22 11q-1 3 -4 5q-3 3 -3 5q-2 4 -2 6v6l2 17l-48 29l-14 -10q-1 -1 -2.5 -1t-2.5 -1h-6q-2 -1 -4 -0.5t-3 0.5q-2 1 -4 1t-3 1zM515 1359q2 -5 3.5 -10 t6.5 -10q4 -10 15 -15q8 -5 19 -7q10 -3 22 0q10 2 18 8q11 6 15 15q3 5 5 9.5t4 9.5q1 11 0 22q-2 4 -4 9t-6 10q-5 9 -15 15q-10 7 -18 8q-11 2 -21 0q-11 -2 -20 -9q-9 -6 -16 -15q-3 -5 -4.5 -10t-3.5 -10q-2 -9 0 -20zM590 67l22 -15l2 28q0 1 1 1.5t1 1.5q0 2 0.5 2 t0.5 1t0.5 1.5t0.5 1.5l-2 -2q-4 -2 -3 -2l-1 -2q0 -1 -1 -1zM624 1489l14 6q4 2 8 2q5 0 6 -2l112 -72l1 -1q1 -2 1 -3q2 0 2 -0.5t1 -0.5l-47 112l19 7l56 -134l-15 -6q-4 -1 -8 -1q-5 0 -8 1l-109 71q-2 0 -2 0.5t-2 0.5q0 2 -1 4q-1 0 -1 1v2l47 -114l-19 -8zM649 1129 q73 65 164 101.5t195 36.5q103 0 193.5 -37t159.5 -101h-712zM651 334h716q-74 -61 -165 -98t-194 -37t-193 36.5t-164 98.5zM655 -41l55 134l89 -35l-11 -30l-59 21l-8 -21l48 -20l-13 -32l-48 20l-19 -50zM711 391l693 701q68 -84 101.5 -173t33.5 -187t-31 -183.5 t-88 -157.5h-709zM778 -23.5q0 5.5 2 10.5q1 8 6 19q6 6 12 14q3 4 6.5 7.5l6.5 6.5q5 3 9 4.5t9 3.5q4 2 9.5 2.5t10.5 1.5h9.5t9.5 -2t10 -3t9 -3q10 -5 16 -10q4 -4 7 -7.5t5 -7.5q7 -8 9 -18q2 -5 3 -9t2 -10v-9.5t-1 -9.5q-1 -10 -7 -19l-6 -8l-6 -8q-4 -7 -13 -12 q-5 -2 -9 -4t-9 -4t-9.5 -3t-9.5 -1h-9.5t-11.5 2q-5 1 -9 2t-9 3q-4 2 -8 4.5t-8 6.5q-4 3 -6.5 7t-5.5 7q-2 4 -5 8.5t-5 8.5q-2 12 -4 19v10.5zM797 1404l33 156l20 3l90 -130l-11 -2q-2 -1 -4 -0.5t-4 0.5q-5 1 -8 6l-14 20l-73 -14l-5 -25q-2 -5 -5 -8q-1 -2 -3.5 -3 t-4.5 -1zM815 -20q-1 -9 0 -17q1 -3 2 -6.5t3 -7.5q4 -6 10 -11q3 -2 7.5 -3.5t9.5 -2.5q6 -3 14 0q9 1 15 5q7 6 11 12q2 4 4 7.5t3 6.5q2 8 0 18q-1 5 -7 13q-2 4 -4.5 6.5l-5.5 5.5q-4 2 -7.5 3t-8.5 3q-8 2 -14 0q-5 -2 -8.5 -3t-8.5 -3q-2 -2 -4.5 -5t-4.5 -7 q-4 -4 -6 -14zM830 1464l57 12l-38 54q-2 2 -2 4t-2 4v-4v-4zM936 1576l19 1l6 -126l64 3l1 -21l-85 -3zM939 29h15h14q7 0 9 -1q4 -3 5 -5l51 -73q1 -1 1 -2t1 -2q0 -2 1 -2.5t1 -1.5q0 -4 1 -5l-3 93h36l1 -146l-31 -1l-66 98l1 -98l-35 -1zM1082 32l115 20l6 -32l-40 -8 l22 -109l-34 -6l-21 109l-41 -8zM1085 1471q0 10 1 16l15 87l20 -4l-15 -87q-2 -8 0 -16q1 -3 2.5 -6.5t3.5 -5.5q2 -3 4.5 -5.5l4.5 -4.5l8 -4t8 -3q10 0 14 1q5 0 8 2l6 4q6 4 11 10q2 3 3.5 6.5t3.5 7.5l14 87l21 -2l-18 -89q-1 -3 -1.5 -6.5t-2.5 -7.5l-3.5 -7t-3.5 -6 q-3 -2 -6.5 -4.5t-5.5 -5.5q-5 -4 -13 -6q-4 -2 -8 -2.5t-7 -1.5q-10 0 -15 1q-5 0 -8.5 1.5t-7.5 3.5q-4 1 -6.5 3.5t-5.5 4.5q-7 5 -11 11q-2 5 -6 13q-3 7 -4 15zM1203 1430v3l6 2q4 0 8 -2q6 -1 9 -8v-1l3 -4.5t3 -3.5q4 -2 6 -3.5t5 -2.5q2 0 4.5 -0.5t4.5 -0.5h6.5 t5.5 1q7 2 9 5q5 5 6 9q3 6 0 11q0 2 -1 4l-2 4q-2 2 -3.5 4t-3.5 4q-2 1 -4 2.5t-7 3.5q-2 3 -5 5.5t-5 5.5q-3 2 -5 5.5t-4 7.5q-2 2 -3.5 5t-1.5 6q-2 7 3 17q1 8 7 15q7 6 13 7q5 2 9 2.5t7 0.5q4 0 8 -1t9 -2q4 -1 9 -6q5 -4 10 -9q2 -2 4 -4.5t3 -4.5q1 -3 1.5 -5 t1.5 -4l-6 -3q-5 -2 -10 0q-6 4 -8 6q-1 2 -2.5 3.5t-2.5 3.5q-2 1 -4 1.5t-4 1.5q-3 2 -9 2h-7q-3 -3 -8 -4q-3 -3 -3 -6q-3 -5 -1 -8q0 -4 2 -6q1 -2 2.5 -3.5t4.5 -3.5q3 -3 9 -7q2 -2 3 -4t3 -3t3 -2.5t3 -2.5l2.5 -2.5t3.5 -2.5l1.5 -3t2.5 -3q10 -15 4 -34 q-2 -5 -4.5 -9t-4.5 -7q-5 -3 -8.5 -5.5t-7.5 -3.5q-8 -4 -18 -4q-5 0 -9 0.5t-9 1.5q-18 8 -28 23q0 1 -1.5 2.5l-2.5 2.5q0 2 -0.5 3t-0.5 3q-1 1 -1 5zM1217 28v8q1 5 2 8.5t4 7.5q2 5 4.5 7.5l6.5 6.5q7 5 15 8q2 1 5 2t9 1q2 0 5 -1t7 -1q2 -1 5 -1.5t8 -2.5 q2 -2 4.5 -2.5t4.5 -2.5l-6 -12q-1 -3 -3 -7q-3 -1 -5 -1.5t-4 -0.5q-1 -1 -4 -1h-5h-5q-2 0 -3 -2q-4 0 -7 -2q-3 0 -3 -2l-2 -4q0 -1 1 -2q0 -3 3 -4q1 0 1.5 -1t2.5 -1h11h10h9t9 -1q4 -2 7 -2.5t7 -3.5q7 -5 12 -9t7 -14q4 -9 3 -19q0 -6 -2 -9.5t-4 -8.5 q-2 -4 -4.5 -7.5t-7.5 -8.5q-5 -2 -9 -5t-10 -5l-8 -2t-9 -1q-6 -2 -15 2q-8 1 -16 6q-3 2 -6 4.5t-5 6.5l7 10q2 2 4 3q3 3 4 3q3 1 11 1q2 0 3.5 -0.5t3.5 -0.5t3.5 -1t3.5 -1q5 0 7 2q3 0 4 0.5l3 1.5l5 5q2 2 2 8v6l-3 3q-1 1 -5 1q-2 2 -4 2h-4h-10h-7t-9 1q-6 0 -14 2 q-4 2 -7.5 4t-5.5 4q-5 5 -10 15q-2 5 -2 10zM1291 1373l66 130l80 -42l-9 -18l-61 33l-19 -38l50 -26l-10 -18l-51 26l-19 -38l62 -32l-9 -19zM1352 -13q0 5 2 7q0 2 3 7q1 3 6 5q3 1 4.5 1t3.5 1q2 0 3.5 -0.5t3.5 -0.5q5 -2 6 -4q3 -1 6 -7q4 -4 4 -7q0 -5 -2 -7t-2.5 -4 t-1.5 -3q-1 -2 -3 -3t-4 -3q-6 -2 -7 -2q-5 0 -7 1q-5 0 -9 4q-3 3 -4 8q0 2 -1 3.5t-1 3.5zM1365 85v9t2 9q1 9 5 19q3 4 5 8t6 8q3 4 7.5 7t9.5 7q7 4 13 7q4 2 7.5 2.5t9.5 2.5h17q5 0 9 -1t7 -2l-1 -14q-2 -4 -3 -7l-3 -3l-3 -3q-8 -4 -13 -4q-7 0 -12 -2q-5 -1 -12 -4 q-7 -4 -10 -11q-5 -8 -5 -15q-2 -8 0 -16q2 -10 6 -14q2 -6 11 -12q3 -3 6.5 -4t8.5 -3q6 -2 15 0q4 0 7 2t7 4q3 2 5 4.5t6 5.5l6 9q2 7 7 11q2 2 4 2t4 1h8l12 -2q-1 -5 -2 -9.5t-3 -8.5q-1 -5 -6 -16q-3 -8 -10 -13q-7 -7 -11 -10l-10 -6t-10 -4q-8 -4 -18 -4 q-5 -1 -9.5 -0.5t-10.5 1.5q-3 2 -7.5 2.5t-9.5 3.5q-4 3 -8 5.5t-7 6.5l-8 6t-7 7q-2 5 -4 9.5t-4 10.5q-1 4 -1.5 8.5t-2.5 9.5zM1444 1307q0 16 4 28q5 16 14 25q7 10 17 13q3 3 7 5l8 4q5 2 9.5 2t9.5 1h10t10 -1q9 -2 18 -6q7 -3 16 -11q4 -3 8 -6.5t6 -8.5q6 -7 7 -17 q4 -8 4 -18v-9.5t-1 -10.5q-2 -5 -3 -9.5t-3 -8.5q-5 -10 -11 -15q-4 -5 -7 -9t-7 -7q-5 -2 -9.5 -4t-9.5 -3q-9 -3 -18 -3h-10t-10 1q-3 1 -7.5 2t-9.5 4q-5 2 -8.5 4.5t-9.5 4.5q-5 7 -9.5 13t-7.5 12q-2 7 -4 13.5t-3 14.5zM1463 1309q0 -6 1.5 -11t3.5 -10q4 -5 7 -9.5 t7 -7.5q5 -4 9.5 -6t9.5 -5q11 -3 20 -3q13 0 20 7q5 2 9.5 5t9.5 6q8 9 9 19q5 9 3 21q0 5 -1 10t-4 10q-2 5 -5 9t-8 8q-4 4 -9 6.5t-10 4.5t-10 2.5t-11 0.5q-5 0 -10 -2l-10 -4q-9 -5 -15 -12q-9 -9 -13 -19q-2 -5 -2.5 -10t-0.5 -10zM1474 169v9t0.5 10t1.5 10t3 9t4 9 q3 3 5.5 7t6.5 7q4 4 8 7.5t8 6.5q4 2 8.5 3.5t9.5 2.5q5 2 9 2h9h10t10 -2q5 -1 9.5 -2.5t8.5 -3.5q5 -3 8 -6.5t9 -7.5q3 -4 5.5 -7.5t5.5 -8.5q2 -4 3.5 -8t3.5 -9q1 -5 1 -10v-10q0 -7 -2 -17q-1 -5 -3 -10t-4 -9q-4 -8 -13 -16q-4 -4 -7.5 -6.5t-7.5 -4.5q-5 -2 -9 -4 t-9 -4q-9 -3 -20 -3q-9 0 -18 3q-5 1 -9.5 3.5t-9.5 4.5q-3 2 -7 5l-8 6q-4 4 -6.5 7.5t-5.5 8.5q-2 5 -3.5 9.5t-2.5 9.5q-2 5 -2 9zM1507 178q0 -10 2 -14t4.5 -7.5t5.5 -6.5t6.5 -5.5t7.5 -4.5q6 -2 14 -2q11 0 16 2q4 1 7 3.5t6 6.5q8 6 9 12q3 7 3 15q0 7 -3 16 q-1 7 -9 13q-6 7 -13 10q-6 3 -16 3q-4 0 -7 -0.5t-7 -1.5q-4 -2 -7.5 -4t-6.5 -6q-5 -4 -10 -13q-2 -3 -2 -7.5v-8.5zM1530 1200l117 88l11 -13q2 -4 3 -7v-8l-43 -123q0 -1 -0.5 -1t-0.5 -1t-1 -1t-1 -1l-1 -3l97 72l12 -15l-116 -87l-10 12q-3 2 -5 7q0 5 1 7l42 125 q0 1 1 1t1 1l1 1q1 2 2 3l-98 -71zM1546 278l14 19q3 5 9 8q3 1 6.5 1h5.5l86 -13l-48 72q-2 4 -3 6.5t-1 5.5q0 4 1 6.5t3 5.5l13 20l123 -79l-18 -30l-60 38l42 -63l-15 -24l-73 13l57 -38l-20 -28zM1614 1082l130 67l8 -16l-112 -59l30 -55l-18 -10zM1660 985l58 23l2 1 l4 2q0 2 0.5 2.5t0.5 1.5q3 0 4 2l48 75l3 -13q2 -4 2.5 -7t0.5 -5q-1 -2 -2 -4.5t-2 -4.5l-32 -48l-2 -2l-1 -1h2q0 1 3 0l55 -17q2 -1 4.5 -2t5.5 -3q4 -2 5 -8l5 -13l-84 24q-2 0 -3 1h-4h-4q-3 0 -5 -1l-57 -21z" />
<glyph unicode="2" horiz-adv-x="2042" d="M197 983l18 48q3 10 8 16q7 9 16 11q4 2 7.5 3t8.5 1t9 -0.5t9 -1.5q9 -4 15 -11q5 -2 6.5 -6t3.5 -8t3 -8.5t2 -7.5q0 -9 -3 -19l-10 -30l50 -19l-7 -19zM222 994l48 -17l12 31q0 2 0.5 4.5t0.5 4.5q0 3 -0.5 5t-1.5 5q-1 2 -3 4l-4 4q-3 3 -7 5q-3 1 -6 1h-5 q-3 0 -5 -0.5t-4 -1.5q-2 -2 -4 -2.5t-4 -2.5l-6 -9zM244 1101l43 79l17 -11l-34 -60l37 -20l28 50l17 -10l-27 -49l37 -22l34 61l18 -9l-43 -79zM248 351l13 7q9 6 17 4l101 -10l-32 55l29 16l56 -97l-13 -8q-6 -2 -7 -2q-3 -2 -9 -2l-101 12l33 -56l-29 -17zM306 1209 l31 42q4 2 7 5.5t6 5.5q4 3 7.5 4t8.5 2h8t8 -1q9 -2 15 -9q3 -2 5 -4.5t5 -5.5q2 -2 3.5 -5l2.5 -5q1 -5 1 -8v-6q0 -6 -2 -13l76 -2l-7 -11q-3 -4 -8 -6q-3 -1 -5 -2t-4 -1l-65 2l-13 -17l48 -37l-12 -17zM329 222l111 94l64 -75l-26 -21l-42 47l-15 -14l32 -37l-26 -22 l-32 37l-19 -14l40 -47l-25 -23zM334 1213l36 -27l19 26q2 1 2.5 3.5t2.5 4.5v8q0 2 -1 4t-2 5q-4 4 -6 5q-4 4 -8 4q-2 1 -8 1q-2 -1 -4.5 -1t-4.5 -1q-4 -2 -6 -6zM364 732q0 91 23.5 175t66.5 156t102 130t131 99t153.5 63.5t167.5 22.5q139 0 256.5 -53t203.5 -142.5 t134.5 -206.5t48.5 -244q0 -116 -37 -216t-100.5 -180t-149.5 -136.5t-184 -86.5q-42 -11 -84 -17.5t-88 -6.5q-91 0 -174.5 23.5t-155.5 66.5t-130 102.5t-98.5 130.5t-63 152.5t-22.5 167.5zM401 1312q2 11 6 15q2 5 8 13q6 5 11 7q4 4 10 4q10 2 13 2q7 0 10 -1l-1 -6 q0 -3 -4 -10q-4 -4 -8 -4q-4 -1 -6 -1t-4 -1t-5 -4q-4 -3 -6 -7q-3 -3 -3 -8v-7q1 -3 4 -7t6 -5h6q3 0 9 2q3 2 6 2.5t7 2.5q2 1 3.5 2.5t2.5 1.5q2 1 8 3q4 0 7 3q1 0 2.5 0.5t3.5 0.5q20 2 33 -13q10 -6 11 -16q1 -5 2 -8t1 -8q-1 -5 -2.5 -10t-3.5 -9q-2 -5 -5.5 -8.5 t-5.5 -6.5q-13 -12 -32 -16h-6q-3 2 -6 3q-2 0 -3.5 0.5t-2.5 0.5t-1 0.5t-1 0.5l1 5q1 2 1.5 3.5t1.5 3.5q8 5 12 5h3q3 0 10 2q4 1 10 6q2 2 2.5 4t2.5 4q3 4 3 12q2 4 0 9q0 3 -1.5 5t-3.5 4q-3 5 -9 5q-5 3 -10 0q-6 0 -9 -3q-8 -2 -11 -5q-4 -1 -14 -5q-4 -2 -8.5 -2 t-6.5 -1q-10 0 -14 1q-3 2 -7 4t-6 6q-7 6 -10 14q-2 9 -1 15zM418 732q0 -80 20.5 -154.5t58.5 -140.5t91 -121t118.5 -94.5t142 -61.5t159.5 -22q122 0 230 46.5t188 127t126.5 188.5t46.5 232q0 109 -34.5 202.5t-94 167.5t-139 125t-168.5 76q-35 11 -73.5 16.5 t-81.5 5.5q-85 0 -162 -22t-142.5 -61.5t-118.5 -94.5t-90 -120.5t-57 -140.5t-20 -154zM449 94l71 85l-32 27l23 25l88 -74l-20 -25l-32 27l-73 -87zM476 732q0 98 31 182.5t89 155.5h707l-694 -695q-63 72 -98 163t-35 194zM494.5 1373.5q0.5 4.5 0.5 9.5q2 5 3.5 10 t3.5 9q2 5 4.5 8t5.5 8q6 6 15 13q8 7 18 8q9 4 19 4q9 3 20 0q5 -1 8 -2.5t8 -3.5t9 -4.5t8 -6.5q4 -3 7 -6.5t7 -8.5q2 -4 4.5 -8t3.5 -9q4 -9 4 -19q2 -10 0 -19q-1 -5 -2.5 -9.5t-3.5 -9.5q-5 -10 -11 -16q-4 -3 -7 -6.5t-8 -5.5q-14 -10 -26 -12q-15 -4 -30 0 q-7 1 -13 4t-14 6q-12 8 -20 20q-2 4 -4.5 8.5t-3.5 10.5q-5 10 -5 18q-1 5 -0.5 9.5zM502 46l130 92l23 -16l-19 -156l-22 11q-1 3 -4 5q-3 3 -3 5q-2 4 -2 6v6l2 17l-48 29l-14 -10q-1 -1 -2.5 -1t-2.5 -1h-6q-2 -1 -4 -0.5t-3 0.5q-2 1 -4 1t-3 1zM515 1359q2 -5 3.5 -10 t6.5 -10q4 -10 15 -15q8 -5 19 -7q10 -3 22 0q10 2 18 8q11 6 15 15q3 5 5 9.5t4 9.5q1 11 0 22q-2 4 -4 9t-6 10q-5 9 -15 15q-10 7 -18 8q-11 2 -21 0q-11 -2 -20 -9q-9 -6 -16 -15q-3 -5 -4.5 -10t-3.5 -10q-2 -9 0 -20zM590 67l22 -15l2 28q0 1 1 1.5t1 1.5q0 2 0.5 2 t0.5 1t0.5 1.5t0.5 1.5l-2 -2q-4 -2 -3 -2l-1 -2q0 -1 -1 -1zM624 1489l14 6q4 2 8 2q5 0 6 -2l112 -72l1 -1q1 -2 1 -3q2 0 2 -0.5t1 -0.5l-47 112l19 7l56 -134l-15 -6q-4 -1 -8 -1q-5 0 -8 1l-109 71q-2 0 -2 0.5t-2 0.5q0 2 -1 4q-1 0 -1 1v2l47 -114l-19 -8zM649 1129 q73 65 164 101.5t195 36.5q103 0 193.5 -37t159.5 -101h-712zM651 334h716q-74 -61 -165 -98t-194 -37t-193 36.5t-164 98.5zM655 -41l55 134l89 -35l-11 -30l-59 21l-8 -21l48 -20l-13 -32l-48 20l-19 -50zM711 391l693 701q68 -84 101.5 -173t33.5 -187t-31 -183.5 t-88 -157.5h-709zM778 -23.5q0 5.5 2 10.5q1 8 6 19q6 6 12 14q3 4 6.5 7.5l6.5 6.5q5 3 9 4.5t9 3.5q4 2 9.5 2.5t10.5 1.5h9.5t9.5 -2t10 -3t9 -3q10 -5 16 -10q4 -4 7 -7.5t5 -7.5q7 -8 9 -18q2 -5 3 -9t2 -10v-9.5t-1 -9.5q-1 -10 -7 -19l-6 -8l-6 -8q-4 -7 -13 -12 q-5 -2 -9 -4t-9 -4t-9.5 -3t-9.5 -1h-9.5t-11.5 2q-5 1 -9 2t-9 3q-4 2 -8 4.5t-8 6.5q-4 3 -6.5 7t-5.5 7q-2 4 -5 8.5t-5 8.5q-2 12 -4 19v10.5zM797 1404l33 156l20 3l90 -130l-11 -2q-2 -1 -4 -0.5t-4 0.5q-5 1 -8 6l-14 20l-73 -14l-5 -25q-2 -5 -5 -8q-1 -2 -3.5 -3 t-4.5 -1zM815 -20q-1 -9 0 -17q1 -3 2 -6.5t3 -7.5q4 -6 10 -11q3 -2 7.5 -3.5t9.5 -2.5q6 -3 14 0q9 1 15 5q7 6 11 12q2 4 4 7.5t3 6.5q2 8 0 18q-1 5 -7 13q-2 4 -4.5 6.5l-5.5 5.5q-4 2 -7.5 3t-8.5 3q-8 2 -14 0q-5 -2 -8.5 -3t-8.5 -3q-2 -2 -4.5 -5t-4.5 -7 q-4 -4 -6 -14zM830 1464l57 12l-38 54q-2 2 -2 4t-2 4v-4v-4zM936 1576l19 1l6 -126l64 3l1 -21l-85 -3zM939 29h15h14q7 0 9 -1q4 -3 5 -5l51 -73q1 -1 1 -2t1 -2q0 -2 1 -2.5t1 -1.5q0 -4 1 -5l-3 93h36l1 -146l-31 -1l-66 98l1 -98l-35 -1zM1082 32l115 20l6 -32l-40 -8 l22 -109l-34 -6l-21 109l-41 -8zM1085 1471q0 10 1 16l15 87l20 -4l-15 -87q-2 -8 0 -16q1 -3 2.5 -6.5t3.5 -5.5q2 -3 4.5 -5.5l4.5 -4.5l8 -4t8 -3q10 0 14 1q5 0 8 2l6 4q6 4 11 10q2 3 3.5 6.5t3.5 7.5l14 87l21 -2l-18 -89q-1 -3 -1.5 -6.5t-2.5 -7.5l-3.5 -7t-3.5 -6 q-3 -2 -6.5 -4.5t-5.5 -5.5q-5 -4 -13 -6q-4 -2 -8 -2.5t-7 -1.5q-10 0 -15 1q-5 0 -8.5 1.5t-7.5 3.5q-4 1 -6.5 3.5t-5.5 4.5q-7 5 -11 11q-2 5 -6 13q-3 7 -4 15zM1203 1430v3l6 2q4 0 8 -2q6 -1 9 -8v-1l3 -4.5t3 -3.5q4 -2 6 -3.5t5 -2.5q2 0 4.5 -0.5t4.5 -0.5h6.5 t5.5 1q7 2 9 5q5 5 6 9q3 6 0 11q0 2 -1 4l-2 4q-2 2 -3.5 4t-3.5 4q-2 1 -4 2.5t-7 3.5q-2 3 -5 5.5t-5 5.5q-3 2 -5 5.5t-4 7.5q-2 2 -3.5 5t-1.5 6q-2 7 3 17q1 8 7 15q7 6 13 7q5 2 9 2.5t7 0.5q4 0 8 -1t9 -2q4 -1 9 -6q5 -4 10 -9q2 -2 4 -4.5t3 -4.5q1 -3 1.5 -5 t1.5 -4l-6 -3q-5 -2 -10 0q-6 4 -8 6q-1 2 -2.5 3.5t-2.5 3.5q-2 1 -4 1.5t-4 1.5q-3 2 -9 2h-7q-3 -3 -8 -4q-3 -3 -3 -6q-3 -5 -1 -8q0 -4 2 -6q1 -2 2.5 -3.5t4.5 -3.5q3 -3 9 -7q2 -2 3 -4t3 -3t3 -2.5t3 -2.5l2.5 -2.5t3.5 -2.5l1.5 -3t2.5 -3q10 -15 4 -34 q-2 -5 -4.5 -9t-4.5 -7q-5 -3 -8.5 -5.5t-7.5 -3.5q-8 -4 -18 -4q-5 0 -9 0.5t-9 1.5q-18 8 -28 23q0 1 -1.5 2.5l-2.5 2.5q0 2 -0.5 3t-0.5 3q-1 1 -1 5zM1217 28v8q1 5 2 8.5t4 7.5q2 5 4.5 7.5l6.5 6.5q7 5 15 8q2 1 5 2t9 1q2 0 5 -1t7 -1q2 -1 5 -1.5t8 -2.5 q2 -2 4.5 -2.5t4.5 -2.5l-6 -12q-1 -3 -3 -7q-3 -1 -5 -1.5t-4 -0.5q-1 -1 -4 -1h-5h-5q-2 0 -3 -2q-4 0 -7 -2q-3 0 -3 -2l-2 -4q0 -1 1 -2q0 -3 3 -4q1 0 1.5 -1t2.5 -1h11h10h9t9 -1q4 -2 7 -2.5t7 -3.5q7 -5 12 -9t7 -14q4 -9 3 -19q0 -6 -2 -9.5t-4 -8.5 q-2 -4 -4.5 -7.5t-7.5 -8.5q-5 -2 -9 -5t-10 -5l-8 -2t-9 -1q-6 -2 -15 2q-8 1 -16 6q-3 2 -6 4.5t-5 6.5l7 10q2 2 4 3q3 3 4 3q3 1 11 1q2 0 3.5 -0.5t3.5 -0.5t3.5 -1t3.5 -1q5 0 7 2q3 0 4 0.5l3 1.5l5 5q2 2 2 8v6l-3 3q-1 1 -5 1q-2 2 -4 2h-4h-10h-7t-9 1q-6 0 -14 2 q-4 2 -7.5 4t-5.5 4q-5 5 -10 15q-2 5 -2 10zM1291 1373l66 130l80 -42l-9 -18l-61 33l-19 -38l50 -26l-10 -18l-51 26l-19 -38l62 -32l-9 -19zM1352 -13q0 5 2 7q0 2 3 7q1 3 6 5q3 1 4.5 1t3.5 1q2 0 3.5 -0.5t3.5 -0.5q5 -2 6 -4q3 -1 6 -7q4 -4 4 -7q0 -5 -2 -7t-2.5 -4 t-1.5 -3q-1 -2 -3 -3t-4 -3q-6 -2 -7 -2q-5 0 -7 1q-5 0 -9 4q-3 3 -4 8q0 2 -1 3.5t-1 3.5zM1365 85v9t2 9q1 9 5 19q3 4 5 8t6 8q3 4 7.5 7t9.5 7q7 4 13 7q4 2 7.5 2.5t9.5 2.5h17q5 0 9 -1t7 -2l-1 -14q-2 -4 -3 -7l-3 -3l-3 -3q-8 -4 -13 -4q-7 0 -12 -2q-5 -1 -12 -4 q-7 -4 -10 -11q-5 -8 -5 -15q-2 -8 0 -16q2 -10 6 -14q2 -6 11 -12q3 -3 6.5 -4t8.5 -3q6 -2 15 0q4 0 7 2t7 4q3 2 5 4.5t6 5.5l6 9q2 7 7 11q2 2 4 2t4 1h8l12 -2q-1 -5 -2 -9.5t-3 -8.5q-1 -5 -6 -16q-3 -8 -10 -13q-7 -7 -11 -10l-10 -6t-10 -4q-8 -4 -18 -4 q-5 -1 -9.5 -0.5t-10.5 1.5q-3 2 -7.5 2.5t-9.5 3.5q-4 3 -8 5.5t-7 6.5l-8 6t-7 7q-2 5 -4 9.5t-4 10.5q-1 4 -1.5 8.5t-2.5 9.5zM1444 1307q0 16 4 28q5 16 14 25q7 10 17 13q3 3 7 5l8 4q5 2 9.5 2t9.5 1h10t10 -1q9 -2 18 -6q7 -3 16 -11q4 -3 8 -6.5t6 -8.5q6 -7 7 -17 q4 -8 4 -18v-9.5t-1 -10.5q-2 -5 -3 -9.5t-3 -8.5q-5 -10 -11 -15q-4 -5 -7 -9t-7 -7q-5 -2 -9.5 -4t-9.5 -3q-9 -3 -18 -3h-10t-10 1q-3 1 -7.5 2t-9.5 4q-5 2 -8.5 4.5t-9.5 4.5q-5 7 -9.5 13t-7.5 12q-2 7 -4 13.5t-3 14.5zM1463 1309q0 -6 1.5 -11t3.5 -10q4 -5 7 -9.5 t7 -7.5q5 -4 9.5 -6t9.5 -5q11 -3 20 -3q13 0 20 7q5 2 9.5 5t9.5 6q8 9 9 19q5 9 3 21q0 5 -1 10t-4 10q-2 5 -5 9t-8 8q-4 4 -9 6.5t-10 4.5t-10 2.5t-11 0.5q-5 0 -10 -2l-10 -4q-9 -5 -15 -12q-9 -9 -13 -19q-2 -5 -2.5 -10t-0.5 -10zM1474 169v9t0.5 10t1.5 10t3 9t4 9 q3 3 5.5 7t6.5 7q4 4 8 7.5t8 6.5q4 2 8.5 3.5t9.5 2.5q5 2 9 2h9h10t10 -2q5 -1 9.5 -2.5t8.5 -3.5q5 -3 8 -6.5t9 -7.5q3 -4 5.5 -7.5t5.5 -8.5q2 -4 3.5 -8t3.5 -9q1 -5 1 -10v-10q0 -7 -2 -17q-1 -5 -3 -10t-4 -9q-4 -8 -13 -16q-4 -4 -7.5 -6.5t-7.5 -4.5q-5 -2 -9 -4 t-9 -4q-9 -3 -20 -3q-9 0 -18 3q-5 1 -9.5 3.5t-9.5 4.5q-3 2 -7 5l-8 6q-4 4 -6.5 7.5t-5.5 8.5q-2 5 -3.5 9.5t-2.5 9.5q-2 5 -2 9zM1507 178q0 -10 2 -14t4.5 -7.5t5.5 -6.5t6.5 -5.5t7.5 -4.5q6 -2 14 -2q11 0 16 2q4 1 7 3.5t6 6.5q8 6 9 12q3 7 3 15q0 7 -3 16 q-1 7 -9 13q-6 7 -13 10q-6 3 -16 3q-4 0 -7 -0.5t-7 -1.5q-4 -2 -7.5 -4t-6.5 -6q-5 -4 -10 -13q-2 -3 -2 -7.5v-8.5zM1530 1200l117 88l11 -13q2 -4 3 -7v-8l-43 -123q0 -1 -0.5 -1t-0.5 -1t-1 -1t-1 -1l-1 -3l97 72l12 -15l-116 -87l-10 12q-3 2 -5 7q0 5 1 7l42 125 q0 1 1 1t1 1l1 1q1 2 2 3l-98 -71zM1546 278l14 19q3 5 9 8q3 1 6.5 1h5.5l86 -13l-48 72q-2 4 -3 6.5t-1 5.5q0 4 1 6.5t3 5.5l13 20l123 -79l-18 -30l-60 38l42 -63l-15 -24l-73 13l57 -38l-20 -28zM1614 1082l130 67l8 -16l-112 -59l30 -55l-18 -10zM1660 985l58 23l2 1 l4 2q0 2 0.5 2.5t0.5 1.5q3 0 4 2l48 75l3 -13q2 -4 2.5 -7t0.5 -5q-1 -2 -2 -4.5t-2 -4.5l-32 -48l-2 -2l-1 -1h2q0 1 3 0l55 -17q2 -1 4.5 -2t5.5 -3q4 -2 5 -8l5 -13l-84 24q-2 0 -3 1h-4h-4q-3 0 -5 -1l-57 -21z" />
<glyph unicode="3" horiz-adv-x="2042" d="M197 983l18 48q3 10 8 16q7 9 16 11q4 2 7.5 3t8.5 1t9 -0.5t9 -1.5q9 -4 15 -11q5 -2 6.5 -6t3.5 -8t3 -8.5t2 -7.5q0 -9 -3 -19l-10 -30l50 -19l-7 -19zM222 994l48 -17l12 31q0 2 0.5 4.5t0.5 4.5q0 3 -0.5 5t-1.5 5q-1 2 -3 4l-4 4q-3 3 -7 5q-3 1 -6 1h-5 q-3 0 -5 -0.5t-4 -1.5q-2 -2 -4 -2.5t-4 -2.5l-6 -9zM244 1101l43 79l17 -11l-34 -60l37 -20l28 50l17 -10l-27 -49l37 -22l34 61l18 -9l-43 -79zM248 351l13 7q9 6 17 4l101 -10l-32 55l29 16l56 -97l-13 -8q-6 -2 -7 -2q-3 -2 -9 -2l-101 12l33 -56l-29 -17zM306 1209 l31 42q4 2 7 5.5t6 5.5q4 3 7.5 4t8.5 2h8t8 -1q9 -2 15 -9q3 -2 5 -4.5t5 -5.5q2 -2 3.5 -5l2.5 -5q1 -5 1 -8v-6q0 -6 -2 -13l76 -2l-7 -11q-3 -4 -8 -6q-3 -1 -5 -2t-4 -1l-65 2l-13 -17l48 -37l-12 -17zM329 222l111 94l64 -75l-26 -21l-42 47l-15 -14l32 -37l-26 -22 l-32 37l-19 -14l40 -47l-25 -23zM334 1213l36 -27l19 26q2 1 2.5 3.5t2.5 4.5v8q0 2 -1 4t-2 5q-4 4 -6 5q-4 4 -8 4q-2 1 -8 1q-2 -1 -4.5 -1t-4.5 -1q-4 -2 -6 -6zM364 732q0 91 23.5 175t66.5 156t102 130t131 99t153.5 63.5t167.5 22.5q139 0 256.5 -53t203.5 -142.5 t134.5 -206.5t48.5 -244q0 -116 -37 -216t-100.5 -180t-149.5 -136.5t-184 -86.5q-42 -11 -84 -17.5t-88 -6.5q-91 0 -174.5 23.5t-155.5 66.5t-130 102.5t-98.5 130.5t-63 152.5t-22.5 167.5zM401 1312q2 11 6 15q2 5 8 13q6 5 11 7q4 4 10 4q10 2 13 2q7 0 10 -1l-1 -6 q0 -3 -4 -10q-4 -4 -8 -4q-4 -1 -6 -1t-4 -1t-5 -4q-4 -3 -6 -7q-3 -3 -3 -8v-7q1 -3 4 -7t6 -5h6q3 0 9 2q3 2 6 2.5t7 2.5q2 1 3.5 2.5t2.5 1.5q2 1 8 3q4 0 7 3q1 0 2.5 0.5t3.5 0.5q20 2 33 -13q10 -6 11 -16q1 -5 2 -8t1 -8q-1 -5 -2.5 -10t-3.5 -9q-2 -5 -5.5 -8.5 t-5.5 -6.5q-13 -12 -32 -16h-6q-3 2 -6 3q-2 0 -3.5 0.5t-2.5 0.5t-1 0.5t-1 0.5l1 5q1 2 1.5 3.5t1.5 3.5q8 5 12 5h3q3 0 10 2q4 1 10 6q2 2 2.5 4t2.5 4q3 4 3 12q2 4 0 9q0 3 -1.5 5t-3.5 4q-3 5 -9 5q-5 3 -10 0q-6 0 -9 -3q-8 -2 -11 -5q-4 -1 -14 -5q-4 -2 -8.5 -2 t-6.5 -1q-10 0 -14 1q-3 2 -7 4t-6 6q-7 6 -10 14q-2 9 -1 15zM418 732q0 -80 20.5 -154.5t58.5 -140.5t91 -121t118.5 -94.5t142 -61.5t159.5 -22q122 0 230 46.5t188 127t126.5 188.5t46.5 232q0 109 -34.5 202.5t-94 167.5t-139 125t-168.5 76q-35 11 -73.5 16.5 t-81.5 5.5q-85 0 -162 -22t-142.5 -61.5t-118.5 -94.5t-90 -120.5t-57 -140.5t-20 -154zM449 94l71 85l-32 27l23 25l88 -74l-20 -25l-32 27l-73 -87zM476 732q0 98 31 182.5t89 155.5h707l-694 -695q-63 72 -98 163t-35 194zM494.5 1373.5q0.5 4.5 0.5 9.5q2 5 3.5 10 t3.5 9q2 5 4.5 8t5.5 8q6 6 15 13q8 7 18 8q9 4 19 4q9 3 20 0q5 -1 8 -2.5t8 -3.5t9 -4.5t8 -6.5q4 -3 7 -6.5t7 -8.5q2 -4 4.5 -8t3.5 -9q4 -9 4 -19q2 -10 0 -19q-1 -5 -2.5 -9.5t-3.5 -9.5q-5 -10 -11 -16q-4 -3 -7 -6.5t-8 -5.5q-14 -10 -26 -12q-15 -4 -30 0 q-7 1 -13 4t-14 6q-12 8 -20 20q-2 4 -4.5 8.5t-3.5 10.5q-5 10 -5 18q-1 5 -0.5 9.5zM502 46l130 92l23 -16l-19 -156l-22 11q-1 3 -4 5q-3 3 -3 5q-2 4 -2 6v6l2 17l-48 29l-14 -10q-1 -1 -2.5 -1t-2.5 -1h-6q-2 -1 -4 -0.5t-3 0.5q-2 1 -4 1t-3 1zM515 1359q2 -5 3.5 -10 t6.5 -10q4 -10 15 -15q8 -5 19 -7q10 -3 22 0q10 2 18 8q11 6 15 15q3 5 5 9.5t4 9.5q1 11 0 22q-2 4 -4 9t-6 10q-5 9 -15 15q-10 7 -18 8q-11 2 -21 0q-11 -2 -20 -9q-9 -6 -16 -15q-3 -5 -4.5 -10t-3.5 -10q-2 -9 0 -20zM590 67l22 -15l2 28q0 1 1 1.5t1 1.5q0 2 0.5 2 t0.5 1t0.5 1.5t0.5 1.5l-2 -2q-4 -2 -3 -2l-1 -2q0 -1 -1 -1zM624 1489l14 6q4 2 8 2q5 0 6 -2l112 -72l1 -1q1 -2 1 -3q2 0 2 -0.5t1 -0.5l-47 112l19 7l56 -134l-15 -6q-4 -1 -8 -1q-5 0 -8 1l-109 71q-2 0 -2 0.5t-2 0.5q0 2 -1 4q-1 0 -1 1v2l47 -114l-19 -8zM649 1129 q73 65 164 101.5t195 36.5q103 0 193.5 -37t159.5 -101h-712zM651 334h716q-74 -61 -165 -98t-194 -37t-193 36.5t-164 98.5zM655 -41l55 134l89 -35l-11 -30l-59 21l-8 -21l48 -20l-13 -32l-48 20l-19 -50zM711 391l693 701q68 -84 101.5 -173t33.5 -187t-31 -183.5 t-88 -157.5h-709zM778 -23.5q0 5.5 2 10.5q1 8 6 19q6 6 12 14q3 4 6.5 7.5l6.5 6.5q5 3 9 4.5t9 3.5q4 2 9.5 2.5t10.5 1.5h9.5t9.5 -2t10 -3t9 -3q10 -5 16 -10q4 -4 7 -7.5t5 -7.5q7 -8 9 -18q2 -5 3 -9t2 -10v-9.5t-1 -9.5q-1 -10 -7 -19l-6 -8l-6 -8q-4 -7 -13 -12 q-5 -2 -9 -4t-9 -4t-9.5 -3t-9.5 -1h-9.5t-11.5 2q-5 1 -9 2t-9 3q-4 2 -8 4.5t-8 6.5q-4 3 -6.5 7t-5.5 7q-2 4 -5 8.5t-5 8.5q-2 12 -4 19v10.5zM797 1404l33 156l20 3l90 -130l-11 -2q-2 -1 -4 -0.5t-4 0.5q-5 1 -8 6l-14 20l-73 -14l-5 -25q-2 -5 -5 -8q-1 -2 -3.5 -3 t-4.5 -1zM815 -20q-1 -9 0 -17q1 -3 2 -6.5t3 -7.5q4 -6 10 -11q3 -2 7.5 -3.5t9.5 -2.5q6 -3 14 0q9 1 15 5q7 6 11 12q2 4 4 7.5t3 6.5q2 8 0 18q-1 5 -7 13q-2 4 -4.5 6.5l-5.5 5.5q-4 2 -7.5 3t-8.5 3q-8 2 -14 0q-5 -2 -8.5 -3t-8.5 -3q-2 -2 -4.5 -5t-4.5 -7 q-4 -4 -6 -14zM830 1464l57 12l-38 54q-2 2 -2 4t-2 4v-4v-4zM936 1576l19 1l6 -126l64 3l1 -21l-85 -3zM939 29h15h14q7 0 9 -1q4 -3 5 -5l51 -73q1 -1 1 -2t1 -2q0 -2 1 -2.5t1 -1.5q0 -4 1 -5l-3 93h36l1 -146l-31 -1l-66 98l1 -98l-35 -1zM1082 32l115 20l6 -32l-40 -8 l22 -109l-34 -6l-21 109l-41 -8zM1085 1471q0 10 1 16l15 87l20 -4l-15 -87q-2 -8 0 -16q1 -3 2.5 -6.5t3.5 -5.5q2 -3 4.5 -5.5l4.5 -4.5l8 -4t8 -3q10 0 14 1q5 0 8 2l6 4q6 4 11 10q2 3 3.5 6.5t3.5 7.5l14 87l21 -2l-18 -89q-1 -3 -1.5 -6.5t-2.5 -7.5l-3.5 -7t-3.5 -6 q-3 -2 -6.5 -4.5t-5.5 -5.5q-5 -4 -13 -6q-4 -2 -8 -2.5t-7 -1.5q-10 0 -15 1q-5 0 -8.5 1.5t-7.5 3.5q-4 1 -6.5 3.5t-5.5 4.5q-7 5 -11 11q-2 5 -6 13q-3 7 -4 15zM1203 1430v3l6 2q4 0 8 -2q6 -1 9 -8v-1l3 -4.5t3 -3.5q4 -2 6 -3.5t5 -2.5q2 0 4.5 -0.5t4.5 -0.5h6.5 t5.5 1q7 2 9 5q5 5 6 9q3 6 0 11q0 2 -1 4l-2 4q-2 2 -3.5 4t-3.5 4q-2 1 -4 2.5t-7 3.5q-2 3 -5 5.5t-5 5.5q-3 2 -5 5.5t-4 7.5q-2 2 -3.5 5t-1.5 6q-2 7 3 17q1 8 7 15q7 6 13 7q5 2 9 2.5t7 0.5q4 0 8 -1t9 -2q4 -1 9 -6q5 -4 10 -9q2 -2 4 -4.5t3 -4.5q1 -3 1.5 -5 t1.5 -4l-6 -3q-5 -2 -10 0q-6 4 -8 6q-1 2 -2.5 3.5t-2.5 3.5q-2 1 -4 1.5t-4 1.5q-3 2 -9 2h-7q-3 -3 -8 -4q-3 -3 -3 -6q-3 -5 -1 -8q0 -4 2 -6q1 -2 2.5 -3.5t4.5 -3.5q3 -3 9 -7q2 -2 3 -4t3 -3t3 -2.5t3 -2.5l2.5 -2.5t3.5 -2.5l1.5 -3t2.5 -3q10 -15 4 -34 q-2 -5 -4.5 -9t-4.5 -7q-5 -3 -8.5 -5.5t-7.5 -3.5q-8 -4 -18 -4q-5 0 -9 0.5t-9 1.5q-18 8 -28 23q0 1 -1.5 2.5l-2.5 2.5q0 2 -0.5 3t-0.5 3q-1 1 -1 5zM1217 28v8q1 5 2 8.5t4 7.5q2 5 4.5 7.5l6.5 6.5q7 5 15 8q2 1 5 2t9 1q2 0 5 -1t7 -1q2 -1 5 -1.5t8 -2.5 q2 -2 4.5 -2.5t4.5 -2.5l-6 -12q-1 -3 -3 -7q-3 -1 -5 -1.5t-4 -0.5q-1 -1 -4 -1h-5h-5q-2 0 -3 -2q-4 0 -7 -2q-3 0 -3 -2l-2 -4q0 -1 1 -2q0 -3 3 -4q1 0 1.5 -1t2.5 -1h11h10h9t9 -1q4 -2 7 -2.5t7 -3.5q7 -5 12 -9t7 -14q4 -9 3 -19q0 -6 -2 -9.5t-4 -8.5 q-2 -4 -4.5 -7.5t-7.5 -8.5q-5 -2 -9 -5t-10 -5l-8 -2t-9 -1q-6 -2 -15 2q-8 1 -16 6q-3 2 -6 4.5t-5 6.5l7 10q2 2 4 3q3 3 4 3q3 1 11 1q2 0 3.5 -0.5t3.5 -0.5t3.5 -1t3.5 -1q5 0 7 2q3 0 4 0.5l3 1.5l5 5q2 2 2 8v6l-3 3q-1 1 -5 1q-2 2 -4 2h-4h-10h-7t-9 1q-6 0 -14 2 q-4 2 -7.5 4t-5.5 4q-5 5 -10 15q-2 5 -2 10zM1291 1373l66 130l80 -42l-9 -18l-61 33l-19 -38l50 -26l-10 -18l-51 26l-19 -38l62 -32l-9 -19zM1352 -13q0 5 2 7q0 2 3 7q1 3 6 5q3 1 4.5 1t3.5 1q2 0 3.5 -0.5t3.5 -0.5q5 -2 6 -4q3 -1 6 -7q4 -4 4 -7q0 -5 -2 -7t-2.5 -4 t-1.5 -3q-1 -2 -3 -3t-4 -3q-6 -2 -7 -2q-5 0 -7 1q-5 0 -9 4q-3 3 -4 8q0 2 -1 3.5t-1 3.5zM1365 85v9t2 9q1 9 5 19q3 4 5 8t6 8q3 4 7.5 7t9.5 7q7 4 13 7q4 2 7.5 2.5t9.5 2.5h17q5 0 9 -1t7 -2l-1 -14q-2 -4 -3 -7l-3 -3l-3 -3q-8 -4 -13 -4q-7 0 -12 -2q-5 -1 -12 -4 q-7 -4 -10 -11q-5 -8 -5 -15q-2 -8 0 -16q2 -10 6 -14q2 -6 11 -12q3 -3 6.5 -4t8.5 -3q6 -2 15 0q4 0 7 2t7 4q3 2 5 4.5t6 5.5l6 9q2 7 7 11q2 2 4 2t4 1h8l12 -2q-1 -5 -2 -9.5t-3 -8.5q-1 -5 -6 -16q-3 -8 -10 -13q-7 -7 -11 -10l-10 -6t-10 -4q-8 -4 -18 -4 q-5 -1 -9.5 -0.5t-10.5 1.5q-3 2 -7.5 2.5t-9.5 3.5q-4 3 -8 5.5t-7 6.5l-8 6t-7 7q-2 5 -4 9.5t-4 10.5q-1 4 -1.5 8.5t-2.5 9.5zM1444 1307q0 16 4 28q5 16 14 25q7 10 17 13q3 3 7 5l8 4q5 2 9.5 2t9.5 1h10t10 -1q9 -2 18 -6q7 -3 16 -11q4 -3 8 -6.5t6 -8.5q6 -7 7 -17 q4 -8 4 -18v-9.5t-1 -10.5q-2 -5 -3 -9.5t-3 -8.5q-5 -10 -11 -15q-4 -5 -7 -9t-7 -7q-5 -2 -9.5 -4t-9.5 -3q-9 -3 -18 -3h-10t-10 1q-3 1 -7.5 2t-9.5 4q-5 2 -8.5 4.5t-9.5 4.5q-5 7 -9.5 13t-7.5 12q-2 7 -4 13.5t-3 14.5zM1463 1309q0 -6 1.5 -11t3.5 -10q4 -5 7 -9.5 t7 -7.5q5 -4 9.5 -6t9.5 -5q11 -3 20 -3q13 0 20 7q5 2 9.5 5t9.5 6q8 9 9 19q5 9 3 21q0 5 -1 10t-4 10q-2 5 -5 9t-8 8q-4 4 -9 6.5t-10 4.5t-10 2.5t-11 0.5q-5 0 -10 -2l-10 -4q-9 -5 -15 -12q-9 -9 -13 -19q-2 -5 -2.5 -10t-0.5 -10zM1474 169v9t0.5 10t1.5 10t3 9t4 9 q3 3 5.5 7t6.5 7q4 4 8 7.5t8 6.5q4 2 8.5 3.5t9.5 2.5q5 2 9 2h9h10t10 -2q5 -1 9.5 -2.5t8.5 -3.5q5 -3 8 -6.5t9 -7.5q3 -4 5.5 -7.5t5.5 -8.5q2 -4 3.5 -8t3.5 -9q1 -5 1 -10v-10q0 -7 -2 -17q-1 -5 -3 -10t-4 -9q-4 -8 -13 -16q-4 -4 -7.5 -6.5t-7.5 -4.5q-5 -2 -9 -4 t-9 -4q-9 -3 -20 -3q-9 0 -18 3q-5 1 -9.5 3.5t-9.5 4.5q-3 2 -7 5l-8 6q-4 4 -6.5 7.5t-5.5 8.5q-2 5 -3.5 9.5t-2.5 9.5q-2 5 -2 9zM1507 178q0 -10 2 -14t4.5 -7.5t5.5 -6.5t6.5 -5.5t7.5 -4.5q6 -2 14 -2q11 0 16 2q4 1 7 3.5t6 6.5q8 6 9 12q3 7 3 15q0 7 -3 16 q-1 7 -9 13q-6 7 -13 10q-6 3 -16 3q-4 0 -7 -0.5t-7 -1.5q-4 -2 -7.5 -4t-6.5 -6q-5 -4 -10 -13q-2 -3 -2 -7.5v-8.5zM1530 1200l117 88l11 -13q2 -4 3 -7v-8l-43 -123q0 -1 -0.5 -1t-0.5 -1t-1 -1t-1 -1l-1 -3l97 72l12 -15l-116 -87l-10 12q-3 2 -5 7q0 5 1 7l42 125 q0 1 1 1t1 1l1 1q1 2 2 3l-98 -71zM1546 278l14 19q3 5 9 8q3 1 6.5 1h5.5l86 -13l-48 72q-2 4 -3 6.5t-1 5.5q0 4 1 6.5t3 5.5l13 20l123 -79l-18 -30l-60 38l42 -63l-15 -24l-73 13l57 -38l-20 -28zM1614 1082l130 67l8 -16l-112 -59l30 -55l-18 -10zM1660 985l58 23l2 1 l4 2q0 2 0.5 2.5t0.5 1.5q3 0 4 2l48 75l3 -13q2 -4 2.5 -7t0.5 -5q-1 -2 -2 -4.5t-2 -4.5l-32 -48l-2 -2l-1 -1h2q0 1 3 0l55 -17q2 -1 4.5 -2t5.5 -3q4 -2 5 -8l5 -13l-84 24q-2 0 -3 1h-4h-4q-3 0 -5 -1l-57 -21z" />
<glyph unicode="4" horiz-adv-x="2042" d="M197 983l18 48q3 10 8 16q7 9 16 11q4 2 7.5 3t8.5 1t9 -0.5t9 -1.5q9 -4 15 -11q5 -2 6.5 -6t3.5 -8t3 -8.5t2 -7.5q0 -9 -3 -19l-10 -30l50 -19l-7 -19zM222 994l48 -17l12 31q0 2 0.5 4.5t0.5 4.5q0 3 -0.5 5t-1.5 5q-1 2 -3 4l-4 4q-3 3 -7 5q-3 1 -6 1h-5 q-3 0 -5 -0.5t-4 -1.5q-2 -2 -4 -2.5t-4 -2.5l-6 -9zM244 1101l43 79l17 -11l-34 -60l37 -20l28 50l17 -10l-27 -49l37 -22l34 61l18 -9l-43 -79zM248 351l13 7q9 6 17 4l101 -10l-32 55l29 16l56 -97l-13 -8q-6 -2 -7 -2q-3 -2 -9 -2l-101 12l33 -56l-29 -17zM306 1209 l31 42q4 2 7 5.5t6 5.5q4 3 7.5 4t8.5 2h8t8 -1q9 -2 15 -9q3 -2 5 -4.5t5 -5.5q2 -2 3.5 -5l2.5 -5q1 -5 1 -8v-6q0 -6 -2 -13l76 -2l-7 -11q-3 -4 -8 -6q-3 -1 -5 -2t-4 -1l-65 2l-13 -17l48 -37l-12 -17zM329 222l111 94l64 -75l-26 -21l-42 47l-15 -14l32 -37l-26 -22 l-32 37l-19 -14l40 -47l-25 -23zM334 1213l36 -27l19 26q2 1 2.5 3.5t2.5 4.5v8q0 2 -1 4t-2 5q-4 4 -6 5q-4 4 -8 4q-2 1 -8 1q-2 -1 -4.5 -1t-4.5 -1q-4 -2 -6 -6zM364 732q0 91 23.5 175t66.5 156t102 130t131 99t153.5 63.5t167.5 22.5q139 0 256.5 -53t203.5 -142.5 t134.5 -206.5t48.5 -244q0 -116 -37 -216t-100.5 -180t-149.5 -136.5t-184 -86.5q-42 -11 -84 -17.5t-88 -6.5q-91 0 -174.5 23.5t-155.5 66.5t-130 102.5t-98.5 130.5t-63 152.5t-22.5 167.5zM401 1312q2 11 6 15q2 5 8 13q6 5 11 7q4 4 10 4q10 2 13 2q7 0 10 -1l-1 -6 q0 -3 -4 -10q-4 -4 -8 -4q-4 -1 -6 -1t-4 -1t-5 -4q-4 -3 -6 -7q-3 -3 -3 -8v-7q1 -3 4 -7t6 -5h6q3 0 9 2q3 2 6 2.5t7 2.5q2 1 3.5 2.5t2.5 1.5q2 1 8 3q4 0 7 3q1 0 2.5 0.5t3.5 0.5q20 2 33 -13q10 -6 11 -16q1 -5 2 -8t1 -8q-1 -5 -2.5 -10t-3.5 -9q-2 -5 -5.5 -8.5 t-5.5 -6.5q-13 -12 -32 -16h-6q-3 2 -6 3q-2 0 -3.5 0.5t-2.5 0.5t-1 0.5t-1 0.5l1 5q1 2 1.5 3.5t1.5 3.5q8 5 12 5h3q3 0 10 2q4 1 10 6q2 2 2.5 4t2.5 4q3 4 3 12q2 4 0 9q0 3 -1.5 5t-3.5 4q-3 5 -9 5q-5 3 -10 0q-6 0 -9 -3q-8 -2 -11 -5q-4 -1 -14 -5q-4 -2 -8.5 -2 t-6.5 -1q-10 0 -14 1q-3 2 -7 4t-6 6q-7 6 -10 14q-2 9 -1 15zM418 732q0 -80 20.5 -154.5t58.5 -140.5t91 -121t118.5 -94.5t142 -61.5t159.5 -22q122 0 230 46.5t188 127t126.5 188.5t46.5 232q0 109 -34.5 202.5t-94 167.5t-139 125t-168.5 76q-35 11 -73.5 16.5 t-81.5 5.5q-85 0 -162 -22t-142.5 -61.5t-118.5 -94.5t-90 -120.5t-57 -140.5t-20 -154zM449 94l71 85l-32 27l23 25l88 -74l-20 -25l-32 27l-73 -87zM476 732q0 98 31 182.5t89 155.5h707l-694 -695q-63 72 -98 163t-35 194zM494.5 1373.5q0.5 4.5 0.5 9.5q2 5 3.5 10 t3.5 9q2 5 4.5 8t5.5 8q6 6 15 13q8 7 18 8q9 4 19 4q9 3 20 0q5 -1 8 -2.5t8 -3.5t9 -4.5t8 -6.5q4 -3 7 -6.5t7 -8.5q2 -4 4.5 -8t3.5 -9q4 -9 4 -19q2 -10 0 -19q-1 -5 -2.5 -9.5t-3.5 -9.5q-5 -10 -11 -16q-4 -3 -7 -6.5t-8 -5.5q-14 -10 -26 -12q-15 -4 -30 0 q-7 1 -13 4t-14 6q-12 8 -20 20q-2 4 -4.5 8.5t-3.5 10.5q-5 10 -5 18q-1 5 -0.5 9.5zM502 46l130 92l23 -16l-19 -156l-22 11q-1 3 -4 5q-3 3 -3 5q-2 4 -2 6v6l2 17l-48 29l-14 -10q-1 -1 -2.5 -1t-2.5 -1h-6q-2 -1 -4 -0.5t-3 0.5q-2 1 -4 1t-3 1zM515 1359q2 -5 3.5 -10 t6.5 -10q4 -10 15 -15q8 -5 19 -7q10 -3 22 0q10 2 18 8q11 6 15 15q3 5 5 9.5t4 9.5q1 11 0 22q-2 4 -4 9t-6 10q-5 9 -15 15q-10 7 -18 8q-11 2 -21 0q-11 -2 -20 -9q-9 -6 -16 -15q-3 -5 -4.5 -10t-3.5 -10q-2 -9 0 -20zM590 67l22 -15l2 28q0 1 1 1.5t1 1.5q0 2 0.5 2 t0.5 1t0.5 1.5t0.5 1.5l-2 -2q-4 -2 -3 -2l-1 -2q0 -1 -1 -1zM624 1489l14 6q4 2 8 2q5 0 6 -2l112 -72l1 -1q1 -2 1 -3q2 0 2 -0.5t1 -0.5l-47 112l19 7l56 -134l-15 -6q-4 -1 -8 -1q-5 0 -8 1l-109 71q-2 0 -2 0.5t-2 0.5q0 2 -1 4q-1 0 -1 1v2l47 -114l-19 -8zM649 1129 q73 65 164 101.5t195 36.5q103 0 193.5 -37t159.5 -101h-712zM651 334h716q-74 -61 -165 -98t-194 -37t-193 36.5t-164 98.5zM655 -41l55 134l89 -35l-11 -30l-59 21l-8 -21l48 -20l-13 -32l-48 20l-19 -50zM711 391l693 701q68 -84 101.5 -173t33.5 -187t-31 -183.5 t-88 -157.5h-709zM778 -23.5q0 5.5 2 10.5q1 8 6 19q6 6 12 14q3 4 6.5 7.5l6.5 6.5q5 3 9 4.5t9 3.5q4 2 9.5 2.5t10.5 1.5h9.5t9.5 -2t10 -3t9 -3q10 -5 16 -10q4 -4 7 -7.5t5 -7.5q7 -8 9 -18q2 -5 3 -9t2 -10v-9.5t-1 -9.5q-1 -10 -7 -19l-6 -8l-6 -8q-4 -7 -13 -12 q-5 -2 -9 -4t-9 -4t-9.5 -3t-9.5 -1h-9.5t-11.5 2q-5 1 -9 2t-9 3q-4 2 -8 4.5t-8 6.5q-4 3 -6.5 7t-5.5 7q-2 4 -5 8.5t-5 8.5q-2 12 -4 19v10.5zM797 1404l33 156l20 3l90 -130l-11 -2q-2 -1 -4 -0.5t-4 0.5q-5 1 -8 6l-14 20l-73 -14l-5 -25q-2 -5 -5 -8q-1 -2 -3.5 -3 t-4.5 -1zM815 -20q-1 -9 0 -17q1 -3 2 -6.5t3 -7.5q4 -6 10 -11q3 -2 7.5 -3.5t9.5 -2.5q6 -3 14 0q9 1 15 5q7 6 11 12q2 4 4 7.5t3 6.5q2 8 0 18q-1 5 -7 13q-2 4 -4.5 6.5l-5.5 5.5q-4 2 -7.5 3t-8.5 3q-8 2 -14 0q-5 -2 -8.5 -3t-8.5 -3q-2 -2 -4.5 -5t-4.5 -7 q-4 -4 -6 -14zM830 1464l57 12l-38 54q-2 2 -2 4t-2 4v-4v-4zM936 1576l19 1l6 -126l64 3l1 -21l-85 -3zM939 29h15h14q7 0 9 -1q4 -3 5 -5l51 -73q1 -1 1 -2t1 -2q0 -2 1 -2.5t1 -1.5q0 -4 1 -5l-3 93h36l1 -146l-31 -1l-66 98l1 -98l-35 -1zM1082 32l115 20l6 -32l-40 -8 l22 -109l-34 -6l-21 109l-41 -8zM1085 1471q0 10 1 16l15 87l20 -4l-15 -87q-2 -8 0 -16q1 -3 2.5 -6.5t3.5 -5.5q2 -3 4.5 -5.5l4.5 -4.5l8 -4t8 -3q10 0 14 1q5 0 8 2l6 4q6 4 11 10q2 3 3.5 6.5t3.5 7.5l14 87l21 -2l-18 -89q-1 -3 -1.5 -6.5t-2.5 -7.5l-3.5 -7t-3.5 -6 q-3 -2 -6.5 -4.5t-5.5 -5.5q-5 -4 -13 -6q-4 -2 -8 -2.5t-7 -1.5q-10 0 -15 1q-5 0 -8.5 1.5t-7.5 3.5q-4 1 -6.5 3.5t-5.5 4.5q-7 5 -11 11q-2 5 -6 13q-3 7 -4 15zM1203 1430v3l6 2q4 0 8 -2q6 -1 9 -8v-1l3 -4.5t3 -3.5q4 -2 6 -3.5t5 -2.5q2 0 4.5 -0.5t4.5 -0.5h6.5 t5.5 1q7 2 9 5q5 5 6 9q3 6 0 11q0 2 -1 4l-2 4q-2 2 -3.5 4t-3.5 4q-2 1 -4 2.5t-7 3.5q-2 3 -5 5.5t-5 5.5q-3 2 -5 5.5t-4 7.5q-2 2 -3.5 5t-1.5 6q-2 7 3 17q1 8 7 15q7 6 13 7q5 2 9 2.5t7 0.5q4 0 8 -1t9 -2q4 -1 9 -6q5 -4 10 -9q2 -2 4 -4.5t3 -4.5q1 -3 1.5 -5 t1.5 -4l-6 -3q-5 -2 -10 0q-6 4 -8 6q-1 2 -2.5 3.5t-2.5 3.5q-2 1 -4 1.5t-4 1.5q-3 2 -9 2h-7q-3 -3 -8 -4q-3 -3 -3 -6q-3 -5 -1 -8q0 -4 2 -6q1 -2 2.5 -3.5t4.5 -3.5q3 -3 9 -7q2 -2 3 -4t3 -3t3 -2.5t3 -2.5l2.5 -2.5t3.5 -2.5l1.5 -3t2.5 -3q10 -15 4 -34 q-2 -5 -4.5 -9t-4.5 -7q-5 -3 -8.5 -5.5t-7.5 -3.5q-8 -4 -18 -4q-5 0 -9 0.5t-9 1.5q-18 8 -28 23q0 1 -1.5 2.5l-2.5 2.5q0 2 -0.5 3t-0.5 3q-1 1 -1 5zM1217 28v8q1 5 2 8.5t4 7.5q2 5 4.5 7.5l6.5 6.5q7 5 15 8q2 1 5 2t9 1q2 0 5 -1t7 -1q2 -1 5 -1.5t8 -2.5 q2 -2 4.5 -2.5t4.5 -2.5l-6 -12q-1 -3 -3 -7q-3 -1 -5 -1.5t-4 -0.5q-1 -1 -4 -1h-5h-5q-2 0 -3 -2q-4 0 -7 -2q-3 0 -3 -2l-2 -4q0 -1 1 -2q0 -3 3 -4q1 0 1.5 -1t2.5 -1h11h10h9t9 -1q4 -2 7 -2.5t7 -3.5q7 -5 12 -9t7 -14q4 -9 3 -19q0 -6 -2 -9.5t-4 -8.5 q-2 -4 -4.5 -7.5t-7.5 -8.5q-5 -2 -9 -5t-10 -5l-8 -2t-9 -1q-6 -2 -15 2q-8 1 -16 6q-3 2 -6 4.5t-5 6.5l7 10q2 2 4 3q3 3 4 3q3 1 11 1q2 0 3.5 -0.5t3.5 -0.5t3.5 -1t3.5 -1q5 0 7 2q3 0 4 0.5l3 1.5l5 5q2 2 2 8v6l-3 3q-1 1 -5 1q-2 2 -4 2h-4h-10h-7t-9 1q-6 0 -14 2 q-4 2 -7.5 4t-5.5 4q-5 5 -10 15q-2 5 -2 10zM1291 1373l66 130l80 -42l-9 -18l-61 33l-19 -38l50 -26l-10 -18l-51 26l-19 -38l62 -32l-9 -19zM1352 -13q0 5 2 7q0 2 3 7q1 3 6 5q3 1 4.5 1t3.5 1q2 0 3.5 -0.5t3.5 -0.5q5 -2 6 -4q3 -1 6 -7q4 -4 4 -7q0 -5 -2 -7t-2.5 -4 t-1.5 -3q-1 -2 -3 -3t-4 -3q-6 -2 -7 -2q-5 0 -7 1q-5 0 -9 4q-3 3 -4 8q0 2 -1 3.5t-1 3.5zM1365 85v9t2 9q1 9 5 19q3 4 5 8t6 8q3 4 7.5 7t9.5 7q7 4 13 7q4 2 7.5 2.5t9.5 2.5h17q5 0 9 -1t7 -2l-1 -14q-2 -4 -3 -7l-3 -3l-3 -3q-8 -4 -13 -4q-7 0 -12 -2q-5 -1 -12 -4 q-7 -4 -10 -11q-5 -8 -5 -15q-2 -8 0 -16q2 -10 6 -14q2 -6 11 -12q3 -3 6.5 -4t8.5 -3q6 -2 15 0q4 0 7 2t7 4q3 2 5 4.5t6 5.5l6 9q2 7 7 11q2 2 4 2t4 1h8l12 -2q-1 -5 -2 -9.5t-3 -8.5q-1 -5 -6 -16q-3 -8 -10 -13q-7 -7 -11 -10l-10 -6t-10 -4q-8 -4 -18 -4 q-5 -1 -9.5 -0.5t-10.5 1.5q-3 2 -7.5 2.5t-9.5 3.5q-4 3 -8 5.5t-7 6.5l-8 6t-7 7q-2 5 -4 9.5t-4 10.5q-1 4 -1.5 8.5t-2.5 9.5zM1444 1307q0 16 4 28q5 16 14 25q7 10 17 13q3 3 7 5l8 4q5 2 9.5 2t9.5 1h10t10 -1q9 -2 18 -6q7 -3 16 -11q4 -3 8 -6.5t6 -8.5q6 -7 7 -17 q4 -8 4 -18v-9.5t-1 -10.5q-2 -5 -3 -9.5t-3 -8.5q-5 -10 -11 -15q-4 -5 -7 -9t-7 -7q-5 -2 -9.5 -4t-9.5 -3q-9 -3 -18 -3h-10t-10 1q-3 1 -7.5 2t-9.5 4q-5 2 -8.5 4.5t-9.5 4.5q-5 7 -9.5 13t-7.5 12q-2 7 -4 13.5t-3 14.5zM1463 1309q0 -6 1.5 -11t3.5 -10q4 -5 7 -9.5 t7 -7.5q5 -4 9.5 -6t9.5 -5q11 -3 20 -3q13 0 20 7q5 2 9.5 5t9.5 6q8 9 9 19q5 9 3 21q0 5 -1 10t-4 10q-2 5 -5 9t-8 8q-4 4 -9 6.5t-10 4.5t-10 2.5t-11 0.5q-5 0 -10 -2l-10 -4q-9 -5 -15 -12q-9 -9 -13 -19q-2 -5 -2.5 -10t-0.5 -10zM1474 169v9t0.5 10t1.5 10t3 9t4 9 q3 3 5.5 7t6.5 7q4 4 8 7.5t8 6.5q4 2 8.5 3.5t9.5 2.5q5 2 9 2h9h10t10 -2q5 -1 9.5 -2.5t8.5 -3.5q5 -3 8 -6.5t9 -7.5q3 -4 5.5 -7.5t5.5 -8.5q2 -4 3.5 -8t3.5 -9q1 -5 1 -10v-10q0 -7 -2 -17q-1 -5 -3 -10t-4 -9q-4 -8 -13 -16q-4 -4 -7.5 -6.5t-7.5 -4.5q-5 -2 -9 -4 t-9 -4q-9 -3 -20 -3q-9 0 -18 3q-5 1 -9.5 3.5t-9.5 4.5q-3 2 -7 5l-8 6q-4 4 -6.5 7.5t-5.5 8.5q-2 5 -3.5 9.5t-2.5 9.5q-2 5 -2 9zM1507 178q0 -10 2 -14t4.5 -7.5t5.5 -6.5t6.5 -5.5t7.5 -4.5q6 -2 14 -2q11 0 16 2q4 1 7 3.5t6 6.5q8 6 9 12q3 7 3 15q0 7 -3 16 q-1 7 -9 13q-6 7 -13 10q-6 3 -16 3q-4 0 -7 -0.5t-7 -1.5q-4 -2 -7.5 -4t-6.5 -6q-5 -4 -10 -13q-2 -3 -2 -7.5v-8.5zM1530 1200l117 88l11 -13q2 -4 3 -7v-8l-43 -123q0 -1 -0.5 -1t-0.5 -1t-1 -1t-1 -1l-1 -3l97 72l12 -15l-116 -87l-10 12q-3 2 -5 7q0 5 1 7l42 125 q0 1 1 1t1 1l1 1q1 2 2 3l-98 -71zM1546 278l14 19q3 5 9 8q3 1 6.5 1h5.5l86 -13l-48 72q-2 4 -3 6.5t-1 5.5q0 4 1 6.5t3 5.5l13 20l123 -79l-18 -30l-60 38l42 -63l-15 -24l-73 13l57 -38l-20 -28zM1614 1082l130 67l8 -16l-112 -59l30 -55l-18 -10zM1660 985l58 23l2 1 l4 2q0 2 0.5 2.5t0.5 1.5q3 0 4 2l48 75l3 -13q2 -4 2.5 -7t0.5 -5q-1 -2 -2 -4.5t-2 -4.5l-32 -48l-2 -2l-1 -1h2q0 1 3 0l55 -17q2 -1 4.5 -2t5.5 -3q4 -2 5 -8l5 -13l-84 24q-2 0 -3 1h-4h-4q-3 0 -5 -1l-57 -21z" />
<glyph unicode="5" horiz-adv-x="2042" d="M197 983l18 48q3 10 8 16q7 9 16 11q4 2 7.5 3t8.5 1t9 -0.5t9 -1.5q9 -4 15 -11q5 -2 6.5 -6t3.5 -8t3 -8.5t2 -7.5q0 -9 -3 -19l-10 -30l50 -19l-7 -19zM222 994l48 -17l12 31q0 2 0.5 4.5t0.5 4.5q0 3 -0.5 5t-1.5 5q-1 2 -3 4l-4 4q-3 3 -7 5q-3 1 -6 1h-5 q-3 0 -5 -0.5t-4 -1.5q-2 -2 -4 -2.5t-4 -2.5l-6 -9zM244 1101l43 79l17 -11l-34 -60l37 -20l28 50l17 -10l-27 -49l37 -22l34 61l18 -9l-43 -79zM248 351l13 7q9 6 17 4l101 -10l-32 55l29 16l56 -97l-13 -8q-6 -2 -7 -2q-3 -2 -9 -2l-101 12l33 -56l-29 -17zM306 1209 l31 42q4 2 7 5.5t6 5.5q4 3 7.5 4t8.5 2h8t8 -1q9 -2 15 -9q3 -2 5 -4.5t5 -5.5q2 -2 3.5 -5l2.5 -5q1 -5 1 -8v-6q0 -6 -2 -13l76 -2l-7 -11q-3 -4 -8 -6q-3 -1 -5 -2t-4 -1l-65 2l-13 -17l48 -37l-12 -17zM329 222l111 94l64 -75l-26 -21l-42 47l-15 -14l32 -37l-26 -22 l-32 37l-19 -14l40 -47l-25 -23zM334 1213l36 -27l19 26q2 1 2.5 3.5t2.5 4.5v8q0 2 -1 4t-2 5q-4 4 -6 5q-4 4 -8 4q-2 1 -8 1q-2 -1 -4.5 -1t-4.5 -1q-4 -2 -6 -6zM364 732q0 91 23.5 175t66.5 156t102 130t131 99t153.5 63.5t167.5 22.5q139 0 256.5 -53t203.5 -142.5 t134.5 -206.5t48.5 -244q0 -116 -37 -216t-100.5 -180t-149.5 -136.5t-184 -86.5q-42 -11 -84 -17.5t-88 -6.5q-91 0 -174.5 23.5t-155.5 66.5t-130 102.5t-98.5 130.5t-63 152.5t-22.5 167.5zM401 1312q2 11 6 15q2 5 8 13q6 5 11 7q4 4 10 4q10 2 13 2q7 0 10 -1l-1 -6 q0 -3 -4 -10q-4 -4 -8 -4q-4 -1 -6 -1t-4 -1t-5 -4q-4 -3 -6 -7q-3 -3 -3 -8v-7q1 -3 4 -7t6 -5h6q3 0 9 2q3 2 6 2.5t7 2.5q2 1 3.5 2.5t2.5 1.5q2 1 8 3q4 0 7 3q1 0 2.5 0.5t3.5 0.5q20 2 33 -13q10 -6 11 -16q1 -5 2 -8t1 -8q-1 -5 -2.5 -10t-3.5 -9q-2 -5 -5.5 -8.5 t-5.5 -6.5q-13 -12 -32 -16h-6q-3 2 -6 3q-2 0 -3.5 0.5t-2.5 0.5t-1 0.5t-1 0.5l1 5q1 2 1.5 3.5t1.5 3.5q8 5 12 5h3q3 0 10 2q4 1 10 6q2 2 2.5 4t2.5 4q3 4 3 12q2 4 0 9q0 3 -1.5 5t-3.5 4q-3 5 -9 5q-5 3 -10 0q-6 0 -9 -3q-8 -2 -11 -5q-4 -1 -14 -5q-4 -2 -8.5 -2 t-6.5 -1q-10 0 -14 1q-3 2 -7 4t-6 6q-7 6 -10 14q-2 9 -1 15zM418 732q0 -80 20.5 -154.5t58.5 -140.5t91 -121t118.5 -94.5t142 -61.5t159.5 -22q122 0 230 46.5t188 127t126.5 188.5t46.5 232q0 109 -34.5 202.5t-94 167.5t-139 125t-168.5 76q-35 11 -73.5 16.5 t-81.5 5.5q-85 0 -162 -22t-142.5 -61.5t-118.5 -94.5t-90 -120.5t-57 -140.5t-20 -154zM449 94l71 85l-32 27l23 25l88 -74l-20 -25l-32 27l-73 -87zM476 732q0 98 31 182.5t89 155.5h707l-694 -695q-63 72 -98 163t-35 194zM494.5 1373.5q0.5 4.5 0.5 9.5q2 5 3.5 10 t3.5 9q2 5 4.5 8t5.5 8q6 6 15 13q8 7 18 8q9 4 19 4q9 3 20 0q5 -1 8 -2.5t8 -3.5t9 -4.5t8 -6.5q4 -3 7 -6.5t7 -8.5q2 -4 4.5 -8t3.5 -9q4 -9 4 -19q2 -10 0 -19q-1 -5 -2.5 -9.5t-3.5 -9.5q-5 -10 -11 -16q-4 -3 -7 -6.5t-8 -5.5q-14 -10 -26 -12q-15 -4 -30 0 q-7 1 -13 4t-14 6q-12 8 -20 20q-2 4 -4.5 8.5t-3.5 10.5q-5 10 -5 18q-1 5 -0.5 9.5zM502 46l130 92l23 -16l-19 -156l-22 11q-1 3 -4 5q-3 3 -3 5q-2 4 -2 6v6l2 17l-48 29l-14 -10q-1 -1 -2.5 -1t-2.5 -1h-6q-2 -1 -4 -0.5t-3 0.5q-2 1 -4 1t-3 1zM515 1359q2 -5 3.5 -10 t6.5 -10q4 -10 15 -15q8 -5 19 -7q10 -3 22 0q10 2 18 8q11 6 15 15q3 5 5 9.5t4 9.5q1 11 0 22q-2 4 -4 9t-6 10q-5 9 -15 15q-10 7 -18 8q-11 2 -21 0q-11 -2 -20 -9q-9 -6 -16 -15q-3 -5 -4.5 -10t-3.5 -10q-2 -9 0 -20zM590 67l22 -15l2 28q0 1 1 1.5t1 1.5q0 2 0.5 2 t0.5 1t0.5 1.5t0.5 1.5l-2 -2q-4 -2 -3 -2l-1 -2q0 -1 -1 -1zM624 1489l14 6q4 2 8 2q5 0 6 -2l112 -72l1 -1q1 -2 1 -3q2 0 2 -0.5t1 -0.5l-47 112l19 7l56 -134l-15 -6q-4 -1 -8 -1q-5 0 -8 1l-109 71q-2 0 -2 0.5t-2 0.5q0 2 -1 4q-1 0 -1 1v2l47 -114l-19 -8zM649 1129 q73 65 164 101.5t195 36.5q103 0 193.5 -37t159.5 -101h-712zM651 334h716q-74 -61 -165 -98t-194 -37t-193 36.5t-164 98.5zM655 -41l55 134l89 -35l-11 -30l-59 21l-8 -21l48 -20l-13 -32l-48 20l-19 -50zM711 391l693 701q68 -84 101.5 -173t33.5 -187t-31 -183.5 t-88 -157.5h-709zM778 -23.5q0 5.5 2 10.5q1 8 6 19q6 6 12 14q3 4 6.5 7.5l6.5 6.5q5 3 9 4.5t9 3.5q4 2 9.5 2.5t10.5 1.5h9.5t9.5 -2t10 -3t9 -3q10 -5 16 -10q4 -4 7 -7.5t5 -7.5q7 -8 9 -18q2 -5 3 -9t2 -10v-9.5t-1 -9.5q-1 -10 -7 -19l-6 -8l-6 -8q-4 -7 -13 -12 q-5 -2 -9 -4t-9 -4t-9.5 -3t-9.5 -1h-9.5t-11.5 2q-5 1 -9 2t-9 3q-4 2 -8 4.5t-8 6.5q-4 3 -6.5 7t-5.5 7q-2 4 -5 8.5t-5 8.5q-2 12 -4 19v10.5zM797 1404l33 156l20 3l90 -130l-11 -2q-2 -1 -4 -0.5t-4 0.5q-5 1 -8 6l-14 20l-73 -14l-5 -25q-2 -5 -5 -8q-1 -2 -3.5 -3 t-4.5 -1zM815 -20q-1 -9 0 -17q1 -3 2 -6.5t3 -7.5q4 -6 10 -11q3 -2 7.5 -3.5t9.5 -2.5q6 -3 14 0q9 1 15 5q7 6 11 12q2 4 4 7.5t3 6.5q2 8 0 18q-1 5 -7 13q-2 4 -4.5 6.5l-5.5 5.5q-4 2 -7.5 3t-8.5 3q-8 2 -14 0q-5 -2 -8.5 -3t-8.5 -3q-2 -2 -4.5 -5t-4.5 -7 q-4 -4 -6 -14zM830 1464l57 12l-38 54q-2 2 -2 4t-2 4v-4v-4zM936 1576l19 1l6 -126l64 3l1 -21l-85 -3zM939 29h15h14q7 0 9 -1q4 -3 5 -5l51 -73q1 -1 1 -2t1 -2q0 -2 1 -2.5t1 -1.5q0 -4 1 -5l-3 93h36l1 -146l-31 -1l-66 98l1 -98l-35 -1zM1082 32l115 20l6 -32l-40 -8 l22 -109l-34 -6l-21 109l-41 -8zM1085 1471q0 10 1 16l15 87l20 -4l-15 -87q-2 -8 0 -16q1 -3 2.5 -6.5t3.5 -5.5q2 -3 4.5 -5.5l4.5 -4.5l8 -4t8 -3q10 0 14 1q5 0 8 2l6 4q6 4 11 10q2 3 3.5 6.5t3.5 7.5l14 87l21 -2l-18 -89q-1 -3 -1.5 -6.5t-2.5 -7.5l-3.5 -7t-3.5 -6 q-3 -2 -6.5 -4.5t-5.5 -5.5q-5 -4 -13 -6q-4 -2 -8 -2.5t-7 -1.5q-10 0 -15 1q-5 0 -8.5 1.5t-7.5 3.5q-4 1 -6.5 3.5t-5.5 4.5q-7 5 -11 11q-2 5 -6 13q-3 7 -4 15zM1203 1430v3l6 2q4 0 8 -2q6 -1 9 -8v-1l3 -4.5t3 -3.5q4 -2 6 -3.5t5 -2.5q2 0 4.5 -0.5t4.5 -0.5h6.5 t5.5 1q7 2 9 5q5 5 6 9q3 6 0 11q0 2 -1 4l-2 4q-2 2 -3.5 4t-3.5 4q-2 1 -4 2.5t-7 3.5q-2 3 -5 5.5t-5 5.5q-3 2 -5 5.5t-4 7.5q-2 2 -3.5 5t-1.5 6q-2 7 3 17q1 8 7 15q7 6 13 7q5 2 9 2.5t7 0.5q4 0 8 -1t9 -2q4 -1 9 -6q5 -4 10 -9q2 -2 4 -4.5t3 -4.5q1 -3 1.5 -5 t1.5 -4l-6 -3q-5 -2 -10 0q-6 4 -8 6q-1 2 -2.5 3.5t-2.5 3.5q-2 1 -4 1.5t-4 1.5q-3 2 -9 2h-7q-3 -3 -8 -4q-3 -3 -3 -6q-3 -5 -1 -8q0 -4 2 -6q1 -2 2.5 -3.5t4.5 -3.5q3 -3 9 -7q2 -2 3 -4t3 -3t3 -2.5t3 -2.5l2.5 -2.5t3.5 -2.5l1.5 -3t2.5 -3q10 -15 4 -34 q-2 -5 -4.5 -9t-4.5 -7q-5 -3 -8.5 -5.5t-7.5 -3.5q-8 -4 -18 -4q-5 0 -9 0.5t-9 1.5q-18 8 -28 23q0 1 -1.5 2.5l-2.5 2.5q0 2 -0.5 3t-0.5 3q-1 1 -1 5zM1217 28v8q1 5 2 8.5t4 7.5q2 5 4.5 7.5l6.5 6.5q7 5 15 8q2 1 5 2t9 1q2 0 5 -1t7 -1q2 -1 5 -1.5t8 -2.5 q2 -2 4.5 -2.5t4.5 -2.5l-6 -12q-1 -3 -3 -7q-3 -1 -5 -1.5t-4 -0.5q-1 -1 -4 -1h-5h-5q-2 0 -3 -2q-4 0 -7 -2q-3 0 -3 -2l-2 -4q0 -1 1 -2q0 -3 3 -4q1 0 1.5 -1t2.5 -1h11h10h9t9 -1q4 -2 7 -2.5t7 -3.5q7 -5 12 -9t7 -14q4 -9 3 -19q0 -6 -2 -9.5t-4 -8.5 q-2 -4 -4.5 -7.5t-7.5 -8.5q-5 -2 -9 -5t-10 -5l-8 -2t-9 -1q-6 -2 -15 2q-8 1 -16 6q-3 2 -6 4.5t-5 6.5l7 10q2 2 4 3q3 3 4 3q3 1 11 1q2 0 3.5 -0.5t3.5 -0.5t3.5 -1t3.5 -1q5 0 7 2q3 0 4 0.5l3 1.5l5 5q2 2 2 8v6l-3 3q-1 1 -5 1q-2 2 -4 2h-4h-10h-7t-9 1q-6 0 -14 2 q-4 2 -7.5 4t-5.5 4q-5 5 -10 15q-2 5 -2 10zM1291 1373l66 130l80 -42l-9 -18l-61 33l-19 -38l50 -26l-10 -18l-51 26l-19 -38l62 -32l-9 -19zM1352 -13q0 5 2 7q0 2 3 7q1 3 6 5q3 1 4.5 1t3.5 1q2 0 3.5 -0.5t3.5 -0.5q5 -2 6 -4q3 -1 6 -7q4 -4 4 -7q0 -5 -2 -7t-2.5 -4 t-1.5 -3q-1 -2 -3 -3t-4 -3q-6 -2 -7 -2q-5 0 -7 1q-5 0 -9 4q-3 3 -4 8q0 2 -1 3.5t-1 3.5zM1365 85v9t2 9q1 9 5 19q3 4 5 8t6 8q3 4 7.5 7t9.5 7q7 4 13 7q4 2 7.5 2.5t9.5 2.5h17q5 0 9 -1t7 -2l-1 -14q-2 -4 -3 -7l-3 -3l-3 -3q-8 -4 -13 -4q-7 0 -12 -2q-5 -1 -12 -4 q-7 -4 -10 -11q-5 -8 -5 -15q-2 -8 0 -16q2 -10 6 -14q2 -6 11 -12q3 -3 6.5 -4t8.5 -3q6 -2 15 0q4 0 7 2t7 4q3 2 5 4.5t6 5.5l6 9q2 7 7 11q2 2 4 2t4 1h8l12 -2q-1 -5 -2 -9.5t-3 -8.5q-1 -5 -6 -16q-3 -8 -10 -13q-7 -7 -11 -10l-10 -6t-10 -4q-8 -4 -18 -4 q-5 -1 -9.5 -0.5t-10.5 1.5q-3 2 -7.5 2.5t-9.5 3.5q-4 3 -8 5.5t-7 6.5l-8 6t-7 7q-2 5 -4 9.5t-4 10.5q-1 4 -1.5 8.5t-2.5 9.5zM1444 1307q0 16 4 28q5 16 14 25q7 10 17 13q3 3 7 5l8 4q5 2 9.5 2t9.5 1h10t10 -1q9 -2 18 -6q7 -3 16 -11q4 -3 8 -6.5t6 -8.5q6 -7 7 -17 q4 -8 4 -18v-9.5t-1 -10.5q-2 -5 -3 -9.5t-3 -8.5q-5 -10 -11 -15q-4 -5 -7 -9t-7 -7q-5 -2 -9.5 -4t-9.5 -3q-9 -3 -18 -3h-10t-10 1q-3 1 -7.5 2t-9.5 4q-5 2 -8.5 4.5t-9.5 4.5q-5 7 -9.5 13t-7.5 12q-2 7 -4 13.5t-3 14.5zM1463 1309q0 -6 1.5 -11t3.5 -10q4 -5 7 -9.5 t7 -7.5q5 -4 9.5 -6t9.5 -5q11 -3 20 -3q13 0 20 7q5 2 9.5 5t9.5 6q8 9 9 19q5 9 3 21q0 5 -1 10t-4 10q-2 5 -5 9t-8 8q-4 4 -9 6.5t-10 4.5t-10 2.5t-11 0.5q-5 0 -10 -2l-10 -4q-9 -5 -15 -12q-9 -9 -13 -19q-2 -5 -2.5 -10t-0.5 -10zM1474 169v9t0.5 10t1.5 10t3 9t4 9 q3 3 5.5 7t6.5 7q4 4 8 7.5t8 6.5q4 2 8.5 3.5t9.5 2.5q5 2 9 2h9h10t10 -2q5 -1 9.5 -2.5t8.5 -3.5q5 -3 8 -6.5t9 -7.5q3 -4 5.5 -7.5t5.5 -8.5q2 -4 3.5 -8t3.5 -9q1 -5 1 -10v-10q0 -7 -2 -17q-1 -5 -3 -10t-4 -9q-4 -8 -13 -16q-4 -4 -7.5 -6.5t-7.5 -4.5q-5 -2 -9 -4 t-9 -4q-9 -3 -20 -3q-9 0 -18 3q-5 1 -9.5 3.5t-9.5 4.5q-3 2 -7 5l-8 6q-4 4 -6.5 7.5t-5.5 8.5q-2 5 -3.5 9.5t-2.5 9.5q-2 5 -2 9zM1507 178q0 -10 2 -14t4.5 -7.5t5.5 -6.5t6.5 -5.5t7.5 -4.5q6 -2 14 -2q11 0 16 2q4 1 7 3.5t6 6.5q8 6 9 12q3 7 3 15q0 7 -3 16 q-1 7 -9 13q-6 7 -13 10q-6 3 -16 3q-4 0 -7 -0.5t-7 -1.5q-4 -2 -7.5 -4t-6.5 -6q-5 -4 -10 -13q-2 -3 -2 -7.5v-8.5zM1530 1200l117 88l11 -13q2 -4 3 -7v-8l-43 -123q0 -1 -0.5 -1t-0.5 -1t-1 -1t-1 -1l-1 -3l97 72l12 -15l-116 -87l-10 12q-3 2 -5 7q0 5 1 7l42 125 q0 1 1 1t1 1l1 1q1 2 2 3l-98 -71zM1546 278l14 19q3 5 9 8q3 1 6.5 1h5.5l86 -13l-48 72q-2 4 -3 6.5t-1 5.5q0 4 1 6.5t3 5.5l13 20l123 -79l-18 -30l-60 38l42 -63l-15 -24l-73 13l57 -38l-20 -28zM1614 1082l130 67l8 -16l-112 -59l30 -55l-18 -10zM1660 985l58 23l2 1 l4 2q0 2 0.5 2.5t0.5 1.5q3 0 4 2l48 75l3 -13q2 -4 2.5 -7t0.5 -5q-1 -2 -2 -4.5t-2 -4.5l-32 -48l-2 -2l-1 -1h2q0 1 3 0l55 -17q2 -1 4.5 -2t5.5 -3q4 -2 5 -8l5 -13l-84 24q-2 0 -3 1h-4h-4q-3 0 -5 -1l-57 -21z" />
<glyph unicode="6" horiz-adv-x="2042" d="M197 983l18 48q3 10 8 16q7 9 16 11q4 2 7.5 3t8.5 1t9 -0.5t9 -1.5q9 -4 15 -11q5 -2 6.5 -6t3.5 -8t3 -8.5t2 -7.5q0 -9 -3 -19l-10 -30l50 -19l-7 -19zM222 994l48 -17l12 31q0 2 0.5 4.5t0.5 4.5q0 3 -0.5 5t-1.5 5q-1 2 -3 4l-4 4q-3 3 -7 5q-3 1 -6 1h-5 q-3 0 -5 -0.5t-4 -1.5q-2 -2 -4 -2.5t-4 -2.5l-6 -9zM244 1101l43 79l17 -11l-34 -60l37 -20l28 50l17 -10l-27 -49l37 -22l34 61l18 -9l-43 -79zM248 351l13 7q9 6 17 4l101 -10l-32 55l29 16l56 -97l-13 -8q-6 -2 -7 -2q-3 -2 -9 -2l-101 12l33 -56l-29 -17zM306 1209 l31 42q4 2 7 5.5t6 5.5q4 3 7.5 4t8.5 2h8t8 -1q9 -2 15 -9q3 -2 5 -4.5t5 -5.5q2 -2 3.5 -5l2.5 -5q1 -5 1 -8v-6q0 -6 -2 -13l76 -2l-7 -11q-3 -4 -8 -6q-3 -1 -5 -2t-4 -1l-65 2l-13 -17l48 -37l-12 -17zM329 222l111 94l64 -75l-26 -21l-42 47l-15 -14l32 -37l-26 -22 l-32 37l-19 -14l40 -47l-25 -23zM334 1213l36 -27l19 26q2 1 2.5 3.5t2.5 4.5v8q0 2 -1 4t-2 5q-4 4 -6 5q-4 4 -8 4q-2 1 -8 1q-2 -1 -4.5 -1t-4.5 -1q-4 -2 -6 -6zM364 732q0 91 23.5 175t66.5 156t102 130t131 99t153.5 63.5t167.5 22.5q139 0 256.5 -53t203.5 -142.5 t134.5 -206.5t48.5 -244q0 -116 -37 -216t-100.5 -180t-149.5 -136.5t-184 -86.5q-42 -11 -84 -17.5t-88 -6.5q-91 0 -174.5 23.5t-155.5 66.5t-130 102.5t-98.5 130.5t-63 152.5t-22.5 167.5zM401 1312q2 11 6 15q2 5 8 13q6 5 11 7q4 4 10 4q10 2 13 2q7 0 10 -1l-1 -6 q0 -3 -4 -10q-4 -4 -8 -4q-4 -1 -6 -1t-4 -1t-5 -4q-4 -3 -6 -7q-3 -3 -3 -8v-7q1 -3 4 -7t6 -5h6q3 0 9 2q3 2 6 2.5t7 2.5q2 1 3.5 2.5t2.5 1.5q2 1 8 3q4 0 7 3q1 0 2.5 0.5t3.5 0.5q20 2 33 -13q10 -6 11 -16q1 -5 2 -8t1 -8q-1 -5 -2.5 -10t-3.5 -9q-2 -5 -5.5 -8.5 t-5.5 -6.5q-13 -12 -32 -16h-6q-3 2 -6 3q-2 0 -3.5 0.5t-2.5 0.5t-1 0.5t-1 0.5l1 5q1 2 1.5 3.5t1.5 3.5q8 5 12 5h3q3 0 10 2q4 1 10 6q2 2 2.5 4t2.5 4q3 4 3 12q2 4 0 9q0 3 -1.5 5t-3.5 4q-3 5 -9 5q-5 3 -10 0q-6 0 -9 -3q-8 -2 -11 -5q-4 -1 -14 -5q-4 -2 -8.5 -2 t-6.5 -1q-10 0 -14 1q-3 2 -7 4t-6 6q-7 6 -10 14q-2 9 -1 15zM418 732q0 -80 20.5 -154.5t58.5 -140.5t91 -121t118.5 -94.5t142 -61.5t159.5 -22q122 0 230 46.5t188 127t126.5 188.5t46.5 232q0 109 -34.5 202.5t-94 167.5t-139 125t-168.5 76q-35 11 -73.5 16.5 t-81.5 5.5q-85 0 -162 -22t-142.5 -61.5t-118.5 -94.5t-90 -120.5t-57 -140.5t-20 -154zM449 94l71 85l-32 27l23 25l88 -74l-20 -25l-32 27l-73 -87zM476 732q0 98 31 182.5t89 155.5h707l-694 -695q-63 72 -98 163t-35 194zM494.5 1373.5q0.5 4.5 0.5 9.5q2 5 3.5 10 t3.5 9q2 5 4.5 8t5.5 8q6 6 15 13q8 7 18 8q9 4 19 4q9 3 20 0q5 -1 8 -2.5t8 -3.5t9 -4.5t8 -6.5q4 -3 7 -6.5t7 -8.5q2 -4 4.5 -8t3.5 -9q4 -9 4 -19q2 -10 0 -19q-1 -5 -2.5 -9.5t-3.5 -9.5q-5 -10 -11 -16q-4 -3 -7 -6.5t-8 -5.5q-14 -10 -26 -12q-15 -4 -30 0 q-7 1 -13 4t-14 6q-12 8 -20 20q-2 4 -4.5 8.5t-3.5 10.5q-5 10 -5 18q-1 5 -0.5 9.5zM502 46l130 92l23 -16l-19 -156l-22 11q-1 3 -4 5q-3 3 -3 5q-2 4 -2 6v6l2 17l-48 29l-14 -10q-1 -1 -2.5 -1t-2.5 -1h-6q-2 -1 -4 -0.5t-3 0.5q-2 1 -4 1t-3 1zM515 1359q2 -5 3.5 -10 t6.5 -10q4 -10 15 -15q8 -5 19 -7q10 -3 22 0q10 2 18 8q11 6 15 15q3 5 5 9.5t4 9.5q1 11 0 22q-2 4 -4 9t-6 10q-5 9 -15 15q-10 7 -18 8q-11 2 -21 0q-11 -2 -20 -9q-9 -6 -16 -15q-3 -5 -4.5 -10t-3.5 -10q-2 -9 0 -20zM590 67l22 -15l2 28q0 1 1 1.5t1 1.5q0 2 0.5 2 t0.5 1t0.5 1.5t0.5 1.5l-2 -2q-4 -2 -3 -2l-1 -2q0 -1 -1 -1zM624 1489l14 6q4 2 8 2q5 0 6 -2l112 -72l1 -1q1 -2 1 -3q2 0 2 -0.5t1 -0.5l-47 112l19 7l56 -134l-15 -6q-4 -1 -8 -1q-5 0 -8 1l-109 71q-2 0 -2 0.5t-2 0.5q0 2 -1 4q-1 0 -1 1v2l47 -114l-19 -8zM649 1129 q73 65 164 101.5t195 36.5q103 0 193.5 -37t159.5 -101h-712zM651 334h716q-74 -61 -165 -98t-194 -37t-193 36.5t-164 98.5zM655 -41l55 134l89 -35l-11 -30l-59 21l-8 -21l48 -20l-13 -32l-48 20l-19 -50zM711 391l693 701q68 -84 101.5 -173t33.5 -187t-31 -183.5 t-88 -157.5h-709zM778 -23.5q0 5.5 2 10.5q1 8 6 19q6 6 12 14q3 4 6.5 7.5l6.5 6.5q5 3 9 4.5t9 3.5q4 2 9.5 2.5t10.5 1.5h9.5t9.5 -2t10 -3t9 -3q10 -5 16 -10q4 -4 7 -7.5t5 -7.5q7 -8 9 -18q2 -5 3 -9t2 -10v-9.5t-1 -9.5q-1 -10 -7 -19l-6 -8l-6 -8q-4 -7 -13 -12 q-5 -2 -9 -4t-9 -4t-9.5 -3t-9.5 -1h-9.5t-11.5 2q-5 1 -9 2t-9 3q-4 2 -8 4.5t-8 6.5q-4 3 -6.5 7t-5.5 7q-2 4 -5 8.5t-5 8.5q-2 12 -4 19v10.5zM797 1404l33 156l20 3l90 -130l-11 -2q-2 -1 -4 -0.5t-4 0.5q-5 1 -8 6l-14 20l-73 -14l-5 -25q-2 -5 -5 -8q-1 -2 -3.5 -3 t-4.5 -1zM815 -20q-1 -9 0 -17q1 -3 2 -6.5t3 -7.5q4 -6 10 -11q3 -2 7.5 -3.5t9.5 -2.5q6 -3 14 0q9 1 15 5q7 6 11 12q2 4 4 7.5t3 6.5q2 8 0 18q-1 5 -7 13q-2 4 -4.5 6.5l-5.5 5.5q-4 2 -7.5 3t-8.5 3q-8 2 -14 0q-5 -2 -8.5 -3t-8.5 -3q-2 -2 -4.5 -5t-4.5 -7 q-4 -4 -6 -14zM830 1464l57 12l-38 54q-2 2 -2 4t-2 4v-4v-4zM936 1576l19 1l6 -126l64 3l1 -21l-85 -3zM939 29h15h14q7 0 9 -1q4 -3 5 -5l51 -73q1 -1 1 -2t1 -2q0 -2 1 -2.5t1 -1.5q0 -4 1 -5l-3 93h36l1 -146l-31 -1l-66 98l1 -98l-35 -1zM1082 32l115 20l6 -32l-40 -8 l22 -109l-34 -6l-21 109l-41 -8zM1085 1471q0 10 1 16l15 87l20 -4l-15 -87q-2 -8 0 -16q1 -3 2.5 -6.5t3.5 -5.5q2 -3 4.5 -5.5l4.5 -4.5l8 -4t8 -3q10 0 14 1q5 0 8 2l6 4q6 4 11 10q2 3 3.5 6.5t3.5 7.5l14 87l21 -2l-18 -89q-1 -3 -1.5 -6.5t-2.5 -7.5l-3.5 -7t-3.5 -6 q-3 -2 -6.5 -4.5t-5.5 -5.5q-5 -4 -13 -6q-4 -2 -8 -2.5t-7 -1.5q-10 0 -15 1q-5 0 -8.5 1.5t-7.5 3.5q-4 1 -6.5 3.5t-5.5 4.5q-7 5 -11 11q-2 5 -6 13q-3 7 -4 15zM1203 1430v3l6 2q4 0 8 -2q6 -1 9 -8v-1l3 -4.5t3 -3.5q4 -2 6 -3.5t5 -2.5q2 0 4.5 -0.5t4.5 -0.5h6.5 t5.5 1q7 2 9 5q5 5 6 9q3 6 0 11q0 2 -1 4l-2 4q-2 2 -3.5 4t-3.5 4q-2 1 -4 2.5t-7 3.5q-2 3 -5 5.5t-5 5.5q-3 2 -5 5.5t-4 7.5q-2 2 -3.5 5t-1.5 6q-2 7 3 17q1 8 7 15q7 6 13 7q5 2 9 2.5t7 0.5q4 0 8 -1t9 -2q4 -1 9 -6q5 -4 10 -9q2 -2 4 -4.5t3 -4.5q1 -3 1.5 -5 t1.5 -4l-6 -3q-5 -2 -10 0q-6 4 -8 6q-1 2 -2.5 3.5t-2.5 3.5q-2 1 -4 1.5t-4 1.5q-3 2 -9 2h-7q-3 -3 -8 -4q-3 -3 -3 -6q-3 -5 -1 -8q0 -4 2 -6q1 -2 2.5 -3.5t4.5 -3.5q3 -3 9 -7q2 -2 3 -4t3 -3t3 -2.5t3 -2.5l2.5 -2.5t3.5 -2.5l1.5 -3t2.5 -3q10 -15 4 -34 q-2 -5 -4.5 -9t-4.5 -7q-5 -3 -8.5 -5.5t-7.5 -3.5q-8 -4 -18 -4q-5 0 -9 0.5t-9 1.5q-18 8 -28 23q0 1 -1.5 2.5l-2.5 2.5q0 2 -0.5 3t-0.5 3q-1 1 -1 5zM1217 28v8q1 5 2 8.5t4 7.5q2 5 4.5 7.5l6.5 6.5q7 5 15 8q2 1 5 2t9 1q2 0 5 -1t7 -1q2 -1 5 -1.5t8 -2.5 q2 -2 4.5 -2.5t4.5 -2.5l-6 -12q-1 -3 -3 -7q-3 -1 -5 -1.5t-4 -0.5q-1 -1 -4 -1h-5h-5q-2 0 -3 -2q-4 0 -7 -2q-3 0 -3 -2l-2 -4q0 -1 1 -2q0 -3 3 -4q1 0 1.5 -1t2.5 -1h11h10h9t9 -1q4 -2 7 -2.5t7 -3.5q7 -5 12 -9t7 -14q4 -9 3 -19q0 -6 -2 -9.5t-4 -8.5 q-2 -4 -4.5 -7.5t-7.5 -8.5q-5 -2 -9 -5t-10 -5l-8 -2t-9 -1q-6 -2 -15 2q-8 1 -16 6q-3 2 -6 4.5t-5 6.5l7 10q2 2 4 3q3 3 4 3q3 1 11 1q2 0 3.5 -0.5t3.5 -0.5t3.5 -1t3.5 -1q5 0 7 2q3 0 4 0.5l3 1.5l5 5q2 2 2 8v6l-3 3q-1 1 -5 1q-2 2 -4 2h-4h-10h-7t-9 1q-6 0 -14 2 q-4 2 -7.5 4t-5.5 4q-5 5 -10 15q-2 5 -2 10zM1291 1373l66 130l80 -42l-9 -18l-61 33l-19 -38l50 -26l-10 -18l-51 26l-19 -38l62 -32l-9 -19zM1352 -13q0 5 2 7q0 2 3 7q1 3 6 5q3 1 4.5 1t3.5 1q2 0 3.5 -0.5t3.5 -0.5q5 -2 6 -4q3 -1 6 -7q4 -4 4 -7q0 -5 -2 -7t-2.5 -4 t-1.5 -3q-1 -2 -3 -3t-4 -3q-6 -2 -7 -2q-5 0 -7 1q-5 0 -9 4q-3 3 -4 8q0 2 -1 3.5t-1 3.5zM1365 85v9t2 9q1 9 5 19q3 4 5 8t6 8q3 4 7.5 7t9.5 7q7 4 13 7q4 2 7.5 2.5t9.5 2.5h17q5 0 9 -1t7 -2l-1 -14q-2 -4 -3 -7l-3 -3l-3 -3q-8 -4 -13 -4q-7 0 -12 -2q-5 -1 -12 -4 q-7 -4 -10 -11q-5 -8 -5 -15q-2 -8 0 -16q2 -10 6 -14q2 -6 11 -12q3 -3 6.5 -4t8.5 -3q6 -2 15 0q4 0 7 2t7 4q3 2 5 4.5t6 5.5l6 9q2 7 7 11q2 2 4 2t4 1h8l12 -2q-1 -5 -2 -9.5t-3 -8.5q-1 -5 -6 -16q-3 -8 -10 -13q-7 -7 -11 -10l-10 -6t-10 -4q-8 -4 -18 -4 q-5 -1 -9.5 -0.5t-10.5 1.5q-3 2 -7.5 2.5t-9.5 3.5q-4 3 -8 5.5t-7 6.5l-8 6t-7 7q-2 5 -4 9.5t-4 10.5q-1 4 -1.5 8.5t-2.5 9.5zM1444 1307q0 16 4 28q5 16 14 25q7 10 17 13q3 3 7 5l8 4q5 2 9.5 2t9.5 1h10t10 -1q9 -2 18 -6q7 -3 16 -11q4 -3 8 -6.5t6 -8.5q6 -7 7 -17 q4 -8 4 -18v-9.5t-1 -10.5q-2 -5 -3 -9.5t-3 -8.5q-5 -10 -11 -15q-4 -5 -7 -9t-7 -7q-5 -2 -9.5 -4t-9.5 -3q-9 -3 -18 -3h-10t-10 1q-3 1 -7.5 2t-9.5 4q-5 2 -8.5 4.5t-9.5 4.5q-5 7 -9.5 13t-7.5 12q-2 7 -4 13.5t-3 14.5zM1463 1309q0 -6 1.5 -11t3.5 -10q4 -5 7 -9.5 t7 -7.5q5 -4 9.5 -6t9.5 -5q11 -3 20 -3q13 0 20 7q5 2 9.5 5t9.5 6q8 9 9 19q5 9 3 21q0 5 -1 10t-4 10q-2 5 -5 9t-8 8q-4 4 -9 6.5t-10 4.5t-10 2.5t-11 0.5q-5 0 -10 -2l-10 -4q-9 -5 -15 -12q-9 -9 -13 -19q-2 -5 -2.5 -10t-0.5 -10zM1474 169v9t0.5 10t1.5 10t3 9t4 9 q3 3 5.5 7t6.5 7q4 4 8 7.5t8 6.5q4 2 8.5 3.5t9.5 2.5q5 2 9 2h9h10t10 -2q5 -1 9.5 -2.5t8.5 -3.5q5 -3 8 -6.5t9 -7.5q3 -4 5.5 -7.5t5.5 -8.5q2 -4 3.5 -8t3.5 -9q1 -5 1 -10v-10q0 -7 -2 -17q-1 -5 -3 -10t-4 -9q-4 -8 -13 -16q-4 -4 -7.5 -6.5t-7.5 -4.5q-5 -2 -9 -4 t-9 -4q-9 -3 -20 -3q-9 0 -18 3q-5 1 -9.5 3.5t-9.5 4.5q-3 2 -7 5l-8 6q-4 4 -6.5 7.5t-5.5 8.5q-2 5 -3.5 9.5t-2.5 9.5q-2 5 -2 9zM1507 178q0 -10 2 -14t4.5 -7.5t5.5 -6.5t6.5 -5.5t7.5 -4.5q6 -2 14 -2q11 0 16 2q4 1 7 3.5t6 6.5q8 6 9 12q3 7 3 15q0 7 -3 16 q-1 7 -9 13q-6 7 -13 10q-6 3 -16 3q-4 0 -7 -0.5t-7 -1.5q-4 -2 -7.5 -4t-6.5 -6q-5 -4 -10 -13q-2 -3 -2 -7.5v-8.5zM1530 1200l117 88l11 -13q2 -4 3 -7v-8l-43 -123q0 -1 -0.5 -1t-0.5 -1t-1 -1t-1 -1l-1 -3l97 72l12 -15l-116 -87l-10 12q-3 2 -5 7q0 5 1 7l42 125 q0 1 1 1t1 1l1 1q1 2 2 3l-98 -71zM1546 278l14 19q3 5 9 8q3 1 6.5 1h5.5l86 -13l-48 72q-2 4 -3 6.5t-1 5.5q0 4 1 6.5t3 5.5l13 20l123 -79l-18 -30l-60 38l42 -63l-15 -24l-73 13l57 -38l-20 -28zM1614 1082l130 67l8 -16l-112 -59l30 -55l-18 -10zM1660 985l58 23l2 1 l4 2q0 2 0.5 2.5t0.5 1.5q3 0 4 2l48 75l3 -13q2 -4 2.5 -7t0.5 -5q-1 -2 -2 -4.5t-2 -4.5l-32 -48l-2 -2l-1 -1h2q0 1 3 0l55 -17q2 -1 4.5 -2t5.5 -3q4 -2 5 -8l5 -13l-84 24q-2 0 -3 1h-4h-4q-3 0 -5 -1l-57 -21z" />
<glyph unicode="7" horiz-adv-x="2042" d="M197 983l18 48q3 10 8 16q7 9 16 11q4 2 7.5 3t8.5 1t9 -0.5t9 -1.5q9 -4 15 -11q5 -2 6.5 -6t3.5 -8t3 -8.5t2 -7.5q0 -9 -3 -19l-10 -30l50 -19l-7 -19zM222 994l48 -17l12 31q0 2 0.5 4.5t0.5 4.5q0 3 -0.5 5t-1.5 5q-1 2 -3 4l-4 4q-3 3 -7 5q-3 1 -6 1h-5 q-3 0 -5 -0.5t-4 -1.5q-2 -2 -4 -2.5t-4 -2.5l-6 -9zM244 1101l43 79l17 -11l-34 -60l37 -20l28 50l17 -10l-27 -49l37 -22l34 61l18 -9l-43 -79zM248 351l13 7q9 6 17 4l101 -10l-32 55l29 16l56 -97l-13 -8q-6 -2 -7 -2q-3 -2 -9 -2l-101 12l33 -56l-29 -17zM306 1209 l31 42q4 2 7 5.5t6 5.5q4 3 7.5 4t8.5 2h8t8 -1q9 -2 15 -9q3 -2 5 -4.5t5 -5.5q2 -2 3.5 -5l2.5 -5q1 -5 1 -8v-6q0 -6 -2 -13l76 -2l-7 -11q-3 -4 -8 -6q-3 -1 -5 -2t-4 -1l-65 2l-13 -17l48 -37l-12 -17zM329 222l111 94l64 -75l-26 -21l-42 47l-15 -14l32 -37l-26 -22 l-32 37l-19 -14l40 -47l-25 -23zM334 1213l36 -27l19 26q2 1 2.5 3.5t2.5 4.5v8q0 2 -1 4t-2 5q-4 4 -6 5q-4 4 -8 4q-2 1 -8 1q-2 -1 -4.5 -1t-4.5 -1q-4 -2 -6 -6zM364 732q0 91 23.5 175t66.5 156t102 130t131 99t153.5 63.5t167.5 22.5q139 0 256.5 -53t203.5 -142.5 t134.5 -206.5t48.5 -244q0 -116 -37 -216t-100.5 -180t-149.5 -136.5t-184 -86.5q-42 -11 -84 -17.5t-88 -6.5q-91 0 -174.5 23.5t-155.5 66.5t-130 102.5t-98.5 130.5t-63 152.5t-22.5 167.5zM401 1312q2 11 6 15q2 5 8 13q6 5 11 7q4 4 10 4q10 2 13 2q7 0 10 -1l-1 -6 q0 -3 -4 -10q-4 -4 -8 -4q-4 -1 -6 -1t-4 -1t-5 -4q-4 -3 -6 -7q-3 -3 -3 -8v-7q1 -3 4 -7t6 -5h6q3 0 9 2q3 2 6 2.5t7 2.5q2 1 3.5 2.5t2.5 1.5q2 1 8 3q4 0 7 3q1 0 2.5 0.5t3.5 0.5q20 2 33 -13q10 -6 11 -16q1 -5 2 -8t1 -8q-1 -5 -2.5 -10t-3.5 -9q-2 -5 -5.5 -8.5 t-5.5 -6.5q-13 -12 -32 -16h-6q-3 2 -6 3q-2 0 -3.5 0.5t-2.5 0.5t-1 0.5t-1 0.5l1 5q1 2 1.5 3.5t1.5 3.5q8 5 12 5h3q3 0 10 2q4 1 10 6q2 2 2.5 4t2.5 4q3 4 3 12q2 4 0 9q0 3 -1.5 5t-3.5 4q-3 5 -9 5q-5 3 -10 0q-6 0 -9 -3q-8 -2 -11 -5q-4 -1 -14 -5q-4 -2 -8.5 -2 t-6.5 -1q-10 0 -14 1q-3 2 -7 4t-6 6q-7 6 -10 14q-2 9 -1 15zM418 732q0 -80 20.5 -154.5t58.5 -140.5t91 -121t118.5 -94.5t142 -61.5t159.5 -22q122 0 230 46.5t188 127t126.5 188.5t46.5 232q0 109 -34.5 202.5t-94 167.5t-139 125t-168.5 76q-35 11 -73.5 16.5 t-81.5 5.5q-85 0 -162 -22t-142.5 -61.5t-118.5 -94.5t-90 -120.5t-57 -140.5t-20 -154zM449 94l71 85l-32 27l23 25l88 -74l-20 -25l-32 27l-73 -87zM476 732q0 98 31 182.5t89 155.5h707l-694 -695q-63 72 -98 163t-35 194zM494.5 1373.5q0.5 4.5 0.5 9.5q2 5 3.5 10 t3.5 9q2 5 4.5 8t5.5 8q6 6 15 13q8 7 18 8q9 4 19 4q9 3 20 0q5 -1 8 -2.5t8 -3.5t9 -4.5t8 -6.5q4 -3 7 -6.5t7 -8.5q2 -4 4.5 -8t3.5 -9q4 -9 4 -19q2 -10 0 -19q-1 -5 -2.5 -9.5t-3.5 -9.5q-5 -10 -11 -16q-4 -3 -7 -6.5t-8 -5.5q-14 -10 -26 -12q-15 -4 -30 0 q-7 1 -13 4t-14 6q-12 8 -20 20q-2 4 -4.5 8.5t-3.5 10.5q-5 10 -5 18q-1 5 -0.5 9.5zM502 46l130 92l23 -16l-19 -156l-22 11q-1 3 -4 5q-3 3 -3 5q-2 4 -2 6v6l2 17l-48 29l-14 -10q-1 -1 -2.5 -1t-2.5 -1h-6q-2 -1 -4 -0.5t-3 0.5q-2 1 -4 1t-3 1zM515 1359q2 -5 3.5 -10 t6.5 -10q4 -10 15 -15q8 -5 19 -7q10 -3 22 0q10 2 18 8q11 6 15 15q3 5 5 9.5t4 9.5q1 11 0 22q-2 4 -4 9t-6 10q-5 9 -15 15q-10 7 -18 8q-11 2 -21 0q-11 -2 -20 -9q-9 -6 -16 -15q-3 -5 -4.5 -10t-3.5 -10q-2 -9 0 -20zM590 67l22 -15l2 28q0 1 1 1.5t1 1.5q0 2 0.5 2 t0.5 1t0.5 1.5t0.5 1.5l-2 -2q-4 -2 -3 -2l-1 -2q0 -1 -1 -1zM624 1489l14 6q4 2 8 2q5 0 6 -2l112 -72l1 -1q1 -2 1 -3q2 0 2 -0.5t1 -0.5l-47 112l19 7l56 -134l-15 -6q-4 -1 -8 -1q-5 0 -8 1l-109 71q-2 0 -2 0.5t-2 0.5q0 2 -1 4q-1 0 -1 1v2l47 -114l-19 -8zM649 1129 q73 65 164 101.5t195 36.5q103 0 193.5 -37t159.5 -101h-712zM651 334h716q-74 -61 -165 -98t-194 -37t-193 36.5t-164 98.5zM655 -41l55 134l89 -35l-11 -30l-59 21l-8 -21l48 -20l-13 -32l-48 20l-19 -50zM711 391l693 701q68 -84 101.5 -173t33.5 -187t-31 -183.5 t-88 -157.5h-709zM778 -23.5q0 5.5 2 10.5q1 8 6 19q6 6 12 14q3 4 6.5 7.5l6.5 6.5q5 3 9 4.5t9 3.5q4 2 9.5 2.5t10.5 1.5h9.5t9.5 -2t10 -3t9 -3q10 -5 16 -10q4 -4 7 -7.5t5 -7.5q7 -8 9 -18q2 -5 3 -9t2 -10v-9.5t-1 -9.5q-1 -10 -7 -19l-6 -8l-6 -8q-4 -7 -13 -12 q-5 -2 -9 -4t-9 -4t-9.5 -3t-9.5 -1h-9.5t-11.5 2q-5 1 -9 2t-9 3q-4 2 -8 4.5t-8 6.5q-4 3 -6.5 7t-5.5 7q-2 4 -5 8.5t-5 8.5q-2 12 -4 19v10.5zM797 1404l33 156l20 3l90 -130l-11 -2q-2 -1 -4 -0.5t-4 0.5q-5 1 -8 6l-14 20l-73 -14l-5 -25q-2 -5 -5 -8q-1 -2 -3.5 -3 t-4.5 -1zM815 -20q-1 -9 0 -17q1 -3 2 -6.5t3 -7.5q4 -6 10 -11q3 -2 7.5 -3.5t9.5 -2.5q6 -3 14 0q9 1 15 5q7 6 11 12q2 4 4 7.5t3 6.5q2 8 0 18q-1 5 -7 13q-2 4 -4.5 6.5l-5.5 5.5q-4 2 -7.5 3t-8.5 3q-8 2 -14 0q-5 -2 -8.5 -3t-8.5 -3q-2 -2 -4.5 -5t-4.5 -7 q-4 -4 -6 -14zM830 1464l57 12l-38 54q-2 2 -2 4t-2 4v-4v-4zM936 1576l19 1l6 -126l64 3l1 -21l-85 -3zM939 29h15h14q7 0 9 -1q4 -3 5 -5l51 -73q1 -1 1 -2t1 -2q0 -2 1 -2.5t1 -1.5q0 -4 1 -5l-3 93h36l1 -146l-31 -1l-66 98l1 -98l-35 -1zM1082 32l115 20l6 -32l-40 -8 l22 -109l-34 -6l-21 109l-41 -8zM1085 1471q0 10 1 16l15 87l20 -4l-15 -87q-2 -8 0 -16q1 -3 2.5 -6.5t3.5 -5.5q2 -3 4.5 -5.5l4.5 -4.5l8 -4t8 -3q10 0 14 1q5 0 8 2l6 4q6 4 11 10q2 3 3.5 6.5t3.5 7.5l14 87l21 -2l-18 -89q-1 -3 -1.5 -6.5t-2.5 -7.5l-3.5 -7t-3.5 -6 q-3 -2 -6.5 -4.5t-5.5 -5.5q-5 -4 -13 -6q-4 -2 -8 -2.5t-7 -1.5q-10 0 -15 1q-5 0 -8.5 1.5t-7.5 3.5q-4 1 -6.5 3.5t-5.5 4.5q-7 5 -11 11q-2 5 -6 13q-3 7 -4 15zM1203 1430v3l6 2q4 0 8 -2q6 -1 9 -8v-1l3 -4.5t3 -3.5q4 -2 6 -3.5t5 -2.5q2 0 4.5 -0.5t4.5 -0.5h6.5 t5.5 1q7 2 9 5q5 5 6 9q3 6 0 11q0 2 -1 4l-2 4q-2 2 -3.5 4t-3.5 4q-2 1 -4 2.5t-7 3.5q-2 3 -5 5.5t-5 5.5q-3 2 -5 5.5t-4 7.5q-2 2 -3.5 5t-1.5 6q-2 7 3 17q1 8 7 15q7 6 13 7q5 2 9 2.5t7 0.5q4 0 8 -1t9 -2q4 -1 9 -6q5 -4 10 -9q2 -2 4 -4.5t3 -4.5q1 -3 1.5 -5 t1.5 -4l-6 -3q-5 -2 -10 0q-6 4 -8 6q-1 2 -2.5 3.5t-2.5 3.5q-2 1 -4 1.5t-4 1.5q-3 2 -9 2h-7q-3 -3 -8 -4q-3 -3 -3 -6q-3 -5 -1 -8q0 -4 2 -6q1 -2 2.5 -3.5t4.5 -3.5q3 -3 9 -7q2 -2 3 -4t3 -3t3 -2.5t3 -2.5l2.5 -2.5t3.5 -2.5l1.5 -3t2.5 -3q10 -15 4 -34 q-2 -5 -4.5 -9t-4.5 -7q-5 -3 -8.5 -5.5t-7.5 -3.5q-8 -4 -18 -4q-5 0 -9 0.5t-9 1.5q-18 8 -28 23q0 1 -1.5 2.5l-2.5 2.5q0 2 -0.5 3t-0.5 3q-1 1 -1 5zM1217 28v8q1 5 2 8.5t4 7.5q2 5 4.5 7.5l6.5 6.5q7 5 15 8q2 1 5 2t9 1q2 0 5 -1t7 -1q2 -1 5 -1.5t8 -2.5 q2 -2 4.5 -2.5t4.5 -2.5l-6 -12q-1 -3 -3 -7q-3 -1 -5 -1.5t-4 -0.5q-1 -1 -4 -1h-5h-5q-2 0 -3 -2q-4 0 -7 -2q-3 0 -3 -2l-2 -4q0 -1 1 -2q0 -3 3 -4q1 0 1.5 -1t2.5 -1h11h10h9t9 -1q4 -2 7 -2.5t7 -3.5q7 -5 12 -9t7 -14q4 -9 3 -19q0 -6 -2 -9.5t-4 -8.5 q-2 -4 -4.5 -7.5t-7.5 -8.5q-5 -2 -9 -5t-10 -5l-8 -2t-9 -1q-6 -2 -15 2q-8 1 -16 6q-3 2 -6 4.5t-5 6.5l7 10q2 2 4 3q3 3 4 3q3 1 11 1q2 0 3.5 -0.5t3.5 -0.5t3.5 -1t3.5 -1q5 0 7 2q3 0 4 0.5l3 1.5l5 5q2 2 2 8v6l-3 3q-1 1 -5 1q-2 2 -4 2h-4h-10h-7t-9 1q-6 0 -14 2 q-4 2 -7.5 4t-5.5 4q-5 5 -10 15q-2 5 -2 10zM1291 1373l66 130l80 -42l-9 -18l-61 33l-19 -38l50 -26l-10 -18l-51 26l-19 -38l62 -32l-9 -19zM1352 -13q0 5 2 7q0 2 3 7q1 3 6 5q3 1 4.5 1t3.5 1q2 0 3.5 -0.5t3.5 -0.5q5 -2 6 -4q3 -1 6 -7q4 -4 4 -7q0 -5 -2 -7t-2.5 -4 t-1.5 -3q-1 -2 -3 -3t-4 -3q-6 -2 -7 -2q-5 0 -7 1q-5 0 -9 4q-3 3 -4 8q0 2 -1 3.5t-1 3.5zM1365 85v9t2 9q1 9 5 19q3 4 5 8t6 8q3 4 7.5 7t9.5 7q7 4 13 7q4 2 7.5 2.5t9.5 2.5h17q5 0 9 -1t7 -2l-1 -14q-2 -4 -3 -7l-3 -3l-3 -3q-8 -4 -13 -4q-7 0 -12 -2q-5 -1 -12 -4 q-7 -4 -10 -11q-5 -8 -5 -15q-2 -8 0 -16q2 -10 6 -14q2 -6 11 -12q3 -3 6.5 -4t8.5 -3q6 -2 15 0q4 0 7 2t7 4q3 2 5 4.5t6 5.5l6 9q2 7 7 11q2 2 4 2t4 1h8l12 -2q-1 -5 -2 -9.5t-3 -8.5q-1 -5 -6 -16q-3 -8 -10 -13q-7 -7 -11 -10l-10 -6t-10 -4q-8 -4 -18 -4 q-5 -1 -9.5 -0.5t-10.5 1.5q-3 2 -7.5 2.5t-9.5 3.5q-4 3 -8 5.5t-7 6.5l-8 6t-7 7q-2 5 -4 9.5t-4 10.5q-1 4 -1.5 8.5t-2.5 9.5zM1444 1307q0 16 4 28q5 16 14 25q7 10 17 13q3 3 7 5l8 4q5 2 9.5 2t9.5 1h10t10 -1q9 -2 18 -6q7 -3 16 -11q4 -3 8 -6.5t6 -8.5q6 -7 7 -17 q4 -8 4 -18v-9.5t-1 -10.5q-2 -5 -3 -9.5t-3 -8.5q-5 -10 -11 -15q-4 -5 -7 -9t-7 -7q-5 -2 -9.5 -4t-9.5 -3q-9 -3 -18 -3h-10t-10 1q-3 1 -7.5 2t-9.5 4q-5 2 -8.5 4.5t-9.5 4.5q-5 7 -9.5 13t-7.5 12q-2 7 -4 13.5t-3 14.5zM1463 1309q0 -6 1.5 -11t3.5 -10q4 -5 7 -9.5 t7 -7.5q5 -4 9.5 -6t9.5 -5q11 -3 20 -3q13 0 20 7q5 2 9.5 5t9.5 6q8 9 9 19q5 9 3 21q0 5 -1 10t-4 10q-2 5 -5 9t-8 8q-4 4 -9 6.5t-10 4.5t-10 2.5t-11 0.5q-5 0 -10 -2l-10 -4q-9 -5 -15 -12q-9 -9 -13 -19q-2 -5 -2.5 -10t-0.5 -10zM1474 169v9t0.5 10t1.5 10t3 9t4 9 q3 3 5.5 7t6.5 7q4 4 8 7.5t8 6.5q4 2 8.5 3.5t9.5 2.5q5 2 9 2h9h10t10 -2q5 -1 9.5 -2.5t8.5 -3.5q5 -3 8 -6.5t9 -7.5q3 -4 5.5 -7.5t5.5 -8.5q2 -4 3.5 -8t3.5 -9q1 -5 1 -10v-10q0 -7 -2 -17q-1 -5 -3 -10t-4 -9q-4 -8 -13 -16q-4 -4 -7.5 -6.5t-7.5 -4.5q-5 -2 -9 -4 t-9 -4q-9 -3 -20 -3q-9 0 -18 3q-5 1 -9.5 3.5t-9.5 4.5q-3 2 -7 5l-8 6q-4 4 -6.5 7.5t-5.5 8.5q-2 5 -3.5 9.5t-2.5 9.5q-2 5 -2 9zM1507 178q0 -10 2 -14t4.5 -7.5t5.5 -6.5t6.5 -5.5t7.5 -4.5q6 -2 14 -2q11 0 16 2q4 1 7 3.5t6 6.5q8 6 9 12q3 7 3 15q0 7 -3 16 q-1 7 -9 13q-6 7 -13 10q-6 3 -16 3q-4 0 -7 -0.5t-7 -1.5q-4 -2 -7.5 -4t-6.5 -6q-5 -4 -10 -13q-2 -3 -2 -7.5v-8.5zM1530 1200l117 88l11 -13q2 -4 3 -7v-8l-43 -123q0 -1 -0.5 -1t-0.5 -1t-1 -1t-1 -1l-1 -3l97 72l12 -15l-116 -87l-10 12q-3 2 -5 7q0 5 1 7l42 125 q0 1 1 1t1 1l1 1q1 2 2 3l-98 -71zM1546 278l14 19q3 5 9 8q3 1 6.5 1h5.5l86 -13l-48 72q-2 4 -3 6.5t-1 5.5q0 4 1 6.5t3 5.5l13 20l123 -79l-18 -30l-60 38l42 -63l-15 -24l-73 13l57 -38l-20 -28zM1614 1082l130 67l8 -16l-112 -59l30 -55l-18 -10zM1660 985l58 23l2 1 l4 2q0 2 0.5 2.5t0.5 1.5q3 0 4 2l48 75l3 -13q2 -4 2.5 -7t0.5 -5q-1 -2 -2 -4.5t-2 -4.5l-32 -48l-2 -2l-1 -1h2q0 1 3 0l55 -17q2 -1 4.5 -2t5.5 -3q4 -2 5 -8l5 -13l-84 24q-2 0 -3 1h-4h-4q-3 0 -5 -1l-57 -21z" />
<glyph unicode="8" horiz-adv-x="2042" d="M197 983l18 48q3 10 8 16q7 9 16 11q4 2 7.5 3t8.5 1t9 -0.5t9 -1.5q9 -4 15 -11q5 -2 6.5 -6t3.5 -8t3 -8.5t2 -7.5q0 -9 -3 -19l-10 -30l50 -19l-7 -19zM222 994l48 -17l12 31q0 2 0.5 4.5t0.5 4.5q0 3 -0.5 5t-1.5 5q-1 2 -3 4l-4 4q-3 3 -7 5q-3 1 -6 1h-5 q-3 0 -5 -0.5t-4 -1.5q-2 -2 -4 -2.5t-4 -2.5l-6 -9zM244 1101l43 79l17 -11l-34 -60l37 -20l28 50l17 -10l-27 -49l37 -22l34 61l18 -9l-43 -79zM248 351l13 7q9 6 17 4l101 -10l-32 55l29 16l56 -97l-13 -8q-6 -2 -7 -2q-3 -2 -9 -2l-101 12l33 -56l-29 -17zM306 1209 l31 42q4 2 7 5.5t6 5.5q4 3 7.5 4t8.5 2h8t8 -1q9 -2 15 -9q3 -2 5 -4.5t5 -5.5q2 -2 3.5 -5l2.5 -5q1 -5 1 -8v-6q0 -6 -2 -13l76 -2l-7 -11q-3 -4 -8 -6q-3 -1 -5 -2t-4 -1l-65 2l-13 -17l48 -37l-12 -17zM329 222l111 94l64 -75l-26 -21l-42 47l-15 -14l32 -37l-26 -22 l-32 37l-19 -14l40 -47l-25 -23zM334 1213l36 -27l19 26q2 1 2.5 3.5t2.5 4.5v8q0 2 -1 4t-2 5q-4 4 -6 5q-4 4 -8 4q-2 1 -8 1q-2 -1 -4.5 -1t-4.5 -1q-4 -2 -6 -6zM364 732q0 91 23.5 175t66.5 156t102 130t131 99t153.5 63.5t167.5 22.5q139 0 256.5 -53t203.5 -142.5 t134.5 -206.5t48.5 -244q0 -116 -37 -216t-100.5 -180t-149.5 -136.5t-184 -86.5q-42 -11 -84 -17.5t-88 -6.5q-91 0 -174.5 23.5t-155.5 66.5t-130 102.5t-98.5 130.5t-63 152.5t-22.5 167.5zM401 1312q2 11 6 15q2 5 8 13q6 5 11 7q4 4 10 4q10 2 13 2q7 0 10 -1l-1 -6 q0 -3 -4 -10q-4 -4 -8 -4q-4 -1 -6 -1t-4 -1t-5 -4q-4 -3 -6 -7q-3 -3 -3 -8v-7q1 -3 4 -7t6 -5h6q3 0 9 2q3 2 6 2.5t7 2.5q2 1 3.5 2.5t2.5 1.5q2 1 8 3q4 0 7 3q1 0 2.5 0.5t3.5 0.5q20 2 33 -13q10 -6 11 -16q1 -5 2 -8t1 -8q-1 -5 -2.5 -10t-3.5 -9q-2 -5 -5.5 -8.5 t-5.5 -6.5q-13 -12 -32 -16h-6q-3 2 -6 3q-2 0 -3.5 0.5t-2.5 0.5t-1 0.5t-1 0.5l1 5q1 2 1.5 3.5t1.5 3.5q8 5 12 5h3q3 0 10 2q4 1 10 6q2 2 2.5 4t2.5 4q3 4 3 12q2 4 0 9q0 3 -1.5 5t-3.5 4q-3 5 -9 5q-5 3 -10 0q-6 0 -9 -3q-8 -2 -11 -5q-4 -1 -14 -5q-4 -2 -8.5 -2 t-6.5 -1q-10 0 -14 1q-3 2 -7 4t-6 6q-7 6 -10 14q-2 9 -1 15zM418 732q0 -80 20.5 -154.5t58.5 -140.5t91 -121t118.5 -94.5t142 -61.5t159.5 -22q122 0 230 46.5t188 127t126.5 188.5t46.5 232q0 109 -34.5 202.5t-94 167.5t-139 125t-168.5 76q-35 11 -73.5 16.5 t-81.5 5.5q-85 0 -162 -22t-142.5 -61.5t-118.5 -94.5t-90 -120.5t-57 -140.5t-20 -154zM449 94l71 85l-32 27l23 25l88 -74l-20 -25l-32 27l-73 -87zM476 732q0 98 31 182.5t89 155.5h707l-694 -695q-63 72 -98 163t-35 194zM494.5 1373.5q0.5 4.5 0.5 9.5q2 5 3.5 10 t3.5 9q2 5 4.5 8t5.5 8q6 6 15 13q8 7 18 8q9 4 19 4q9 3 20 0q5 -1 8 -2.5t8 -3.5t9 -4.5t8 -6.5q4 -3 7 -6.5t7 -8.5q2 -4 4.5 -8t3.5 -9q4 -9 4 -19q2 -10 0 -19q-1 -5 -2.5 -9.5t-3.5 -9.5q-5 -10 -11 -16q-4 -3 -7 -6.5t-8 -5.5q-14 -10 -26 -12q-15 -4 -30 0 q-7 1 -13 4t-14 6q-12 8 -20 20q-2 4 -4.5 8.5t-3.5 10.5q-5 10 -5 18q-1 5 -0.5 9.5zM502 46l130 92l23 -16l-19 -156l-22 11q-1 3 -4 5q-3 3 -3 5q-2 4 -2 6v6l2 17l-48 29l-14 -10q-1 -1 -2.5 -1t-2.5 -1h-6q-2 -1 -4 -0.5t-3 0.5q-2 1 -4 1t-3 1zM515 1359q2 -5 3.5 -10 t6.5 -10q4 -10 15 -15q8 -5 19 -7q10 -3 22 0q10 2 18 8q11 6 15 15q3 5 5 9.5t4 9.5q1 11 0 22q-2 4 -4 9t-6 10q-5 9 -15 15q-10 7 -18 8q-11 2 -21 0q-11 -2 -20 -9q-9 -6 -16 -15q-3 -5 -4.5 -10t-3.5 -10q-2 -9 0 -20zM590 67l22 -15l2 28q0 1 1 1.5t1 1.5q0 2 0.5 2 t0.5 1t0.5 1.5t0.5 1.5l-2 -2q-4 -2 -3 -2l-1 -2q0 -1 -1 -1zM624 1489l14 6q4 2 8 2q5 0 6 -2l112 -72l1 -1q1 -2 1 -3q2 0 2 -0.5t1 -0.5l-47 112l19 7l56 -134l-15 -6q-4 -1 -8 -1q-5 0 -8 1l-109 71q-2 0 -2 0.5t-2 0.5q0 2 -1 4q-1 0 -1 1v2l47 -114l-19 -8zM649 1129 q73 65 164 101.5t195 36.5q103 0 193.5 -37t159.5 -101h-712zM651 334h716q-74 -61 -165 -98t-194 -37t-193 36.5t-164 98.5zM655 -41l55 134l89 -35l-11 -30l-59 21l-8 -21l48 -20l-13 -32l-48 20l-19 -50zM711 391l693 701q68 -84 101.5 -173t33.5 -187t-31 -183.5 t-88 -157.5h-709zM778 -23.5q0 5.5 2 10.5q1 8 6 19q6 6 12 14q3 4 6.5 7.5l6.5 6.5q5 3 9 4.5t9 3.5q4 2 9.5 2.5t10.5 1.5h9.5t9.5 -2t10 -3t9 -3q10 -5 16 -10q4 -4 7 -7.5t5 -7.5q7 -8 9 -18q2 -5 3 -9t2 -10v-9.5t-1 -9.5q-1 -10 -7 -19l-6 -8l-6 -8q-4 -7 -13 -12 q-5 -2 -9 -4t-9 -4t-9.5 -3t-9.5 -1h-9.5t-11.5 2q-5 1 -9 2t-9 3q-4 2 -8 4.5t-8 6.5q-4 3 -6.5 7t-5.5 7q-2 4 -5 8.5t-5 8.5q-2 12 -4 19v10.5zM797 1404l33 156l20 3l90 -130l-11 -2q-2 -1 -4 -0.5t-4 0.5q-5 1 -8 6l-14 20l-73 -14l-5 -25q-2 -5 -5 -8q-1 -2 -3.5 -3 t-4.5 -1zM815 -20q-1 -9 0 -17q1 -3 2 -6.5t3 -7.5q4 -6 10 -11q3 -2 7.5 -3.5t9.5 -2.5q6 -3 14 0q9 1 15 5q7 6 11 12q2 4 4 7.5t3 6.5q2 8 0 18q-1 5 -7 13q-2 4 -4.5 6.5l-5.5 5.5q-4 2 -7.5 3t-8.5 3q-8 2 -14 0q-5 -2 -8.5 -3t-8.5 -3q-2 -2 -4.5 -5t-4.5 -7 q-4 -4 -6 -14zM830 1464l57 12l-38 54q-2 2 -2 4t-2 4v-4v-4zM936 1576l19 1l6 -126l64 3l1 -21l-85 -3zM939 29h15h14q7 0 9 -1q4 -3 5 -5l51 -73q1 -1 1 -2t1 -2q0 -2 1 -2.5t1 -1.5q0 -4 1 -5l-3 93h36l1 -146l-31 -1l-66 98l1 -98l-35 -1zM1082 32l115 20l6 -32l-40 -8 l22 -109l-34 -6l-21 109l-41 -8zM1085 1471q0 10 1 16l15 87l20 -4l-15 -87q-2 -8 0 -16q1 -3 2.5 -6.5t3.5 -5.5q2 -3 4.5 -5.5l4.5 -4.5l8 -4t8 -3q10 0 14 1q5 0 8 2l6 4q6 4 11 10q2 3 3.5 6.5t3.5 7.5l14 87l21 -2l-18 -89q-1 -3 -1.5 -6.5t-2.5 -7.5l-3.5 -7t-3.5 -6 q-3 -2 -6.5 -4.5t-5.5 -5.5q-5 -4 -13 -6q-4 -2 -8 -2.5t-7 -1.5q-10 0 -15 1q-5 0 -8.5 1.5t-7.5 3.5q-4 1 -6.5 3.5t-5.5 4.5q-7 5 -11 11q-2 5 -6 13q-3 7 -4 15zM1203 1430v3l6 2q4 0 8 -2q6 -1 9 -8v-1l3 -4.5t3 -3.5q4 -2 6 -3.5t5 -2.5q2 0 4.5 -0.5t4.5 -0.5h6.5 t5.5 1q7 2 9 5q5 5 6 9q3 6 0 11q0 2 -1 4l-2 4q-2 2 -3.5 4t-3.5 4q-2 1 -4 2.5t-7 3.5q-2 3 -5 5.5t-5 5.5q-3 2 -5 5.5t-4 7.5q-2 2 -3.5 5t-1.5 6q-2 7 3 17q1 8 7 15q7 6 13 7q5 2 9 2.5t7 0.5q4 0 8 -1t9 -2q4 -1 9 -6q5 -4 10 -9q2 -2 4 -4.5t3 -4.5q1 -3 1.5 -5 t1.5 -4l-6 -3q-5 -2 -10 0q-6 4 -8 6q-1 2 -2.5 3.5t-2.5 3.5q-2 1 -4 1.5t-4 1.5q-3 2 -9 2h-7q-3 -3 -8 -4q-3 -3 -3 -6q-3 -5 -1 -8q0 -4 2 -6q1 -2 2.5 -3.5t4.5 -3.5q3 -3 9 -7q2 -2 3 -4t3 -3t3 -2.5t3 -2.5l2.5 -2.5t3.5 -2.5l1.5 -3t2.5 -3q10 -15 4 -34 q-2 -5 -4.5 -9t-4.5 -7q-5 -3 -8.5 -5.5t-7.5 -3.5q-8 -4 -18 -4q-5 0 -9 0.5t-9 1.5q-18 8 -28 23q0 1 -1.5 2.5l-2.5 2.5q0 2 -0.5 3t-0.5 3q-1 1 -1 5zM1217 28v8q1 5 2 8.5t4 7.5q2 5 4.5 7.5l6.5 6.5q7 5 15 8q2 1 5 2t9 1q2 0 5 -1t7 -1q2 -1 5 -1.5t8 -2.5 q2 -2 4.5 -2.5t4.5 -2.5l-6 -12q-1 -3 -3 -7q-3 -1 -5 -1.5t-4 -0.5q-1 -1 -4 -1h-5h-5q-2 0 -3 -2q-4 0 -7 -2q-3 0 -3 -2l-2 -4q0 -1 1 -2q0 -3 3 -4q1 0 1.5 -1t2.5 -1h11h10h9t9 -1q4 -2 7 -2.5t7 -3.5q7 -5 12 -9t7 -14q4 -9 3 -19q0 -6 -2 -9.5t-4 -8.5 q-2 -4 -4.5 -7.5t-7.5 -8.5q-5 -2 -9 -5t-10 -5l-8 -2t-9 -1q-6 -2 -15 2q-8 1 -16 6q-3 2 -6 4.5t-5 6.5l7 10q2 2 4 3q3 3 4 3q3 1 11 1q2 0 3.5 -0.5t3.5 -0.5t3.5 -1t3.5 -1q5 0 7 2q3 0 4 0.5l3 1.5l5 5q2 2 2 8v6l-3 3q-1 1 -5 1q-2 2 -4 2h-4h-10h-7t-9 1q-6 0 -14 2 q-4 2 -7.5 4t-5.5 4q-5 5 -10 15q-2 5 -2 10zM1291 1373l66 130l80 -42l-9 -18l-61 33l-19 -38l50 -26l-10 -18l-51 26l-19 -38l62 -32l-9 -19zM1352 -13q0 5 2 7q0 2 3 7q1 3 6 5q3 1 4.5 1t3.5 1q2 0 3.5 -0.5t3.5 -0.5q5 -2 6 -4q3 -1 6 -7q4 -4 4 -7q0 -5 -2 -7t-2.5 -4 t-1.5 -3q-1 -2 -3 -3t-4 -3q-6 -2 -7 -2q-5 0 -7 1q-5 0 -9 4q-3 3 -4 8q0 2 -1 3.5t-1 3.5zM1365 85v9t2 9q1 9 5 19q3 4 5 8t6 8q3 4 7.5 7t9.5 7q7 4 13 7q4 2 7.5 2.5t9.5 2.5h17q5 0 9 -1t7 -2l-1 -14q-2 -4 -3 -7l-3 -3l-3 -3q-8 -4 -13 -4q-7 0 -12 -2q-5 -1 -12 -4 q-7 -4 -10 -11q-5 -8 -5 -15q-2 -8 0 -16q2 -10 6 -14q2 -6 11 -12q3 -3 6.5 -4t8.5 -3q6 -2 15 0q4 0 7 2t7 4q3 2 5 4.5t6 5.5l6 9q2 7 7 11q2 2 4 2t4 1h8l12 -2q-1 -5 -2 -9.5t-3 -8.5q-1 -5 -6 -16q-3 -8 -10 -13q-7 -7 -11 -10l-10 -6t-10 -4q-8 -4 -18 -4 q-5 -1 -9.5 -0.5t-10.5 1.5q-3 2 -7.5 2.5t-9.5 3.5q-4 3 -8 5.5t-7 6.5l-8 6t-7 7q-2 5 -4 9.5t-4 10.5q-1 4 -1.5 8.5t-2.5 9.5zM1444 1307q0 16 4 28q5 16 14 25q7 10 17 13q3 3 7 5l8 4q5 2 9.5 2t9.5 1h10t10 -1q9 -2 18 -6q7 -3 16 -11q4 -3 8 -6.5t6 -8.5q6 -7 7 -17 q4 -8 4 -18v-9.5t-1 -10.5q-2 -5 -3 -9.5t-3 -8.5q-5 -10 -11 -15q-4 -5 -7 -9t-7 -7q-5 -2 -9.5 -4t-9.5 -3q-9 -3 -18 -3h-10t-10 1q-3 1 -7.5 2t-9.5 4q-5 2 -8.5 4.5t-9.5 4.5q-5 7 -9.5 13t-7.5 12q-2 7 -4 13.5t-3 14.5zM1463 1309q0 -6 1.5 -11t3.5 -10q4 -5 7 -9.5 t7 -7.5q5 -4 9.5 -6t9.5 -5q11 -3 20 -3q13 0 20 7q5 2 9.5 5t9.5 6q8 9 9 19q5 9 3 21q0 5 -1 10t-4 10q-2 5 -5 9t-8 8q-4 4 -9 6.5t-10 4.5t-10 2.5t-11 0.5q-5 0 -10 -2l-10 -4q-9 -5 -15 -12q-9 -9 -13 -19q-2 -5 -2.5 -10t-0.5 -10zM1474 169v9t0.5 10t1.5 10t3 9t4 9 q3 3 5.5 7t6.5 7q4 4 8 7.5t8 6.5q4 2 8.5 3.5t9.5 2.5q5 2 9 2h9h10t10 -2q5 -1 9.5 -2.5t8.5 -3.5q5 -3 8 -6.5t9 -7.5q3 -4 5.5 -7.5t5.5 -8.5q2 -4 3.5 -8t3.5 -9q1 -5 1 -10v-10q0 -7 -2 -17q-1 -5 -3 -10t-4 -9q-4 -8 -13 -16q-4 -4 -7.5 -6.5t-7.5 -4.5q-5 -2 -9 -4 t-9 -4q-9 -3 -20 -3q-9 0 -18 3q-5 1 -9.5 3.5t-9.5 4.5q-3 2 -7 5l-8 6q-4 4 -6.5 7.5t-5.5 8.5q-2 5 -3.5 9.5t-2.5 9.5q-2 5 -2 9zM1507 178q0 -10 2 -14t4.5 -7.5t5.5 -6.5t6.5 -5.5t7.5 -4.5q6 -2 14 -2q11 0 16 2q4 1 7 3.5t6 6.5q8 6 9 12q3 7 3 15q0 7 -3 16 q-1 7 -9 13q-6 7 -13 10q-6 3 -16 3q-4 0 -7 -0.5t-7 -1.5q-4 -2 -7.5 -4t-6.5 -6q-5 -4 -10 -13q-2 -3 -2 -7.5v-8.5zM1530 1200l117 88l11 -13q2 -4 3 -7v-8l-43 -123q0 -1 -0.5 -1t-0.5 -1t-1 -1t-1 -1l-1 -3l97 72l12 -15l-116 -87l-10 12q-3 2 -5 7q0 5 1 7l42 125 q0 1 1 1t1 1l1 1q1 2 2 3l-98 -71zM1546 278l14 19q3 5 9 8q3 1 6.5 1h5.5l86 -13l-48 72q-2 4 -3 6.5t-1 5.5q0 4 1 6.5t3 5.5l13 20l123 -79l-18 -30l-60 38l42 -63l-15 -24l-73 13l57 -38l-20 -28zM1614 1082l130 67l8 -16l-112 -59l30 -55l-18 -10zM1660 985l58 23l2 1 l4 2q0 2 0.5 2.5t0.5 1.5q3 0 4 2l48 75l3 -13q2 -4 2.5 -7t0.5 -5q-1 -2 -2 -4.5t-2 -4.5l-32 -48l-2 -2l-1 -1h2q0 1 3 0l55 -17q2 -1 4.5 -2t5.5 -3q4 -2 5 -8l5 -13l-84 24q-2 0 -3 1h-4h-4q-3 0 -5 -1l-57 -21z" />
<glyph unicode="9" horiz-adv-x="2042" d="M197 983l18 48q3 10 8 16q7 9 16 11q4 2 7.5 3t8.5 1t9 -0.5t9 -1.5q9 -4 15 -11q5 -2 6.5 -6t3.5 -8t3 -8.5t2 -7.5q0 -9 -3 -19l-10 -30l50 -19l-7 -19zM222 994l48 -17l12 31q0 2 0.5 4.5t0.5 4.5q0 3 -0.5 5t-1.5 5q-1 2 -3 4l-4 4q-3 3 -7 5q-3 1 -6 1h-5 q-3 0 -5 -0.5t-4 -1.5q-2 -2 -4 -2.5t-4 -2.5l-6 -9zM244 1101l43 79l17 -11l-34 -60l37 -20l28 50l17 -10l-27 -49l37 -22l34 61l18 -9l-43 -79zM248 351l13 7q9 6 17 4l101 -10l-32 55l29 16l56 -97l-13 -8q-6 -2 -7 -2q-3 -2 -9 -2l-101 12l33 -56l-29 -17zM306 1209 l31 42q4 2 7 5.5t6 5.5q4 3 7.5 4t8.5 2h8t8 -1q9 -2 15 -9q3 -2 5 -4.5t5 -5.5q2 -2 3.5 -5l2.5 -5q1 -5 1 -8v-6q0 -6 -2 -13l76 -2l-7 -11q-3 -4 -8 -6q-3 -1 -5 -2t-4 -1l-65 2l-13 -17l48 -37l-12 -17zM329 222l111 94l64 -75l-26 -21l-42 47l-15 -14l32 -37l-26 -22 l-32 37l-19 -14l40 -47l-25 -23zM334 1213l36 -27l19 26q2 1 2.5 3.5t2.5 4.5v8q0 2 -1 4t-2 5q-4 4 -6 5q-4 4 -8 4q-2 1 -8 1q-2 -1 -4.5 -1t-4.5 -1q-4 -2 -6 -6zM364 732q0 91 23.5 175t66.5 156t102 130t131 99t153.5 63.5t167.5 22.5q139 0 256.5 -53t203.5 -142.5 t134.5 -206.5t48.5 -244q0 -116 -37 -216t-100.5 -180t-149.5 -136.5t-184 -86.5q-42 -11 -84 -17.5t-88 -6.5q-91 0 -174.5 23.5t-155.5 66.5t-130 102.5t-98.5 130.5t-63 152.5t-22.5 167.5zM401 1312q2 11 6 15q2 5 8 13q6 5 11 7q4 4 10 4q10 2 13 2q7 0 10 -1l-1 -6 q0 -3 -4 -10q-4 -4 -8 -4q-4 -1 -6 -1t-4 -1t-5 -4q-4 -3 -6 -7q-3 -3 -3 -8v-7q1 -3 4 -7t6 -5h6q3 0 9 2q3 2 6 2.5t7 2.5q2 1 3.5 2.5t2.5 1.5q2 1 8 3q4 0 7 3q1 0 2.5 0.5t3.5 0.5q20 2 33 -13q10 -6 11 -16q1 -5 2 -8t1 -8q-1 -5 -2.5 -10t-3.5 -9q-2 -5 -5.5 -8.5 t-5.5 -6.5q-13 -12 -32 -16h-6q-3 2 -6 3q-2 0 -3.5 0.5t-2.5 0.5t-1 0.5t-1 0.5l1 5q1 2 1.5 3.5t1.5 3.5q8 5 12 5h3q3 0 10 2q4 1 10 6q2 2 2.5 4t2.5 4q3 4 3 12q2 4 0 9q0 3 -1.5 5t-3.5 4q-3 5 -9 5q-5 3 -10 0q-6 0 -9 -3q-8 -2 -11 -5q-4 -1 -14 -5q-4 -2 -8.5 -2 t-6.5 -1q-10 0 -14 1q-3 2 -7 4t-6 6q-7 6 -10 14q-2 9 -1 15zM418 732q0 -80 20.5 -154.5t58.5 -140.5t91 -121t118.5 -94.5t142 -61.5t159.5 -22q122 0 230 46.5t188 127t126.5 188.5t46.5 232q0 109 -34.5 202.5t-94 167.5t-139 125t-168.5 76q-35 11 -73.5 16.5 t-81.5 5.5q-85 0 -162 -22t-142.5 -61.5t-118.5 -94.5t-90 -120.5t-57 -140.5t-20 -154zM449 94l71 85l-32 27l23 25l88 -74l-20 -25l-32 27l-73 -87zM476 732q0 98 31 182.5t89 155.5h707l-694 -695q-63 72 -98 163t-35 194zM494.5 1373.5q0.5 4.5 0.5 9.5q2 5 3.5 10 t3.5 9q2 5 4.5 8t5.5 8q6 6 15 13q8 7 18 8q9 4 19 4q9 3 20 0q5 -1 8 -2.5t8 -3.5t9 -4.5t8 -6.5q4 -3 7 -6.5t7 -8.5q2 -4 4.5 -8t3.5 -9q4 -9 4 -19q2 -10 0 -19q-1 -5 -2.5 -9.5t-3.5 -9.5q-5 -10 -11 -16q-4 -3 -7 -6.5t-8 -5.5q-14 -10 -26 -12q-15 -4 -30 0 q-7 1 -13 4t-14 6q-12 8 -20 20q-2 4 -4.5 8.5t-3.5 10.5q-5 10 -5 18q-1 5 -0.5 9.5zM502 46l130 92l23 -16l-19 -156l-22 11q-1 3 -4 5q-3 3 -3 5q-2 4 -2 6v6l2 17l-48 29l-14 -10q-1 -1 -2.5 -1t-2.5 -1h-6q-2 -1 -4 -0.5t-3 0.5q-2 1 -4 1t-3 1zM515 1359q2 -5 3.5 -10 t6.5 -10q4 -10 15 -15q8 -5 19 -7q10 -3 22 0q10 2 18 8q11 6 15 15q3 5 5 9.5t4 9.5q1 11 0 22q-2 4 -4 9t-6 10q-5 9 -15 15q-10 7 -18 8q-11 2 -21 0q-11 -2 -20 -9q-9 -6 -16 -15q-3 -5 -4.5 -10t-3.5 -10q-2 -9 0 -20zM590 67l22 -15l2 28q0 1 1 1.5t1 1.5q0 2 0.5 2 t0.5 1t0.5 1.5t0.5 1.5l-2 -2q-4 -2 -3 -2l-1 -2q0 -1 -1 -1zM624 1489l14 6q4 2 8 2q5 0 6 -2l112 -72l1 -1q1 -2 1 -3q2 0 2 -0.5t1 -0.5l-47 112l19 7l56 -134l-15 -6q-4 -1 -8 -1q-5 0 -8 1l-109 71q-2 0 -2 0.5t-2 0.5q0 2 -1 4q-1 0 -1 1v2l47 -114l-19 -8zM649 1129 q73 65 164 101.5t195 36.5q103 0 193.5 -37t159.5 -101h-712zM651 334h716q-74 -61 -165 -98t-194 -37t-193 36.5t-164 98.5zM655 -41l55 134l89 -35l-11 -30l-59 21l-8 -21l48 -20l-13 -32l-48 20l-19 -50zM711 391l693 701q68 -84 101.5 -173t33.5 -187t-31 -183.5 t-88 -157.5h-709zM778 -23.5q0 5.5 2 10.5q1 8 6 19q6 6 12 14q3 4 6.5 7.5l6.5 6.5q5 3 9 4.5t9 3.5q4 2 9.5 2.5t10.5 1.5h9.5t9.5 -2t10 -3t9 -3q10 -5 16 -10q4 -4 7 -7.5t5 -7.5q7 -8 9 -18q2 -5 3 -9t2 -10v-9.5t-1 -9.5q-1 -10 -7 -19l-6 -8l-6 -8q-4 -7 -13 -12 q-5 -2 -9 -4t-9 -4t-9.5 -3t-9.5 -1h-9.5t-11.5 2q-5 1 -9 2t-9 3q-4 2 -8 4.5t-8 6.5q-4 3 -6.5 7t-5.5 7q-2 4 -5 8.5t-5 8.5q-2 12 -4 19v10.5zM797 1404l33 156l20 3l90 -130l-11 -2q-2 -1 -4 -0.5t-4 0.5q-5 1 -8 6l-14 20l-73 -14l-5 -25q-2 -5 -5 -8q-1 -2 -3.5 -3 t-4.5 -1zM815 -20q-1 -9 0 -17q1 -3 2 -6.5t3 -7.5q4 -6 10 -11q3 -2 7.5 -3.5t9.5 -2.5q6 -3 14 0q9 1 15 5q7 6 11 12q2 4 4 7.5t3 6.5q2 8 0 18q-1 5 -7 13q-2 4 -4.5 6.5l-5.5 5.5q-4 2 -7.5 3t-8.5 3q-8 2 -14 0q-5 -2 -8.5 -3t-8.5 -3q-2 -2 -4.5 -5t-4.5 -7 q-4 -4 -6 -14zM830 1464l57 12l-38 54q-2 2 -2 4t-2 4v-4v-4zM936 1576l19 1l6 -126l64 3l1 -21l-85 -3zM939 29h15h14q7 0 9 -1q4 -3 5 -5l51 -73q1 -1 1 -2t1 -2q0 -2 1 -2.5t1 -1.5q0 -4 1 -5l-3 93h36l1 -146l-31 -1l-66 98l1 -98l-35 -1zM1082 32l115 20l6 -32l-40 -8 l22 -109l-34 -6l-21 109l-41 -8zM1085 1471q0 10 1 16l15 87l20 -4l-15 -87q-2 -8 0 -16q1 -3 2.5 -6.5t3.5 -5.5q2 -3 4.5 -5.5l4.5 -4.5l8 -4t8 -3q10 0 14 1q5 0 8 2l6 4q6 4 11 10q2 3 3.5 6.5t3.5 7.5l14 87l21 -2l-18 -89q-1 -3 -1.5 -6.5t-2.5 -7.5l-3.5 -7t-3.5 -6 q-3 -2 -6.5 -4.5t-5.5 -5.5q-5 -4 -13 -6q-4 -2 -8 -2.5t-7 -1.5q-10 0 -15 1q-5 0 -8.5 1.5t-7.5 3.5q-4 1 -6.5 3.5t-5.5 4.5q-7 5 -11 11q-2 5 -6 13q-3 7 -4 15zM1203 1430v3l6 2q4 0 8 -2q6 -1 9 -8v-1l3 -4.5t3 -3.5q4 -2 6 -3.5t5 -2.5q2 0 4.5 -0.5t4.5 -0.5h6.5 t5.5 1q7 2 9 5q5 5 6 9q3 6 0 11q0 2 -1 4l-2 4q-2 2 -3.5 4t-3.5 4q-2 1 -4 2.5t-7 3.5q-2 3 -5 5.5t-5 5.5q-3 2 -5 5.5t-4 7.5q-2 2 -3.5 5t-1.5 6q-2 7 3 17q1 8 7 15q7 6 13 7q5 2 9 2.5t7 0.5q4 0 8 -1t9 -2q4 -1 9 -6q5 -4 10 -9q2 -2 4 -4.5t3 -4.5q1 -3 1.5 -5 t1.5 -4l-6 -3q-5 -2 -10 0q-6 4 -8 6q-1 2 -2.5 3.5t-2.5 3.5q-2 1 -4 1.5t-4 1.5q-3 2 -9 2h-7q-3 -3 -8 -4q-3 -3 -3 -6q-3 -5 -1 -8q0 -4 2 -6q1 -2 2.5 -3.5t4.5 -3.5q3 -3 9 -7q2 -2 3 -4t3 -3t3 -2.5t3 -2.5l2.5 -2.5t3.5 -2.5l1.5 -3t2.5 -3q10 -15 4 -34 q-2 -5 -4.5 -9t-4.5 -7q-5 -3 -8.5 -5.5t-7.5 -3.5q-8 -4 -18 -4q-5 0 -9 0.5t-9 1.5q-18 8 -28 23q0 1 -1.5 2.5l-2.5 2.5q0 2 -0.5 3t-0.5 3q-1 1 -1 5zM1217 28v8q1 5 2 8.5t4 7.5q2 5 4.5 7.5l6.5 6.5q7 5 15 8q2 1 5 2t9 1q2 0 5 -1t7 -1q2 -1 5 -1.5t8 -2.5 q2 -2 4.5 -2.5t4.5 -2.5l-6 -12q-1 -3 -3 -7q-3 -1 -5 -1.5t-4 -0.5q-1 -1 -4 -1h-5h-5q-2 0 -3 -2q-4 0 -7 -2q-3 0 -3 -2l-2 -4q0 -1 1 -2q0 -3 3 -4q1 0 1.5 -1t2.5 -1h11h10h9t9 -1q4 -2 7 -2.5t7 -3.5q7 -5 12 -9t7 -14q4 -9 3 -19q0 -6 -2 -9.5t-4 -8.5 q-2 -4 -4.5 -7.5t-7.5 -8.5q-5 -2 -9 -5t-10 -5l-8 -2t-9 -1q-6 -2 -15 2q-8 1 -16 6q-3 2 -6 4.5t-5 6.5l7 10q2 2 4 3q3 3 4 3q3 1 11 1q2 0 3.5 -0.5t3.5 -0.5t3.5 -1t3.5 -1q5 0 7 2q3 0 4 0.5l3 1.5l5 5q2 2 2 8v6l-3 3q-1 1 -5 1q-2 2 -4 2h-4h-10h-7t-9 1q-6 0 -14 2 q-4 2 -7.5 4t-5.5 4q-5 5 -10 15q-2 5 -2 10zM1291 1373l66 130l80 -42l-9 -18l-61 33l-19 -38l50 -26l-10 -18l-51 26l-19 -38l62 -32l-9 -19zM1352 -13q0 5 2 7q0 2 3 7q1 3 6 5q3 1 4.5 1t3.5 1q2 0 3.5 -0.5t3.5 -0.5q5 -2 6 -4q3 -1 6 -7q4 -4 4 -7q0 -5 -2 -7t-2.5 -4 t-1.5 -3q-1 -2 -3 -3t-4 -3q-6 -2 -7 -2q-5 0 -7 1q-5 0 -9 4q-3 3 -4 8q0 2 -1 3.5t-1 3.5zM1365 85v9t2 9q1 9 5 19q3 4 5 8t6 8q3 4 7.5 7t9.5 7q7 4 13 7q4 2 7.5 2.5t9.5 2.5h17q5 0 9 -1t7 -2l-1 -14q-2 -4 -3 -7l-3 -3l-3 -3q-8 -4 -13 -4q-7 0 -12 -2q-5 -1 -12 -4 q-7 -4 -10 -11q-5 -8 -5 -15q-2 -8 0 -16q2 -10 6 -14q2 -6 11 -12q3 -3 6.5 -4t8.5 -3q6 -2 15 0q4 0 7 2t7 4q3 2 5 4.5t6 5.5l6 9q2 7 7 11q2 2 4 2t4 1h8l12 -2q-1 -5 -2 -9.5t-3 -8.5q-1 -5 -6 -16q-3 -8 -10 -13q-7 -7 -11 -10l-10 -6t-10 -4q-8 -4 -18 -4 q-5 -1 -9.5 -0.5t-10.5 1.5q-3 2 -7.5 2.5t-9.5 3.5q-4 3 -8 5.5t-7 6.5l-8 6t-7 7q-2 5 -4 9.5t-4 10.5q-1 4 -1.5 8.5t-2.5 9.5zM1444 1307q0 16 4 28q5 16 14 25q7 10 17 13q3 3 7 5l8 4q5 2 9.5 2t9.5 1h10t10 -1q9 -2 18 -6q7 -3 16 -11q4 -3 8 -6.5t6 -8.5q6 -7 7 -17 q4 -8 4 -18v-9.5t-1 -10.5q-2 -5 -3 -9.5t-3 -8.5q-5 -10 -11 -15q-4 -5 -7 -9t-7 -7q-5 -2 -9.5 -4t-9.5 -3q-9 -3 -18 -3h-10t-10 1q-3 1 -7.5 2t-9.5 4q-5 2 -8.5 4.5t-9.5 4.5q-5 7 -9.5 13t-7.5 12q-2 7 -4 13.5t-3 14.5zM1463 1309q0 -6 1.5 -11t3.5 -10q4 -5 7 -9.5 t7 -7.5q5 -4 9.5 -6t9.5 -5q11 -3 20 -3q13 0 20 7q5 2 9.5 5t9.5 6q8 9 9 19q5 9 3 21q0 5 -1 10t-4 10q-2 5 -5 9t-8 8q-4 4 -9 6.5t-10 4.5t-10 2.5t-11 0.5q-5 0 -10 -2l-10 -4q-9 -5 -15 -12q-9 -9 -13 -19q-2 -5 -2.5 -10t-0.5 -10zM1474 169v9t0.5 10t1.5 10t3 9t4 9 q3 3 5.5 7t6.5 7q4 4 8 7.5t8 6.5q4 2 8.5 3.5t9.5 2.5q5 2 9 2h9h10t10 -2q5 -1 9.5 -2.5t8.5 -3.5q5 -3 8 -6.5t9 -7.5q3 -4 5.5 -7.5t5.5 -8.5q2 -4 3.5 -8t3.5 -9q1 -5 1 -10v-10q0 -7 -2 -17q-1 -5 -3 -10t-4 -9q-4 -8 -13 -16q-4 -4 -7.5 -6.5t-7.5 -4.5q-5 -2 -9 -4 t-9 -4q-9 -3 -20 -3q-9 0 -18 3q-5 1 -9.5 3.5t-9.5 4.5q-3 2 -7 5l-8 6q-4 4 -6.5 7.5t-5.5 8.5q-2 5 -3.5 9.5t-2.5 9.5q-2 5 -2 9zM1507 178q0 -10 2 -14t4.5 -7.5t5.5 -6.5t6.5 -5.5t7.5 -4.5q6 -2 14 -2q11 0 16 2q4 1 7 3.5t6 6.5q8 6 9 12q3 7 3 15q0 7 -3 16 q-1 7 -9 13q-6 7 -13 10q-6 3 -16 3q-4 0 -7 -0.5t-7 -1.5q-4 -2 -7.5 -4t-6.5 -6q-5 -4 -10 -13q-2 -3 -2 -7.5v-8.5zM1530 1200l117 88l11 -13q2 -4 3 -7v-8l-43 -123q0 -1 -0.5 -1t-0.5 -1t-1 -1t-1 -1l-1 -3l97 72l12 -15l-116 -87l-10 12q-3 2 -5 7q0 5 1 7l42 125 q0 1 1 1t1 1l1 1q1 2 2 3l-98 -71zM1546 278l14 19q3 5 9 8q3 1 6.5 1h5.5l86 -13l-48 72q-2 4 -3 6.5t-1 5.5q0 4 1 6.5t3 5.5l13 20l123 -79l-18 -30l-60 38l42 -63l-15 -24l-73 13l57 -38l-20 -28zM1614 1082l130 67l8 -16l-112 -59l30 -55l-18 -10zM1660 985l58 23l2 1 l4 2q0 2 0.5 2.5t0.5 1.5q3 0 4 2l48 75l3 -13q2 -4 2.5 -7t0.5 -5q-1 -2 -2 -4.5t-2 -4.5l-32 -48l-2 -2l-1 -1h2q0 1 3 0l55 -17q2 -1 4.5 -2t5.5 -3q4 -2 5 -8l5 -13l-84 24q-2 0 -3 1h-4h-4q-3 0 -5 -1l-57 -21z" />
<glyph unicode=":" d="M166 45v106q0 20 12.5 32.5t32.5 12.5h105q23 0 35.5 -13t12.5 -32v-106q0 -45 -46 -45h-105q-47 0 -47 45zM166 854v106q0 20 12.5 32.5t32.5 12.5h105q23 0 35.5 -13t12.5 -32v-106q0 -45 -46 -45h-105q-47 0 -47 45z" />
<glyph unicode=";" d="M166 854v106q0 20 12.5 32.5t32.5 12.5h105q23 0 35.5 -13t12.5 -32v-106q0 -45 -46 -45h-105q-47 0 -47 45zM168 36v115q0 20 13.5 32.5t31.5 12.5h105q23 0 35.5 -13t12.5 -32v-151q0 -83 -32.5 -147.5t-84.5 -93.5h-14q-11 0 -18 9l-38 36q-9 8 -9 23q0 10 8.5 20.5 t19.5 24t19.5 31t8.5 41.5v33q0 10 -5.5 15t-12.5 8q-37 0 -40 36z" />
<glyph unicode="&#x3c;" horiz-adv-x="897" d="M99 563q0 16 16 32l464 464q12 11 29 24.5t32 13.5q18 0 32 -14l73 -71q13 -13 14 -30q0 -8 -3 -16.5t-8 -19.5l-386 -383l386 -383q5 -11 7 -19t2 -17q0 -18 -14 -31l-74 -75q-5 -5 -12 -8t-15 -3t-19.5 2.5t-16.5 8.5l-493 496q-13 13 -14 29z" />
<glyph unicode="=" horiz-adv-x="1058" d="M148 451v105q0 45 49 45h664q18 0 31.5 -11t13.5 -34v-105q0 -18 -12 -33t-33 -15h-664q-48 0 -49 48zM148 770v107q0 45 49 45h664q18 0 31.5 -12t13.5 -33v-107q0 -18 -12 -32.5t-33 -14.5h-664q-48 0 -49 47z" />
<glyph unicode="&#x3e;" horiz-adv-x="897" d="M143 146q0 7 3.5 18t8.5 16l383 383l-383 383q-11 17 -12 36q0 18 12 30l73 71q13 13 32 14q2 0 6.5 -1t12.5 -3l45 -34q229 -234 463 -464q13 -13 14 -30q0 -14 -11 -31l-466 -466q-14 -14 -31 -27.5t-35 -13.5q-8 0 -13.5 3t-11.5 8l-76 75q-13 13 -14 33z" />
<glyph unicode="?" horiz-adv-x="1164" d="M75 1115v25q2 104 43 192.5t109 152t158 99.5t192 36q99 0 189.5 -33.5t159.5 -92.5t110 -141.5t41 -181.5q0 -103 -30 -175t-75.5 -123.5t-98.5 -88t-98.5 -70.5t-75.5 -71t-30 -87v-155q0 -23 -14.5 -36.5t-32.5 -13.5h-108q-23 0 -35.5 15.5t-12.5 34.5v173 q0 54 18 97t46.5 77t66 63t76 56.5t75.5 55.5t66 61.5t47 74.5t18 94q0 61 -24 112t-65 88t-96.5 57.5t-119.5 20.5q-48 0 -92 -15.5t-80 -41.5t-63 -62t-39 -77q-9 -20 -13 -46.5t-9.5 -50.5t-15.5 -41.5t-33 -19.5h-107q-26 0 -34 11.5t-13 26.5zM473 43v105q0 20 13 33 t32 13h106q23 0 35 -13t12 -33v-105q0 -45 -45 -45h-106q-47 0 -47 45z" />
<glyph unicode="@" horiz-adv-x="2042" d="M197 983l18 48q3 10 8 16q7 9 16 11q4 2 7.5 3t8.5 1t9 -0.5t9 -1.5q9 -4 15 -11q5 -2 6.5 -6t3.5 -8t3 -8.5t2 -7.5q0 -9 -3 -19l-10 -30l50 -19l-7 -19zM222 994l48 -17l12 31q0 2 0.5 4.5t0.5 4.5q0 3 -0.5 5t-1.5 5q-1 2 -3 4l-4 4q-3 3 -7 5q-3 1 -6 1h-5 q-3 0 -5 -0.5t-4 -1.5q-2 -2 -4 -2.5t-4 -2.5l-6 -9zM244 1101l43 79l17 -11l-34 -60l37 -20l28 50l17 -10l-27 -49l37 -22l34 61l18 -9l-43 -79zM248 351l13 7q9 6 17 4l101 -10l-32 55l29 16l56 -97l-13 -8q-6 -2 -7 -2q-3 -2 -9 -2l-101 12l33 -56l-29 -17zM306 1209 l31 42q4 2 7 5.5t6 5.5q4 3 7.5 4t8.5 2h8t8 -1q9 -2 15 -9q3 -2 5 -4.5t5 -5.5q2 -2 3.5 -5l2.5 -5q1 -5 1 -8v-6q0 -6 -2 -13l76 -2l-7 -11q-3 -4 -8 -6q-3 -1 -5 -2t-4 -1l-65 2l-13 -17l48 -37l-12 -17zM329 222l111 94l64 -75l-26 -21l-42 47l-15 -14l32 -37l-26 -22 l-32 37l-19 -14l40 -47l-25 -23zM334 1213l36 -27l19 26q2 1 2.5 3.5t2.5 4.5v8q0 2 -1 4t-2 5q-4 4 -6 5q-4 4 -8 4q-2 1 -8 1q-2 -1 -4.5 -1t-4.5 -1q-4 -2 -6 -6zM364 732q0 91 23.5 175t66.5 156t102 130t131 99t153.5 63.5t167.5 22.5q139 0 256.5 -53t203.5 -142.5 t134.5 -206.5t48.5 -244q0 -116 -37 -216t-100.5 -180t-149.5 -136.5t-184 -86.5q-42 -11 -84 -17.5t-88 -6.5q-91 0 -174.5 23.5t-155.5 66.5t-130 102.5t-98.5 130.5t-63 152.5t-22.5 167.5zM401 1312q2 11 6 15q2 5 8 13q6 5 11 7q4 4 10 4q10 2 13 2q7 0 10 -1l-1 -6 q0 -3 -4 -10q-4 -4 -8 -4q-4 -1 -6 -1t-4 -1t-5 -4q-4 -3 -6 -7q-3 -3 -3 -8v-7q1 -3 4 -7t6 -5h6q3 0 9 2q3 2 6 2.5t7 2.5q2 1 3.5 2.5t2.5 1.5q2 1 8 3q4 0 7 3q1 0 2.5 0.5t3.5 0.5q20 2 33 -13q10 -6 11 -16q1 -5 2 -8t1 -8q-1 -5 -2.5 -10t-3.5 -9q-2 -5 -5.5 -8.5 t-5.5 -6.5q-13 -12 -32 -16h-6q-3 2 -6 3q-2 0 -3.5 0.5t-2.5 0.5t-1 0.5t-1 0.5l1 5q1 2 1.5 3.5t1.5 3.5q8 5 12 5h3q3 0 10 2q4 1 10 6q2 2 2.5 4t2.5 4q3 4 3 12q2 4 0 9q0 3 -1.5 5t-3.5 4q-3 5 -9 5q-5 3 -10 0q-6 0 -9 -3q-8 -2 -11 -5q-4 -1 -14 -5q-4 -2 -8.5 -2 t-6.5 -1q-10 0 -14 1q-3 2 -7 4t-6 6q-7 6 -10 14q-2 9 -1 15zM418 732q0 -80 20.5 -154.5t58.5 -140.5t91 -121t118.5 -94.5t142 -61.5t159.5 -22q122 0 230 46.5t188 127t126.5 188.5t46.5 232q0 109 -34.5 202.5t-94 167.5t-139 125t-168.5 76q-35 11 -73.5 16.5 t-81.5 5.5q-85 0 -162 -22t-142.5 -61.5t-118.5 -94.5t-90 -120.5t-57 -140.5t-20 -154zM449 94l71 85l-32 27l23 25l88 -74l-20 -25l-32 27l-73 -87zM476 732q0 98 31 182.5t89 155.5h707l-694 -695q-63 72 -98 163t-35 194zM494.5 1373.5q0.5 4.5 0.5 9.5q2 5 3.5 10 t3.5 9q2 5 4.5 8t5.5 8q6 6 15 13q8 7 18 8q9 4 19 4q9 3 20 0q5 -1 8 -2.5t8 -3.5t9 -4.5t8 -6.5q4 -3 7 -6.5t7 -8.5q2 -4 4.5 -8t3.5 -9q4 -9 4 -19q2 -10 0 -19q-1 -5 -2.5 -9.5t-3.5 -9.5q-5 -10 -11 -16q-4 -3 -7 -6.5t-8 -5.5q-14 -10 -26 -12q-15 -4 -30 0 q-7 1 -13 4t-14 6q-12 8 -20 20q-2 4 -4.5 8.5t-3.5 10.5q-5 10 -5 18q-1 5 -0.5 9.5zM502 46l130 92l23 -16l-19 -156l-22 11q-1 3 -4 5q-3 3 -3 5q-2 4 -2 6v6l2 17l-48 29l-14 -10q-1 -1 -2.5 -1t-2.5 -1h-6q-2 -1 -4 -0.5t-3 0.5q-2 1 -4 1t-3 1zM515 1359q2 -5 3.5 -10 t6.5 -10q4 -10 15 -15q8 -5 19 -7q10 -3 22 0q10 2 18 8q11 6 15 15q3 5 5 9.5t4 9.5q1 11 0 22q-2 4 -4 9t-6 10q-5 9 -15 15q-10 7 -18 8q-11 2 -21 0q-11 -2 -20 -9q-9 -6 -16 -15q-3 -5 -4.5 -10t-3.5 -10q-2 -9 0 -20zM590 67l22 -15l2 28q0 1 1 1.5t1 1.5q0 2 0.5 2 t0.5 1t0.5 1.5t0.5 1.5l-2 -2q-4 -2 -3 -2l-1 -2q0 -1 -1 -1zM624 1489l14 6q4 2 8 2q5 0 6 -2l112 -72l1 -1q1 -2 1 -3q2 0 2 -0.5t1 -0.5l-47 112l19 7l56 -134l-15 -6q-4 -1 -8 -1q-5 0 -8 1l-109 71q-2 0 -2 0.5t-2 0.5q0 2 -1 4q-1 0 -1 1v2l47 -114l-19 -8zM649 1129 q73 65 164 101.5t195 36.5q103 0 193.5 -37t159.5 -101h-712zM651 334h716q-74 -61 -165 -98t-194 -37t-193 36.5t-164 98.5zM655 -41l55 134l89 -35l-11 -30l-59 21l-8 -21l48 -20l-13 -32l-48 20l-19 -50zM711 391l693 701q68 -84 101.5 -173t33.5 -187t-31 -183.5 t-88 -157.5h-709zM778 -23.5q0 5.5 2 10.5q1 8 6 19q6 6 12 14q3 4 6.5 7.5l6.5 6.5q5 3 9 4.5t9 3.5q4 2 9.5 2.5t10.5 1.5h9.5t9.5 -2t10 -3t9 -3q10 -5 16 -10q4 -4 7 -7.5t5 -7.5q7 -8 9 -18q2 -5 3 -9t2 -10v-9.5t-1 -9.5q-1 -10 -7 -19l-6 -8l-6 -8q-4 -7 -13 -12 q-5 -2 -9 -4t-9 -4t-9.5 -3t-9.5 -1h-9.5t-11.5 2q-5 1 -9 2t-9 3q-4 2 -8 4.5t-8 6.5q-4 3 -6.5 7t-5.5 7q-2 4 -5 8.5t-5 8.5q-2 12 -4 19v10.5zM797 1404l33 156l20 3l90 -130l-11 -2q-2 -1 -4 -0.5t-4 0.5q-5 1 -8 6l-14 20l-73 -14l-5 -25q-2 -5 -5 -8q-1 -2 -3.5 -3 t-4.5 -1zM815 -20q-1 -9 0 -17q1 -3 2 -6.5t3 -7.5q4 -6 10 -11q3 -2 7.5 -3.5t9.5 -2.5q6 -3 14 0q9 1 15 5q7 6 11 12q2 4 4 7.5t3 6.5q2 8 0 18q-1 5 -7 13q-2 4 -4.5 6.5l-5.5 5.5q-4 2 -7.5 3t-8.5 3q-8 2 -14 0q-5 -2 -8.5 -3t-8.5 -3q-2 -2 -4.5 -5t-4.5 -7 q-4 -4 -6 -14zM830 1464l57 12l-38 54q-2 2 -2 4t-2 4v-4v-4zM936 1576l19 1l6 -126l64 3l1 -21l-85 -3zM939 29h15h14q7 0 9 -1q4 -3 5 -5l51 -73q1 -1 1 -2t1 -2q0 -2 1 -2.5t1 -1.5q0 -4 1 -5l-3 93h36l1 -146l-31 -1l-66 98l1 -98l-35 -1zM1082 32l115 20l6 -32l-40 -8 l22 -109l-34 -6l-21 109l-41 -8zM1085 1471q0 10 1 16l15 87l20 -4l-15 -87q-2 -8 0 -16q1 -3 2.5 -6.5t3.5 -5.5q2 -3 4.5 -5.5l4.5 -4.5l8 -4t8 -3q10 0 14 1q5 0 8 2l6 4q6 4 11 10q2 3 3.5 6.5t3.5 7.5l14 87l21 -2l-18 -89q-1 -3 -1.5 -6.5t-2.5 -7.5l-3.5 -7t-3.5 -6 q-3 -2 -6.5 -4.5t-5.5 -5.5q-5 -4 -13 -6q-4 -2 -8 -2.5t-7 -1.5q-10 0 -15 1q-5 0 -8.5 1.5t-7.5 3.5q-4 1 -6.5 3.5t-5.5 4.5q-7 5 -11 11q-2 5 -6 13q-3 7 -4 15zM1203 1430v3l6 2q4 0 8 -2q6 -1 9 -8v-1l3 -4.5t3 -3.5q4 -2 6 -3.5t5 -2.5q2 0 4.5 -0.5t4.5 -0.5h6.5 t5.5 1q7 2 9 5q5 5 6 9q3 6 0 11q0 2 -1 4l-2 4q-2 2 -3.5 4t-3.5 4q-2 1 -4 2.5t-7 3.5q-2 3 -5 5.5t-5 5.5q-3 2 -5 5.5t-4 7.5q-2 2 -3.5 5t-1.5 6q-2 7 3 17q1 8 7 15q7 6 13 7q5 2 9 2.5t7 0.5q4 0 8 -1t9 -2q4 -1 9 -6q5 -4 10 -9q2 -2 4 -4.5t3 -4.5q1 -3 1.5 -5 t1.5 -4l-6 -3q-5 -2 -10 0q-6 4 -8 6q-1 2 -2.5 3.5t-2.5 3.5q-2 1 -4 1.5t-4 1.5q-3 2 -9 2h-7q-3 -3 -8 -4q-3 -3 -3 -6q-3 -5 -1 -8q0 -4 2 -6q1 -2 2.5 -3.5t4.5 -3.5q3 -3 9 -7q2 -2 3 -4t3 -3t3 -2.5t3 -2.5l2.5 -2.5t3.5 -2.5l1.5 -3t2.5 -3q10 -15 4 -34 q-2 -5 -4.5 -9t-4.5 -7q-5 -3 -8.5 -5.5t-7.5 -3.5q-8 -4 -18 -4q-5 0 -9 0.5t-9 1.5q-18 8 -28 23q0 1 -1.5 2.5l-2.5 2.5q0 2 -0.5 3t-0.5 3q-1 1 -1 5zM1217 28v8q1 5 2 8.5t4 7.5q2 5 4.5 7.5l6.5 6.5q7 5 15 8q2 1 5 2t9 1q2 0 5 -1t7 -1q2 -1 5 -1.5t8 -2.5 q2 -2 4.5 -2.5t4.5 -2.5l-6 -12q-1 -3 -3 -7q-3 -1 -5 -1.5t-4 -0.5q-1 -1 -4 -1h-5h-5q-2 0 -3 -2q-4 0 -7 -2q-3 0 -3 -2l-2 -4q0 -1 1 -2q0 -3 3 -4q1 0 1.5 -1t2.5 -1h11h10h9t9 -1q4 -2 7 -2.5t7 -3.5q7 -5 12 -9t7 -14q4 -9 3 -19q0 -6 -2 -9.5t-4 -8.5 q-2 -4 -4.5 -7.5t-7.5 -8.5q-5 -2 -9 -5t-10 -5l-8 -2t-9 -1q-6 -2 -15 2q-8 1 -16 6q-3 2 -6 4.5t-5 6.5l7 10q2 2 4 3q3 3 4 3q3 1 11 1q2 0 3.5 -0.5t3.5 -0.5t3.5 -1t3.5 -1q5 0 7 2q3 0 4 0.5l3 1.5l5 5q2 2 2 8v6l-3 3q-1 1 -5 1q-2 2 -4 2h-4h-10h-7t-9 1q-6 0 -14 2 q-4 2 -7.5 4t-5.5 4q-5 5 -10 15q-2 5 -2 10zM1291 1373l66 130l80 -42l-9 -18l-61 33l-19 -38l50 -26l-10 -18l-51 26l-19 -38l62 -32l-9 -19zM1352 -13q0 5 2 7q0 2 3 7q1 3 6 5q3 1 4.5 1t3.5 1q2 0 3.5 -0.5t3.5 -0.5q5 -2 6 -4q3 -1 6 -7q4 -4 4 -7q0 -5 -2 -7t-2.5 -4 t-1.5 -3q-1 -2 -3 -3t-4 -3q-6 -2 -7 -2q-5 0 -7 1q-5 0 -9 4q-3 3 -4 8q0 2 -1 3.5t-1 3.5zM1365 85v9t2 9q1 9 5 19q3 4 5 8t6 8q3 4 7.5 7t9.5 7q7 4 13 7q4 2 7.5 2.5t9.5 2.5h17q5 0 9 -1t7 -2l-1 -14q-2 -4 -3 -7l-3 -3l-3 -3q-8 -4 -13 -4q-7 0 -12 -2q-5 -1 -12 -4 q-7 -4 -10 -11q-5 -8 -5 -15q-2 -8 0 -16q2 -10 6 -14q2 -6 11 -12q3 -3 6.5 -4t8.5 -3q6 -2 15 0q4 0 7 2t7 4q3 2 5 4.5t6 5.5l6 9q2 7 7 11q2 2 4 2t4 1h8l12 -2q-1 -5 -2 -9.5t-3 -8.5q-1 -5 -6 -16q-3 -8 -10 -13q-7 -7 -11 -10l-10 -6t-10 -4q-8 -4 -18 -4 q-5 -1 -9.5 -0.5t-10.5 1.5q-3 2 -7.5 2.5t-9.5 3.5q-4 3 -8 5.5t-7 6.5l-8 6t-7 7q-2 5 -4 9.5t-4 10.5q-1 4 -1.5 8.5t-2.5 9.5zM1444 1307q0 16 4 28q5 16 14 25q7 10 17 13q3 3 7 5l8 4q5 2 9.5 2t9.5 1h10t10 -1q9 -2 18 -6q7 -3 16 -11q4 -3 8 -6.5t6 -8.5q6 -7 7 -17 q4 -8 4 -18v-9.5t-1 -10.5q-2 -5 -3 -9.5t-3 -8.5q-5 -10 -11 -15q-4 -5 -7 -9t-7 -7q-5 -2 -9.5 -4t-9.5 -3q-9 -3 -18 -3h-10t-10 1q-3 1 -7.5 2t-9.5 4q-5 2 -8.5 4.5t-9.5 4.5q-5 7 -9.5 13t-7.5 12q-2 7 -4 13.5t-3 14.5zM1463 1309q0 -6 1.5 -11t3.5 -10q4 -5 7 -9.5 t7 -7.5q5 -4 9.5 -6t9.5 -5q11 -3 20 -3q13 0 20 7q5 2 9.5 5t9.5 6q8 9 9 19q5 9 3 21q0 5 -1 10t-4 10q-2 5 -5 9t-8 8q-4 4 -9 6.5t-10 4.5t-10 2.5t-11 0.5q-5 0 -10 -2l-10 -4q-9 -5 -15 -12q-9 -9 -13 -19q-2 -5 -2.5 -10t-0.5 -10zM1474 169v9t0.5 10t1.5 10t3 9t4 9 q3 3 5.5 7t6.5 7q4 4 8 7.5t8 6.5q4 2 8.5 3.5t9.5 2.5q5 2 9 2h9h10t10 -2q5 -1 9.5 -2.5t8.5 -3.5q5 -3 8 -6.5t9 -7.5q3 -4 5.5 -7.5t5.5 -8.5q2 -4 3.5 -8t3.5 -9q1 -5 1 -10v-10q0 -7 -2 -17q-1 -5 -3 -10t-4 -9q-4 -8 -13 -16q-4 -4 -7.5 -6.5t-7.5 -4.5q-5 -2 -9 -4 t-9 -4q-9 -3 -20 -3q-9 0 -18 3q-5 1 -9.5 3.5t-9.5 4.5q-3 2 -7 5l-8 6q-4 4 -6.5 7.5t-5.5 8.5q-2 5 -3.5 9.5t-2.5 9.5q-2 5 -2 9zM1507 178q0 -10 2 -14t4.5 -7.5t5.5 -6.5t6.5 -5.5t7.5 -4.5q6 -2 14 -2q11 0 16 2q4 1 7 3.5t6 6.5q8 6 9 12q3 7 3 15q0 7 -3 16 q-1 7 -9 13q-6 7 -13 10q-6 3 -16 3q-4 0 -7 -0.5t-7 -1.5q-4 -2 -7.5 -4t-6.5 -6q-5 -4 -10 -13q-2 -3 -2 -7.5v-8.5zM1530 1200l117 88l11 -13q2 -4 3 -7v-8l-43 -123q0 -1 -0.5 -1t-0.5 -1t-1 -1t-1 -1l-1 -3l97 72l12 -15l-116 -87l-10 12q-3 2 -5 7q0 5 1 7l42 125 q0 1 1 1t1 1l1 1q1 2 2 3l-98 -71zM1546 278l14 19q3 5 9 8q3 1 6.5 1h5.5l86 -13l-48 72q-2 4 -3 6.5t-1 5.5q0 4 1 6.5t3 5.5l13 20l123 -79l-18 -30l-60 38l42 -63l-15 -24l-73 13l57 -38l-20 -28zM1614 1082l130 67l8 -16l-112 -59l30 -55l-18 -10zM1660 985l58 23l2 1 l4 2q0 2 0.5 2.5t0.5 1.5q3 0 4 2l48 75l3 -13q2 -4 2.5 -7t0.5 -5q-1 -2 -2 -4.5t-2 -4.5l-32 -48l-2 -2l-1 -1h2q0 1 3 0l55 -17q2 -1 4.5 -2t5.5 -3q4 -2 5 -8l5 -13l-84 24q-2 0 -3 1h-4h-4q-3 0 -5 -1l-57 -21z" />
<glyph unicode="A" horiz-adv-x="1506" d="M79 36q0 7 0.5 11.5t1.5 8.5t2 7l591 1420q2 5 5 11.5t8 12t15 10t26 4.5h68q15 0 24.5 -4.5t15 -10t8.5 -12t5 -11.5l586 -1420l2 -10t2 -9.5t1 -7.5q0 -36 -47 -36h-109q-20 0 -33.5 10t-20.5 28l-113 281h-719q-36 -91 -65.5 -164.5t-43.5 -116.5q-7 -17 -20.5 -27.5 t-34.5 -10.5h-108q-47 0 -47 36zM480 518h558l-276 701z" />
<glyph unicode="B" horiz-adv-x="1389" d="M167 45v1426q0 49 47 50h601q89 0 165 -32t132 -87t88 -130.5t32 -163.5t-34.5 -166t-95.5 -133q47 -28 85.5 -67t66 -85.5t42.5 -99.5t15 -111q0 -89 -33 -169.5t-90.5 -142t-135.5 -98t-169 -36.5h-669q-20 0 -33.5 11.5t-13.5 33.5zM362 196h519q47 0 89 20.5t73 54.5 t49 79.5t18 95.5q0 48 -18 91.5t-48.5 76t-72.5 52t-90 19.5h-519v-489zM362 881h449q47 0 87.5 17t69.5 48t46 72.5t17 89.5q0 47 -16 87t-45 69t-69 45t-88 16h-451v-444z" />
<glyph unicode="C" horiz-adv-x="1457" d="M105 759q0 108 28 207.5t79 186.5t122.5 158.5t158.5 122.5t186.5 79t208.5 28q128 0 243 -37.5t217 -110.5q11 -8 18 -19t7 -22q0 -14 -8 -25l-54 -90q-17 -25 -36 -25q-7 0 -16 4t-20 12q-74 52 -155.5 79.5t-171.5 32.5q-132 0 -243.5 -47.5t-193 -128t-127.5 -186.5 t-46 -223q0 -125 47 -231t126.5 -183t184.5 -120t221 -43q42 0 84 6t85.5 21t90.5 38t100 57q19 11 32 11q18 0 34 -25l58 -97q7 -13 7 -24q0 -25 -24 -39q-96 -70 -212 -109.5t-250 -39.5q-109 0 -208.5 28t-186.5 79t-158 122.5t-121.5 158t-78.5 186t-28 208.5z" />
<glyph unicode="D" horiz-adv-x="1581" d="M165 43v1428q0 49 47 50h478q110 0 209 -27t184 -76t154 -118.5t117.5 -154t75 -182.5t26.5 -204q0 -105 -27 -202t-76.5 -181.5t-119.5 -153.5t-155 -118.5t-183 -76.5t-205 -27h-478q-18 0 -32.5 8.5t-14.5 34.5zM361 196h324q125 0 230.5 46t182 124t119.5 182.5 t43 221.5q0 125 -45.5 227.5t-122.5 175t-180.5 112.5t-221.5 40h-329v-1129z" />
<glyph unicode="E" horiz-adv-x="1315" d="M166 43v1431q0 47 45 47h981q47 0 47 -50v-101q0 -19 -12 -33.5t-37 -14.5h-825v-421h649q18 0 31.5 -10.5t13.5 -36.5v-104q0 -18 -11.5 -33t-33.5 -15h-649v-503h829q47 0 47 -48v-106q0 -45 -45 -45h-985q-45 0 -45 43z" />
<glyph unicode="F" horiz-adv-x="1284" d="M166 43v1431q0 47 45 47h967q47 0 47 -50v-101q0 -19 -13 -33.5t-34 -14.5h-813v-503q163 0 320.5 -0.5t321.5 -0.5q18 0 31.5 -11t13.5 -37v-103q0 -18 -12 -32.5t-33 -14.5h-642v-577q0 -43 -49 -43h-105q-45 0 -45 43z" />
<glyph unicode="G" horiz-adv-x="1509" d="M114 759q0 108 27.5 207t78.5 186t122.5 158.5t158 123t186 79.5t208.5 28q126 0 242.5 -38.5t218.5 -109.5q11 -8 18 -19t7 -22q0 -14 -8 -25l-54 -90q-17 -25 -36 -25q-7 0 -16 4t-20 12q-74 52 -160.5 82t-184.5 30q-127 0 -235 -48t-187.5 -129t-124.5 -186.5 t-45 -219.5q0 -122 46 -228t125 -184.5t184 -123.5t224 -45q75 0 149 24t151 57v370q0 45 45 45h105q18 0 32.5 -12t14.5 -33v-458q0 -12 -5 -23t-17 -18l-8 -6q-96 -70 -212 -107.5t-250 -37.5q-109 0 -208.5 28t-186 79t-158 122.5t-122 158t-78 186t-27.5 208.5z" />
<glyph unicode="H" horiz-adv-x="1584" d="M165 45v1431q0 18 12 31.5t33 13.5h105q18 0 32.5 -13.5t14.5 -31.5v-575h864v575q0 18 12 31.5t33 13.5h103q18 0 33.5 -12.5t15.5 -32.5v-1431q0 -45 -49 -45h-103q-45 0 -45 45v657h-864v-657q0 -45 -49 -45h-103q-45 0 -45 45z" />
<glyph unicode="I" d="M165 45v1431q0 18 11.5 31.5t33.5 13.5h106q18 0 33 -12.5t15 -32.5v-1431q0 -45 -48 -45h-106q-45 0 -45 45z" />
<glyph unicode="J" horiz-adv-x="535" d="M-296 -232q0 22 17 38l68 70l9 4q7 5 13.5 7t11.5 2q14 0 28.5 -11.5t34 -26.5t46.5 -26.5t69 -11.5q37 0 68 13t54 36.5t36 55.5t13 69v1491q0 18 10.5 29.5t32.5 13.5h111q45 0 45 -45v-1489q0 -78 -29.5 -145t-79 -117t-117 -78t-144.5 -28q-86 0 -163 31t-126 97 q-8 7 -8 21z" />
<glyph unicode="K" horiz-adv-x="1504" d="M166 45v1431q0 18 11 31.5t34 13.5h105q18 0 33 -12.5t15 -32.5v-731l707 744q24 32 47 32h203q25 0 25 -12q0 -9 -12 -20v2q-144 -158 -290 -311.5t-295 -310.5l701 -828q8 -12 11.5 -20t3.5 -10q0 -11 -22 -11h-203q-25 0 -45 32l-582 696l-249 -266v-417 q0 -45 -48 -45h-105q-45 0 -45 45z" />
<glyph unicode="L" horiz-adv-x="1175" d="M167 45v1431q0 18 12 31.5t35 13.5h105q19 0 32.5 -11.5t13.5 -33.5v-1277h717q18 0 31.5 -13t13.5 -35v-106q0 -18 -12 -31.5t-33 -13.5h-870q-45 0 -45 45z" />
<glyph unicode="M" horiz-adv-x="1897" d="M93 45l162 1431q0 20 15.5 32.5t33.5 12.5h158q33 0 45 -38l444 -1087l449 1087q5 18 16 28t26 10h163q22 0 33.5 -13.5t11.5 -31.5l161 -1431q0 -45 -45 -45h-106q-47 0 -47 45l-120 1146l-452 -1088q-17 -38 -41 -37h-99q-23 0 -40 37l-449 1088l-120 -1146 q0 -45 -45 -45h-107q-47 0 -47 45z" />
<glyph unicode="N" horiz-adv-x="1620" d="M165 45v1429q0 20 12 33.5t33 13.5h137q27 0 43 -23l872 -1158v1143q6 38 45 38h103q18 0 34 -12.5t16 -32.5v-1431q0 -45 -50 -45h-117q-23 0 -39 23l-894 1198v-1176q0 -45 -47 -45h-103q-45 0 -45 45z" />
<glyph unicode="O" horiz-adv-x="1800" d="M117 759q0 108 27.5 207.5t78.5 186.5t122.5 158.5t158.5 122.5t186.5 79t208.5 28q108 0 207.5 -27.5t186 -79t158.5 -122.5t122.5 -158.5t78.5 -188t28 -208.5t-27.5 -207.5t-78.5 -186.5t-122.5 -158t-158.5 -121.5t-187 -78.5t-209 -28t-208.5 28t-186 79t-158 122.5 t-122 158t-78 186t-27.5 208.5zM313 762q0 -81 21 -155.5t59 -139.5t91.5 -118t118.5 -91t139 -59t155 -21q80 0 154.5 21t139 59t118 91t91.5 118t59 139.5t21 155.5q0 121 -46 227t-125 184.5t-185 125t-227 46.5q-81 0 -155 -21t-139 -59t-118.5 -91.5t-91.5 -118 t-59 -139t-21 -154.5z" />
<glyph unicode="P" horiz-adv-x="1309" d="M167 45v1426q0 49 47 50h509q101 0 187.5 -38t150 -103t99.5 -151.5t36 -182.5q0 -94 -35.5 -179.5t-98.5 -150.5t-148.5 -103.5t-185.5 -38.5h-363v-529q0 -45 -46 -45h-107q-45 0 -45 45zM365 770h358q55 0 105.5 22.5t88 61t59.5 89t22 105.5q0 54 -21.5 104 t-58.5 88.5t-87.5 61.5t-107.5 23h-358v-555z" />
<glyph unicode="Q" horiz-adv-x="1800" d="M117 759q0 108 27.5 207.5t78.5 186.5t122.5 158.5t158.5 122.5t186.5 79t208.5 28q108 0 207.5 -27.5t186 -79t158.5 -122.5t122.5 -158.5t78.5 -188t28 -208.5q0 -117 -32.5 -223.5t-91.5 -197t-141 -163t-180 -119.5q-55 -26 -116.5 -42t-123.5 -27v-267 q-3 -45 -49 -45h-103q-45 0 -45 47v265l-66 15q-33 2 -60.5 9.5t-54.5 20.5q-110 42 -201.5 114t-158.5 167t-103.5 208.5t-36.5 239.5zM313 762q0 -81 21 -155.5t59 -139.5t91.5 -118t118.5 -91t139 -59t155 -21q80 0 154.5 21t139 59t118 91t91.5 118t59 139.5t21 155.5 q0 121 -46 227t-125 184.5t-185 125t-227 46.5q-81 0 -155 -21t-139 -59t-118.5 -91.5t-91.5 -118t-59 -139t-21 -154.5z" />
<glyph unicode="R" horiz-adv-x="1408" d="M166 45v1426q0 49 45 50h591q102 0 190 -38.5t153.5 -104.5t103 -154.5t37.5 -189.5q0 -72 -20 -138t-55.5 -122t-86 -100.5t-111.5 -74.5l270 -554v-13q0 -32 -38 -32h-124q-32 0 -49 38l-246 516q-8 -1 -17.5 -1t-27.5 -0.5t-48 -0.5h-78.5h-119h-170.5v-507 q0 -45 -48 -45h-106q-45 0 -45 45zM365 748h441q60 0 112.5 23.5t90.5 63t59.5 92t21.5 109.5q0 56 -22 108.5t-60.5 92.5t-91.5 64t-114 24h-437v-577z" />
<glyph unicode="S" horiz-adv-x="1362" d="M128 309l81 68q17 14 33.5 12.5t29.5 -17.5l14 -14q43 -48 97.5 -83t109.5 -58t105 -34.5t85 -11.5q62 0 128 16.5t120 50t89 85.5t35 121q0 58 -34.5 99t-93 71t-136.5 54t-167 51q-123 36 -211 75.5t-145 87t-83.5 106.5t-26.5 132q0 93 37 170.5t106 134t165.5 87.5 t216.5 31q65 0 134.5 -16.5t135.5 -45.5t124 -69.5t100 -89.5q14 -15 14.5 -32t-15.5 -33l-73 -69q-16 -15 -33.5 -14t-31.5 15q-14 9 -47 35.5t-80.5 54.5t-107 50t-127.5 22q-81 0 -139.5 -19.5t-96.5 -52t-55.5 -73t-17.5 -81.5q0 -57 37.5 -96t100 -67.5t142 -51.5 t162 -48.5t162 -57.5t142 -79t100 -112.5t37.5 -158.5q0 -108 -44.5 -195.5t-121.5 -149.5t-181.5 -95.5t-224.5 -33.5q-80 0 -158.5 17.5t-150.5 52t-134.5 83.5t-111.5 113q-13 15 -13 31q0 18 18 32z" />
<glyph unicode="T" horiz-adv-x="1269" d="M55 1372v104q0 20 13.5 32.5t33.5 12.5h1052q18 0 33 -11.5t17 -33.5v-104q0 -20 -12 -35t-38 -15h-426v-1275q0 -18 -12.5 -32.5t-34.5 -14.5h-103q-18 0 -33 13.5t-15 33.5v1275h-428q-20 0 -33.5 12.5t-13.5 37.5z" />
<glyph unicode="U" horiz-adv-x="1540" d="M144 601v875q0 15 12 30t31 15h110q15 0 31.5 -13.5t16.5 -31.5v-847q0 -97 28 -181t83 -146t134 -97.5t180 -35.5q109 0 189.5 36t133.5 98t79 145.5t26 180.5v847q0 18 14 31.5t34 13.5h99q19 0 35.5 -12.5t16.5 -32.5v-875q0 -138 -49.5 -253.5t-135 -197.5 t-199.5 -128.5t-243 -46.5t-242.5 49.5t-199 135t-135 199t-49.5 242.5z" />
<glyph unicode="V" horiz-adv-x="1475" d="M57 1485q0 36 47 36h109q20 0 33.5 -10.5t19.5 -27.5q14 -39 40 -103t57.5 -143.5t68.5 -170t74.5 -182.5t73.5 -181.5t67 -165t55 -134t37 -90.5q12 32 36.5 90.5t55 134t66.5 165t73 181.5t73 182.5t68 170t57.5 143.5t39.5 103q7 17 20.5 27.5t34.5 10.5h107 q48 0 48 -36q0 -4 -1 -8t-2 -10l-2 -10l-586 -1419q-2 -5 -5 -12t-8 -12.5t-14.5 -9.5t-26.5 -4h-67q-15 0 -25 4t-15.5 9.5t-8.5 12.5t-5 12l-591 1419q-1 3 -2 7q-2 8 -2 21z" />
<glyph unicode="W" horiz-adv-x="2182" d="M60 1489q0 32 40 32h115q15 0 28.5 -10.5t21.5 -32.5l479 -1178l479 1198q9 23 28 23h133q26 0 34.5 -10t8.5 -24v-13l-234 -566l250 -608l478 1183q14 38 54 38h106q26 0 35.5 -10t9.5 -24v-9l-597 -1435q0 -1 -2.5 -7.5t-9 -14.5t-16.5 -14.5t-24 -6.5h-70 q-26 0 -38.5 13.5t-12.5 24.5l-264 631l-262 -626q-5 -17 -17.5 -30t-29.5 -13h-72q-22 0 -34 14t-18 25l-594 1435l-3 6t-2 9z" />
<glyph unicode="X" horiz-adv-x="1374" d="M64 12v5q0 11 12 28l486 714q-65 95 -129.5 191t-126.5 187t-120 175.5t-108 155.5q-15 23 -15 35q1 4 3 7q8 11 38 11h127q26 0 41 -10t35 -35l370 -545l372 545q20 26 35.5 35.5t40.5 9.5h126q33 0 41 -11q2 -3 2 -7q0 -12 -15 -35q-50 -72 -108 -156t-120.5 -175 t-127.5 -187t-128 -191l486 -714q11 -16 11 -28q0 -3 -1 -5q-3 -12 -28 -12h-151q-18 0 -32.5 9.5t-28.5 28.5l-374 552l-372 -552q-13 -18 -27.5 -28t-32.5 -10h-152q-26 0 -29 12z" />
<glyph unicode="Y" horiz-adv-x="1281" d="M47 1521h166q9 -1 15 -2t11.5 -5t10.5 -12t13 -22l367 -636h3l374 643q11 20 20 26t25 8h171q22 0 22 -17v-2q0 -9 -11 -26q-63 -101 -125.5 -206.5t-124.5 -211.5t-125 -211t-128 -206v-592q0 -49 -45 -49h-109q-43 0 -43 49v587l-501 835q-12 19 -12 32q0 18 26 18z " />
<glyph unicode="Z" horiz-adv-x="1396" d="M68 49v111q0 11 7 27l976 1135h-916q-49 0 -49 48v106q0 45 49 45h1138q19 0 33.5 -13t14.5 -34v-113q0 -15 -9 -32l-965 -1130h929q20 0 33.5 -11.5t13.5 -36.5v-102q0 -18 -13.5 -33.5t-33.5 -15.5h-1158q-20 0 -35 14.5t-15 34.5z" />
<glyph unicode="[" horiz-adv-x="555" d="M165 -180v1894q0 45 45 45h293q45 0 45 -45v-105q0 -47 -45 -47h-139v-1589h139q19 0 32 -12.5t13 -35.5v-105q0 -45 -45 -45h-293q-45 0 -45 45z" />
<glyph unicode="\" horiz-adv-x="952" d="M61.5 1500q4.5 10 13 15t17 5.5t10.5 0.5h116q26 0 38.5 -10t24.5 -35l599 -1433q0 -12 2.5 -13.5t2.5 -6.5q0 -23 -36 -23h-129q-18 0 -30.5 9.5t-20.5 28.5l-604 1433q-8 19 -3.5 29z" />
<glyph unicode="]" horiz-adv-x="555" d="M165 -83q0 22 14.5 34.5t32.5 12.5h137v1588h-137q-47 0 -47 47v106q0 20 13 32.5t34 12.5h291q45 0 45 -45v-1894q0 -45 -45 -45h-291q-44 0 -47 45v106z" />
<glyph unicode="^" horiz-adv-x="1000" d="M122 1342q0 7 4 19t9 17q166 170 336 336q5 7 14.5 10t14.5 3q11 0 29 -15l318 -315q12 -14 21 -27t9 -25q0 -8 -4 -15t-10 -14l-72 -77q-13 -13 -32 -13q-23 0 -34 11l-225 227l-226 -227q-11 -5 -19 -7t-16 -2q-16 0 -29 13l-75 73q-13 12 -13 28z" />
<glyph unicode="_" horiz-adv-x="1337" d="M169 53v107q0 45 48 45h932q19 0 32 -12t13 -33l1 -126q0 -18 -13 -23t-33 -5h-932q-48 0 -48 47z" />
<glyph unicode="`" d="M116 1722q0 23 26 23h102q19 0 31 -10.5t24 -32.5l90 -210q7 -12 8 -21t3 -16q0 -14 -6.5 -21.5t-26.5 -7.5h-95q-35 0 -54 43l-93 215q-7 11 -8 20.5t-1 17.5z" />
<glyph unicode="a" horiz-adv-x="1560" d="M104 653q0 92 24.5 177.5t69 160.5t106 136.5t136 105.5t159.5 68t177 24q136 0 253 -51.5t205 -141.5v124q0 45 45 46h105q48 0 49 -46v-1211q0 -20 -13.5 -32.5t-31.5 -12.5h-107q-22 0 -34.5 13.5t-12.5 31.5v128q-88 -90 -205 -141.5t-253 -51.5q-91 0 -176.5 24 t-160 68.5t-136 106t-106 136.5t-69 160.5t-24.5 177.5zM312 653q0 -95 36.5 -183t99.5 -155t147.5 -107t180.5 -40t181.5 40t149 107t100.5 155t37 183q0 96 -37 184t-100.5 153.5t-149 104.5t-181.5 39t-180.5 -39t-147.5 -104.5t-99.5 -153t-36.5 -184.5z" />
<glyph unicode="b" horiz-adv-x="1587" d="M164 45v1596q0 20 13 33t32 13h106q22 0 34.5 -13.5t12.5 -32.5v-513q88 90 205 142t253 52q91 0 176.5 -24t160.5 -68.5t136.5 -106t106 -137t68.5 -161t24 -177.5t-24 -177.5t-68.5 -160t-106 -136t-136.5 -105.5t-160.5 -68.5t-176.5 -24.5q-136 0 -252.5 51.5 t-205.5 141.5v-124q0 -45 -45 -45h-105q-48 0 -48 45zM352 648q0 -97 37 -184t100.5 -152.5t148.5 -104.5t182 -39q96 0 180.5 39t147.5 104.5t99.5 152.5t36.5 184q0 95 -36.5 183.5t-99.5 155.5t-147.5 107t-180.5 40q-97 0 -182 -40t-148.5 -107t-100.5 -155.5 t-37 -183.5z" />
<glyph unicode="c" horiz-adv-x="1290" d="M77 649q0 92 24.5 177.5t69.5 160.5t107 136.5t137 106t160 68.5t177 24q57 0 114 -11t109.5 -29.5t99 -44.5t83.5 -55q7 -6 17 -14t16.5 -17.5t8.5 -21.5t-5 -25l-75 -98q-13 -17 -28 -17t-33 18q-28 29 -64 51.5t-76.5 39.5t-84.5 26.5t-88 9.5q-90 0 -174 -39 t-148.5 -105.5t-103 -155t-38.5 -185.5q0 -98 38 -185.5t102.5 -153t149 -104t176.5 -38.5q56 0 101.5 10.5t83 28.5t69 41t61.5 48q7 6 15.5 12.5t18.5 10t19.5 0t20.5 -16.5q20 -28 33 -45t21 -28t12 -16q5 -9 9 -17q2 -5 2 -11q0 -3 -1 -7q-2 -10 -10.5 -21.5 t-26.5 -25.5q-44 -35 -92 -63t-100 -48.5t-110 -32t-122 -11.5q-91 0 -176.5 24.5t-160.5 69t-137 106t-107 136t-69.5 160t-24.5 177.5z" />
<glyph unicode="d" horiz-adv-x="1560" d="M104 648q0 92 24.5 177.5t69 161t106 137t136 106t159.5 68.5t177 24q136 0 253 -51.5t205 -142.5v513q0 18 13 32t34 14h107q18 0 31.5 -12.5t13.5 -33.5v-1596q0 -45 -49 -45h-105q-45 0 -45 45v124q-88 -90 -205 -141.5t-253 -51.5q-91 0 -176.5 24.5t-160 68.5 t-136 105.5t-106 136t-69 160t-24.5 177.5zM312 648q0 -97 36.5 -184t99.5 -152.5t147.5 -104.5t180.5 -39t181.5 39t149 104.5t100.5 152.5t37 184q0 95 -37 183.5t-100.5 155.5t-149 107t-181.5 40t-180.5 -40t-147.5 -107t-99.5 -155.5t-36.5 -183.5z" />
<glyph unicode="e" horiz-adv-x="1551" d="M102 649q0 92 23 178t65.5 161t103 136.5t136 105.5t163 68t184.5 24q77 0 153 -17.5t145.5 -50.5t130.5 -82.5t109 -112.5q65 -88 97 -201q30 -106 30 -242v-17q0 -48 -45 -48h-1080q17 -82 61 -151.5t105 -121.5t135.5 -81t154.5 -29q56 0 102 10.5t83 28.5t69 41 t62 48l2 2q9 8 19.5 15.5t22.5 7.5q15 0 29 -19q20 -28 33 -45t22 -28q8 -11 12 -16q5 -6 8 -12.5t3 -15.5q0 -11 -8.5 -24t-30.5 -30q-44 -35 -91.5 -63t-100 -48.5t-110 -32t-122.5 -11.5q-91 0 -176 24.5t-160 69t-137 106t-107 136t-70 160t-25 177.5zM318 750h926 q-11 85 -52.5 154.5t-104 118.5t-141 76t-162.5 27q-67 0 -132 -17t-123 -53q-78 -52 -134 -131.5t-77 -174.5z" />
<glyph unicode="f" horiz-adv-x="664" d="M63 1085v65q0 30 15 42t39 12h97v216q0 74 23 139.5t66 114.5t105.5 78t141.5 29q24 0 37.5 -14.5t13.5 -40.5v-87q0 -20 -11 -36t-34 -16q-17 0 -42 -7.5t-47.5 -27t-38 -52t-15.5 -82.5v-214h137q24 0 37.5 -12t13.5 -42v-65q0 -28 -14 -43.5t-37 -15.5h-137v-972 q0 -27 -17 -40.5t-38 -13.5h-95q-26 0 -37.5 15.5t-11.5 38.5v972h-97q-24 0 -39 16t-15 43z" />
<glyph unicode="g" horiz-adv-x="1616" d="M166 653q0 92 24 177.5t68.5 160.5t106 136.5t136 105.5t159.5 68t178 24q136 0 252.5 -51.5t204.5 -141.5v124q0 45 45 46l116 -2q38 -5 38 -44v-16v-3v-1026q0 -117 -26 -210.5t-72 -165.5t-110 -123t-140 -83t-161.5 -47.5t-174.5 -15.5q-121 0 -219.5 34.5 t-175.5 87.5q-10 5 -17 12.5t-7 20.5q0 4 0.5 8.5t4.5 10.5l56 89q8 11 14.5 17t14.5 6q13 0 25 -9q24 -18 62.5 -33t83 -25t88.5 -16t78 -6q105 0 193.5 27.5t152 76.5t99 118t35.5 154l5 41q-88 -93 -207 -146.5t-258 -53.5q-91 0 -177 24t-160.5 68.5t-136 106 t-106 136.5t-68.5 160.5t-24 177.5zM374 653q0 -95 36 -183t99 -155t147.5 -107t181.5 -40q96 0 181.5 40t149 107t100.5 155t37 183q0 96 -37 184t-100.5 153.5t-149 104.5t-181.5 39t-181 -39t-148 -104.5t-99 -153t-36 -184.5z" />
<glyph unicode="h" horiz-adv-x="1346" d="M165 45v1597q0 20 13 33t32 13h106q22 0 35 -13.5t13 -32.5v-473q29 36 61.5 64.5t73 47.5t91.5 29.5t119 10.5q115 0 209.5 -43.5t162.5 -119t105.5 -176.5t37.5 -217v-695q0 -35 -18 -52.5t-46 -17.5h-76q-38 0 -48.5 15.5t-10.5 51.5v698q0 61 -21 125t-62.5 116.5 t-103.5 85t-143 32.5q-58 0 -117.5 -21t-107 -62t-77 -101t-29.5 -138v-757q0 -45 -46 -45h-105q-48 0 -48 45z" />
<glyph unicode="i" d="M165 45v1210q0 20 13 32.5t32 12.5h106q22 0 35 -13t13 -32v-1210q0 -45 -46 -45h-105q-48 0 -48 45zM165 1537v105q0 20 13 33t32 13h106q22 0 35 -13t13 -33v-105q0 -45 -46 -45h-105q-48 0 -48 45z" />
<glyph unicode="j" d="M-26 -289q0 26 15.5 40.5t39.5 14.5h7q27 2 50 17.5t39.5 39t26.5 52t10 55.5v1316q0 27 16.5 40.5t39.5 13.5h99q27 0 41 -15t14 -39v-1316q0 -70 -29 -131t-77 -107t-110 -73t-129 -27q-24 0 -38.5 14t-14.5 38v67zM160 1544v98q3 42 43 46h119q13 -1 22 -3t14.5 -7.5 t8 -15.5t2.5 -28v-84q0 -8 -1.5 -18t-6.5 -19.5t-14 -15.5t-25 -7h-119q-43 6 -43 54z" />
<glyph unicode="k" horiz-adv-x="1277" d="M166 45v1597q0 18 11.5 32t33.5 14h106q18 0 33 -12.5t15 -33.5v-931l532 564q12 11 25 19t31 8h156q17 0 25.5 -7.5t8.5 -17.5q0 -19 -11 -34l-499 -517l563 -668h-2q10 -10 12.5 -21.5t2.5 -18.5q0 -11 -6.5 -14.5t-23.5 -3.5h-177q-14 0 -26 8t-21 26l-457 555 l-133 -137v-407q0 -45 -48 -45h-106q-45 0 -45 45z" />
<glyph unicode="l" d="M164 45v1596q0 20 13 33t32 13h106q22 0 34.5 -13.5t12.5 -32.5v-1596q0 -45 -45 -45h-105q-48 0 -48 45z" />
<glyph unicode="m" horiz-adv-x="2209" d="M167 45v1210q0 20 13.5 32.5t31.5 12.5h106q22 0 35 -13t13 -32v-106q29 36 61.5 67t73 54.5t91.5 37t119 13.5q162 0 264 -60t164 -175q29 65 74 110t102 73t122 40.5t133 12.5q126 0 222 -43.5t161 -119t98.5 -176.5t33.5 -217v-695q0 -35 -18 -52.5t-46 -17.5h-75 q-38 0 -49 15.5t-11 51.5v698q0 61 -17 125t-55 116.5t-101.5 85t-156.5 32.5q-78 0 -139 -24.5t-103.5 -71t-65 -113.5t-22.5 -151v-695q0 -35 -18 -52.5t-46 -17.5h-76q-38 0 -48.5 15.5t-10.5 51.5v698q0 61 -17 125t-55.5 116.5t-101.5 85t-156 32.5q-58 0 -117.5 -21 t-107 -62t-77 -101t-29.5 -138v-757q0 -45 -45 -45h-106q-48 0 -48 45z" />
<glyph unicode="n" horiz-adv-x="1346" d="M165 45v1210q0 20 13 32.5t32 12.5h106q22 0 35 -13t13 -32v-127q29 36 64.5 70.5t80 61.5t99 44t121.5 17q126 0 222.5 -43.5t161.5 -119t98 -176.5t33 -217v-695q0 -35 -18 -52.5t-45 -17.5h-76q-38 0 -48.5 15.5t-10.5 51.5v698q0 61 -17 125t-55.5 116.5t-102 85 t-155.5 32.5q-58 0 -121 -21t-114 -62t-84 -101t-33 -138v-757q0 -45 -46 -45h-105q-48 0 -48 45z" />
<glyph unicode="o" horiz-adv-x="1554" d="M109 648q0 138 53.5 260.5t145 214.5t213.5 145.5t259 53.5q91 0 176.5 -24t160.5 -68.5t136.5 -106t106 -137t68.5 -161t24 -177.5t-24 -177.5t-68.5 -160t-106 -136t-136.5 -105.5t-160.5 -68.5t-176.5 -24.5t-176.5 24.5t-160 68.5t-136 105.5t-105.5 136t-68.5 160 t-24.5 177.5zM312 648q0 -97 37 -184t100.5 -152.5t148.5 -104.5t182 -39q96 0 181 39t147.5 104.5t99 152.5t36.5 184q0 95 -36.5 183.5t-99 155.5t-147 107t-181.5 40t-182 -40t-148.5 -107t-100.5 -155.5t-37 -183.5z" />
<glyph unicode="p" horiz-adv-x="1596" d="M166 -349v1605q0 45 48 46h105q45 0 46 -46v-124q88 90 204.5 141.5t252.5 51.5q92 0 177 -24t160 -68t136.5 -105.5t106 -136.5t68.5 -160.5t24 -177.5t-24 -177.5t-68.5 -160.5t-106 -136.5t-136.5 -106t-160.5 -68.5t-176.5 -24q-136 0 -252.5 51.5t-204.5 141.5v-522 q0 -18 -13 -31.5t-35 -13.5h-106q-18 0 -31.5 12t-13.5 33zM354 653q0 -95 37 -183t100.5 -155t148.5 -107t182 -40q96 0 180.5 40t147.5 107t99.5 155t36.5 183q0 96 -36.5 184t-99.5 153.5t-147 104.5t-181 39t-182 -39t-148.5 -104.5t-100.5 -153.5t-37 -184z" />
<glyph unicode="q" horiz-adv-x="1596" d="M166 653q0 92 24 177.5t68.5 160.5t106 136.5t136 105.5t159.5 68t178 24q136 0 252.5 -51.5t204.5 -141.5v124q0 45 45 46h106q48 0 48 -46v-1605q0 -20 -13.5 -32.5t-31.5 -12.5h-107q-22 0 -34.5 13t-12.5 32v522q-88 -90 -204.5 -141.5t-252.5 -51.5q-91 0 -177 24 t-160.5 68.5t-136 106t-106 136.5t-68.5 160.5t-24 177.5zM374 653q0 -95 36 -183t99 -155t147.5 -107t181.5 -40q96 0 181.5 40t149 107t100.5 155t37 183q0 96 -37 184t-100.5 153.5t-149 104.5t-181.5 39t-181 -39t-148 -104.5t-99 -153t-36 -184.5z" />
<glyph unicode="r" horiz-adv-x="1058" d="M160 45v1210q0 20 13 32.5t32 12.5h106q22 0 34.5 -13t12.5 -32v-92q12 24 35.5 51.5t56 51t74.5 39.5t92 16q55 0 100 -4.5t85 -16.5t77 -32t78 -50q12 -9 27 -23.5t15 -34.5q0 -11 -5 -20l-60 -93q-14 -17 -29 -18q-8 0 -15 5.5t-18 13.5q-63 43 -123 62.5t-127 19.5 q-51 0 -98.5 -19t-84 -55.5t-58.5 -89.5t-22 -119v-802q0 -45 -45 -45h-106q-47 0 -47 45z" />
<glyph unicode="s" horiz-adv-x="1062" d="M62 279q-1 5 -2 8q0 5 2 9q3 6 8.5 11t15.5 10l97 45q26 10 40.5 -2.5t22.5 -30.5q15 -40 48.5 -70.5t72.5 -50t78.5 -29t68.5 -9.5q39 0 86 11.5t88.5 35t69.5 60.5t28 89q0 55 -26.5 88.5t-69 55.5t-95 35.5t-105.5 27.5q-92 25 -164 60.5t-122.5 82t-77.5 106.5 t-27 134q0 82 32 150t88.5 116t136 74.5t175.5 26.5q79 0 136 -14.5t101 -42.5t81 -69.5t77 -95.5q12 -20 13 -35t-18 -30l-80 -60q-24 -13 -36 -7t-27 23q-24 28 -46 53.5t-51 45.5t-65 32t-87 12q-45 0 -87 -10.5t-75 -33t-53 -57t-20 -81.5q0 -36 24.5 -66t62.5 -54.5 t83 -42t87 -27.5q97 -23 177.5 -57.5t138 -83t89 -112.5t31.5 -144q0 -89 -35.5 -160.5t-98 -121t-150 -76t-189.5 -26.5q-65 0 -133 16t-128 50t-109 85t-75 121q-5 15 -7 25z" />
<glyph unicode="t" horiz-adv-x="664" d="M60 1167v96q0 27 12.5 33.5t38.5 6.5h118v218q0 17 7.5 24.5t24.5 13.5q6 2 25 4.5t40 6.5q25 4 53 9q6 1 11 1q10 0 16 -3q10 -4 15 -12.5t6 -19t1 -22.5v-220h142q24 0 34.5 -10.5t10.5 -37.5v-80q0 -27 -10.5 -38.5t-34.5 -11.5h-142v-885q0 -36 17.5 -50.5 t48.5 -14.5q24 0 39 -14.5t15 -39.5v-84q0 -24 -14 -37.5t-38 -13.5q-47 0 -95 11t-85.5 39.5t-62 77t-24.5 124.5v887h-118q-26 0 -38.5 8t-12.5 34z" />
<glyph unicode="u" horiz-adv-x="1352" d="M165 556v695q0 35 18 52.5t45 17.5h76q38 0 49 -15.5t11 -51.5v-698q0 -61 16.5 -125t55 -116.5t102 -85t155.5 -32.5q58 0 117 21t107 62t78 100.5t30 138.5v757q0 45 45 45h106q48 0 48 -45v-1210q0 -20 -13.5 -33t-31.5 -13h-107q-22 0 -34.5 13.5t-12.5 32.5v86 q-30 -36 -62 -64.5t-72.5 -48t-91.5 -29.5t-119 -10q-126 0 -222.5 43.5t-161.5 119t-98 176.5t-33 217z" />
<glyph unicode="v" horiz-adv-x="1219" d="M22 1265q0 35 44 35h3h107q20 0 33.5 -10t20.5 -27q19 -51 50 -130t67 -171t74.5 -189t73.5 -185t64.5 -160.5t46.5 -114.5q16 42 45 114.5t63.5 161t72 185.5t73 189t65.5 170.5t50 130.5q7 17 20.5 27.5t33.5 10.5h114q45 0 45 -36q0 -3 -1 -7.5t-3 -9.5t-3 -11 l-487 -1200q-3 -5 -5.5 -12t-8 -12.5t-15 -9.5t-25.5 -4h-68q-16 0 -25 4t-15 9.5t-8.5 12.5t-5.5 12l-492 1199q-1 3 -2 7q-2 8 -2 21z" />
<glyph unicode="w" horiz-adv-x="1976" d="M35 1265q0 35 44 35h3h107q20 0 34 -10t21 -27q19 -51 50 -130t66.5 -171t74 -189t74 -185t64.5 -160.5t47 -114.5q35 87 127 323.5t241 627.5q7 17 20.5 27.5t33.5 10.5h114q45 0 45 -36q0 -3 -1 -7.5t-3 -9.5t-3 -11l-99 -244l270 -681q16 42 45 114.5t63 161t72 185.5 t73.5 189t65.5 170.5t50 130.5q7 17 20 27.5t34 10.5h114q45 0 45 -36q0 -3 -1 -7.5t-3 -9.5t-4 -11l-486 -1200q-3 -5 -5.5 -12t-8 -12.5t-15 -9.5t-25.5 -4h-68q-16 0 -25.5 4t-15 9.5t-8 12.5t-5.5 12l-287 697l-282 -697q-3 -5 -6 -12t-8.5 -12.5t-14.5 -9.5t-26 -4h-67 q-16 0 -25.5 4t-15 9.5t-8 12.5t-6.5 12l-492 1199q-1 3 -2 7q-2 8 -2 21z" />
<glyph unicode="x" horiz-adv-x="1188" d="M27 17q0 11 11 28l439 637q-65 94 -115 168t-95 138.5t-88 126.5t-93 133q-20 31 -12.5 41.5t39.5 10.5h133q12 0 20.5 -2t16.5 -7.5t15 -14t17 -21.5l277 -425l276 425l17.5 21t15 14.5t16.5 7.5t21 2h133q32 0 39.5 -10.5t-12.5 -41.5q-50 -72 -93 -133.5t-88.5 -126 t-95.5 -138.5t-114 -168l439 -637q11 -16 11 -28q0 -3 -1 -5q-3 -12 -29 -12h-150q-19 0 -33 9.5t-29 28.5l-323 498l-324 -498q-14 -18 -28 -28t-33 -10h-151q-29 0 -29 17z" />
<glyph unicode="y" horiz-adv-x="1218" d="M23 1265q0 35 44 35h3h107q20 0 33.5 -10t20.5 -27q19 -51 50 -130t67 -171t74.5 -189t73.5 -185t64.5 -160.5t46.5 -114.5q16 42 45 114.5t63.5 161t72 185.5t73 189t65.5 170.5t50 130.5q7 17 20.5 27.5t33.5 10.5h114q45 0 45 -36q0 -3 -1 -7.5t-3 -9.5t-3 -11 l-241 -593l-410 -1003v2q-14 -38 -54 -38h-101q-49 0 -49 38q0 7 2 14.5t2 9.5l171 413l-475 1156q-1 3 -2 7q-2 8 -2 21z" />
<glyph unicode="z" horiz-adv-x="1284" d="M91 56v72q0 8 2 18t7 16q45 52 113 128.5t146.5 164.5t163.5 182.5t164 182.5t146.5 164t112.5 128h-795q-53 0 -54 59v74q0 26 14 40t40 14h988q24 0 40 -9.5t16 -35.5v-85q0 -17 -1.5 -28.5t-5 -20t-11 -16l-17.5 -17.5l-801 -903h781q24 0 39 -13t15 -40v-75 q0 -20 -15.5 -38t-38.5 -18h-993q-24 0 -40 17t-16 39z" />
<glyph unicode="{" horiz-adv-x="806" d="M83 712v106q0 45 45 45h41q27 0 43.5 10.5t26 26.5t13 37.5t3.5 44.5v327q0 87 22 161.5t64 132t103 94.5t138 49l42 7q45 -5 45 -45v-106q0 -20 -12.5 -34t-32.5 -14h-4q-28 0 -58 -13.5t-54.5 -37.5t-39.5 -57t-15 -70v-471q0 -36 -17 -72t-53 -69q70 -57 70 -140v-478 q0 -48 15.5 -78t39.5 -49t52.5 -29t52.5 -19.5t40 -20.5t16 -31v-106q0 -40 -45 -45l-42 7q-82 12 -143.5 49.5t-102.5 94t-61 131.5t-20 162v338q0 19 -5 39t-15.5 37t-25.5 28t-36 11h-45q-45 0 -45 47z" />
<glyph unicode="|" horiz-adv-x="514" d="M158 -383v1894q0 18 11 31.5t34 13.5h105q19 0 33.5 -12t14.5 -33v-1894q0 -45 -48 -45h-105q-45 0 -45 45z" />
<glyph unicode="}" horiz-adv-x="775" d="M90 -81q0 19 16 30.5t40 21t52 19.5t52 29t40 49t16 78v478q0 83 70 140q-36 33 -53 69t-17 72v471q0 37 -15.5 70t-40 57t-54 37.5t-57.5 13.5h-4q-20 0 -32.5 13.5t-12.5 34.5v106q0 40 45 45l43 -7q77 -12 137.5 -49t103 -94.5t64.5 -132t22 -161.5v-327 q0 -23 3 -44.5t12 -37.5t26 -26.5t44 -10.5h41q45 0 45 -45v-106q0 -47 -45 -47h-45q-20 0 -35.5 -11t-25.5 -28t-15 -37t-5 -39v-338q0 -87 -20.5 -162t-61 -131.5t-102 -94t-143.5 -49.5l-43 -7q-45 5 -45 45v106z" />
<glyph unicode="~" horiz-adv-x="1349" d="M124 600q0 11 2 13q59 103 149 161.5t211 58.5q52 -5 102.5 -21.5t98.5 -49.5l90 -59q52 -32 104 -31q33 0 61.5 11t48.5 32q7 7 18 20.5t21.5 26.5t20.5 22.5t17 9.5q8 9 25 9q9 0 30 -11.5t43 -27t38.5 -32.5t16.5 -29q0 -5 -0.5 -14t-6.5 -14l-38 -54 q-66 -82 -144.5 -115.5t-173.5 -33.5q-49 0 -100 20t-98 50l-88 56q-26 15 -49.5 24.5t-56.5 9.5q-32 0 -60.5 -11.5t-49.5 -31.5q-9 -9 -21 -24.5t-25 -31t-26 -26t-25 -10.5q-4 0 -25.5 10t-46 25.5t-44 33.5t-19.5 34z" />
<glyph unicode="&#xa1;" horiz-adv-x="504" d="M124 -437v1104q0 45 45 45h105q19 0 34 -12.5t15 -32.5v-1104q0 -45 -49 -45h-105q-45 0 -45 45zM124 965v75q0 25 2 41.5t8.5 26.5t19 14t33.5 4h52q14 0 29 -0.5t27 -5t20 -14t8 -27.5v-69q0 -24 -2 -40.5t-8.5 -26t-19.5 -13.5t-36 -4h-50h-26t-26 3t-20 11t-11 25z " />
<glyph unicode="&#xa2;" horiz-adv-x="1301" d="M77 649q0 124 44 235.5t120.5 199.5t179.5 148t221 81v162q0 45 47 45h105q20 0 33.5 -11.5t13.5 -33.5v-160q92 -13 174.5 -48.5t142.5 -84.5q7 -6 17 -14t16.5 -17.5t8.5 -21.5t-5 -25l-75 -98q-27 -35 -61 1q-28 29 -64 51.5t-76.5 39.5t-84.5 26.5t-88 9.5 q-90 0 -174 -39t-148.5 -105.5t-103 -155t-38.5 -185.5q0 -98 38 -185.5t102.5 -153t149 -104t176.5 -38.5q56 0 101.5 10.5t83 28.5t69 41t61.5 48q7 6 15.5 12.5t18.5 10t19.5 0t20.5 -16.5q20 -28 33 -45t21 -28t12 -16q5 -8 8.5 -16.5t1.5 -18t-10.5 -21.5t-26.5 -26 q-74 -57 -155 -96t-180 -52v-161q0 -45 -47 -45h-105q-18 0 -32.5 11.5t-14.5 33.5v164q-79 13 -151 44t-135 78t-114.5 106t-88 128.5t-56.5 146.5t-20 160z" />
<glyph unicode="&#xa3;" horiz-adv-x="1313" d="M92 651v104q0 18 12 32.5t33 14.5h28v208q0 121 46 219.5t126 169t187 109.5t229 39q102 0 193.5 -32t166.5 -92q17 -14 24.5 -23.5t8 -17.5t-4 -15t-11.5 -17l-49 -86q-23 -33 -54 -14l-43 32q-49 36 -107 56.5t-124 20.5q-81 0 -152.5 -24.5t-124 -70t-83.5 -111.5 t-31 -146v-205h250q45 0 45 -47v-104q0 -20 -11 -33.5t-34 -13.5h-250v-405h735q19 0 32 -12t13 -33v-107q0 -18 -12.5 -32.5t-32.5 -14.5h-887q-45 0 -45 43v561h-28q-45 0 -45 47z" />
<glyph unicode="&#xa4;" horiz-adv-x="1103" d="M126 811q0 19 16 36l130 131q15 15 30 15q18 0 34 -15l107 -109q33 8 59.5 13.5t49.5 5.5q20 0 47 -5t58 -14l111 109q13 13 30 13q20 0 36 -15l131 -131q15 -15 15 -32q0 -16 -15 -32l-109 -109q8 -33 13 -59.5t5 -47.5q0 -22 -5 -49t-13 -58l109 -109q15 -15 15 -32 q0 -19 -15 -31l-131 -130q-13 -13 -36 -14q-18 0 -30 12l-111 107q-65 -17 -105 -17q-42 0 -109 17l-107 -107q-16 -16 -32 -17q-18 0 -32 17l-130 130q-14 11 -14 35q0 8 3 16.5t8 13.5l109 109q-8 32 -13.5 59t-5.5 48q0 20 5.5 47t13.5 60l-109 109q-13 15 -13 30z M379 565q0 -36 13.5 -67.5t37 -55t54.5 -37t68 -13.5t68 13.5t54.5 37t37 55t13.5 67.5q0 37 -13.5 69t-37 55.5t-54.5 36.5t-68 13t-68 -13t-54.5 -36.5t-37 -55.5t-13.5 -69z" />
<glyph unicode="&#xa5;" horiz-adv-x="1490" d="M133 1498q0 23 27 23h167q9 -1 15 -2t11 -5t10.5 -12t12.5 -22l367 -606l376 613q5 11 17.5 22.5t23.5 11.5h176q6 0 13.5 -5t9.5 -7q0 -5 -2 -11.5t-5 -14.5l-453 -726h207q18 0 31.5 -11.5t13.5 -33.5v-68q0 -18 -12.5 -33.5t-32.5 -15.5h-261v-103h261q18 0 31.5 -12 t13.5 -34v-70q0 -18 -12.5 -32.5t-32.5 -14.5h-261v-284q0 -5 -1 -10t-6 -5q0 6 0 2t-2.5 -11.5t-9.5 -14t-19 -6.5h-127q-13 2 -23.5 15t-10.5 34v280h-225q-45 0 -45 47v70q0 45 45 46h225v103h-225q-45 0 -45 49v68q0 45 45 45h167l-442 714q-13 12 -13 27z" />
<glyph unicode="&#xa6;" horiz-adv-x="612" d="M210 381q0 18 11 31.5t34 13.5h103q18 0 34 -12.5t16 -32.5v-764q0 -45 -50 -45h-103q-45 0 -45 45v764zM210 748v763q0 18 11 31.5t34 13.5h103q18 0 34 -12t16 -33v-763q0 -45 -50 -46h-103q-45 0 -45 46z" />
<glyph unicode="&#xa7;" horiz-adv-x="1203" d="M142 117q0 7 6 14.5t14 12.5l59 40q11 7 20 7q7 0 10.5 -2.5t14.5 -10.5l2 -7q31 -35 70.5 -60t79.5 -42t76 -25t62 -8q46 0 93.5 12.5t87 39t64.5 64t25 89.5q0 42 -24.5 70t-66.5 48.5t-99 37t-122 35.5q-88 28 -151.5 57.5t-105 65.5t-61.5 79.5t-20 97.5 q0 83 40.5 146t114.5 102q-70 36 -112.5 92.5t-42.5 141.5q0 78 32.5 143t88.5 111t132.5 72t163.5 26q88 0 163 -24.5t145 -77.5q24 -18 42.5 -36.5t31 -35t19 -28t6.5 -16.5q0 -14 -16 -28l-60 -40q-7 -4 -12 -6.5t-9 -2.5q-7 0 -11.5 3.5t-12.5 11.5l-2 7 q-32 35 -71.5 60t-79.5 42t-76.5 25t-61.5 8q-45 0 -92 -12.5t-86.5 -38.5t-65 -64.5t-25.5 -88.5q0 -43 25.5 -71.5t68 -48.5t99 -35t121.5 -35q89 -27 152.5 -57t104 -67t60 -81t19.5 -97q0 -85 -41.5 -149t-118.5 -103q35 -18 64 -40t50.5 -50.5t33.5 -63t12 -78.5 q0 -78 -32.5 -142.5t-88.5 -111t-132.5 -72t-163.5 -25.5q-174 0 -308 103q-24 18 -43 36.5t-32 35t-20 28.5t-7 17zM319 736q0 -12 5.5 -37t30.5 -51.5t77 -50t147 -32.5h14q59 0 102 14.5t71 37.5t41 52t13 59q0 20 -4 37t-9 33q-14 16 -40 34.5t-58.5 33t-72.5 24 t-84 9.5q-59 0 -102.5 -14.5t-72.5 -37.5t-43.5 -52t-14.5 -59z" />
<glyph unicode="&#xa8;" horiz-adv-x="897" d="M166 1564v105q0 20 12.5 32.5t32.5 12.5h105q23 0 35.5 -12.5t12.5 -32.5v-105q0 -45 -46 -45h-105q-47 0 -47 45zM528 1564v105q0 20 13 32.5t32 12.5h106q23 0 35 -12.5t12 -32.5v-105q0 -45 -45 -45h-106q-47 0 -47 45z" />
<glyph unicode="&#xa9;" horiz-adv-x="1798" d="M117 762q0 106 27.5 205t78.5 185.5t122.5 158t159 123t187.5 79.5t209 28q106 0 205.5 -27.5t186 -79t158 -122.5t122.5 -158.5t79 -188t28 -208.5q0 -106 -27.5 -205.5t-78.5 -186t-122.5 -158t-158.5 -122.5t-187 -79.5t-209 -28.5q-106 0 -205.5 28t-186 79 t-158.5 122.5t-123 159t-79 187.5t-28 209zM266.5 676q13.5 -124 78.5 -239q42 -72 101 -129t130 -98t151 -63t162.5 -22.5t165 21.5t157.5 70q77 43 137 103.5t101.5 131t63.5 149.5t23.5 161t-19 163t-63.5 155q-66 114 -166 187t-217.5 103t-243 13.5t-242.5 -83.5 q-115 -68 -191.5 -168t-109 -215.5t-19 -239.5zM437 757q0 97 38 182.5t102.5 149.5t151 101.5t183.5 37.5q74 0 136 -20t121 -59q24 -17 14 -41l-61 -101q-17 -24 -41 -7q-78 56 -176 57q-62 0 -116.5 -23.5t-95 -64t-64 -95.5t-23.5 -117q0 -63 23.5 -117.5t64 -94.5 t95 -62.5t116.5 -22.5q51 0 95 13t83 43q25 16 41 -7l61 -101q10 -20 -14 -38q-118 -81 -266 -81q-97 0 -182 36.5t-148.5 100t-100.5 148.5t-37 183z" />
<glyph unicode="&#xaa;" horiz-adv-x="1047" d="M117 1151q0 80 29.5 149t81.5 121t121 81.5t149 29.5q82 0 133.5 -32t80.5 -88l18 79q0 30 32 30h90q9 0 22 -8q6 -6 7 -22v-678q-1 -15 -7 -22q-14 -6 -22 -7h-120q-32 0 -32 29v56q-33 -46 -80.5 -72.5t-121.5 -26.5q-80 0 -149 29.5t-121 81.5t-81.5 121t-29.5 149z M289 1151q0 -44 16 -82t43.5 -65.5t65.5 -43.5t82 -16t81.5 16t65.5 43.5t43.5 65.5t15.5 82v9q-2 41 -19 77.5t-45 63.5t-64.5 42.5t-77.5 15.5q-44 0 -82 -16t-65.5 -44t-43.5 -66t-16 -82z" />
<glyph unicode="&#xab;" horiz-adv-x="1412" d="M176 572q0 13 13 27l534 531q5 5 16 8.5t18 3.5q18 0 31 -14l55 -56q13 -13 13 -29q0 -7 -2 -17.5t-9 -15.5l-439 -443l439 -439q5 -5 8 -16t3 -18q0 -18 -13 -31l-59 -59q-5 -5 -12 -8t-15 -3q-18 0 -35 15.5t-33 29.5l-251 251t-251 252q-5 5 -8 14.5t-3 16.5zM582 572 q0 13 13 27l533 531q5 5 16 8.5t18 3.5q18 0 32 -14l54 -56q13 -13 14 -29q0 -7 -2.5 -17.5t-9.5 -15.5l-439 -443l439 -439q5 -5 8.5 -16t3.5 -18q0 -18 -14 -31l-58 -59q-5 -5 -12.5 -8t-15.5 -3q-18 0 -35 15.5t-32 29.5l-251 251t-251 252q-5 5 -8 14.5t-3 16.5z" />
<glyph unicode="&#xac;" horiz-adv-x="1189" d="M131 786v93q0 45 47 45h764q45 0 45 -45v-424q0 -18 -11.5 -31.5t-33.5 -13.5h-90q-19 0 -34.5 12t-15.5 33v284h-624q-47 0 -47 47z" />
<glyph unicode="&#xad;" horiz-adv-x="1126" d="M184 534v106q0 45 48 45h665q18 0 31.5 -11.5t13.5 -33.5v-106q0 -18 -12 -33t-33 -15h-665q-48 0 -48 48z" />
<glyph unicode="&#xae;" horiz-adv-x="1798" d="M117 762q0 106 27.5 205t78.5 185.5t122.5 158t159 123t187.5 79.5t209 28q106 0 205.5 -27.5t186 -79t158 -122.5t122.5 -158.5t79 -188t28 -208.5q0 -106 -27.5 -205.5t-78.5 -186t-122.5 -158t-158.5 -122.5t-187 -79.5t-209 -28.5q-106 0 -205.5 28t-186 79 t-158.5 122.5t-123 159t-79 187.5t-28 209zM266.5 676q13.5 -124 78.5 -239q42 -72 101 -129t130 -98t151 -63t162.5 -22.5t165 21.5t157.5 70q77 43 137 103.5t101.5 131t63.5 149.5t23.5 161t-19 163t-63.5 155q-66 114 -166 187t-217.5 103t-243 13.5t-242.5 -83.5 q-115 -68 -191.5 -168t-109 -215.5t-19 -239.5zM572 353v809q0 30 27 30h356q57 -3 107.5 -25.5t87.5 -60.5t58.5 -88t21.5 -108q0 -80 -37.5 -143.5t-99.5 -101.5l146 -309q0 -2 1 -3.5t1 -3.5q0 -20 -27 -20h-125q-15 0 -23 18l-129 282h-203v-276q0 -25 -26 -24h-109 q-11 0 -19 5.5t-8 18.5zM734 788h216q27 0 49 10t38 26.5t24.5 38.5t8.5 49q0 23 -8.5 45t-24 39t-37.5 27.5t-50 10.5h-216v-246z" />
<glyph unicode="&#xaf;" horiz-adv-x="998" d="M102 1578v79q0 36 37 36h718q37 0 37 -36v-79q0 -11 -8.5 -25.5t-28.5 -14.5h-718q-37 0 -37 40z" />
<glyph unicode="&#xb0;" horiz-adv-x="666" d="M109 1066q0 47 17 88t47.5 71.5t71.5 48t89 17.5q47 0 88 -17.5t71.5 -48t48 -71.5t17.5 -88q0 -48 -18 -89.5t-48.5 -72t-71.5 -47t-87 -16.5t-87 16.5t-72 47t-48.5 72t-17.5 89.5zM207 1066q0 -55 36 -91t91 -36q26 0 49 9.5t40 26.5t27 40t10 51q0 26 -10 49t-27 40 t-40 27t-49 10q-28 0 -51 -10t-40 -27t-26.5 -40t-9.5 -49z" />
<glyph unicode="&#xb1;" horiz-adv-x="1017" d="M131 47v107q0 45 45 45h665q18 0 31.5 -12t13.5 -33v-107q0 -18 -12.5 -32.5t-32.5 -14.5h-665q-45 0 -45 47zM131 696v106q0 45 45 45h232v232q0 47 50 47h103q45 0 45 -47v-232h235q18 0 31.5 -11.5t13.5 -33.5v-106q0 -18 -12.5 -32.5t-32.5 -14.5h-235v-234 q0 -18 -11.5 -31.5t-33.5 -13.5h-103q-19 0 -34.5 12t-15.5 33v234h-232q-45 0 -45 47z" />
<glyph unicode="&#xb2;" horiz-adv-x="856" d="M139 706v85q0 2 1.5 5t3.5 8l367 377q26 27 33.5 44.5t7.5 43.5q0 24 -10.5 45t-27.5 37.5t-40.5 26.5t-49.5 10q-27 0 -49.5 -10.5t-39.5 -28.5t-26 -40.5t-9 -46.5v-48q0 -25 -26 -24h-103q-13 0 -19 8t-6 16v48q0 58 22 107t60 85t88.5 56t107.5 20t109.5 -18.5 t92.5 -52t64 -81t24 -105.5q0 -61 -24.5 -110t-60.5 -82l-253 -255h311q27 0 27 -26v-94q0 -12 -8 -20t-19 -8h-518q-11 0 -20.5 7.5t-9.5 20.5z" />
<glyph unicode="&#xb3;" horiz-adv-x="775" d="M111 957q0 18 24 25h104q25 0 24 -25q0 -44 9.5 -72t25.5 -44.5t38 -23t49 -6.5q59 0 91.5 31t32.5 91q0 66 -31 91.5t-110 25.5q-26 0 -26 16v4v106q0 26 26 25q26 0 42.5 8.5t26.5 20.5t14 27t4 29t-2 30.5t-10 30.5t-24 22.5t-43 8.5q-25 0 -39.5 -8t-23 -22 t-11 -31.5t-2.5 -36.5q0 -14 -6 -21t-22 -7h-96q-26 0 -25 25q0 66 18 111.5t49.5 74.5t73.5 42.5t89 13.5q46 0 87.5 -18t72.5 -49t49 -72.5t18 -88.5q0 -88 -54 -142q26 -17 46.5 -37.5t34 -46.5t21 -58.5t7.5 -75.5q0 -57 -20.5 -107t-57.5 -87t-88 -58t-112 -21 q-57 0 -107.5 12.5t-87 45.5t-58 91t-21.5 150z" />
<glyph unicode="&#xb4;" d="M189 1455q2 7 3.5 16t8.5 21l90 210q12 23 24 33t31 10h101q27 0 27 -23q0 -8 -1 -17t-8 -21l-93 -215q-19 -43 -55 -43h-94q-20 0 -27 7.5t-7 21.5z" />
<glyph unicode="&#xb5;" horiz-adv-x="1344" d="M167 -349v1606q0 45 45 46h105q16 0 26 -8.5t14.5 -22.5t6 -31t1.5 -35v-737q3 -57 30.5 -107t71 -86.5t97 -57.5t109.5 -21t112.5 22.5t101.5 60.5t73 90t28 110v780q0 43 47 43h107q45 0 45 -46v-722q0 -111 -37.5 -209t-105 -171t-162.5 -115t-209 -42 q-102 0 -182 40.5t-126 109.5v-500q0 -18 -14.5 -30t-33.5 -12h-105q-45 0 -45 45z" />
<glyph unicode="&#xb6;" horiz-adv-x="1430" d="M79 1102q0 86 32.5 161.5t89 132.5t132.5 90t161 33h45h9h407q3 0 8 1t10 1h106h7t9 -2h185q18 0 31.5 -12t13.5 -33v-107q0 -18 -12.5 -32.5t-32.5 -14.5h-154v-1275q0 -45 -47 -45h-106q-45 0 -45 45v1275h-218v-1275q0 -45 -47 -45h-107q-45 0 -45 45v642 q-89 0 -168 33t-138 89t-92.5 132t-33.5 161z" />
<glyph unicode="&#xb7;" horiz-adv-x="465" d="M133 559v45q0 32 18 54t59 22h45q32 0 54 -20t22 -56v-45q0 -41 -18 -59t-58 -18h-45q-41 0 -59 18t-18 59z" />
<glyph unicode="&#xb8;" horiz-adv-x="570" d="M144 -47q0 11 3.5 23.5t17.5 25.5h158q-23 -15 -23 -36q0 -16 16 -30t39 -29t50.5 -31.5t50.5 -38.5t39 -50.5t16 -66.5q0 -36 -14.5 -68t-47 -60t-86 -53.5t-131.5 -49.5h-5q-15 0 -26.5 12.5t-19.5 28.5t-12 33.5t-4 26.5q0 14 11 23q175 43 175 107q0 23 -15 40.5 t-38.5 33.5t-50 31.5t-49.5 34t-38.5 41t-15.5 52.5z" />
<glyph unicode="&#xb9;" horiz-adv-x="480" d="M58 1348v90q0 22 25 36l90 45q6 4 18 4h102q27 0 26 -25v-786q0 -25 -24 -25h-104q-25 0 -24 23v653l-77 -38q-2 -3 -7 -3q-2 0 -2 -2q-11 0 -17 7.5t-6 20.5z" />
<glyph unicode="&#xba;" horiz-adv-x="1047" d="M117 1158q0 80 29.5 149t81.5 121t121 81.5t149 29.5t149 -29.5t120.5 -81.5t81.5 -121t30 -149t-30 -149t-81.5 -120.5t-120.5 -81.5t-149 -30t-149 30t-121 81.5t-81.5 120.5t-29.5 149zM289 1158q0 -43 16.5 -81t44.5 -66t66 -44.5t80 -16.5q44 0 81.5 16.5t65.5 44.5 t43.5 66t15.5 81t-15.5 81t-43.5 65.5t-65.5 44t-81.5 16.5q-42 0 -80 -16.5t-66 -44t-44.5 -65.5t-16.5 -81z" />
<glyph unicode="&#xbb;" horiz-adv-x="1415" d="M176 94q0 7 3 18t8 16l440 439l-440 443q-7 5 -9 15.5t-2 17.5q0 15 13 29l55 56q12 13 30 14q7 0 18 -3t16 -9l535 -531q13 -13 13 -27q0 -7 -3 -16.5t-8 -14.5q-127 -128 -251.5 -252t-251.5 -251q-14 -14 -31 -29.5t-37 -15.5q-8 0 -14.5 3t-11.5 8l-59 59 q-13 12 -13 31zM582 94q0 7 3 18t8 16l439 439l-439 443q-7 5 -9 15.5t-2 17.5q0 15 13 29l54 56q12 13 31 14q7 0 18 -3t16 -9l534 -531q13 -13 14 -27q0 -7 -3.5 -16.5t-8.5 -14.5q-127 -128 -251.5 -252t-250.5 -251q-14 -14 -31.5 -29.5t-36.5 -15.5q-8 0 -15 3t-12 8 l-58 59q-13 12 -13 31z" />
<glyph unicode="&#xbc;" horiz-adv-x="1539" d="M148 1348v90q0 22 25 36l90 45q6 4 18 4h102q27 0 26 -25v-786q0 -25 -24 -25h-104q-25 0 -24 23v653l-77 -38q-2 -3 -7 -3q-2 0 -2 -2q-11 0 -17 7.5t-6 20.5zM316 27q0 -2 1 2.5t3 15.5l782 1431q8 18 24 31.5t41 13.5h59q20 0 35.5 -8.5t15.5 -23.5q0 -11 -2 -13 l-781 -1431q-12 -26 -22 -35.5t-33 -9.5h-80q-43 0 -43 27zM798 157q0 7 2.5 13.5t6.5 13.5l380 649q7 11 11.5 14.5t10.5 3.5h107q10 0 16 -9.5t6 -17.5v-543h83q12 0 22 -5.5t10 -18.5v-107q0 -10 -9.5 -18t-22.5 -8h-83v-102q0 -12 -6 -18t-21 -6h-102q-25 0 -24 24v102 h-356q-17 0 -24 10.5t-7 22.5zM1025 281h160v277z" />
<glyph unicode="&#xbd;" horiz-adv-x="1671" d="M148 1348v90q0 22 25 36l90 45q6 4 18 4h102q27 0 26 -25v-786q0 -25 -24 -25h-104q-25 0 -24 23v653l-77 -38q-2 -3 -7 -3q-2 0 -2 -2q-11 0 -17 7.5t-6 20.5zM368 27q0 -2 1 2.5t3 15.5l782 1431q8 18 24 31.5t41 13.5h59q20 0 35.5 -8.5t15.5 -23.5q0 -11 -2 -13 l-781 -1431q-12 -26 -22 -35.5t-33 -9.5h-80q-43 0 -43 27zM965 28v85q0 2 1.5 5t3.5 8l367 377q26 27 33.5 44.5t7.5 43.5q0 24 -10.5 45t-27.5 37.5t-40.5 26.5t-49.5 10q-27 0 -49.5 -10.5t-39.5 -28.5t-26 -40.5t-9 -46.5v-48q0 -25 -26 -24h-103q-13 0 -19 8t-6 16v48 q0 58 22 107t60 85t88.5 56t107.5 20t109.5 -18.5t92.5 -52t64 -81t24 -105.5q0 -61 -24.5 -110t-60.5 -82l-253 -255h311q27 0 27 -26v-94q0 -12 -8 -20t-19 -8h-518q-11 0 -20.5 7.5t-9.5 20.5z" />
<glyph unicode="&#xbe;" horiz-adv-x="1569" d="M102 980q0 18 24 25h104q25 0 24 -25q0 -44 9.5 -72t25.5 -44.5t38 -23t49 -6.5q59 0 91.5 31t32.5 91q0 66 -31 91.5t-110 25.5q-26 0 -26 16v4v106q0 26 26 25q26 0 42.5 8.5t26.5 20.5t14 27t4 29t-2 30.5t-10 30.5t-24 22.5t-43 8.5q-25 0 -39.5 -8t-23 -22 t-11 -31.5t-2.5 -36.5q0 -14 -6 -21t-22 -7h-96q-26 0 -25 25q0 66 18 111.5t49.5 74.5t73.5 42.5t89 13.5q46 0 87.5 -18t72.5 -49t49 -72.5t18 -88.5q0 -88 -54 -142q26 -17 46.5 -37.5t34 -46.5t21 -58.5t7.5 -75.5q0 -57 -20.5 -107t-57.5 -87t-88 -58t-112 -21 q-57 0 -107.5 12.5t-87 45.5t-58 91t-21.5 150zM342 27q0 -2 1 2.5t3 15.5l782 1431q8 18 24 31.5t41 13.5h59q20 0 35.5 -8.5t15.5 -23.5q0 -11 -2 -13l-781 -1431q-12 -26 -22 -35.5t-33 -9.5h-80q-43 0 -43 27zM798 159q0 7 2.5 13.5t6.5 13.5l380 649q7 11 11.5 14.5 t10.5 3.5h107q10 0 16 -9.5t6 -17.5v-543h83q12 0 22 -5.5t10 -18.5v-107q0 -10 -9.5 -18t-22.5 -8h-83v-102q0 -12 -6 -18t-21 -6h-102q-25 0 -24 24v102h-356q-17 0 -24 10.5t-7 22.5zM1025 283h160v277z" />
<glyph unicode="&#xbf;" horiz-adv-x="1148" />
<glyph unicode="&#xc0;" horiz-adv-x="1506" d="M79 36q0 7 0.5 11.5t1.5 8.5t2 7l591 1420q2 5 5 11.5t8 12t15 10t26 4.5h68q15 0 24.5 -4.5t15 -10t8.5 -12t5 -11.5l586 -1420l2 -10t2 -9.5t1 -7.5q0 -36 -47 -36h-109q-20 0 -33.5 10t-20.5 28l-113 281h-719q-36 -91 -65.5 -164.5t-43.5 -116.5q-7 -17 -20.5 -27.5 t-34.5 -10.5h-108q-47 0 -47 36zM480 518h558l-276 701zM535 1959q0 23 26 23h102q19 0 31 -10.5t24 -32.5l90 -210q7 -12 8 -21t3 -16q0 -14 -6.5 -21.5t-26.5 -7.5h-95q-35 0 -54 43l-93 215q-7 11 -8 20.5t-1 17.5z" />
<glyph unicode="&#xc1;" horiz-adv-x="1506" d="M79 36q0 7 0.5 11.5t1.5 8.5t2 7l591 1420q2 5 5 11.5t8 12t15 10t26 4.5h68q15 0 24.5 -4.5t15 -10t8.5 -12t5 -11.5l586 -1420l2 -10t2 -9.5t1 -7.5q0 -36 -47 -36h-109q-20 0 -33.5 10t-20.5 28l-113 281h-719q-36 -91 -65.5 -164.5t-43.5 -116.5q-7 -17 -20.5 -27.5 t-34.5 -10.5h-108q-47 0 -47 36zM480 518h558l-276 701zM720 1701q2 7 3.5 16t8.5 21l90 210q12 23 24 33t31 10h101q27 0 27 -23q0 -8 -1 -17t-8 -21l-93 -215q-19 -43 -55 -43h-94q-20 0 -27 7.5t-7 21.5z" />
<glyph unicode="&#xc2;" horiz-adv-x="1506" d="M79 36q0 7 0.5 11.5t1.5 8.5t2 7l591 1420q2 5 5 11.5t8 12t15 10t26 4.5h68q15 0 24.5 -4.5t15 -10t8.5 -12t5 -11.5l586 -1420l2 -10t2 -9.5t1 -7.5q0 -36 -47 -36h-109q-20 0 -33.5 10t-20.5 28l-113 281h-719q-36 -91 -65.5 -164.5t-43.5 -116.5q-7 -17 -20.5 -27.5 t-34.5 -10.5h-108q-47 0 -47 36zM474 1720q0 17 9 23l272 275q9 8 23 9q11 0 20 -9l275 -275q9 -5 9 -23q0 -11 -9 -20l-49 -51q-17 -11 -28 -12q-10 0 -22 10l-196 188l-199 -188q-11 -7 -22 -7q-16 0 -23 9l-51 49q-9 6 -9 22zM480 518h558l-276 701z" />
<glyph unicode="&#xc3;" horiz-adv-x="1506" d="M79 36q0 7 0.5 11.5t1.5 8.5t2 7l591 1420q2 5 5 11.5t8 12t15 10t26 4.5h68q15 0 24.5 -4.5t15 -10t8.5 -12t5 -11.5l586 -1420l2 -10t2 -9.5t1 -7.5q0 -36 -47 -36h-109q-20 0 -33.5 10t-20.5 28l-113 281h-719q-36 -91 -65.5 -164.5t-43.5 -116.5q-7 -17 -20.5 -27.5 t-34.5 -10.5h-108q-47 0 -47 36zM439 1757q0 7 2 9q36 61 89.5 95.5t127.5 34.5q32 -3 62 -12.5t56 -29.5l55 -34q30 -20 63 -20q18 0 35.5 7.5t29.5 18.5q5 4 11.5 12.5t13 16t13 13t10.5 5.5q3 4 5.5 4.5t7.5 0.5q6 0 19 -8.5t26.5 -20t23.5 -24t10 -19.5q0 -3 -0.5 -9 t-4.5 -9l-23 -31q-40 -49 -86.5 -69.5t-104.5 -20.5q-29 0 -60.5 12t-58.5 31l-52 33q-15 8 -29.5 14.5t-33.5 6.5q-20 0 -38 -8t-29 -20q-5 -5 -12.5 -14l-15 -18t-16 -15.5t-16.5 -6.5q-2 0 -15 8t-27.5 20t-26 24.5t-11.5 22.5zM480 518h558l-276 701z" />
<glyph unicode="&#xc4;" horiz-adv-x="1506" d="M79 36q0 7 0.5 11.5t1.5 8.5t2 7l591 1420q2 5 5 11.5t8 12t15 10t26 4.5h68q15 0 24.5 -4.5t15 -10t8.5 -12t5 -11.5l586 -1420l2 -10t2 -9.5t1 -7.5q0 -36 -47 -36h-109q-20 0 -33.5 10t-20.5 28l-113 281h-719q-36 -91 -65.5 -164.5t-43.5 -116.5q-7 -17 -20.5 -27.5 t-34.5 -10.5h-108q-47 0 -47 36zM480 518h558l-276 701zM485 1733v105q0 20 12.5 32.5t32.5 12.5h105q23 0 35.5 -12.5t12.5 -32.5v-105q0 -45 -46 -45h-105q-47 0 -47 45zM847 1733v105q0 20 13 32.5t32 12.5h106q23 0 35 -12.5t12 -32.5v-105q0 -45 -45 -45h-106 q-47 0 -47 45z" />
<glyph unicode="&#xc5;" horiz-adv-x="1506" d="M79 36q0 7 0.5 11.5t1.5 8.5t2 7l591 1420q2 5 5 11.5t8 12t15 10t26 4.5h68q15 0 24.5 -4.5t15 -10t8.5 -12t5 -11.5l586 -1420l2 -10t2 -9.5t1 -7.5q0 -36 -47 -36h-109q-20 0 -33.5 10t-20.5 28l-113 281h-719q-36 -91 -65.5 -164.5t-43.5 -116.5q-7 -17 -20.5 -27.5 t-34.5 -10.5h-108q-47 0 -47 36zM480 518h558l-276 701zM555 1817q0 44 16.5 83.5t45.5 69t68 46.5t84 17q44 0 83.5 -17t69 -46.5t46.5 -69t17 -83.5q0 -45 -17 -84t-46.5 -68.5t-69 -45.5t-83.5 -16q-45 0 -84 16t-68 45.5t-45.5 68.5t-16.5 84zM663 1817q0 -46 30 -76.5 t76 -30.5q23 0 42.5 8.5t34 22t23 33t8.5 43.5q0 46 -31 76.5t-77 30.5q-24 0 -43 -8t-33 -23t-22 -34.5t-8 -41.5z" />
<glyph unicode="&#xc6;" horiz-adv-x="1971" d="M41 30q0 5 1.5 5.5t1.5 5.5q0 2 21 42.5t57 108.5t84 159t102 193t111.5 209.5t112 210.5t103 194.5t86 162t59.5 113t24 46.5q7 15 19.5 27t32.5 14h931q47 0 47 -50v-101q0 -19 -13 -33.5t-34 -14.5h-715l32 -464h554q18 0 31.5 -9.5t13.5 -35.5v-105q0 -18 -11.5 -33 t-33.5 -15h-522l31 -461h701q45 0 45 -48v-106q0 -45 -45 -45h-839q-37 0 -42 38l-23 201h-591l-93 -203q-9 -36 -48 -36h-148q-43 0 -43 30zM474 432h472l-65 788z" />
<glyph unicode="&#xc7;" horiz-adv-x="1457" d="M105 759q0 108 28 207.5t79 186.5t122.5 158.5t158.5 122.5t186.5 79t208.5 28q128 0 243 -37.5t217 -110.5q11 -8 18 -19t7 -22q0 -14 -8 -25l-54 -90q-17 -25 -36 -25q-7 0 -16 4t-20 12q-74 52 -155.5 79.5t-171.5 32.5q-132 0 -243.5 -47.5t-193 -128t-127.5 -186.5 t-46 -223q0 -125 47 -231t126.5 -183t184.5 -120t221 -43q42 0 84 6t85.5 21t90.5 38t100 57q19 11 32 11q18 0 34 -25l58 -97q7 -13 7 -24q0 -25 -24 -39q-96 -70 -212 -109.5t-250 -39.5q-109 0 -208.5 28t-186.5 79t-158 122.5t-121.5 158t-78.5 186t-28 208.5zM792 -47 q0 11 3.5 23.5t17.5 25.5h158q-23 -15 -23 -36q0 -16 16 -30t39 -29t50.5 -31.5t50.5 -38.5t39 -50.5t16 -66.5q0 -36 -14.5 -68t-47 -60t-86 -53.5t-131.5 -49.5h-5q-15 0 -26.5 12.5t-19.5 28.5t-12 33.5t-4 26.5q0 14 11 23q175 43 175 107q0 23 -15 40.5t-38.5 33.5 t-50 31.5t-49.5 34t-38.5 41t-15.5 52.5z" />
<glyph unicode="&#xc8;" horiz-adv-x="1315" d="M166 43v1431q0 47 45 47h981q47 0 47 -50v-101q0 -19 -12 -33.5t-37 -14.5h-825v-421h649q18 0 31.5 -10.5t13.5 -36.5v-104q0 -18 -11.5 -33t-33.5 -15h-649v-503h829q47 0 47 -48v-106q0 -45 -45 -45h-985q-45 0 -45 43zM570 1927q0 23 26 23h102q19 0 31 -10.5 t24 -32.5l90 -210q7 -12 8 -21t3 -16q0 -14 -6.5 -21.5t-26.5 -7.5h-95q-35 0 -54 43l-93 215q-7 11 -8 20.5t-1 17.5z" />
<glyph unicode="&#xc9;" horiz-adv-x="1315" d="M166 43v1431q0 47 45 47h981q47 0 47 -50v-101q0 -19 -12 -33.5t-37 -14.5h-825v-421h649q18 0 31.5 -10.5t13.5 -36.5v-104q0 -18 -11.5 -33t-33.5 -15h-649v-503h829q47 0 47 -48v-106q0 -45 -45 -45h-985q-45 0 -45 43zM557 1682q2 7 3.5 16t8.5 21l90 210 q12 23 24 33t31 10h101q27 0 27 -23q0 -8 -1 -17t-8 -21l-93 -215q-19 -43 -55 -43h-94q-20 0 -27 7.5t-7 21.5z" />
<glyph unicode="&#xca;" horiz-adv-x="1315" d="M166 43v1431q0 47 45 47h981q47 0 47 -50v-101q0 -19 -12 -33.5t-37 -14.5h-825v-421h649q18 0 31.5 -10.5t13.5 -36.5v-104q0 -18 -11.5 -33t-33.5 -15h-649v-503h829q47 0 47 -48v-106q0 -45 -45 -45h-985q-45 0 -45 43zM423 1720q0 17 9 23l272 275q9 8 23 9 q11 0 20 -9l275 -275q9 -5 9 -23q0 -11 -9 -20l-49 -51q-17 -11 -28 -12q-10 0 -22 10l-196 188l-199 -188q-11 -7 -22 -7q-16 0 -23 9l-51 49q-9 6 -9 22z" />
<glyph unicode="&#xcb;" horiz-adv-x="1315" d="M166 43v1431q0 47 45 47h981q47 0 47 -50v-101q0 -19 -12 -33.5t-37 -14.5h-825v-421h649q18 0 31.5 -10.5t13.5 -36.5v-104q0 -18 -11.5 -33t-33.5 -15h-649v-503h829q47 0 47 -48v-106q0 -45 -45 -45h-985q-45 0 -45 43zM419 1764v106q0 20 12.5 32.5t32.5 12.5h105 q23 0 35.5 -13t12.5 -32v-106q0 -45 -46 -45h-105q-47 0 -47 45zM781 1764v106q0 20 12.5 32.5t32.5 12.5h105q23 0 35.5 -13t12.5 -32v-106q0 -45 -46 -45h-105q-47 0 -47 45z" />
<glyph unicode="&#xcc;" d="M54 1950q0 23 26 23h102q19 0 31 -10.5t24 -32.5l90 -210q7 -12 8 -21t3 -16q0 -14 -6.5 -21.5t-26.5 -7.5h-95q-35 0 -54 43l-93 215q-7 11 -8 20.5t-1 17.5zM165 45v1431q0 18 11.5 31.5t33.5 13.5h106q18 0 33 -12.5t15 -32.5v-1431q0 -45 -48 -45h-106q-45 0 -45 45z " />
<glyph unicode="&#xcd;" d="M165 45v1431q0 18 11.5 31.5t33.5 13.5h106q18 0 33 -12.5t15 -32.5v-1431q0 -45 -48 -45h-106q-45 0 -45 45zM189 1685q2 7 3.5 16t8.5 21l90 210q12 23 24 33t31 10h101q27 0 27 -23q0 -8 -1 -17t-8 -21l-93 -215q-19 -43 -55 -43h-94q-20 0 -27 7.5t-7 21.5z" />
<glyph unicode="&#xce;" d="M-33 1740q0 17 9 23l272 275q9 8 23 9q11 0 20 -9l275 -275q9 -5 9 -23q0 -11 -9 -20l-49 -51q-17 -11 -28 -12q-10 0 -22 10l-196 188l-199 -188q-11 -7 -22 -7q-16 0 -23 9l-51 49q-9 6 -9 22zM165 45v1431q0 18 11.5 31.5t33.5 13.5h106q18 0 33 -12.5t15 -32.5v-1431 q0 -45 -48 -45h-106q-45 0 -45 45z" />
<glyph unicode="&#xcf;" d="M-25 1764v106q0 20 12.5 32.5t32.5 12.5h105q23 0 35.5 -13t12.5 -32v-106q0 -45 -46 -45h-105q-47 0 -47 45zM165 45v1431q0 18 11.5 31.5t33.5 13.5h106q18 0 33 -12.5t15 -32.5v-1431q0 -45 -48 -45h-106q-45 0 -45 45zM337 1764v106q0 20 12.5 32.5t32.5 12.5h105 q23 0 35.5 -13t12.5 -32v-106q0 -45 -46 -45h-105q-47 0 -47 45z" />
<glyph unicode="&#xd0;" horiz-adv-x="1581" d="M160 694v119q0 28 29 28h113v630q0 49 47 50h477q110 0 209.5 -27t184.5 -76t153.5 -118.5t117 -154t75 -182.5t26.5 -204q0 -105 -27 -202t-76.5 -181.5t-119.5 -153.5t-155 -118.5t-183 -76.5t-205 -27h-477q-18 0 -32.5 8.5t-14.5 34.5v620h-113q-30 0 -29 31z M498 196h324q125 0 230.5 46t182 124t119.5 182.5t43 221.5q0 125 -45 227.5t-123 175t-181.5 112.5t-221.5 40h-328v-484h140q29 0 29 -28v-119q0 -8 -8 -19.5t-21 -11.5h-140v-467z" />
<glyph unicode="&#xd1;" horiz-adv-x="1620" d="M165 45v1429q0 20 12 33.5t33 13.5h137q27 0 43 -23l872 -1158v1143q6 38 45 38h103q18 0 34 -12.5t16 -32.5v-1431q0 -45 -50 -45h-117q-23 0 -39 23l-894 1198v-1176q0 -45 -47 -45h-103q-45 0 -45 45zM479 1769q0 7 2 9q36 61 89.5 95.5t127.5 34.5q32 -3 62 -12.5 t56 -29.5l55 -34q30 -20 63 -20q18 0 35.5 7.5t29.5 18.5q5 4 11.5 12.5t13 16t13 13t10.5 5.5q3 4 5.5 4.5t7.5 0.5q6 0 19 -8.5t26.5 -20t23.5 -24t10 -19.5q0 -3 -0.5 -9t-4.5 -9l-23 -31q-40 -49 -86.5 -69.5t-104.5 -20.5q-29 0 -60.5 12t-58.5 31l-52 33 q-15 8 -29.5 14.5t-33.5 6.5q-20 0 -38 -8t-29 -20q-5 -5 -12.5 -14l-15 -18t-16 -15.5t-16.5 -6.5q-2 0 -15 8t-27.5 20t-26 24.5t-11.5 22.5z" />
<glyph unicode="&#xd2;" horiz-adv-x="1800" d="M117 759q0 108 27.5 207.5t78.5 186.5t122.5 158.5t158.5 122.5t186.5 79t208.5 28q108 0 207.5 -27.5t186 -79t158.5 -122.5t122.5 -158.5t78.5 -188t28 -208.5t-27.5 -207.5t-78.5 -186.5t-122.5 -158t-158.5 -121.5t-187 -78.5t-209 -28t-208.5 28t-186 79t-158 122.5 t-122 158t-78 186t-27.5 208.5zM313 762q0 -81 21 -155.5t59 -139.5t91.5 -118t118.5 -91t139 -59t155 -21q80 0 154.5 21t139 59t118 91t91.5 118t59 139.5t21 155.5q0 121 -46 227t-125 184.5t-185 125t-227 46.5q-81 0 -155 -21t-139 -59t-118.5 -91.5t-91.5 -118 t-59 -139t-21 -154.5zM676 1952q0 23 26 23h102q19 0 31 -10.5t24 -32.5l90 -210q7 -12 8 -21t3 -16q0 -14 -6.5 -21.5t-26.5 -7.5h-95q-35 0 -54 43l-93 215q-7 11 -8 20.5t-1 17.5z" />
<glyph unicode="&#xd3;" horiz-adv-x="1800" d="M117 759q0 108 27.5 207.5t78.5 186.5t122.5 158.5t158.5 122.5t186.5 79t208.5 28q108 0 207.5 -27.5t186 -79t158.5 -122.5t122.5 -158.5t78.5 -188t28 -208.5t-27.5 -207.5t-78.5 -186.5t-122.5 -158t-158.5 -121.5t-187 -78.5t-209 -28t-208.5 28t-186 79t-158 122.5 t-122 158t-78 186t-27.5 208.5zM313 762q0 -81 21 -155.5t59 -139.5t91.5 -118t118.5 -91t139 -59t155 -21q80 0 154.5 21t139 59t118 91t91.5 118t59 139.5t21 155.5q0 121 -46 227t-125 184.5t-185 125t-227 46.5q-81 0 -155 -21t-139 -59t-118.5 -91.5t-91.5 -118 t-59 -139t-21 -154.5zM804 1682q2 7 3.5 16t8.5 21l90 210q12 23 24 33t31 10h101q27 0 27 -23q0 -8 -1 -17t-8 -21l-93 -215q-19 -43 -55 -43h-94q-20 0 -27 7.5t-7 21.5z" />
<glyph unicode="&#xd4;" horiz-adv-x="1800" d="M117 759q0 108 27.5 207.5t78.5 186.5t122.5 158.5t158.5 122.5t186.5 79t208.5 28q108 0 207.5 -27.5t186 -79t158.5 -122.5t122.5 -158.5t78.5 -188t28 -208.5t-27.5 -207.5t-78.5 -186.5t-122.5 -158t-158.5 -121.5t-187 -78.5t-209 -28t-208.5 28t-186 79t-158 122.5 t-122 158t-78 186t-27.5 208.5zM313 762q0 -81 21 -155.5t59 -139.5t91.5 -118t118.5 -91t139 -59t155 -21q80 0 154.5 21t139 59t118 91t91.5 118t59 139.5t21 155.5q0 121 -46 227t-125 184.5t-185 125t-227 46.5q-81 0 -155 -21t-139 -59t-118.5 -91.5t-91.5 -118 t-59 -139t-21 -154.5zM596 1750q0 17 9 23l272 275q9 8 23 9q11 0 20 -9l275 -275q9 -5 9 -23q0 -11 -9 -20l-49 -51q-17 -11 -28 -12q-10 0 -22 10l-196 188l-199 -188q-11 -7 -22 -7q-16 0 -23 9l-51 49q-9 6 -9 22z" />
<glyph unicode="&#xd5;" horiz-adv-x="1800" d="M117 759q0 108 27.5 207.5t78.5 186.5t122.5 158.5t158.5 122.5t186.5 79t208.5 28q108 0 207.5 -27.5t186 -79t158.5 -122.5t122.5 -158.5t78.5 -188t28 -208.5t-27.5 -207.5t-78.5 -186.5t-122.5 -158t-158.5 -121.5t-187 -78.5t-209 -28t-208.5 28t-186 79t-158 122.5 t-122 158t-78 186t-27.5 208.5zM313 762q0 -81 21 -155.5t59 -139.5t91.5 -118t118.5 -91t139 -59t155 -21q80 0 154.5 21t139 59t118 91t91.5 118t59 139.5t21 155.5q0 121 -46 227t-125 184.5t-185 125t-227 46.5q-81 0 -155 -21t-139 -59t-118.5 -91.5t-91.5 -118 t-59 -139t-21 -154.5zM570 1787q0 7 2 9q36 61 89.5 95.5t127.5 34.5q32 -3 62 -12.5t56 -29.5l55 -34q30 -20 63 -20q18 0 35.5 7.5t29.5 18.5q5 4 11.5 12.5t13 16t13 13t10.5 5.5q3 4 5.5 4.5t7.5 0.5q6 0 19 -8.5t26.5 -20t23.5 -24t10 -19.5q0 -3 -0.5 -9t-4.5 -9 l-23 -31q-40 -49 -86.5 -69.5t-104.5 -20.5q-29 0 -60.5 12t-58.5 31l-52 33q-15 8 -29.5 14.5t-33.5 6.5q-20 0 -38 -8t-29 -20q-5 -5 -12.5 -14l-15 -18t-16 -15.5t-16.5 -6.5q-2 0 -15 8t-27.5 20t-26 24.5t-11.5 22.5z" />
<glyph unicode="&#xd6;" horiz-adv-x="1800" d="M117 759q0 108 27.5 207.5t78.5 186.5t122.5 158.5t158.5 122.5t186.5 79t208.5 28q108 0 207.5 -27.5t186 -79t158.5 -122.5t122.5 -158.5t78.5 -188t28 -208.5t-27.5 -207.5t-78.5 -186.5t-122.5 -158t-158.5 -121.5t-187 -78.5t-209 -28t-208.5 28t-186 79t-158 122.5 t-122 158t-78 186t-27.5 208.5zM313 762q0 -81 21 -155.5t59 -139.5t91.5 -118t118.5 -91t139 -59t155 -21q80 0 154.5 21t139 59t118 91t91.5 118t59 139.5t21 155.5q0 121 -46 227t-125 184.5t-185 125t-227 46.5q-81 0 -155 -21t-139 -59t-118.5 -91.5t-91.5 -118 t-59 -139t-21 -154.5zM609 1764v106q0 20 12.5 32.5t32.5 12.5h105q23 0 35.5 -13t12.5 -32v-106q0 -45 -46 -45h-105q-47 0 -47 45zM972 1764v106q0 20 12.5 32.5t32.5 12.5h105q23 0 35.5 -13t12.5 -32v-106q0 -45 -46 -45h-105q-47 0 -47 45z" />
<glyph unicode="&#xd7;" horiz-adv-x="955" d="M160 449q0 8 3 20t8 17l165 165l-163 164q-5 5 -9 17.5t-4 19.5q0 12 13 31l75 74q13 13 26 14q8 0 18.5 -3.5t20.5 -12.5l162 -162l167 164q5 5 16 8.5t18 3.5q18 0 32 -14l73 -74q14 -14 15 -27q0 -7 -5 -19t-10 -17l-164 -167l147 -146q11 -12 21.5 -25.5t10.5 -28.5 q0 -14 -15 -27l-73 -75q-13 -13 -32 -13q-8 0 -23 5t-29 24l-149 146q-19 -19 -46.5 -49.5t-56 -58.5t-55 -48.5t-43.5 -20.5q-13 0 -26 13l-75 74q-13 11 -13 28z" />
<glyph unicode="&#xd8;" horiz-adv-x="1804" d="M117 759q0 108 27.5 207.5t78.5 186.5t122.5 158.5t158.5 122.5t186.5 79t208.5 28q110 0 214 -30l42 91q12 26 25 35.5t39 9.5h112q33 0 42.5 -11t-2.5 -42q-17 -39 -35 -79.5t-38 -83.5q86 -51 156.5 -122.5t120.5 -158t77.5 -186.5t27.5 -207q0 -108 -27.5 -207.5 t-78.5 -186.5t-122.5 -158t-158.5 -121.5t-187 -78.5t-209 -28q-71 0 -136.5 12t-127.5 34q-14 -30 -26.5 -60t-24.5 -58q-17 -38 -53 -38h-128q-27 0 -33.5 12t2.5 33l91 198q-78 52 -141.5 122t-108.5 153t-69.5 177.5t-24.5 196.5zM313 762q0 -81 21 -155.5t59 -139.5 t91.5 -118t118.5 -91t139 -59t155 -21q80 0 154.5 21t139 59t118 91t91.5 118t59 139.5t21 155.5q0 121 -46 227t-125 184.5t-185 125t-227 46.5q-81 0 -155 -21t-139 -59t-118.5 -91.5t-91.5 -118t-59 -139t-21 -154.5z" />
<glyph unicode="&#xd9;" horiz-adv-x="1540" d="M144 601v875q0 15 12 30t31 15h110q15 0 31.5 -13.5t16.5 -31.5v-847q0 -97 28 -181t83 -146t134 -97.5t180 -35.5q109 0 189.5 36t133.5 98t79 145.5t26 180.5v847q0 18 14 31.5t34 13.5h99q19 0 35.5 -12.5t16.5 -32.5v-875q0 -138 -49.5 -253.5t-135 -197.5 t-199.5 -128.5t-243 -46.5t-242.5 49.5t-199 135t-135 199t-49.5 242.5zM633 1949q0 23 26 23h102q19 0 31 -10.5t24 -32.5l90 -210q7 -12 8 -21t3 -16q0 -14 -6.5 -21.5t-26.5 -7.5h-95q-35 0 -54 43l-93 215q-7 11 -8 20.5t-1 17.5z" />
<glyph unicode="&#xda;" horiz-adv-x="1540" d="M144 601v875q0 15 12 30t31 15h110q15 0 31.5 -13.5t16.5 -31.5v-847q0 -97 28 -181t83 -146t134 -97.5t180 -35.5q109 0 189.5 36t133.5 98t79 145.5t26 180.5v847q0 18 14 31.5t34 13.5h99q19 0 35.5 -12.5t16.5 -32.5v-875q0 -138 -49.5 -253.5t-135 -197.5 t-199.5 -128.5t-243 -46.5t-242.5 49.5t-199 135t-135 199t-49.5 242.5zM699 1681q2 7 3.5 16t8.5 21l90 210q12 23 24 33t31 10h101q27 0 27 -23q0 -8 -1 -17t-8 -21l-93 -215q-19 -43 -55 -43h-94q-20 0 -27 7.5t-7 21.5z" />
<glyph unicode="&#xdb;" horiz-adv-x="1540" d="M144 601v875q0 15 12 30t31 15h110q15 0 31.5 -13.5t16.5 -31.5v-847q0 -97 28 -181t83 -146t134 -97.5t180 -35.5q109 0 189.5 36t133.5 98t79 145.5t26 180.5v847q0 18 14 31.5t34 13.5h99q19 0 35.5 -12.5t16.5 -32.5v-875q0 -138 -49.5 -253.5t-135 -197.5 t-199.5 -128.5t-243 -46.5t-242.5 49.5t-199 135t-135 199t-49.5 242.5zM501 1743q0 17 9 23l272 275q9 8 23 9q11 0 20 -9l275 -275q9 -5 9 -23q0 -11 -9 -20l-49 -51q-17 -11 -28 -12q-10 0 -22 10l-196 188l-199 -188q-11 -7 -22 -7q-16 0 -23 9l-51 49q-9 6 -9 22z" />
<glyph unicode="&#xdc;" horiz-adv-x="1540" d="M144 601v875q0 15 12 30t31 15h110q15 0 31.5 -13.5t16.5 -31.5v-847q0 -97 28 -181t83 -146t134 -97.5t180 -35.5q109 0 189.5 36t133.5 98t79 145.5t26 180.5v847q0 18 14 31.5t34 13.5h99q19 0 35.5 -12.5t16.5 -32.5v-875q0 -138 -49.5 -253.5t-135 -197.5 t-199.5 -128.5t-243 -46.5t-242.5 49.5t-199 135t-135 199t-49.5 242.5zM520 1744v106q0 20 12.5 32.5t32.5 12.5h105q23 0 35.5 -13t12.5 -32v-106q0 -45 -46 -45h-105q-47 0 -47 45zM883 1744v106q0 20 12.5 32.5t32.5 12.5h105q23 0 35.5 -13t12.5 -32v-106 q0 -45 -46 -45h-105q-47 0 -47 45z" />
<glyph unicode="&#xdd;" horiz-adv-x="1281" d="M21.5 1507q2.5 14 25.5 14h166q9 -1 15 -2t11.5 -5t10.5 -12t13 -22l367 -636h3l374 643q11 20 20 26t25 8h171q23 0 22 -19q0 -9 -11 -26q-63 -101 -125.5 -206.5t-124.5 -211.5t-125 -211t-128 -206v-592q0 -49 -45 -49h-109q-43 0 -43 49v587l-501 835 q-14 22 -11.5 36zM612 1692q2 7 3.5 16t8.5 21l90 210q12 23 24 33t31 10h101q27 0 27 -23q0 -8 -1 -17t-8 -21l-93 -215q-19 -43 -55 -43h-94q-20 0 -27 7.5t-7 21.5z" />
<glyph unicode="&#xde;" horiz-adv-x="1331" d="M178 45v1431q0 18 11.5 31.5t33.5 13.5h106q18 0 32.5 -12.5t14.5 -32.5v-241h358q101 0 188 -38.5t150.5 -103.5t99 -151.5t35.5 -182.5q0 -94 -35 -179t-98 -149.5t-148.5 -103t-186.5 -38.5h-363v-244q0 -45 -45 -45h-108q-45 0 -45 45zM376 484h358q55 0 105.5 22.5 t88.5 61t60 89t22 105.5q0 53 -21.5 103t-59 88.5t-87.5 61.5t-108 23h-358v-554z" />
<glyph unicode="&#xdf;" horiz-adv-x="1175" d="M-4 -246q0 20 12 33.5t33 13.5h9q34 2 56 17.5t35.5 40t18.5 56t5 65.5v1173q0 90 34 159t90.5 116.5t128.5 71t148 23.5q82 0 154.5 -29.5t126.5 -81t86 -122t32 -154.5q0 -89 -33.5 -159.5t-94.5 -118.5q109 -60 171.5 -159.5t62.5 -247.5q0 -104 -38 -191.5t-104 -151 t-156.5 -99t-194.5 -36.5h-6q-20 0 -29 12.5t-13 27.5v100q1 56 50 56q63 1 117 21t92.5 56.5t60.5 88.5t22 118q0 71 -22.5 124.5t-63.5 89.5t-99 54t-130 18q-47 0 -47 42v107q0 45 45 45q47 0 86.5 15.5t67.5 42.5t44 63t16 76q0 41 -12 79.5t-37.5 67.5t-64.5 46t-94 17 q-45 0 -82 -13.5t-62.5 -37.5t-39 -57t-13.5 -72v-1180q0 -165 -85 -262t-238 -115q-45 3 -45 45v106z" />
<glyph unicode="&#xe0;" horiz-adv-x="1560" d="M104 653q0 92 24.5 177.5t69 160.5t106 136.5t136 105.5t159.5 68t177 24q136 0 253 -51.5t205 -141.5v124q0 45 45 46h105q48 0 49 -46v-1211q0 -20 -13.5 -32.5t-31.5 -12.5h-107q-22 0 -34.5 13.5t-12.5 31.5v128q-88 -90 -205 -141.5t-253 -51.5q-91 0 -176.5 24 t-160 68.5t-136 106t-106 136.5t-69 160.5t-24.5 177.5zM312 653q0 -95 36.5 -183t99.5 -155t147.5 -107t180.5 -40t181.5 40t149 107t100.5 155t37 183q0 96 -37 184t-100.5 153.5t-149 104.5t-181.5 39t-180.5 -39t-147.5 -104.5t-99.5 -153t-36.5 -184.5zM556 1722 q0 23 26 23h102q19 0 31 -10.5t24 -32.5l90 -210q7 -12 8 -21t3 -16q0 -14 -6.5 -21.5t-26.5 -7.5h-95q-35 0 -54 43l-93 215q-7 11 -8 20.5t-1 17.5z" />
<glyph unicode="&#xe1;" horiz-adv-x="1560" d="M104 653q0 92 24.5 177.5t69 160.5t106 136.5t136 105.5t159.5 68t177 24q136 0 253 -51.5t205 -141.5v124q0 45 45 46h105q48 0 49 -46v-1211q0 -20 -13.5 -32.5t-31.5 -12.5h-107q-22 0 -34.5 13.5t-12.5 31.5v128q-88 -90 -205 -141.5t-253 -51.5q-91 0 -176.5 24 t-160 68.5t-136 106t-106 136.5t-69 160.5t-24.5 177.5zM312 653q0 -95 36.5 -183t99.5 -155t147.5 -107t180.5 -40t181.5 40t149 107t100.5 155t37 183q0 96 -37 184t-100.5 153.5t-149 104.5t-181.5 39t-180.5 -39t-147.5 -104.5t-99.5 -153t-36.5 -184.5zM688 1455 q2 7 3.5 16t8.5 21l90 210q12 23 24 33t31 10h101q27 0 27 -23q0 -8 -1 -17t-8 -21l-93 -215q-19 -43 -55 -43h-94q-20 0 -27 7.5t-7 21.5z" />
<glyph unicode="&#xe2;" horiz-adv-x="1560" d="M104 653q0 92 24.5 177.5t69 160.5t106 136.5t136 105.5t159.5 68t177 24q136 0 253 -51.5t205 -141.5v124q0 45 45 46h105q48 0 49 -46v-1211q0 -20 -13.5 -32.5t-31.5 -12.5h-107q-22 0 -34.5 13.5t-12.5 31.5v128q-88 -90 -205 -141.5t-253 -51.5q-91 0 -176.5 24 t-160 68.5t-136 106t-106 136.5t-69 160.5t-24.5 177.5zM312 653q0 -95 36.5 -183t99.5 -155t147.5 -107t180.5 -40t181.5 40t149 107t100.5 155t37 183q0 96 -37 184t-100.5 153.5t-149 104.5t-181.5 39t-180.5 -39t-147.5 -104.5t-99.5 -153t-36.5 -184.5zM476 1510 q0 17 9 23l272 275q9 8 23 9q11 0 20 -9l275 -275q9 -5 9 -23q0 -11 -9 -20l-49 -51q-17 -11 -28 -12q-10 0 -22 10l-196 188l-199 -188q-11 -7 -22 -7q-16 0 -23 9l-51 49q-9 6 -9 22z" />
<glyph unicode="&#xe3;" horiz-adv-x="1560" d="M104 653q0 92 24.5 177.5t69 160.5t106 136.5t136 105.5t159.5 68t177 24q136 0 253 -51.5t205 -141.5v124q0 45 45 46h105q48 0 49 -46v-1211q0 -20 -13.5 -32.5t-31.5 -12.5h-107q-22 0 -34.5 13.5t-12.5 31.5v128q-88 -90 -205 -141.5t-253 -51.5q-91 0 -176.5 24 t-160 68.5t-136 106t-106 136.5t-69 160.5t-24.5 177.5zM312 653q0 -95 36.5 -183t99.5 -155t147.5 -107t180.5 -40t181.5 40t149 107t100.5 155t37 183q0 96 -37 184t-100.5 153.5t-149 104.5t-181.5 39t-180.5 -39t-147.5 -104.5t-99.5 -153t-36.5 -184.5zM450 1606 q0 7 2 9q36 61 89.5 95.5t127.5 34.5q32 -3 62 -12.5t56 -29.5l55 -34q30 -20 63 -20q18 0 35.5 7.5t29.5 18.5q5 4 11.5 12.5t13 16t13 13t10.5 5.5q3 4 5.5 4.5t7.5 0.5q6 0 19 -8.5t26.5 -20t23.5 -24t10 -19.5q0 -3 -0.5 -9t-4.5 -9l-23 -31q-40 -49 -86.5 -69.5 t-104.5 -20.5q-29 0 -60.5 12t-58.5 31l-52 33q-15 8 -29.5 14.5t-33.5 6.5q-20 0 -38 -8t-29 -20q-5 -5 -12.5 -14l-15 -18t-16 -15.5t-16.5 -6.5q-2 0 -15 8t-27.5 20t-26 24.5t-11.5 22.5z" />
<glyph unicode="&#xe4;" horiz-adv-x="1560" d="M104 653q0 92 24.5 177.5t69 160.5t106 136.5t136 105.5t159.5 68t177 24q136 0 253 -51.5t205 -141.5v124q0 45 45 46h105q48 0 49 -46v-1211q0 -20 -13.5 -32.5t-31.5 -12.5h-107q-22 0 -34.5 13.5t-12.5 31.5v128q-88 -90 -205 -141.5t-253 -51.5q-91 0 -176.5 24 t-160 68.5t-136 106t-106 136.5t-69 160.5t-24.5 177.5zM312 653q0 -95 36.5 -183t99.5 -155t147.5 -107t180.5 -40t181.5 40t149 107t100.5 155t37 183q0 96 -37 184t-100.5 153.5t-149 104.5t-181.5 39t-180.5 -39t-147.5 -104.5t-99.5 -153t-36.5 -184.5zM500 1564v105 q0 20 12.5 32.5t32.5 12.5h105q23 0 35.5 -12.5t12.5 -32.5v-105q0 -45 -46 -45h-105q-47 0 -47 45zM862 1564v105q0 20 13 32.5t32 12.5h106q23 0 35 -12.5t12 -32.5v-105q0 -45 -45 -45h-106q-47 0 -47 45z" />
<glyph unicode="&#xe5;" horiz-adv-x="1560" d="M104 653q0 92 24.5 177.5t69 160.5t106 136.5t136 105.5t159.5 68t177 24q136 0 253 -51.5t205 -141.5v124q0 45 45 46h105q48 0 49 -46v-1211q0 -20 -13.5 -32.5t-31.5 -12.5h-107q-22 0 -34.5 13.5t-12.5 31.5v128q-88 -90 -205 -141.5t-253 -51.5q-91 0 -176.5 24 t-160 68.5t-136 106t-106 136.5t-69 160.5t-24.5 177.5zM312 653q0 -95 36.5 -183t99.5 -155t147.5 -107t180.5 -40t181.5 40t149 107t100.5 155t37 183q0 96 -37 184t-100.5 153.5t-149 104.5t-181.5 39t-180.5 -39t-147.5 -104.5t-99.5 -153t-36.5 -184.5zM565 1607 q0 44 16.5 83.5t45.5 69t68 46.5t84 17q44 0 83.5 -17t69 -46.5t46.5 -69t17 -83.5q0 -45 -17 -84t-46.5 -68.5t-69 -45.5t-83.5 -16q-45 0 -84 16t-68 45.5t-45.5 68.5t-16.5 84zM673 1607q0 -46 30 -76.5t76 -30.5q23 0 42.5 8.5t34 22t23 33t8.5 43.5q0 46 -31 76.5 t-77 30.5q-24 0 -43 -8t-33 -23t-22 -34.5t-8 -41.5z" />
<glyph unicode="&#xe6;" horiz-adv-x="2686" d="M103 653q0 92 24.5 177.5t69 160.5t106 136.5t136 105.5t159.5 68t177 24q136 0 253 -51.5t205 -141.5v124q0 45 45 46h105q48 0 49 -46v-1211q0 -20 -13.5 -32.5t-31.5 -12.5h-107q-22 0 -34.5 13.5t-12.5 31.5v128q-88 -90 -205 -141.5t-253 -51.5q-91 0 -176.5 24 t-160 68.5t-136 106t-106 136.5t-69 160.5t-24.5 177.5zM311 653q0 -95 36.5 -183t99.5 -155t147.5 -107t180.5 -40t181.5 40t149 107t100.5 155t37 183q0 96 -37 184t-100.5 153.5t-149 104.5t-181.5 39t-180.5 -39t-147.5 -104.5t-99.5 -153t-36.5 -184.5zM1245 649 q0 92 23 178t65.5 161t103 136.5t136 105.5t163 68t184.5 24q77 0 153 -17.5t145.5 -50.5t130.5 -82.5t109 -112.5q66 -88 97.5 -201t29.5 -259q0 -48 -45 -48h-1080q17 -82 61 -151.5t105 -121.5t135.5 -81t154.5 -29q56 0 102 10.5t83 28.5t69 41t62 48l2 2q9 8 19.5 15.5 t22.5 7.5q15 0 29 -19q20 -28 33 -45t22 -28q8 -11 12 -16q5 -6 8 -12.5t3 -15.5q0 -11 -8.5 -24t-30.5 -30q-44 -35 -91.5 -63t-100 -48.5t-110 -32t-122.5 -11.5q-91 0 -176 24.5t-160 69t-137 106t-107 136t-70 160t-25 177.5zM1461 750h926q-11 85 -52.5 154.5 t-104 118.5t-141 76t-162.5 27q-67 0 -132 -17t-123 -53q-78 -52 -134 -131.5t-77 -174.5z" />
<glyph unicode="&#xe7;" horiz-adv-x="1290" d="M77 649q0 92 24.5 177.5t69.5 160.5t107 136.5t137 106t160 68.5t177 24q57 0 114 -11t109.5 -29.5t99 -44.5t83.5 -55q7 -6 17 -14t16.5 -17.5t8.5 -21.5t-5 -25l-75 -98q-27 -35 -61 1q-28 29 -64 51.5t-76.5 39.5t-84.5 26.5t-88 9.5q-90 0 -174 -39t-148.5 -105.5 t-103 -155t-38.5 -185.5q0 -98 38 -185.5t102.5 -153t149 -104t176.5 -38.5q56 0 101.5 10.5t83 28.5t69 41t61.5 48q7 6 15.5 12.5t18.5 10t19.5 0t20.5 -16.5q20 -28 33 -45t21 -28t12 -16q5 -8 8.5 -16.5t1.5 -18t-10.5 -21.5t-26.5 -26q-44 -35 -92 -63t-100 -48.5 t-110 -32t-122 -11.5q-91 0 -176.5 24.5t-160.5 69t-137 106t-107 136t-69.5 160t-24.5 177.5zM639 -47q0 11 3.5 23.5t17.5 25.5h158q-23 -15 -23 -36q0 -16 16 -30t39 -29t50.5 -31.5t50.5 -38.5t39 -50.5t16 -66.5q0 -36 -14.5 -68t-47 -60t-86 -53.5t-131.5 -49.5h-5 q-15 0 -26.5 12.5t-19.5 28.5t-12 33.5t-4 26.5q0 14 11 23q175 43 175 107q0 23 -15 40.5t-38.5 33.5t-50 31.5t-49.5 34t-38.5 41t-15.5 52.5z" />
<glyph unicode="&#xe8;" horiz-adv-x="1551" d="M102 649q0 92 23 178t65.5 161t103 136.5t136 105.5t163 68t184.5 24q77 0 153 -17.5t145.5 -50.5t130.5 -82.5t109 -112.5q66 -88 97.5 -201t29.5 -259q0 -48 -45 -48h-1080q17 -82 61 -151.5t105 -121.5t135.5 -81t154.5 -29q56 0 102 10.5t83 28.5t69 41t62 48l2 2 q9 8 19.5 15.5t22.5 7.5q15 0 29 -19q20 -28 33 -45t22 -28q8 -11 12 -16q5 -6 8 -12.5t3 -15.5q0 -11 -8.5 -24t-30.5 -30q-44 -35 -91.5 -63t-100 -48.5t-110 -32t-122.5 -11.5q-91 0 -176 24.5t-160 69t-137 106t-107 136t-70 160t-25 177.5zM318 750h926 q-11 85 -52.5 154.5t-104 118.5t-141 76t-162.5 27q-67 0 -132 -17t-123 -53q-78 -52 -134 -131.5t-77 -174.5zM633 1722q0 23 26 23h102q19 0 31 -10.5t24 -32.5l90 -210q7 -12 8 -21t3 -16q0 -14 -6.5 -21.5t-26.5 -7.5h-95q-35 0 -54 43l-93 215q-7 11 -8 20.5t-1 17.5z " />
<glyph unicode="&#xe9;" horiz-adv-x="1551" d="M102 649q0 92 23 178t65.5 161t103 136.5t136 105.5t163 68t184.5 24q77 0 153 -17.5t145.5 -50.5t130.5 -82.5t109 -112.5q66 -88 97.5 -201t29.5 -259q0 -48 -45 -48h-1080q17 -82 61 -151.5t105 -121.5t135.5 -81t154.5 -29q56 0 102 10.5t83 28.5t69 41t62 48l2 2 q9 8 19.5 15.5t22.5 7.5q15 0 29 -19q20 -28 33 -45t22 -28q8 -11 12 -16q5 -6 8 -12.5t3 -15.5q0 -11 -8.5 -24t-30.5 -30q-44 -35 -91.5 -63t-100 -48.5t-110 -32t-122.5 -11.5q-91 0 -176 24.5t-160 69t-137 106t-107 136t-70 160t-25 177.5zM318 750h926 q-11 85 -52.5 154.5t-104 118.5t-141 76t-162.5 27q-67 0 -132 -17t-123 -53q-78 -52 -134 -131.5t-77 -174.5zM717 1455q2 7 3.5 16t8.5 21l90 210q12 23 24 33t31 10h101q27 0 27 -23q0 -8 -1 -17t-8 -21l-93 -215q-19 -43 -55 -43h-94q-20 0 -27 7.5t-7 21.5z" />
<glyph unicode="&#xea;" horiz-adv-x="1551" d="M102 649q0 92 23 178t65.5 161t103 136.5t136 105.5t163 68t184.5 24q77 0 153 -17.5t145.5 -50.5t130.5 -82.5t109 -112.5q66 -88 97.5 -201t29.5 -259q0 -48 -45 -48h-1080q17 -82 61 -151.5t105 -121.5t135.5 -81t154.5 -29q56 0 102 10.5t83 28.5t69 41t62 48l2 2 q9 8 19.5 15.5t22.5 7.5q15 0 29 -19q20 -28 33 -45t22 -28q8 -11 12 -16q5 -6 8 -12.5t3 -15.5q0 -11 -8.5 -24t-30.5 -30q-44 -35 -91.5 -63t-100 -48.5t-110 -32t-122.5 -11.5q-91 0 -176 24.5t-160 69t-137 106t-107 136t-70 160t-25 177.5zM318 750h926 q-11 85 -52.5 154.5t-104 118.5t-141 76t-162.5 27q-67 0 -132 -17t-123 -53q-78 -52 -134 -131.5t-77 -174.5zM471 1510q0 17 9 23l272 275q9 8 23 9q11 0 20 -9l275 -275q9 -5 9 -23q0 -11 -9 -20l-49 -51q-17 -11 -28 -12q-10 0 -22 10l-196 188l-199 -188q-11 -7 -22 -7 q-16 0 -23 9l-51 49q-9 6 -9 22z" />
<glyph unicode="&#xeb;" horiz-adv-x="1551" d="M102 649q0 92 23 178t65.5 161t103 136.5t136 105.5t163 68t184.5 24q77 0 153 -17.5t145.5 -50.5t130.5 -82.5t109 -112.5q66 -88 97.5 -201t29.5 -259q0 -48 -45 -48h-1080q17 -82 61 -151.5t105 -121.5t135.5 -81t154.5 -29q56 0 102 10.5t83 28.5t69 41t62 48l2 2 q9 8 19.5 15.5t22.5 7.5q15 0 29 -19q20 -28 33 -45t22 -28q8 -11 12 -16q5 -6 8 -12.5t3 -15.5q0 -11 -8.5 -24t-30.5 -30q-44 -35 -91.5 -63t-100 -48.5t-110 -32t-122.5 -11.5q-91 0 -176 24.5t-160 69t-137 106t-107 136t-70 160t-25 177.5zM318 750h926 q-11 85 -52.5 154.5t-104 118.5t-141 76t-162.5 27q-67 0 -132 -17t-123 -53q-78 -52 -134 -131.5t-77 -174.5zM496 1564v105q0 20 12.5 32.5t32.5 12.5h105q23 0 35.5 -12.5t12.5 -32.5v-105q0 -45 -46 -45h-105q-47 0 -47 45zM858 1564v105q0 20 13 32.5t32 12.5h106 q23 0 35 -12.5t12 -32.5v-105q0 -45 -45 -45h-106q-47 0 -47 45z" />
<glyph unicode="&#xec;" d="M66 1722q0 23 26 23h102q19 0 31 -10.5t24 -32.5l90 -210q7 -12 8 -21t3 -16q0 -14 -6.5 -21.5t-26.5 -7.5h-95q-35 0 -54 43l-93 215q-7 11 -8 20.5t-1 17.5zM165 45v1210q0 20 13 32.5t32 12.5h106q22 0 35 -13t13 -32v-1210q0 -45 -46 -45h-105q-48 0 -48 45z" />
<glyph unicode="&#xed;" d="M165 45v1210q0 20 13 32.5t32 12.5h106q22 0 35 -13t13 -32v-1210q0 -45 -46 -45h-105q-48 0 -48 45zM178 1455q2 7 3.5 16t8.5 21l90 210q12 23 24 33t31 10h101q27 0 27 -23q0 -8 -1 -17t-8 -21l-93 -215q-19 -43 -55 -43h-94q-20 0 -27 7.5t-7 21.5z" />
<glyph unicode="&#xee;" d="M-39 1510q0 17 9 23l272 275q9 8 23 9q11 0 20 -9l275 -275q9 -5 9 -23q0 -11 -9 -20l-49 -51q-17 -11 -28 -12q-10 0 -22 10l-196 188l-199 -188q-11 -7 -22 -7q-16 0 -23 9l-51 49q-9 6 -9 22zM165 45v1210q0 20 13 32.5t32 12.5h106q22 0 35 -13t13 -32v-1210 q0 -45 -46 -45h-105q-48 0 -48 45z" />
<glyph unicode="&#xef;" d="M-15 1564v105q0 20 12.5 32.5t32.5 12.5h105q23 0 35.5 -12.5t12.5 -32.5v-105q0 -45 -46 -45h-105q-47 0 -47 45zM165 45v1210q0 20 13 32.5t32 12.5h106q22 0 35 -13t13 -32v-1210q0 -45 -46 -45h-105q-48 0 -48 45zM347 1564v105q0 20 13 32.5t32 12.5h106 q23 0 35 -12.5t12 -32.5v-105q0 -45 -45 -45h-106q-47 0 -47 45z" />
<glyph unicode="&#xf0;" horiz-adv-x="1284" d="M124 488q0 104 39.5 195.5t107 159t158.5 106t195 38.5q43 0 86.5 -8t83.5 -25t74.5 -42t62.5 -58q-3 37 -7.5 77t-13 80t-20 78.5t-27.5 74.5l-112 -90q-14 -10 -27 -7t-24 16l-51 64q-19 25 6 47l118 92q-31 24 -68 38t-83 14l-2 4q-36 0 -45.5 11t-9.5 35 q0 4 -0.5 18.5t-1.5 31.5q-1 18 -2 42q0 34 12 42t44 8l3 -2q100 0 176 -32t135 -88l126 99q11 11 24 11.5t21 -13.5l49 -65q10 -10 9.5 -24.5t-11.5 -25.5l-128 -102q32 -57 54.5 -124t36 -140.5t20 -151t6.5 -155.5q0 -100 -5.5 -189t-30.5 -170q-22 -80 -65 -148 t-104.5 -117t-139.5 -76.5t-171 -27.5q-104 0 -195.5 39.5t-158.5 107t-105.5 158.5t-38.5 194zM313 488q0 -65 24.5 -120.5t67 -97.5t99 -66t120.5 -24q65 0 121.5 24t98.5 66t66.5 97.5t24.5 120.5t-24.5 122t-66.5 99t-99 66.5t-121 24.5q-63 0 -120 -24.5t-99.5 -66.5 t-67 -99t-24.5 -122z" />
<glyph unicode="&#xf1;" horiz-adv-x="1346" d="M165 45v1210q0 20 13 32.5t32 12.5h106q22 0 35 -13t13 -32v-127q29 36 64.5 70.5t80 61.5t99 44t121.5 17q126 0 222.5 -43.5t161.5 -119t98 -176.5t33 -217v-695q0 -35 -18 -52.5t-45 -17.5h-76q-38 0 -48.5 15.5t-10.5 51.5v698q0 61 -17 125t-55.5 116.5t-102 85 t-155.5 32.5q-58 0 -121 -21t-114 -62t-84 -101t-33 -138v-757q0 -45 -46 -45h-105q-48 0 -48 45zM402 1599q0 7 2 9q36 61 89.5 95.5t127.5 34.5q32 -3 62 -12.5t56 -29.5l55 -34q30 -20 63 -20q18 0 35.5 7.5t29.5 18.5q5 4 11.5 12.5t13 16t13 13t10.5 5.5q3 4 5.5 4.5 t7.5 0.5q6 0 19 -8.5t26.5 -20t23.5 -24t10 -19.5q0 -3 -0.5 -9t-4.5 -9l-23 -31q-40 -49 -86.5 -69.5t-104.5 -20.5q-29 0 -60.5 12t-58.5 31l-52 33q-15 8 -29.5 14.5t-33.5 6.5q-20 0 -38 -8t-29 -20q-5 -5 -12.5 -14l-15 -18t-16 -15.5t-16.5 -6.5q-2 0 -15 8t-27.5 20 t-26 24.5t-11.5 22.5z" />
<glyph unicode="&#xf2;" horiz-adv-x="1554" d="M109 648q0 138 53.5 260.5t145 214.5t213.5 145.5t259 53.5q91 0 176.5 -24t160.5 -68.5t136.5 -106t106 -137t68.5 -161t24 -177.5t-24 -177.5t-68.5 -160t-106 -136t-136.5 -105.5t-160.5 -68.5t-176.5 -24.5t-176.5 24.5t-160 68.5t-136 105.5t-105.5 136t-68.5 160 t-24.5 177.5zM312 648q0 -97 37 -184t100.5 -152.5t148.5 -104.5t182 -39q96 0 181 39t147.5 104.5t99 152.5t36.5 184q0 95 -36.5 183.5t-99 155.5t-147 107t-181.5 40t-182 -40t-148.5 -107t-100.5 -155.5t-37 -183.5zM554 1722q0 23 26 23h102q19 0 31 -10.5t24 -32.5 l90 -210q7 -12 8 -21t3 -16q0 -14 -6.5 -21.5t-26.5 -7.5h-95q-35 0 -54 43l-93 215q-7 11 -8 20.5t-1 17.5z" />
<glyph unicode="&#xf3;" horiz-adv-x="1554" d="M109 648q0 138 53.5 260.5t145 214.5t213.5 145.5t259 53.5q91 0 176.5 -24t160.5 -68.5t136.5 -106t106 -137t68.5 -161t24 -177.5t-24 -177.5t-68.5 -160t-106 -136t-136.5 -105.5t-160.5 -68.5t-176.5 -24.5t-176.5 24.5t-160 68.5t-136 105.5t-105.5 136t-68.5 160 t-24.5 177.5zM312 648q0 -97 37 -184t100.5 -152.5t148.5 -104.5t182 -39q96 0 181 39t147.5 104.5t99 152.5t36.5 184q0 95 -36.5 183.5t-99 155.5t-147 107t-181.5 40t-182 -40t-148.5 -107t-100.5 -155.5t-37 -183.5zM714 1455q2 7 3.5 16t8.5 21l90 210q12 23 24 33 t31 10h101q27 0 27 -23q0 -8 -1 -17t-8 -21l-93 -215q-19 -43 -55 -43h-94q-20 0 -27 7.5t-7 21.5z" />
<glyph unicode="&#xf4;" horiz-adv-x="1554" d="M109 648q0 138 53.5 260.5t145 214.5t213.5 145.5t259 53.5q91 0 176.5 -24t160.5 -68.5t136.5 -106t106 -137t68.5 -161t24 -177.5t-24 -177.5t-68.5 -160t-106 -136t-136.5 -105.5t-160.5 -68.5t-176.5 -24.5t-176.5 24.5t-160 68.5t-136 105.5t-105.5 136t-68.5 160 t-24.5 177.5zM312 648q0 -97 37 -184t100.5 -152.5t148.5 -104.5t182 -39q96 0 181 39t147.5 104.5t99 152.5t36.5 184q0 95 -36.5 183.5t-99 155.5t-147 107t-181.5 40t-182 -40t-148.5 -107t-100.5 -155.5t-37 -183.5zM461 1510q0 17 9 23l272 275q9 8 23 9q11 0 20 -9 l275 -275q9 -5 9 -23q0 -11 -9 -20l-49 -51q-17 -11 -28 -12q-10 0 -22 10l-196 188l-199 -188q-11 -7 -22 -7q-16 0 -23 9l-51 49q-9 6 -9 22z" />
<glyph unicode="&#xf5;" horiz-adv-x="1554" d="M109 648q0 138 53.5 260.5t145 214.5t213.5 145.5t259 53.5q91 0 176.5 -24t160.5 -68.5t136.5 -106t106 -137t68.5 -161t24 -177.5t-24 -177.5t-68.5 -160t-106 -136t-136.5 -105.5t-160.5 -68.5t-176.5 -24.5t-176.5 24.5t-160 68.5t-136 105.5t-105.5 136t-68.5 160 t-24.5 177.5zM312 648q0 -97 37 -184t100.5 -152.5t148.5 -104.5t182 -39q96 0 181 39t147.5 104.5t99 152.5t36.5 184q0 95 -36.5 183.5t-99 155.5t-147 107t-181.5 40t-182 -40t-148.5 -107t-100.5 -155.5t-37 -183.5zM455 1571q0 7 2 9q36 61 89.5 95.5t127.5 34.5 q32 -3 62 -12.5t56 -29.5l55 -34q30 -20 63 -20q18 0 35.5 7.5t29.5 18.5q5 4 11.5 12.5t13 16t13 13t10.5 5.5q3 4 5.5 4.5t7.5 0.5q6 0 19 -8.5t26.5 -20t23.5 -24t10 -19.5q0 -3 -0.5 -9t-4.5 -9l-23 -31q-40 -49 -86.5 -69.5t-104.5 -20.5q-29 0 -60.5 12t-58.5 31 l-52 33q-15 8 -29.5 14.5t-33.5 6.5q-20 0 -38 -8t-29 -20q-5 -5 -12.5 -14l-15 -18t-16 -15.5t-16.5 -6.5q-2 0 -15 8t-27.5 20t-26 24.5t-11.5 22.5z" />
<glyph unicode="&#xf6;" horiz-adv-x="1554" d="M109 648q0 138 53.5 260.5t145 214.5t213.5 145.5t259 53.5q91 0 176.5 -24t160.5 -68.5t136.5 -106t106 -137t68.5 -161t24 -177.5t-24 -177.5t-68.5 -160t-106 -136t-136.5 -105.5t-160.5 -68.5t-176.5 -24.5t-176.5 24.5t-160 68.5t-136 105.5t-105.5 136t-68.5 160 t-24.5 177.5zM312 648q0 -97 37 -184t100.5 -152.5t148.5 -104.5t182 -39q96 0 181 39t147.5 104.5t99 152.5t36.5 184q0 95 -36.5 183.5t-99 155.5t-147 107t-181.5 40t-182 -40t-148.5 -107t-100.5 -155.5t-37 -183.5zM494 1564v105q0 20 12.5 32.5t32.5 12.5h105 q23 0 35.5 -12.5t12.5 -32.5v-105q0 -45 -46 -45h-105q-47 0 -47 45zM856 1564v105q0 20 13 32.5t32 12.5h106q23 0 35 -12.5t12 -32.5v-105q0 -45 -45 -45h-106q-47 0 -47 45z" />
<glyph unicode="&#xf7;" horiz-adv-x="970" d="M103 466v104q0 45 48 45h664q19 0 32 -11.5t13 -33.5v-104q0 -18 -12 -33.5t-33 -15.5h-664q-47 0 -48 49zM392 77v45q0 33 18 55t59 22h45q32 0 54 -20.5t22 -56.5v-45q0 -41 -18 -59t-58 -18h-45q-41 0 -59 18t-18 59zM392 924v45q0 33 18 55t59 22h45q32 0 54 -20.5 t22 -56.5v-45q0 -41 -18 -59t-58 -18h-45q-41 0 -59 18t-18 59z" />
<glyph unicode="&#xf8;" horiz-adv-x="1554" d="M109 648q0 138 53.5 260.5t145 214.5t213.5 145.5t259 53.5q40 0 78.5 -5t76.5 -14l29 66q12 26 24.5 35.5t38.5 9.5h113q33 0 42.5 -10.5t-2.5 -41.5l-59 -136q74 -44 135 -105.5t104.5 -136.5t67.5 -160t24 -176q0 -92 -24 -177.5t-68.5 -160t-106 -136t-136.5 -105.5 t-160.5 -68.5t-176.5 -24.5q-47 0 -92 7t-89 19l-34 -81q-17 -38 -52 -38h-128q-27 0 -33.5 12.5t1.5 32.5l66 156q-70 45 -127.5 105.5t-97.5 133t-62.5 155t-22.5 170.5zM312 648q0 -97 37 -184t100.5 -152.5t148.5 -104.5t182 -39q96 0 181 39t147.5 104.5t99 152.5 t36.5 184q0 95 -36.5 183.5t-99 155.5t-147 107t-181.5 40t-182 -40t-148.5 -107t-100.5 -155.5t-37 -183.5z" />
<glyph unicode="&#xf9;" horiz-adv-x="1352" d="M165 556v695q0 35 18 52.5t45 17.5h76q38 0 49 -15.5t11 -51.5v-698q0 -61 16.5 -125t55 -116.5t102 -85t155.5 -32.5q58 0 117 21t107 62t78 100.5t30 138.5v757q0 45 45 45h106q48 0 48 -45v-1210q0 -20 -13.5 -33t-31.5 -13h-107q-22 0 -34.5 13.5t-12.5 32.5v86 q-30 -36 -62 -64.5t-72.5 -48t-91.5 -29.5t-119 -10q-126 0 -222.5 43.5t-161.5 119t-98 176.5t-33 217zM534 1722q0 23 26 23h102q19 0 31 -10.5t24 -32.5l90 -210q7 -12 8 -21t3 -16q0 -14 -6.5 -21.5t-26.5 -7.5h-95q-35 0 -54 43l-93 215q-7 11 -8 20.5t-1 17.5z" />
<glyph unicode="&#xfa;" horiz-adv-x="1352" d="M165 556v695q0 35 18 52.5t45 17.5h76q38 0 49 -15.5t11 -51.5v-698q0 -61 16.5 -125t55 -116.5t102 -85t155.5 -32.5q58 0 117 21t107 62t78 100.5t30 138.5v757q0 45 45 45h106q48 0 48 -45v-1210q0 -20 -13.5 -33t-31.5 -13h-107q-22 0 -34.5 13.5t-12.5 32.5v86 q-30 -36 -62 -64.5t-72.5 -48t-91.5 -29.5t-119 -10q-126 0 -222.5 43.5t-161.5 119t-98 176.5t-33 217zM596 1455q2 7 3.5 16t8.5 21l90 210q12 23 24 33t31 10h101q27 0 27 -23q0 -8 -1 -17t-8 -21l-93 -215q-19 -43 -55 -43h-94q-20 0 -27 7.5t-7 21.5z" />
<glyph unicode="&#xfb;" horiz-adv-x="1352" d="M165 556v695q0 35 18 52.5t45 17.5h76q38 0 49 -15.5t11 -51.5v-698q0 -61 16.5 -125t55 -116.5t102 -85t155.5 -32.5q58 0 117 21t107 62t78 100.5t30 138.5v757q0 45 45 45h106q48 0 48 -45v-1210q0 -20 -13.5 -33t-31.5 -13h-107q-22 0 -34.5 13.5t-12.5 32.5v86 q-30 -36 -62 -64.5t-72.5 -48t-91.5 -29.5t-119 -10q-126 0 -222.5 43.5t-161.5 119t-98 176.5t-33 217zM372 1510q0 17 9 23l272 275q9 8 23 9q11 0 20 -9l275 -275q9 -5 9 -23q0 -11 -9 -20l-49 -51q-17 -11 -28 -12q-10 0 -22 10l-196 188l-199 -188q-11 -7 -22 -7 q-16 0 -23 9l-51 49q-9 6 -9 22z" />
<glyph unicode="&#xfc;" horiz-adv-x="1352" d="M165 556v695q0 35 18 52.5t45 17.5h76q38 0 49 -15.5t11 -51.5v-698q0 -61 16.5 -125t55 -116.5t102 -85t155.5 -32.5q58 0 117 21t107 62t78 100.5t30 138.5v757q0 45 45 45h106q48 0 48 -45v-1210q0 -20 -13.5 -33t-31.5 -13h-107q-22 0 -34.5 13.5t-12.5 32.5v86 q-30 -36 -62 -64.5t-72.5 -48t-91.5 -29.5t-119 -10q-126 0 -222.5 43.5t-161.5 119t-98 176.5t-33 217zM396 1564v105q0 20 12.5 32.5t32.5 12.5h105q23 0 35.5 -12.5t12.5 -32.5v-105q0 -45 -46 -45h-105q-47 0 -47 45zM758 1564v105q0 20 13 32.5t32 12.5h106 q23 0 35 -12.5t12 -32.5v-105q0 -45 -45 -45h-106q-47 0 -47 45z" />
<glyph unicode="&#xfd;" horiz-adv-x="1218" d="M23 1265q0 36 47 35h107q20 0 33.5 -10t20.5 -27q19 -51 50 -130t67 -171t74.5 -189t73.5 -185t64.5 -160.5t46.5 -114.5q16 42 45 114.5t63.5 161t72 185.5t73 189t65.5 170.5t50 130.5q7 17 20.5 27.5t33.5 10.5h114q45 0 45 -36q0 -3 -1 -7.5t-3 -9.5t-3 -11 l-241 -593l-410 -1003v2q-14 -38 -54 -38h-101q-49 0 -49 38q0 7 2 14.5t2 9.5l171 413l-475 1156q-1 3 -2 7q-2 8 -2 21zM542 1455q2 7 3.5 16t8.5 21l90 210q12 23 24 33t31 10h101q27 0 27 -23q0 -8 -1 -17t-8 -21l-93 -215q-19 -43 -55 -43h-94q-20 0 -27 7.5t-7 21.5z " />
<glyph unicode="&#xfe;" horiz-adv-x="1596" d="M166 43v11v1322v7v85q0 24 16.5 38.5t39.5 14.5h100q27 0 40.5 -14.5t13.5 -38.5v-625q26 37 60 69.5t75.5 56.5t89.5 38t104 14q108 0 200 -40.5t160.5 -111t107 -166t38.5 -203.5q0 -109 -38.5 -203.5t-107 -165.5t-161 -111t-199.5 -40q-54 0 -102.5 13.5t-90 37 t-75.5 54.5t-59 66v-669q0 -45 -47 -45h-120q-45 0 -45 45v561zM365 503q1 -68 27 -128.5t70.5 -105.5t104 -71.5t126.5 -26.5q68 0 126 25.5t101 70t67 104.5t24 129q0 68 -24 128t-67 105t-101 71.5t-126 26.5t-127 -25.5t-103 -70t-70.5 -104.5t-27.5 -128z" />
<glyph unicode="&#xff;" horiz-adv-x="1218" d="M23 1265q0 36 47 35h107q20 0 33.5 -10t20.5 -27q19 -51 50 -130t67 -171t74.5 -189t73.5 -185t64.5 -160.5t46.5 -114.5q16 42 45 114.5t63.5 161t72 185.5t73 189t65.5 170.5t50 130.5q7 17 20.5 27.5t33.5 10.5h114q45 0 45 -36q0 -3 -1 -7.5t-3 -9.5t-3 -11 l-241 -593l-410 -1003v2q-14 -38 -54 -38h-101q-49 0 -49 38q0 7 2 14.5t2 9.5l171 413l-475 1156q-1 3 -2 7q-2 8 -2 21zM320 1564v105q0 20 12.5 32.5t32.5 12.5h105q23 0 35.5 -12.5t12.5 -32.5v-105q0 -45 -46 -45h-105q-47 0 -47 45zM682 1564v105q0 20 13 32.5 t32 12.5h106q23 0 35 -12.5t12 -32.5v-105q0 -45 -45 -45h-106q-47 0 -47 45z" />
<glyph unicode="&#x152;" horiz-adv-x="2566" d="M76 763q0 108 27.5 207.5t78.5 186.5t122.5 159t158.5 122.5t187 78.5t208 28q87 0 170 -19t157.5 -53t140 -83.5t119.5 -110.5v199q0 47 45 47h981q47 0 47 -49v-102q0 -19 -12 -33.5t-37 -14.5h-825v-421h649q18 0 31.5 -10.5t13.5 -36.5v-104q0 -18 -11.5 -32.5 t-33.5 -14.5h-649v-504h829q47 0 47 -48v-106q0 -45 -45 -45h-985q-45 0 -45 43v199q-54 -61 -119.5 -110t-140.5 -83.5t-158 -52.5t-171 -18q-109 0 -208.5 27.5t-186 78.5t-158 122.5t-122 158t-78 186t-27.5 208.5zM272 766q0 -81 21 -155t59 -139t91.5 -118.5 t118.5 -91.5t139 -59t155 -21q80 0 154.5 21t139 59t118 91.5t91.5 118.5t59 139t21 155q0 121 -46 227t-125 184.5t-185 125t-227 46.5q-81 0 -155 -21t-139 -59t-118.5 -91.5t-91.5 -118t-59 -139t-21 -154.5z" />
<glyph unicode="&#x153;" horiz-adv-x="2639" d="M49 648q0 138 53.5 260.5t145 214.5t213.5 145.5t259 53.5q91 0 176.5 -24t160.5 -68.5t136.5 -106t106 -137t68.5 -161t24 -177.5t-24 -177.5t-68.5 -160t-106 -136t-136.5 -105.5t-160.5 -68.5t-176.5 -24.5t-176.5 24.5t-160 68.5t-136 105.5t-105.5 136t-68.5 160 t-24.5 177.5zM252 648q0 -97 37 -184t100.5 -152.5t148.5 -104.5t182 -39q96 0 181 39t147.5 104.5t99 152.5t36.5 184q0 95 -36.5 183.5t-99 155.5t-147 107t-181.5 40t-182 -40t-148.5 -107t-100.5 -155.5t-37 -183.5zM1196 649q0 92 23 178t65.5 161t103 136.5t136 105.5 t163 68t184.5 24q77 0 153 -17.5t145.5 -50.5t130.5 -82.5t109 -112.5q66 -88 97.5 -201t29.5 -259q0 -48 -45 -48h-1080q17 -82 61 -151.5t105 -121.5t135.5 -81t154.5 -29q56 0 102 10.5t83 28.5t69 41t62 48l2 2q9 8 19.5 15.5t22.5 7.5q15 0 29 -19q20 -28 33 -45 t22 -28q8 -11 12 -16q5 -6 8 -12.5t3 -15.5q0 -11 -8.5 -24t-30.5 -30q-44 -35 -91.5 -63t-100 -48.5t-110 -32t-122.5 -11.5q-91 0 -176 24.5t-160 69t-137 106t-107 136t-70 160t-25 177.5zM1412 750h926q-11 85 -52.5 154.5t-104 118.5t-141 76t-162.5 27q-67 0 -132 -17 t-123 -53q-78 -52 -134 -131.5t-77 -174.5z" />
<glyph unicode="&#x178;" horiz-adv-x="1281" d="M21.5 1507q2.5 14 25.5 14h166q9 -1 15 -2t11.5 -5t10.5 -12t13 -22l367 -636h3l374 643q11 20 20 26t25 8h171q23 0 22 -19q0 -9 -11 -26q-63 -101 -125.5 -206.5t-124.5 -211.5t-125 -211t-128 -206v-592q0 -49 -45 -49h-109q-43 0 -43 49v587l-501 835 q-14 22 -11.5 36zM331 1764v106q0 20 12.5 32.5t32.5 12.5h105q23 0 35.5 -13t12.5 -32v-106q0 -45 -46 -45h-105q-47 0 -47 45zM693 1764v106q0 20 12.5 32.5t32.5 12.5h105q23 0 35.5 -13t12.5 -32v-106q0 -45 -46 -45h-105q-47 0 -47 45z" />
<glyph unicode="&#x2c6;" horiz-adv-x="765" d="M79 1510q0 17 9 23l272 275q9 8 23 9q11 0 20 -9l275 -275q9 -5 9 -23q0 -11 -9 -20l-49 -51q-17 -11 -28 -12q-10 0 -22 10l-196 188l-199 -188q-11 -7 -22 -7q-16 0 -23 9l-51 49q-9 6 -9 22z" />
<glyph unicode="&#x2dc;" horiz-adv-x="723" d="M24 1606q0 7 2 9q36 61 89.5 95.5t127.5 34.5q32 -3 62 -12.5t56 -29.5l55 -34q30 -20 63 -20q18 0 35.5 7.5t29.5 18.5q5 4 11.5 12.5t13 16t13 13t10.5 5.5q3 4 5.5 4.5t7.5 0.5q6 0 19 -8.5t26.5 -20t23.5 -24t10 -19.5q0 -3 -0.5 -9t-4.5 -9l-23 -31 q-40 -49 -86.5 -69.5t-104.5 -20.5q-29 0 -60.5 12t-58.5 31l-52 33q-15 8 -29.5 14.5t-33.5 6.5q-20 0 -38 -8t-29 -20q-5 -5 -12.5 -14l-15 -18t-16 -15.5t-16.5 -6.5q-2 0 -15 8t-27.5 20t-26 24.5t-11.5 22.5z" />
<glyph unicode="&#x2000;" horiz-adv-x="1028" />
<glyph unicode="&#x2001;" horiz-adv-x="2057" />
<glyph unicode="&#x2002;" horiz-adv-x="1028" />
<glyph unicode="&#x2003;" horiz-adv-x="2057" />
<glyph unicode="&#x2004;" horiz-adv-x="685" />
<glyph unicode="&#x2005;" horiz-adv-x="514" />
<glyph unicode="&#x2006;" horiz-adv-x="342" />
<glyph unicode="&#x2007;" horiz-adv-x="342" />
<glyph unicode="&#x2008;" horiz-adv-x="257" />
<glyph unicode="&#x2009;" horiz-adv-x="411" />
<glyph unicode="&#x200a;" horiz-adv-x="114" />
<glyph unicode="&#x2010;" horiz-adv-x="1058" d="M153 579v106q0 45 48 45h664q18 0 31.5 -11.5t13.5 -33.5v-106q0 -18 -12 -33t-33 -15h-664q-48 0 -48 48z" />
<glyph unicode="&#x2011;" horiz-adv-x="1058" d="M153 579v106q0 45 48 45h664q18 0 31.5 -11.5t13.5 -33.5v-106q0 -18 -12 -33t-33 -15h-664q-48 0 -48 48z" />
<glyph unicode="&#x2012;" horiz-adv-x="1058" d="M153 579v106q0 45 48 45h664q18 0 31.5 -11.5t13.5 -33.5v-106q0 -18 -12 -33t-33 -15h-664q-48 0 -48 48z" />
<glyph unicode="&#x2013;" horiz-adv-x="1374" d="M173 561v102q0 45 48 45h932q19 0 32 -12t13 -33v-102q0 -18 -12 -34t-33 -16h-932q-48 0 -48 50z" />
<glyph unicode="&#x2014;" horiz-adv-x="1712" d="M162 561v102q0 45 45 45h1298q18 0 31.5 -12t13.5 -33v-102q0 -18 -12 -34t-33 -16h-1298q-45 0 -45 50z" />
<glyph unicode="&#x2018;" horiz-adv-x="488" d="M175 1170v135q0 74 29.5 132t75.5 84h13q10 0 16 -8l34 -32q8 -7 8 -21q0 -9 -7.5 -18.5t-17.5 -21.5t-17.5 -27.5t-7.5 -37.5v-29q0 -9 5 -13.5t11 -7.5q33 0 36 -32v-103q0 -18 -12 -29.5t-28 -11.5h-95q-20 0 -31.5 12t-11.5 29z" />
<glyph unicode="&#x2019;" horiz-adv-x="482" d="M153 1377v103q0 18 12 29.5t28 11.5h95q20 0 31.5 -12t11.5 -29v-135q0 -74 -29.5 -132t-75.5 -84h-13q-10 0 -16 8l-34 32q-8 7 -8 21q0 9 7.5 18.5t17.5 21.5t17.5 27.5t7.5 37.5v29q0 9 -5 13.5t-11 7.5q-33 0 -36 32z" />
<glyph unicode="&#x201a;" horiz-adv-x="540" d="M166 32v103q0 18 12 29.5t28 11.5h95q20 0 31.5 -12t11.5 -29v-135q0 -74 -29.5 -132t-75.5 -84h-13q-10 0 -16 8l-34 32q-8 7 -8 21q0 9 7.5 18.5t17.5 21.5t17.5 27.5t7.5 37.5v29q0 9 -5 13.5t-11 7.5q-33 0 -36 32z" />
<glyph unicode="&#x201c;" horiz-adv-x="803" d="M202 1170v135q0 74 29.5 132t75.5 84h13q10 0 16 -8l34 -32q8 -7 8 -21q0 -9 -7.5 -18.5t-17.5 -21.5t-17.5 -27.5t-7.5 -37.5v-29q0 -9 5 -13.5t11 -7.5q33 0 36 -32v-103q0 -18 -12 -29.5t-28 -11.5h-95q-20 0 -31.5 12t-11.5 29zM439 1170v135q0 74 29.5 132t75.5 84 h13q10 0 16 -8l34 -32q8 -7 8 -21q0 -9 -7.5 -18.5t-17.5 -21.5t-17.5 -27.5t-7.5 -37.5v-29q0 -9 5 -13.5t11 -7.5q33 0 36 -32v-103q0 -18 -12 -29.5t-28 -11.5h-95q-20 0 -31.5 12t-11.5 29z" />
<glyph unicode="&#x201d;" horiz-adv-x="790" d="M181 1377v103q0 18 12 29.5t28 11.5h95q20 0 31.5 -12t11.5 -29v-135q0 -74 -29.5 -132t-75.5 -84h-13q-10 0 -16 8l-34 32q-8 7 -8 21q0 9 7.5 18.5t17.5 21.5t17.5 27.5t7.5 37.5v29q0 9 -5 13.5t-11 7.5q-33 0 -36 32zM417 1377v103q0 18 12 29.5t28 11.5h95 q20 0 31.5 -12t11.5 -29v-135q0 -74 -29.5 -132t-75.5 -84h-13q-10 0 -16 8l-34 32q-8 7 -8 21q0 9 7.5 18.5t17.5 21.5t17.5 27.5t7.5 37.5v29q0 9 -5 13.5t-11 7.5q-33 0 -36 32z" />
<glyph unicode="&#x201e;" horiz-adv-x="621" d="M94 47v68q0 39 14 51t50 12h52q38 0 50 -13t12 -52v-111q0 -87 -32 -144t-84 -85q-2 -2 -5.5 -2h-6.5q-5 0 -16 5t-11 10q-13 13 -15.5 18.5t-2.5 13.5t9 19.5t19.5 27t19.5 35.5t9 46v34q0 13 -10 17.5t-21 8.5t-21 12.5t-10 28.5zM331 47v68q0 39 13.5 51t49.5 12h52 q38 0 50.5 -13t12.5 -52v-111q0 -87 -32.5 -144t-84.5 -85q-2 -2 -5 -2h-6q-5 0 -16.5 5t-11.5 10q-13 13 -15 18.5t-2 13.5t8.5 19.5t19.5 27t19.5 35.5t8.5 46v34q0 13 -9.5 17.5t-21 8.5t-21 12.5t-9.5 28.5z" />
<glyph unicode="&#x2022;" horiz-adv-x="463" d="M120 529q0 24 9 45t24.5 36.5t36.5 24.5t44 9q24 0 45 -9t36.5 -24.5t24.5 -36.5t9 -45t-9 -44.5t-24.5 -36t-36.5 -24.5t-45 -9t-44.5 9t-36 24.5t-24.5 36t-9 44.5z" />
<glyph unicode="&#x2026;" horiz-adv-x="1306" d="M187 75v45q0 45 18 60.5t59 15.5h45q16 0 30 -4t24.5 -12t16.5 -23t6 -37v-45q0 -41 -18 -59t-59 -18h-45q-41 0 -59 18t-18 59zM577 75v45q0 45 17.5 60.5t58.5 15.5h45q16 0 30 -4t24.5 -12t16.5 -23t6 -37v-45q0 -41 -18 -59t-59 -18h-45q-41 0 -58.5 18t-17.5 59z M966 75v45q0 45 17.5 60.5t58.5 15.5h45q16 0 30.5 -4t24.5 -12t16 -23t6 -37v-45q0 -41 -18 -59t-59 -18h-45q-41 0 -58.5 18t-17.5 59z" />
<glyph unicode="&#x202f;" horiz-adv-x="411" />
<glyph unicode="&#x2039;" horiz-adv-x="882" d="M58 572q0 11 14 27l534 531q5 5 16 8.5t18 3.5q18 0 32 -14l53 -56q14 -14 14 -29q0 -7 -2.5 -17.5t-8.5 -15.5l-439 -443l439 -439q5 -5 8 -16t3 -18q0 -18 -14 -31l-58 -59q-5 -5 -12 -8t-15 -3q-18 0 -35 15.5t-33 29.5l-251 251t-251 252q-5 5 -8.5 14.5t-3.5 16.5z " />
<glyph unicode="&#x203a;" horiz-adv-x="887" d="M148 94q0 7 3.5 18t8.5 16l439 439l-439 443q-7 5 -9.5 15.5t-2.5 17.5q0 8 4 15t10 14l54 56q13 13 32 14q7 0 17.5 -3t16.5 -9l533 -531q14 -14 14 -27q0 -7 -3 -16.5t-8 -14.5q-127 -128 -251.5 -252t-251.5 -251q-15 -14 -32 -29.5t-35 -15.5q-15 0 -27 11l-59 59 q-13 13 -14 31z" />
<glyph unicode="&#x205f;" horiz-adv-x="514" />
<glyph unicode="&#x20ac;" horiz-adv-x="1579" d="M81 529v106q0 45 48 45h35q-2 19 -3 38.5t-1 40.5v21.5t1 21.5h-32q-48 0 -48 47v106q0 45 48 45h69q38 118 110 217t169.5 171t215.5 112.5t249 40.5q128 0 242.5 -38t217.5 -110q11 -8 18 -19t7 -22q0 -14 -8 -25l-54 -90q-17 -25 -36 -25q-7 0 -15.5 4t-20.5 12 q-74 52 -155 79.5t-171 32.5q-95 0 -180.5 -25t-157 -70.5t-127 -108t-90.5 -136.5h382q18 0 31.5 -11.5t13.5 -33.5v-106q0 -18 -12.5 -32.5t-32.5 -14.5h-436q-2 -11 -2 -23.5v-23.5q0 -19 1 -38.5t3 -36.5h434q18 0 31.5 -11.5t13.5 -33.5v-106q0 -18 -12.5 -32.5 t-32.5 -14.5h-371q37 -70 91 -126t120.5 -95.5t143 -61t157.5 -21.5q42 0 84 6t85.5 21t90.5 38t100 57q19 11 32 11q18 0 34 -25l58 -97q7 -13 7 -24q0 -25 -24 -39q-96 -70 -212 -109.5t-250 -39.5q-126 0 -240 37.5t-209.5 104t-167.5 160t-114 203.5h-80q-48 0 -48 47z " />
<glyph unicode="&#x2122;" horiz-adv-x="1400" d="M103 1428v77q0 17 23 18h426q23 0 22 -18v-77q0 -20 -22 -20h-156v-488q0 -7 -5.5 -14t-11.5 -7h-77q-5 0 -12.5 6.5t-7.5 14.5v488h-156q-23 0 -23 20zM627 916l28 589q0 17 19 18h114q14 0 19 -14l135 -392l137 392q2 7 9 10.5t12 3.5h109q7 0 14 -6t7 -12l30 -589 q0 -17 -23 -17h-75q-17 0 -17 17l-26 413l-126 -387q-6 -16 -15 -16h-70q-9 0 -16 16l-126 387l-25 -413q0 -17 -20 -17h-77q-17 0 -17 17z" />
<glyph unicode="&#x25fc;" horiz-adv-x="1300" d="M0 0v1300h1300v-1300h-1300z" />
<glyph unicode="&#xfb01;" horiz-adv-x="1171" d="M63 1085v65q0 30 15 42t39 12h97v216q0 74 23 139.5t66 114.5t105.5 78t141.5 29q24 0 37.5 -14.5t13.5 -40.5v-87q0 -20 -11 -36t-34 -16q-17 0 -42 -7.5t-47.5 -27t-38 -52t-15.5 -82.5v-214h137q24 0 37.5 -12t13.5 -42v-65q0 -28 -14 -43.5t-37 -15.5h-137v-972 q0 -27 -17 -40.5t-38 -13.5h-95q-26 0 -37.5 15.5t-11.5 38.5v972h-97q-24 0 -39 16t-15 43zM830 45v1210q0 20 13 32.5t32 12.5h106q22 0 35 -13t13 -32v-1210q0 -45 -46 -45h-105q-48 0 -48 45zM830 1537v105q0 20 13 33t32 13h106q22 0 35 -13t13 -33v-105q0 -45 -46 -45 h-105q-48 0 -48 45z" />
<glyph unicode="&#xfb02;" horiz-adv-x="1225" d="M63 1085v65q0 30 15 42t39 12h97v216q0 74 23 139.5t66 114.5t105.5 78t141.5 29q24 0 37.5 -14.5t13.5 -40.5v-87q0 -20 -11 -36t-34 -16q-17 0 -42 -7.5t-47.5 -27t-38 -52t-15.5 -82.5v-214h137q24 0 37.5 -12t13.5 -42v-65q0 -28 -14 -43.5t-37 -15.5h-137v-972 q0 -27 -17 -40.5t-38 -13.5h-95q-26 0 -37.5 15.5t-11.5 38.5v972h-97q-24 0 -39 16t-15 43zM829 45v1596q0 20 13 33t32 13h106q22 0 34.5 -13.5t12.5 -32.5v-1596q0 -45 -45 -45h-105q-48 0 -48 45z" />
<glyph unicode="&#xfb03;" horiz-adv-x="1836" d="M63 1085v65q0 30 15 42t39 12h97v216q0 74 23 139.5t66 114.5t105.5 78t141.5 29q24 0 37.5 -14.5t13.5 -40.5v-87q0 -20 -11 -36t-34 -16q-17 0 -42 -7.5t-47.5 -27t-38 -52t-15.5 -82.5v-214h137q24 0 37.5 -12t13.5 -42v-65q0 -28 -14 -43.5t-37 -15.5h-137v-972 q0 -27 -17 -40.5t-38 -13.5h-95q-26 0 -37.5 15.5t-11.5 38.5v972h-97q-24 0 -39 16t-15 43zM728 1085v65q0 30 15 42t39 12h97v216q0 74 23 139.5t66 114.5t105.5 78t141.5 29q24 0 37.5 -14.5t13.5 -40.5v-87q0 -20 -11 -36t-34 -16q-17 0 -42 -7.5t-47.5 -27t-38 -52 t-15.5 -82.5v-214h137q24 0 37.5 -12t13.5 -42v-65q0 -28 -14 -43.5t-37 -15.5h-137v-972q0 -27 -17 -40.5t-38 -13.5h-95q-26 0 -37.5 15.5t-11.5 38.5v972h-97q-24 0 -39 16t-15 43zM1494 45v1210q0 20 13 32.5t32 12.5h106q22 0 35 -13t13 -32v-1210q0 -45 -46 -45h-105 q-48 0 -48 45zM1494 1537v105q0 20 13 33t32 13h106q22 0 35 -13t13 -33v-105q0 -45 -46 -45h-105q-48 0 -48 45z" />
<glyph unicode="&#xfb04;" horiz-adv-x="1890" d="M63 1085v65q0 30 15 42t39 12h97v216q0 74 23 139.5t66 114.5t105.5 78t141.5 29q24 0 37.5 -14.5t13.5 -40.5v-87q0 -20 -11 -36t-34 -16q-17 0 -42 -7.5t-47.5 -27t-38 -52t-15.5 -82.5v-214h137q24 0 37.5 -12t13.5 -42v-65q0 -28 -14 -43.5t-37 -15.5h-137v-972 q0 -27 -17 -40.5t-38 -13.5h-95q-26 0 -37.5 15.5t-11.5 38.5v972h-97q-24 0 -39 16t-15 43zM728 1085v65q0 30 15 42t39 12h97v216q0 74 23 139.5t66 114.5t105.5 78t141.5 29q24 0 37.5 -14.5t13.5 -40.5v-87q0 -20 -11 -36t-34 -16q-17 0 -42 -7.5t-47.5 -27t-38 -52 t-15.5 -82.5v-214h137q24 0 37.5 -12t13.5 -42v-65q0 -28 -14 -43.5t-37 -15.5h-137v-972q0 -27 -17 -40.5t-38 -13.5h-95q-26 0 -37.5 15.5t-11.5 38.5v972h-97q-24 0 -39 16t-15 43zM1493 45v1596q0 20 13 33t32 13h106q22 0 34.5 -13.5t12.5 -32.5v-1596q0 -45 -45 -45 h-105q-48 0 -48 45z" />
</font>
</defs>
</svg>
