<?xml version="1.0" encoding="utf-8"?>
<!-- Generator: Adobe Illustrator 16.0.0, SVG Export Plug-In . SVG Version: 6.00 Build 0)  -->
<!DOCTYPE svg PUBLIC "-//W3C//DTD SVG 1.1//EN" "http://www.w3.org/Graphics/SVG/1.1/DTD/svg11.dtd">
<svg version="1.1" id="Capa_1" xmlns="http://www.w3.org/2000/svg" xmlns:xlink="http://www.w3.org/1999/xlink" x="0px" y="0px"
	 width="105px" height="105px" viewBox="0 0 105 105" style="enable-background:new 0 0 105 105;" xml:space="preserve">
<style type="text/css">
<![CDATA[
	.st0{fill:#E5F3F1;}
	.st1{fill:#1C1D1D;}
	.st2{fill:#2A2B2B;}
	.st3{fill:#FFFFFF;}
	.st4{fill:#323B45;}
]]>
</style>
<g>
	<rect x="-1046.472" y="65.555" class="st0" width="537.939" height="223.049"/>
	<polygon class="st0" points="-424.441,338.119 113.481,505.697 113.481,522.604 -424.5,522.604 	"/>
	<polygon class="st4" points="113.918,520.958 -39.078,458.771 113.468,288.604 	"/>
</g>
<rect x="306.5" y="-122.445" class="st1" width="108" height="21"/>
<rect x="298.5" y="-103.445" class="st1" width="129" height="78"/>
<g>
	<text transform="matrix(0.9663 0 0 1 319.3145 -107.3179)"><tspan x="0" y="0" style="fill:#61605F; font-family:'DIN-Regular'; font-size:14;">Metodología de</tspan><tspan x="-20.042" y="16.538" style="fill:#61605F; font-family:'DIN-Regular'; font-size:14;">procesos de negocio con</tspan><tspan x="-11.159" y="33.077" style="fill:#61605F; font-family:'DIN-Regular'; font-size:14;">foco en CAPITALIZAR</tspan><tspan x="-11.369" y="49.615" style="fill:#61605F; font-family:'DIN-Regular'; font-size:14;">LAS BRECHAS en los</tspan><tspan x="-14.827" y="66.153" style="fill:#61605F; font-family:'DIN-Regular'; font-size:14;">procesos comerciales</tspan></text>
</g>
<circle class="st2" cx="362.401" cy="-203.531" r="65.462"/>
<text transform="matrix(1.0577 0 0 1 357.2363 -240.3867)" class="st3" style="font-family:'COCOGOOSE'; font-size:19.5033; letter-spacing:-0.945;">1</text>
<g>
	<path class="st3" d="M-123.186,16.887c-0.597,0-1.081,0.496-1.081,1.11v28.441c0,0.615,0.484,1.116,1.081,1.116h9.856
		c0.597,0,1.082-0.501,1.082-1.116V17.997c0-0.614-0.485-1.11-1.082-1.11H-123.186z M-123.186,16.887"/>
	<path class="st3" d="M-105.035,3.961v42.477c0,0.615,0.481,1.116,1.082,1.116h9.854c0.606,0,1.083-0.501,1.083-1.116V3.961
		c0-0.299-0.116-0.587-0.319-0.797c-0.202-0.207-0.473-0.324-0.764-0.324h-9.854C-104.553,2.84-105.035,3.341-105.035,3.961
		L-105.035,3.961z M-105.035,3.961"/>
	<path class="st3" d="M-142.418,6.937c-0.6,0-1.082,0.502-1.082,1.12v38.382c0,0.615,0.482,1.116,1.082,1.116h9.855
		c0.593,0,1.078-0.501,1.078-1.116V8.057c0-0.613-0.485-1.12-1.078-1.12H-142.418z M-142.418,6.937"/>
	<path class="st3" d="M-161.655,18.876c-0.597,0-1.074,0.494-1.074,1.117v26.445c0,0.615,0.477,1.116,1.074,1.116h9.855
		c0.601,0,1.082-0.501,1.082-1.116V19.993c0-0.623-0.481-1.117-1.082-1.117H-161.655z M-161.655,18.876"/>
	<path class="st3" d="M-159.255,15.113c0.282,0.348,0.688,0.531,1.102,0.531c0.327,0,0.656-0.116,0.927-0.359l19.702-17.219
		l17.274,13.669c0.608,0.48,1.465,0.391,1.965-0.21l15.964-19.046l2.236,2.002c0.389,0.344,0.925,0.45,1.415,0.279
		c0.482-0.174,0.849-0.602,0.942-1.127l2.662-14.305c0.104-0.522-0.079-1.062-0.466-1.411c-0.389-0.346-0.935-0.455-1.415-0.284
		l-13.317,4.765c-0.485,0.177-0.844,0.607-0.942,1.132c-0.096,0.522,0.08,1.057,0.474,1.403l2.231,2.01l-11.817,14.098
		l-16.545-13.092c-0.542-0.424-1.289-0.41-1.807,0.049L-162.498,8.83c-0.294,0.259-0.481,0.622-0.513,1.017
		c-0.028,0.396,0.095,0.786,0.337,1.091L-159.255,15.113z M-159.255,15.113"/>
</g>
<circle class="st2" cx="223.065" cy="-34.627" r="63.208"/>
<rect x="181.5" y="47.555" class="st1" width="86" height="17"/>
<rect x="159.5" y="62.555" class="st1" width="127" height="19"/>
<text transform="matrix(0.9663 0 0 1 187.5498 60.6533)"><tspan x="0" y="0" style="fill:#61605F; font-family:'DIN-Regular'; font-size:14;">Ejecución </tspan><tspan x="60.662" y="0" style="fill:#61605F; font-family:'DIN-Regular'; font-size:14;">de</tspan><tspan x="-21.945" y="15.915" style="fill:#61605F; font-family:'DIN-Regular'; font-size:14;">tienda perfecta MAPS</tspan></text>
<text transform="matrix(1.0081 0 0 1 217.1797 -70.228)" class="st3" style="font-family:'COCOGOOSE'; font-size:18.7679;">2</text>
<g>
	<path class="st3" d="M-35.667-104.517l5.36-5.364l-5.468-5.466l-5.364,5.364c-2.245-1.506-4.801-2.578-7.564-3.122v-7.588h-7.714
		v7.608c-2.772,0.523-5.302,1.57-7.541,3.102l-5.364-5.364l-5.472,5.466l5.369,5.364c-1.517,2.243-2.582,4.778-3.11,7.565h-7.604
		v7.709h7.604c0.528,2.748,1.594,5.304,3.11,7.547l-5.369,5.364l5.472,5.45l5.364-5.346c2.219,1.51,4.769,2.58,7.541,3.101v7.607
		h7.732v-7.607c2.745-0.521,5.301-1.57,7.546-3.101l5.364,5.346l5.468-5.45l-5.36-5.364c1.508-2.243,2.573-4.799,3.1-7.547h7.605
		v-7.709h-7.605C-33.093-99.738-34.159-102.273-35.667-104.517L-35.667-104.517z M-52.562-84.673c-4.646,0-8.423-3.792-8.423-8.444
		s3.777-8.421,8.423-8.421c4.679,0,8.447,3.769,8.447,8.421S-47.883-84.673-52.562-84.673L-52.562-84.673z M-52.562-84.673"/>
	<path class="st3" d="M-28.163-130.495c-6.775-4.322-14.78-6.877-23.413-6.877c-23.999,0-43.461,19.466-43.461,43.459
		c0,10.04,3.435,19.238,9.134,26.594l5.448-5.45c-4.337-5.93-6.975-13.183-6.975-21.102c0-19.804,16.051-35.853,35.854-35.853
		c6.604,0,12.681,1.908,17.979,5.029l-4.191,4.465l17.019,1.551l-1.823-17.771L-28.163-130.495z M-28.163-130.495"/>
	<path class="st3" d="M4.963-92.992L-5.684-103.65v5.964h-14.038v9.389h14.038v5.972L4.963-92.992z M4.963-92.992"/>
</g>
<circle class="st2" cx="355.252" cy="57.709" r="63.771"/>
<rect x="291.5" y="139.555" class="st1" width="129" height="61"/>
<text transform="matrix(0.9663 0 0 1 298.2227 151.8916)"><tspan x="0" y="0" style="fill:#61605F; font-family:'DIN-Regular'; font-size:14;">Auditorias de Procesos</tspan><tspan x="117.137" y="0" style="fill:#61605F; font-family:'DIN-Regular'; font-size:14;"> </tspan><tspan x="1.057" y="15.152" style="fill:#61605F; font-family:'DIN-Regular'; font-size:14;">(Distribuidores, Trade</tspan><tspan x="7.743" y="30.305" style="fill:#61605F; font-family:'DIN-Regular'; font-size:14;">Marketing, Ventas ,</tspan><tspan x="6.427" y="45.458" style="fill:#61605F; font-family:'DIN-Regular'; font-size:14;">Gestión Comercial) </tspan></text>
<text transform="matrix(1.0081 0 0 1 350.3223 21.8687)" class="st3" style="font-family:'COCOGOOSE'; font-size:19.0642;">3</text>
<g>
	<path class="st3" d="M78.554,12.5H31.818c-2.674,0-4.849,2.176-4.849,4.851v10.854C18.101,30.743,11.597,38.92,11.597,48.59
		c0,9.668,6.503,17.847,15.373,20.384v18.676c0,2.674,2.174,4.851,4.849,4.851h38.195c0.448,0,0.885-0.18,1.208-0.501l11.685-11.686
		c0.32-0.319,0.497-0.752,0.497-1.209V17.351C83.403,14.676,81.231,12.5,78.554,12.5L78.554,12.5z M31.818,15.917h46.735
		c0.79,0,1.429,0.641,1.429,1.434v5.156h-49.6v-5.156C30.383,16.557,31.029,15.917,31.818,15.917L31.818,15.917z M15.01,48.59
		c0-9.806,7.978-17.784,17.782-17.784c9.8,0,17.78,7.979,17.78,17.784c0,9.804-7.98,17.78-17.78,17.78
		C22.988,66.37,15.01,58.394,15.01,48.59L15.01,48.59z M30.383,87.649V69.65c0.789,0.09,1.597,0.138,2.41,0.138
		c6.365,0,12.088-2.822,15.982-7.282h10.462c0.948,0,1.71-0.764,1.71-1.708s-0.762-1.709-1.71-1.709h-8.033
		c1.488-2.592,2.438-5.533,2.706-8.661h5.327c0.94,0,1.71-0.766,1.71-1.71c0-0.944-0.77-1.71-1.71-1.71h-5.305
		c-0.23-3.122-1.146-6.057-2.585-8.66h7.89c0.94,0,1.71-0.766,1.71-1.709c0-0.944-0.77-1.707-1.71-1.707H48.988
		c-3.891-4.61-9.701-7.543-16.195-7.543c-0.816,0-1.621,0.048-2.41,0.139v-1.607h49.6v51.476H73.15
		c-2.674,0-4.849,2.176-4.849,4.848v6.839H31.818C31.029,89.084,30.383,88.439,30.383,87.649L30.383,87.649z M71.718,86.665V82.25
		c0-0.794,0.645-1.437,1.433-1.437h4.422L71.718,86.665z M71.718,86.665"/>
	<path class="st3" d="M65.947,38.349h5.676c0.942,0,1.711-0.766,1.711-1.709c0-0.944-0.769-1.707-1.711-1.707h-5.676
		c-0.94,0-1.705,0.762-1.705,1.707C64.242,37.583,65.007,38.349,65.947,38.349L65.947,38.349z M65.947,38.349"/>
	<path class="st3" d="M65.947,50.428h5.676c0.942,0,1.711-0.766,1.711-1.71c0-0.944-0.769-1.71-1.711-1.71h-5.676
		c-0.94,0-1.705,0.766-1.705,1.71C64.242,49.663,65.007,50.428,65.947,50.428L65.947,50.428z M65.947,50.428"/>
	<path class="st3" d="M65.947,62.506h5.676c0.942,0,1.711-0.764,1.711-1.708s-0.769-1.709-1.711-1.709h-5.676
		c-0.94,0-1.705,0.765-1.705,1.709S65.007,62.506,65.947,62.506L65.947,62.506z M65.947,62.506"/>
	<path class="st3" d="M71.623,74.586c0.942,0,1.711-0.767,1.711-1.71c0-0.944-0.769-1.709-1.711-1.709H55.644
		c-0.947,0-1.712,0.765-1.712,1.709c0,0.943,0.765,1.71,1.712,1.71H71.623z M71.623,74.586"/>
	<path class="st3" d="M46.053,39.97l-2.08-2.083c-0.566-0.562-1.308-0.871-2.1-0.871c-0.798,0-1.544,0.309-2.102,0.871
		L28.839,48.819l-3.022-3.021c-0.563-0.562-1.311-0.872-2.098-0.872c-0.799,0-1.546,0.31-2.108,0.872l-2.083,2.085
		c-1.157,1.157-1.157,3.042,0,4.202l7.207,7.203c0.563,0.563,1.308,0.875,2.105,0.875c0.792,0,1.536-0.312,2.102-0.871
		l15.112-15.119C47.215,43.014,47.215,41.129,46.053,39.97L46.053,39.97z M28.839,56.56l-6.583-6.576l1.457-1.455l3.914,3.913
		c0.668,0.668,1.752,0.668,2.42,0l11.825-11.823l1.454,1.453L28.839,56.56z M28.839,56.56"/>
</g>
</svg>
