<?xml version="1.0" encoding="utf-8"?>
<!-- Generator: Adobe Illustrator 16.0.0, SVG Export Plug-In . SVG Version: 6.00 Build 0)  -->
<!DOCTYPE svg PUBLIC "-//W3C//DTD SVG 1.1//EN" "http://www.w3.org/Graphics/SVG/1.1/DTD/svg11.dtd">
<svg version="1.1" id="Capa_1" xmlns="http://www.w3.org/2000/svg" xmlns:xlink="http://www.w3.org/1999/xlink" x="0px" y="0px"
	 width="20px" height="20px" viewBox="0 0 20 20" style="enable-background:new 0 0 20 20;" xml:space="preserve">
<style type="text/css">
<![CDATA[
	.st0{fill:#E5F3F1;}
	.st1{fill:#1C1D1D;}
	.st2{fill:#2A2B2B;}
	.st3{fill:none;stroke:#000000;stroke-miterlimit:10;}
	.st4{fill:#FFFFFF;}
	.st5{fill:#323B45;}
	.st6{fill:#FFFFFF;stroke:#FFFFFF;stroke-miterlimit:10;}
]]>
</style>
<g>
	<rect x="-1088.972" y="23.055" class="st0" width="537.939" height="223.049"/>
	<polygon class="st0" points="-466.941,295.619 70.981,463.197 70.981,480.104 -467,480.104 	"/>
	<polygon class="st5" points="71.418,478.458 -81.578,416.271 70.968,246.104 	"/>
</g>
<g>
	<path class="st4" d="M-165.686-25.613c-0.597,0-1.081,0.496-1.081,1.11V3.938c0,0.615,0.484,1.116,1.081,1.116h9.856
		c0.597,0,1.082-0.501,1.082-1.116v-28.441c0-0.614-0.485-1.11-1.082-1.11H-165.686z M-165.686-25.613"/>
	<path class="st4" d="M-147.535-38.539V3.938c0,0.615,0.481,1.116,1.082,1.116h9.854c0.606,0,1.083-0.501,1.083-1.116v-42.477
		c0-0.299-0.116-0.587-0.319-0.797c-0.202-0.207-0.473-0.324-0.764-0.324h-9.854C-147.053-39.66-147.535-39.159-147.535-38.539
		L-147.535-38.539z M-147.535-38.539"/>
	<path class="st4" d="M-184.918-35.563c-0.6,0-1.082,0.502-1.082,1.12V3.938c0,0.615,0.482,1.116,1.082,1.116h9.855
		c0.593,0,1.078-0.501,1.078-1.116v-38.382c0-0.613-0.485-1.12-1.078-1.12H-184.918z M-184.918-35.563"/>
	<path class="st4" d="M-204.155-23.624c-0.597,0-1.074,0.494-1.074,1.117V3.938c0,0.615,0.477,1.116,1.074,1.116h9.855
		c0.601,0,1.082-0.501,1.082-1.116v-26.445c0-0.623-0.481-1.117-1.082-1.117H-204.155z M-204.155-23.624"/>
	<path class="st4" d="M-201.755-27.387c0.282,0.348,0.688,0.531,1.102,0.531c0.327,0,0.656-0.116,0.927-0.359l19.702-17.219
		l17.274,13.669c0.608,0.48,1.465,0.391,1.965-0.21l15.964-19.046l2.236,2.002c0.389,0.344,0.925,0.45,1.415,0.279
		c0.482-0.174,0.849-0.602,0.942-1.127l2.662-14.305c0.104-0.522-0.079-1.062-0.466-1.411c-0.389-0.346-0.935-0.455-1.415-0.284
		l-13.317,4.765c-0.485,0.177-0.844,0.607-0.942,1.132c-0.096,0.522,0.08,1.057,0.474,1.403l2.231,2.01l-11.817,14.098
		l-16.545-13.092c-0.542-0.424-1.289-0.41-1.807,0.049l-23.828,20.832c-0.294,0.259-0.481,0.622-0.513,1.017
		c-0.028,0.396,0.095,0.786,0.337,1.091L-201.755-27.387z M-201.755-27.387"/>
</g>
<g>
	<path class="st4" d="M-139.147-147.017l5.359-5.364l-5.467-5.466l-5.365,5.364c-2.244-1.506-4.801-2.578-7.564-3.122v-7.588h-7.713
		v7.608c-2.772,0.523-5.302,1.57-7.541,3.102l-5.364-5.364l-5.472,5.466l5.369,5.364c-1.517,2.243-2.582,4.778-3.11,7.565h-7.604
		v7.709h7.604c0.528,2.748,1.594,5.304,3.11,7.547l-5.369,5.364l5.472,5.45l5.364-5.346c2.219,1.51,4.769,2.58,7.541,3.101v7.607
		h7.733v-7.607c2.744-0.521,5.301-1.57,7.545-3.101l5.365,5.346l5.467-5.45l-5.359-5.364c1.508-2.243,2.572-4.799,3.1-7.547h7.605
		v-7.709h-7.605C-136.575-142.238-137.64-144.773-139.147-147.017L-139.147-147.017z M-156.044-127.173
		c-4.645,0-8.422-3.792-8.422-8.444s3.777-8.421,8.422-8.421c4.68,0,8.447,3.769,8.447,8.421S-151.364-127.173-156.044-127.173
		L-156.044-127.173z M-156.044-127.173"/>
	<path class="st4" d="M-131.644-172.995c-6.775-4.322-14.781-6.877-23.414-6.877c-23.999,0-43.46,19.466-43.46,43.459
		c0,10.04,3.435,19.238,9.134,26.594l5.448-5.45c-4.337-5.93-6.975-13.183-6.975-21.102c0-19.804,16.051-35.853,35.853-35.853
		c6.605,0,12.682,1.908,17.98,5.029l-4.191,4.465l17.018,1.551l-1.822-17.771L-131.644-172.995z M-131.644-172.995"/>
	<path class="st4" d="M-106.481-135.492l-8.361-10.658v5.964h-8.361v9.389h8.361v5.972L-106.481-135.492z M-106.481-135.492"/>
</g>
<g>
	<path class="st4" d="M-268.562-189.445h-40.894c-2.34,0-4.242,1.904-4.242,4.244v9.498c-7.761,2.221-13.451,9.376-13.451,17.837
		c0,8.459,5.69,15.616,13.451,17.835v16.342c0,2.34,1.902,4.244,4.242,4.244h33.421c0.393,0,0.774-0.157,1.058-0.438l10.224-10.225
		c0.28-0.279,0.435-0.658,0.435-1.058v-54.035C-264.318-187.541-266.219-189.445-268.562-189.445L-268.562-189.445z
		 M-309.455-186.456h40.894c0.691,0,1.25,0.561,1.25,1.255v4.511h-43.399v-4.511C-310.711-185.896-310.146-186.456-309.455-186.456
		L-309.455-186.456z M-324.162-157.867c0-8.58,6.98-15.561,15.56-15.561c8.575,0,15.558,6.981,15.558,15.561
		c0,8.579-6.982,15.558-15.558,15.558C-317.182-142.309-324.162-149.288-324.162-157.867L-324.162-157.867z M-310.711-123.689
		v-15.749c0.69,0.078,1.397,0.12,2.108,0.12c5.569,0,10.577-2.47,13.984-6.372h9.154c0.829,0,1.496-0.668,1.496-1.494
		s-0.667-1.495-1.496-1.495h-7.029c1.302-2.269,2.134-4.842,2.368-7.579h4.661c0.822,0,1.496-0.67,1.496-1.496
		c0-0.826-0.674-1.496-1.496-1.496h-4.642c-0.202-2.732-1.003-5.3-2.263-7.577h6.904c0.822,0,1.496-0.67,1.496-1.496
		s-0.674-1.493-1.496-1.493h-8.968c-3.404-4.034-8.488-6.6-14.171-6.6c-0.714,0-1.418,0.042-2.108,0.122v-1.406h43.399v45.041
		h-5.978c-2.34,0-4.243,1.904-4.243,4.242v5.983h-31.923C-310.146-122.435-310.711-122.998-310.711-123.689L-310.711-123.689z
		 M-274.543-124.551v-3.863c0-0.694,0.564-1.257,1.254-1.257h3.869L-274.543-124.551z M-274.543-124.551"/>
	<path class="st4" d="M-279.592-166.828h4.966c0.825,0,1.497-0.67,1.497-1.496s-0.672-1.493-1.497-1.493h-4.966
		c-0.823,0-1.492,0.667-1.492,1.493S-280.415-166.828-279.592-166.828L-279.592-166.828z M-279.592-166.828"/>
	<path class="st4" d="M-279.592-156.258h4.966c0.825,0,1.497-0.67,1.497-1.496c0-0.826-0.672-1.496-1.497-1.496h-4.966
		c-0.823,0-1.492,0.67-1.492,1.496C-281.084-156.928-280.415-156.258-279.592-156.258L-279.592-156.258z M-279.592-156.258"/>
	<path class="st4" d="M-279.592-145.69h4.966c0.825,0,1.497-0.668,1.497-1.494s-0.672-1.495-1.497-1.495h-4.966
		c-0.823,0-1.492,0.669-1.492,1.495S-280.415-145.69-279.592-145.69L-279.592-145.69z M-279.592-145.69"/>
	<path class="st4" d="M-274.626-135.12c0.825,0,1.497-0.671,1.497-1.496c0-0.826-0.672-1.495-1.497-1.495h-13.981
		c-0.829,0-1.498,0.669-1.498,1.495c0,0.825,0.669,1.496,1.498,1.496H-274.626z M-274.626-135.12"/>
	<path class="st4" d="M-297-165.409l-1.819-1.822c-0.495-0.492-1.145-0.762-1.838-0.762c-0.698,0-1.351,0.27-1.839,0.762
		l-9.565,9.565l-2.645-2.644c-0.492-0.492-1.147-0.763-1.836-0.763c-0.699,0-1.353,0.271-1.845,0.763l-1.822,1.824
		c-1.013,1.012-1.013,2.661,0,3.677l6.306,6.303c0.492,0.493,1.145,0.766,1.842,0.766c0.692,0,1.344-0.272,1.839-0.762L-297-161.731
		C-295.982-162.746-295.982-164.395-297-165.409L-297-165.409z M-312.062-150.894l-5.76-5.753l1.274-1.273l3.425,3.423
		c0.585,0.585,1.533,0.585,2.118,0l10.347-10.345l1.272,1.271L-312.062-150.894z M-312.062-150.894"/>
</g>
<g>
	<path class="st4" d="M-202.262-301.996c-0.229,0-0.46-0.014-0.689-0.014h0.909C-202.128-302.01-202.194-301.996-202.262-301.996
		L-202.262-301.996z M-174.595-290.933c0.164,0,0.322,0.016,0.485,0.016c0.068,0,0.111-0.016,0.158-0.016H-174.595z
		 M-215.183-279.87c0.027,0,0.054-0.043,0.091-0.043c2.027,7.33,7.262,12.814,12.601,12.936c4.858-0.231,10.805-5.619,12.801-12.909
		c0.907,0.052,1.824-1.021,2.078-2.522c0.271-1.56-0.286-2.948-1.225-3.125c-0.066,0-0.118,0.041-0.188,0.041
		c-0.275-12.068-6.004-16.314-13.225-16.504c-7.435,0.027-14.1,5.212-13.681,16.504c-0.068,0-0.131-0.041-0.204-0.041
		c-0.948,0.177-1.495,1.565-1.23,3.125C-217.11-280.85-216.135-279.708-215.183-279.87L-215.183-279.87z M-202.6-266.977h0.2
		c-0.037,0-0.078,0-0.105,0C-202.55-266.977-202.573-266.977-202.6-266.977L-202.6-266.977z M-183.431-274.959
		c0.027,0,0.04-0.027,0.04-0.027c1.475,5.282,5.263,9.246,9.104,9.328c3.52-0.165,7.807-4.061,9.23-9.315
		c0.662,0.043,1.318-0.732,1.511-1.816c0.187-1.123-0.207-2.13-0.898-2.254c-0.041,0-0.081,0.025-0.122,0.025
		c-0.19-8.7-4.332-11.762-9.544-11.898c-5.357,0.021-10.17,3.758-9.865,11.898c-0.055,0-0.096-0.036-0.154-0.025
		c-0.677,0.125-1.085,1.131-0.88,2.254C-184.833-275.665-184.129-274.837-183.431-274.959L-183.431-274.959z M-174.187-265.658
		c-0.048,0-0.063,0-0.1,0c0,0-0.041,0-0.055,0H-174.187z M-192.471-264.888l-6.764,13.223l-1.057-8.604l1.669-1.359h-7.752
		l1.672,1.359l-1.059,8.604l-6.759-13.223c-11.743,1.574-20.171,6.612-20.171,18.856h60.405
		C-172.304-258.275-180.731-263.313-192.471-264.888L-192.471-264.888z M-231.04-290.933c0.179,0,0.342,0.016,0.499,0.016
		c0.062,0,0.111-0.016,0.173-0.016H-231.04z M-229.124-260.812l1.195-0.993h-5.575l1.202,0.993l-0.773,6.201l-4.861-9.542
		c-8.484,1.141-14.565,4.778-14.565,13.601h19.426c0.641-3.286,2.034-6.039,4.198-8.28L-229.124-260.812z M-167.051-264.152
		l-4.869,9.542l-0.779-6.201l1.209-0.993h-5.576l1.206,0.993l-0.259,1.979c2.16,2.241,3.561,4.994,4.21,8.28h19.409
		C-152.5-259.374-158.578-263.012-167.051-264.152L-167.051-264.152z M-230.632-265.658c-0.027,0-0.055,0-0.077,0
		c-0.019,0-0.041,0-0.073,0H-230.632z M-239.863-274.959c0.027,0,0.045-0.027,0.068-0.027c1.456,5.282,5.239,9.246,9.085,9.328
		c3.497-0.165,7.806-4.061,9.226-9.315c0.667,0.043,1.315-0.732,1.506-1.816c0.193-1.123-0.204-2.13-0.894-2.254
		c-0.043,0-0.077,0.025-0.123,0.025c-0.204-8.7-4.33-11.762-9.548-11.898c-5.352,0.021-10.161,3.758-9.861,11.898
		c-0.057,0-0.095-0.036-0.154-0.025c-0.676,0.125-1.084,1.131-0.894,2.254C-241.248-275.665-240.557-274.837-239.863-274.959
		L-239.863-274.959z M-239.863-274.959"/>
</g>
<circle class="st2" cx="184.858" cy="-262.028" r="63.761"/>
<rect x="135" y="-57.945" class="st1" width="129" height="17"/>
<rect x="159" y="-42.945" class="st1" width="78" height="17"/>
<g>
	<text transform="matrix(0.9663 0 0 1 145.7461 -44.708)"><tspan x="0" y="0" style="fill:#61605F; font-family:'DIN-Regular'; font-size:14;">Diseño del Road to</tspan><tspan x="35.399" y="15.127" style="fill:#61605F; font-family:'DIN-Regular'; font-size:14;">Market</tspan></text>
</g>
<text transform="matrix(1.0081 0 0 1 193.2432 -177.7314)" class="st4" style="font-family:'COCOGOOSE'; font-size:19.0317;">5</text>
<g>
	<path class="st4" d="M14.277-347.712l-44.523,37.451l25.851-0.066l15.474,20.705L14.277-347.712z M14.277-347.712"/>
</g>
<circle class="st2" cx="307.716" cy="-58.653" r="64.614"/>
<rect x="264" y="22.055" class="st1" width="82" height="17"/>
<rect x="242" y="37.055" class="st1" width="129" height="17"/>
<g>
	<text transform="matrix(0.9663 0 0 1 277.7129 35.0342)"><tspan x="0" y="0" style="fill:#61605F; font-family:'DIN-Regular'; font-size:14;">Coaching</tspan><tspan x="-1.673" y="15.329" style="fill:#61605F; font-family:'DIN-Regular'; font-size:14;">Comercial</tspan></text>
</g>
<text transform="matrix(1.0081 0 0 1 300.001 -95.8477)" class="st4" style="font-family:'COCOGOOSE'; font-size:19.2862;">6</text>
<g>
	<path class="st4" d="M-44.211-163.192c-9.425,0-18.519,3.714-25.253,10.248l-2.389-1.711c-0.309-0.225-0.72-0.264-1.07-0.106
		c-0.352,0.158-0.589,0.494-0.629,0.876l-1.278,12.846c-0.036,0.382,0.131,0.758,0.449,0.982c0.183,0.135,0.406,0.203,0.625,0.203
		c0.151,0,0.302-0.032,0.445-0.097l11.761-5.314c0.351-0.162,0.591-0.494,0.629-0.878c0.041-0.384-0.127-0.758-0.444-0.984
		l-2.141-1.536c5.291-4.693,12.171-7.34,19.295-7.34c16.008,0,29.036,13.029,29.036,29.042c0,1.986,1.611,3.595,3.596,3.595
		c1.99,0,3.596-1.608,3.596-3.595C-7.984-146.941-24.233-163.192-44.211-163.192L-44.211-163.192z M-44.211-163.192"/>
	<path class="st4" d="M-13.018-113.649c-0.185-0.135-0.405-0.203-0.627-0.203c-0.154,0-0.303,0.033-0.445,0.098l-11.763,5.317
		c-0.349,0.158-0.589,0.49-0.627,0.875c-0.041,0.384,0.131,0.76,0.441,0.982l2.143,1.539c-5.287,4.69-12.172,7.338-19.291,7.338
		c-16.012,0-29.04-13.027-29.04-29.04c0-1.988-1.609-3.597-3.595-3.597c-1.986,0-3.596,1.609-3.596,3.597
		c0,19.978,16.25,36.23,36.23,36.23c9.421,0,18.516-3.712,25.25-10.251l2.389,1.715c0.313,0.225,0.722,0.265,1.074,0.106
		c0.348-0.16,0.589-0.494,0.625-0.878l1.276-12.847C-12.533-113.048-12.704-113.423-13.018-113.649L-13.018-113.649z
		 M-13.018-113.649"/>
	<path class="st4" d="M-55.927-117.492v-13.685c0-1.587-1.289-2.878-2.877-2.878c-1.587,0-2.88,1.291-2.88,2.878v13.685
		c0,1.589,1.293,2.877,2.88,2.877C-57.216-114.615-55.927-115.903-55.927-117.492L-55.927-117.492z M-55.927-117.492"/>
	<path class="st4" d="M-45.859-117.492v-23.754c0-1.589-1.29-2.879-2.875-2.879c-1.591,0-2.875,1.29-2.875,2.879v23.752
		c0,1.591,1.284,2.877,2.875,2.877C-47.149-114.615-45.859-115.903-45.859-117.492L-45.859-117.492z M-45.859-117.492"/>
	<path class="st4" d="M-35.788-117.492v-17.713c0-1.588-1.29-2.879-2.879-2.879c-1.59,0-2.876,1.291-2.876,2.879v17.713
		c0,1.589,1.286,2.877,2.876,2.877C-37.078-114.615-35.788-115.903-35.788-117.492L-35.788-117.492z M-35.788-117.492"/>
	<path class="st4" d="M-25.72-117.492v-20.735c0-1.588-1.286-2.875-2.875-2.875c-1.592,0-2.879,1.288-2.879,2.875v20.735
		c0,1.589,1.287,2.877,2.879,2.877C-27.006-114.615-25.72-115.903-25.72-117.492L-25.72-117.492z M-25.72-117.492"/>
</g>
<line class="st3" x1="-432" y1="741.055" x2="-432" y2="723.055"/>
<line class="st3" x1="-324" y1="741.055" x2="-324" y2="723.055"/>
<line class="st3" x1="-432" y1="723.055" x2="-378.5" y2="687.555"/>
<line class="st3" x1="-378.5" y1="687.555" x2="-324" y2="723.18"/>
<line class="st3" x1="-432" y1="741.055" x2="-378.5" y2="705.305"/>
<line class="st3" x1="-378.5" y1="705.305" x2="-324" y2="741.055"/>
<polygon class="st6" points="20,13.679 10.034,8.094 0,13.679 0,11.906 9.966,6.321 20,11.906 "/>
</svg>
