<?xml version="1.0" encoding="utf-8"?>
<!-- Generator: Adobe Illustrator 16.0.0, SVG Export Plug-In . SVG Version: 6.00 Build 0)  -->
<!DOCTYPE svg PUBLIC "-//W3C//DTD SVG 1.1//EN" "http://www.w3.org/Graphics/SVG/1.1/DTD/svg11.dtd">
<svg version="1.1" id="Capa_1" xmlns="http://www.w3.org/2000/svg" xmlns:xlink="http://www.w3.org/1999/xlink" x="0px" y="0px"
	 width="50px" height="50px" viewBox="0 0 50 50" style="enable-background:new 0 0 50 50;" xml:space="preserve">
<style type="text/css">
<![CDATA[
	.st0{fill:#FFFFFF;}
]]>
</style>
<g>
	<path class="st0" d="M24.051,12.885c0.231,0.285,0.577,0.444,0.936,0.444c0.36,0,0.705-0.159,0.936-0.444
		c1.05-1.257,2.603-3.573,2.603-6.226c0-2.641-1.553-4.957-2.603-6.219C25.691,0.161,25.352,0,24.986,0
		c-0.358,0-0.698,0.161-0.936,0.44c-1.049,1.263-2.599,3.579-2.599,6.219C21.452,9.313,23.002,11.628,24.051,12.885L24.051,12.885z
		 M24.051,12.885"/>
	<path class="st0" d="M24.995,21.56c0.192,0.013,4.796,0.197,7.51-2.565c1.842-1.873,2.353-4.631,2.484-6.273
		c0.033-0.372-0.098-0.732-0.354-0.987c-0.253-0.262-0.605-0.395-0.972-0.363c-1.616,0.139-4.32,0.656-6.157,2.532
		c-2.03,2.063-2.438,5.21-2.513,6.747c-0.073-1.536-0.479-4.684-2.511-6.747c-1.844-1.876-4.547-2.393-6.161-2.532
		c-0.362-0.032-0.715,0.105-0.968,0.363c-0.257,0.26-0.387,0.621-0.354,0.991c0.133,1.643,0.642,4.4,2.48,6.27
		C20.199,21.757,24.801,21.572,24.995,21.56L24.995,21.56z M24.995,21.56"/>
	<path class="st0" d="M27.506,23.822c-2.03,2.07-2.438,5.219-2.511,6.752c-0.075-1.533-0.48-4.682-2.513-6.752
		c-1.837-1.872-4.542-2.388-6.161-2.524c-0.362-0.03-0.715,0.098-0.968,0.362c-0.257,0.256-0.387,0.62-0.354,0.986
		c0.133,1.643,0.642,4.396,2.484,6.273c2.716,2.764,7.317,2.576,7.51,2.566c0.194,0.01,4.798,0.197,7.512-2.566
		c1.842-1.877,2.353-4.63,2.484-6.273c0.033-0.366-0.103-0.73-0.354-0.986c-0.256-0.265-0.611-0.393-0.972-0.362
		C32.047,21.435,29.343,21.95,27.506,23.822L27.506,23.822z M27.506,23.822"/>
	<path class="st0" d="M27.506,33.752c-2.03,2.066-2.438,5.215-2.511,6.75c-0.075-1.535-0.48-4.684-2.513-6.75
		c-1.837-1.871-4.542-2.393-6.157-2.527c-0.36-0.031-0.716,0.102-0.972,0.359c-0.25,0.256-0.387,0.619-0.354,0.984
		c0.133,1.646,0.642,4.402,2.484,6.271c1.855,1.9,4.596,2.406,6.207,2.537v7.156c0,0.811,0.55,1.467,1.348,1.467
		s1.354-0.656,1.354-1.467v-7.164c1.613-0.141,4.29-0.668,6.113-2.523c1.837-1.875,2.353-4.631,2.484-6.277
		c0.033-0.365-0.103-0.729-0.354-0.984c-0.256-0.258-0.611-0.391-0.972-0.359C32.047,31.359,29.343,31.881,27.506,33.752
		L27.506,33.752z M27.506,33.752"/>
</g>
<g>
	<path class="st0" d="M92.294-9.892l0.012-0.006l-1.155-3.465c-0.306-1.049-2.237-3.127-12.703-3.127
		c-10.467,0-12.398,2.078-12.703,3.127l-1.156,3.465L64.6-9.892c-0.04,0.113-0.074,0.231-0.074,0.361
		c0,1.19,0.935,2.091,2.357,2.776l2.287,24.015c0.006,0.027,0.023,0.055,0.028,0.082c0.329,3.185,8.313,3.286,9.249,3.286
		c0.928,0,8.914-0.102,9.248-3.286c0.006-0.027,0.023-0.055,0.023-0.082l2.287-24.015c1.422-0.686,2.355-1.586,2.355-2.776
		C92.361-9.66,92.328-9.778,92.294-9.892L92.294-9.892z M78.447-14.169c5.137,0,8.478,0.636,9.877,1.156
		c-1.399,0.527-4.74,1.162-9.877,1.162c-5.143,0-8.484-0.635-9.878-1.162C69.963-13.533,73.305-14.169,78.447-14.169L78.447-14.169z
		 M85.413,16.987c-0.464,0.477-2.905,1.32-6.966,1.32c-4.066,0-6.508-0.844-6.972-1.32l-0.63-6.573
		c2.703,0.864,6.508,0.933,7.602,0.933c1.087,0,4.893-0.068,7.594-0.929L85.413,16.987z M87.163-1.374
		c-1.269,0.504-4.241,1.121-8.716,1.121s-7.453-0.617-8.723-1.121l-0.43-4.529c2.877,0.746,6.484,1.013,9.152,1.013
		c2.661,0,6.27-0.267,9.146-1.013L87.163-1.374z M78.447-7.212c-6.836,0-11.061-1.461-11.56-2.255l0.532-1.603
		c1.653,0.81,4.842,1.539,11.027,1.539c6.179,0,9.373-0.729,11.021-1.539l0.526,1.575C89.428-8.651,85.221-7.212,78.447-7.212
		L78.447-7.212z M78.447-7.212"/>
</g>
</svg>
