<?xml version="1.0" encoding="utf-8"?>
<!-- Generator: Adobe Illustrator 16.0.0, SVG Export Plug-In . SVG Version: 6.00 Build 0)  -->
<!DOCTYPE svg PUBLIC "-//W3C//DTD SVG 1.1//EN" "http://www.w3.org/Graphics/SVG/1.1/DTD/svg11.dtd">
<svg version="1.1" id="Capa_1" xmlns="http://www.w3.org/2000/svg" xmlns:xlink="http://www.w3.org/1999/xlink" x="0px" y="0px"
	 width="44px" height="44px" viewBox="0 0 44 44" style="enable-background:new 0 0 44 44;" xml:space="preserve">
<style type="text/css">
<![CDATA[
	.st0{fill:#545454;}
	.st1{fill:#FFFFFF;}
]]>
</style>
<g>
	<path class="st0" d="M-143.441,130.654c-10.949,0-19.86,8.91-19.86,19.859c0,10.953,8.911,19.863,19.86,19.863
		c10.953,0,19.863-8.91,19.863-19.863C-123.578,139.564-132.488,130.654-143.441,130.654L-143.441,130.654z M-138.5,151.212h-3.229
		v11.521h-4.789v-11.521h-2.277v-4.07h2.277v-2.633c0-1.883,0.895-4.832,4.832-4.832l3.547,0.016v3.949h-2.574
		c-0.423,0-1.016,0.211-1.016,1.109v2.395h3.648L-138.5,151.212z M-138.5,151.212"/>
</g>
<g>
	<path class="st0" d="M-61.06,130.746c-10.949,0-19.86,8.91-19.86,19.859c0,10.953,8.911,19.863,19.86,19.863
		c10.953,0,19.863-8.91,19.863-19.863C-41.197,139.656-50.107,130.746-61.06,130.746L-61.06,130.746z M-52.197,146.062
		c0.008,0.195,0.011,0.395,0.011,0.594c0,6.039-4.597,13.004-13.007,13.004c-2.582,0-4.984-0.752-7.008-2.055
		c0.359,0.043,0.724,0.066,1.09,0.066c2.145,0,4.113-0.73,5.68-1.957c-2-0.039-3.688-1.359-4.27-3.176
		c0.277,0.055,0.563,0.082,0.859,0.082c0.414,0,0.82-0.055,1.203-0.16c-2.089-0.418-3.668-2.266-3.668-4.48
		c0-0.02,0-0.039,0.004-0.059c0.613,0.344,1.32,0.547,2.07,0.57c-1.227-0.816-2.035-2.219-2.035-3.805
		c0-0.836,0.227-1.621,0.617-2.297c2.254,2.766,5.625,4.586,9.423,4.777c-0.079-0.336-0.118-0.684-0.118-1.043
		c0-2.523,2.047-4.57,4.57-4.57c1.316,0,2.504,0.555,3.336,1.441c1.043-0.203,2.023-0.582,2.906-1.109
		c-0.344,1.07-1.066,1.965-2.012,2.531c0.925-0.109,1.809-0.355,2.624-0.719C-50.529,144.613-51.306,145.417-52.197,146.062
		L-52.197,146.062z M-52.197,146.062"/>
</g>
<g>
	<path class="st0" d="M23.5,154.582c2.191,0,3.977-1.781,3.977-3.977c0-0.863-0.281-1.664-0.75-2.316
		c-0.723-1-1.898-1.656-3.227-1.656c-1.325,0-2.5,0.652-3.223,1.656c-0.474,0.652-0.75,1.453-0.754,2.316
		C19.524,152.8,21.308,154.582,23.5,154.582L23.5,154.582z M23.5,154.582"/>
	<path class="st0" d="M32.184,145.742v-3.828h-0.5l-3.332,0.012l0.016,3.828L32.184,145.742z M32.184,145.742"/>
	<path class="st0" d="M23.5,130.746c-10.949,0-19.86,8.91-19.86,19.859c0,10.953,8.911,19.863,19.86,19.863
		c10.953,0,19.863-8.91,19.863-19.863C43.364,139.656,34.454,130.746,23.5,130.746L23.5,130.746z M34.797,148.289v9.25
		c0,2.408-1.958,4.363-4.367,4.363H16.571c-2.406,0-4.362-1.955-4.362-4.363v-13.859c0-2.41,1.956-4.367,4.362-4.367H30.43
		c2.409,0,4.367,1.957,4.367,4.367V148.289z M34.797,148.289"/>
	<path class="st0" d="M29.68,150.605c0,3.406-2.77,6.18-6.18,6.18c-3.406,0-6.176-2.773-6.176-6.18c0-0.816,0.164-1.602,0.453-2.316
		h-3.372v9.25c0,1.195,0.969,2.162,2.165,2.162H30.43c1.194,0,2.164-0.967,2.164-2.162v-9.25h-3.371
		C29.512,149.003,29.68,149.789,29.68,150.605L29.68,150.605z M29.68,150.605"/>
</g>
<g>
	<path class="st0" d="M42.186,21.999c0,11.15-9.037,20.188-20.187,20.188c-11.147,0-20.185-9.037-20.185-20.188
		C1.815,10.852,10.852,1.815,22,1.815C33.149,1.815,42.186,10.852,42.186,21.999z"/>
	<g>
		<path class="st1" d="M16.452,32.393h-5.146V17.02h5.146V32.393z M13.881,14.918h-0.037c-1.725,0-2.842-1.18-2.842-2.656
			c0-1.508,1.149-2.654,2.909-2.654c1.761,0,2.842,1.146,2.877,2.654C16.789,13.741,15.672,14.918,13.881,14.918L13.881,14.918z
			 M34.999,32.393h-5.144v-8.227c0-2.066-0.748-3.477-2.604-3.477c-1.426,0-2.27,0.951-2.641,1.869
			c-0.137,0.33-0.171,0.787-0.171,1.246v8.588h-5.142c0,0,0.067-13.934,0-15.373h5.142v2.18c0.684-1.047,1.903-2.543,4.637-2.543
			c3.384,0,5.923,2.197,5.923,6.922V32.393z M24.406,19.247c0.01-0.014,0.021-0.029,0.033-0.047v0.047H24.406z M24.406,19.247"/>
	</g>
</g>
</svg>
