<?xml version="1.0" encoding="utf-8"?>
<!-- Generator: Adobe Illustrator 16.0.0, SVG Export Plug-In . SVG Version: 6.00 Build 0)  -->
<!DOCTYPE svg PUBLIC "-//W3C//DTD SVG 1.1//EN" "http://www.w3.org/Graphics/SVG/1.1/DTD/svg11.dtd">
<svg version="1.1" id="linea" xmlns="http://www.w3.org/2000/svg" xmlns:xlink="http://www.w3.org/1999/xlink" x="0px" y="0px"
	 width="1920px" height="432px" viewBox="-560 -126 1920 432" enable-background="new -560 -126 1920 432" xml:space="preserve">
<path fill="none" stroke="#C67037" stroke-width="2.4649" stroke-miterlimit="10" d="M-559.999,290.524
	c0,0,102.148,3.29,230.497-208.825c0,0,37.671-74.33,24.471-101.015c0,0-13.189-28.152-50.374-22.898
	c0,0-39.386,8.831-34.587,46.891c0,0,7.418,54.004,64.443,78.693c0,0,123.146,60.35,682.672,59.156c0,0,473.807,0.387,729.26-88.523
	c0,0,107.529-39.661,130.752-100.232c0,0,12.169-30.695-11.264-53.849c0,0-18.504-20.689-58.762-3.846c0,0-71.107,30.064-60,167.236
	c0,0,6.371,123.826,272.891,91.678"/>
</svg>
