<?xml version="1.0" encoding="utf-8"?>
<!-- Generator: Adobe Illustrator 16.0.0, SVG Export Plug-In . SVG Version: 6.00 Build 0)  -->
<!DOCTYPE svg PUBLIC "-//W3C//DTD SVG 1.1//EN" "http://www.w3.org/Graphics/SVG/1.1/DTD/svg11.dtd">
<svg version="1.1" id="Capa_1" xmlns="http://www.w3.org/2000/svg" xmlns:xlink="http://www.w3.org/1999/xlink" x="0px" y="0px"
	 width="1920px" height="180px" viewBox="-662.36 330.945 1920 180" enable-background="new -662.36 330.945 1920 180"
	 xml:space="preserve">
<path fill="none" stroke="#C67037" stroke-width="1.625" stroke-miterlimit="10" d="M-878.519,498.113
	c0,0,348.321,39.148,456.667-77.168c14.214-15.26,19.875-36.913,12.003-63.501c-3.496-11.808-19.867-24.513-45-16
	c-10.822,3.666-21.667,11.667-23,35.667c-1.513,27.222,16.585,61.379,74.617,71.923c0,0,87.551,24.51,656.967,23.999
	c0,0,448,12.474,707.965-25.498c0,0,73.781-9.426,84.441-57.423c6.23-28.055,3.34-43.336-12.349-51.629
	c-13.936-7.367-29.253,6.024-39.651,27.629c-4.936,10.254-16.736,39.879,10.742,66.618c19.919,19.383,41.919,30.126,272.621,36.716"
	/>
</svg>
