<?xml version="1.0" encoding="utf-8"?>
<!-- Generator: Adobe Illustrator 16.0.0, SVG Export Plug-In . SVG Version: 6.00 Build 0)  -->
<!DOCTYPE svg PUBLIC "-//W3C//DTD SVG 1.1//EN" "http://www.w3.org/Graphics/SVG/1.1/DTD/svg11.dtd">
<svg version="1.1" id="linea" xmlns="http://www.w3.org/2000/svg" xmlns:xlink="http://www.w3.org/1999/xlink" x="0px" y="0px"
	 width="800px" height="180px" viewBox="-102.36 330.945 800 180" enable-background="new -102.36 330.945 800 180"
	 xml:space="preserve">
<path fill="none" stroke="#C67037" stroke-width="1.0527" stroke-miterlimit="10" d="M-112.468,506.585
	c0,0,43.626,1.405,98.442-89.186c0,0,16.089-31.744,10.451-43.141c0,0-5.633-12.023-21.514-9.779c0,0-16.821,3.771-14.771,20.026
	c0,0,3.168,23.064,27.522,33.608c0,0,52.594,25.775,291.558,25.265c0,0,202.356,0.165,311.454-37.807
	c0,0,45.924-16.938,55.843-42.807c0,0,5.197-13.109-4.811-22.998c0,0-7.902-8.836-25.096-1.643c0,0-30.369,12.84-25.624,71.424
	c0,0,2.72,52.884,116.546,39.154"/>
</svg>
