<?xml version="1.0" encoding="utf-8"?>
<!-- Generator: Adobe Illustrator 16.0.0, SVG Export Plug-In . SVG Version: 6.00 Build 0)  -->
<!DOCTYPE svg PUBLIC "-//W3C//DTD SVG 1.1//EN" "http://www.w3.org/Graphics/SVG/1.1/DTD/svg11.dtd">
<svg version="1.1" id="Capa_1" xmlns="http://www.w3.org/2000/svg" xmlns:xlink="http://www.w3.org/1999/xlink" x="0px" y="0px"
	 width="105px" height="105px" viewBox="0 0 105 105" style="enable-background:new 0 0 105 105;" xml:space="preserve">
<style type="text/css">
<![CDATA[
	.st0{fill:#E5F3F1;}
	.st1{fill:#1C1D1D;}
	.st2{fill:#2A2B2B;}
	.st3{fill:#000000;}
	.st4{fill:#323B45;}
]]>
</style>
<g>
	<rect x="-1046.472" y="65.555" class="st0" width="537.939" height="223.049"/>
	<polygon class="st0" points="-424.441,338.119 113.481,505.697 113.481,522.604 -424.5,522.604 	"/>
	<polygon class="st4" points="113.918,520.958 -39.078,458.771 113.468,288.604 	"/>
</g>
<rect x="306.5" y="-122.445" class="st1" width="108" height="21"/>
<rect x="298.5" y="-103.445" class="st1" width="129" height="78"/>
<g>
	<text transform="matrix(0.9663 0 0 1 319.3145 -107.3179)"><tspan x="0" y="0" style="fill:#61605F; font-family:'DIN-Regular'; font-size:14;">Metodología de</tspan><tspan x="-20.042" y="16.538" style="fill:#61605F; font-family:'DIN-Regular'; font-size:14;">procesos de negocio con</tspan><tspan x="-11.159" y="33.077" style="fill:#61605F; font-family:'DIN-Regular'; font-size:14;">foco en CAPITALIZAR</tspan><tspan x="-11.369" y="49.615" style="fill:#61605F; font-family:'DIN-Regular'; font-size:14;">LAS BRECHAS en los</tspan><tspan x="-14.827" y="66.153" style="fill:#61605F; font-family:'DIN-Regular'; font-size:14;">procesos comerciales</tspan></text>
</g>
<circle class="st2" cx="362.401" cy="-203.531" r="65.462"/>
<text transform="matrix(1.0577 0 0 1 357.2363 -240.3867)" class="st3" style="font-family:'COCOGOOSE'; font-size:19.5033; letter-spacing:-0.945;">1</text>
<g>
	<path class="st3" d="M57.329,56.832c-0.597,0-1.081,0.496-1.081,1.11v28.441c0,0.615,0.484,1.116,1.081,1.116h9.856
		c0.597,0,1.082-0.501,1.082-1.116V57.942c0-0.614-0.485-1.11-1.082-1.11H57.329z M57.329,56.832"/>
	<path class="st3" d="M75.48,43.907v42.477c0,0.615,0.481,1.116,1.082,1.116h9.854c0.606,0,1.083-0.501,1.083-1.116V43.907
		c0-0.299-0.116-0.587-0.319-0.797c-0.202-0.207-0.473-0.324-0.764-0.324h-9.854C75.962,42.785,75.48,43.287,75.48,43.907
		L75.48,43.907z M75.48,43.907"/>
	<path class="st3" d="M38.097,46.882c-0.6,0-1.082,0.502-1.082,1.12v38.382c0,0.615,0.482,1.116,1.082,1.116h9.855
		c0.593,0,1.078-0.501,1.078-1.116V48.002c0-0.613-0.485-1.12-1.078-1.12H38.097z M38.097,46.882"/>
	<path class="st3" d="M18.86,58.821c-0.597,0-1.074,0.494-1.074,1.117v26.445c0,0.615,0.477,1.116,1.074,1.116h9.855
		c0.601,0,1.082-0.501,1.082-1.116V59.938c0-0.623-0.481-1.117-1.082-1.117H18.86z M18.86,58.821"/>
	<path class="st3" d="M21.26,55.059c0.282,0.348,0.688,0.531,1.102,0.531c0.327,0,0.656-0.116,0.927-0.359l19.702-17.219
		l17.274,13.669c0.608,0.48,1.465,0.391,1.965-0.21l15.964-19.046l2.236,2.002c0.389,0.344,0.925,0.45,1.415,0.279
		c0.482-0.174,0.849-0.602,0.942-1.127l2.662-14.305c0.104-0.522-0.079-1.062-0.466-1.411c-0.389-0.346-0.935-0.455-1.415-0.284
		l-13.317,4.765c-0.485,0.177-0.844,0.607-0.942,1.132c-0.096,0.522,0.08,1.057,0.474,1.403l2.231,2.01L60.197,40.986L43.652,27.895
		c-0.542-0.424-1.289-0.41-1.807,0.049L18.017,48.775c-0.294,0.259-0.481,0.622-0.513,1.017c-0.028,0.396,0.095,0.786,0.337,1.091
		L21.26,55.059z M21.26,55.059"/>
</g>
<circle class="st2" cx="223.065" cy="-34.627" r="63.208"/>
<rect x="181.5" y="47.555" class="st1" width="86" height="17"/>
<rect x="159.5" y="62.555" class="st1" width="127" height="19"/>
<text transform="matrix(0.9663 0 0 1 187.5498 60.6533)"><tspan x="0" y="0" style="fill:#61605F; font-family:'DIN-Regular'; font-size:14;">Ejecución </tspan><tspan x="60.662" y="0" style="fill:#61605F; font-family:'DIN-Regular'; font-size:14;">de</tspan><tspan x="-21.945" y="15.915" style="fill:#61605F; font-family:'DIN-Regular'; font-size:14;">tienda perfecta MAPS</tspan></text>
<text transform="matrix(1.0081 0 0 1 217.1797 -70.228)" class="st3" style="font-family:'COCOGOOSE'; font-size:18.7679;">2</text>
<g>
	<path class="st3" d="M-21.13-64.979l5.36-5.364l-5.468-5.466l-5.364,5.364c-2.245-1.506-4.801-2.578-7.564-3.122v-7.588h-7.714
		v7.608c-2.772,0.523-5.302,1.57-7.541,3.102l-5.364-5.364l-5.472,5.466l5.369,5.364c-1.517,2.243-2.582,4.778-3.11,7.565h-7.604
		v7.709h7.604c0.528,2.748,1.594,5.304,3.11,7.547l-5.369,5.364l5.472,5.45l5.364-5.346c2.219,1.51,4.769,2.58,7.541,3.101v7.607
		h7.732v-7.607c2.745-0.521,5.301-1.57,7.546-3.101l5.364,5.346l5.468-5.45l-5.36-5.364c1.508-2.243,2.573-4.799,3.1-7.547h7.605
		v-7.709h-7.605C-18.557-60.201-19.622-62.736-21.13-64.979L-21.13-64.979z M-38.025-45.136c-4.646,0-8.423-3.792-8.423-8.444
		s3.777-8.421,8.423-8.421c4.679,0,8.447,3.769,8.447,8.421S-33.347-45.136-38.025-45.136L-38.025-45.136z M-38.025-45.136"/>
	<path class="st3" d="M-13.626-90.958c-6.775-4.322-14.78-6.877-23.413-6.877c-23.999,0-43.461,19.466-43.461,43.459
		c0,10.04,3.435,19.238,9.134,26.594l5.448-5.45c-4.337-5.93-6.975-13.183-6.975-21.102c0-19.804,16.051-35.853,35.854-35.853
		c6.604,0,12.681,1.908,17.979,5.029l-4.191,4.465l17.019,1.551l-1.823-17.771L-13.626-90.958z M-13.626-90.958"/>
	<path class="st3" d="M19.5-53.455L8.853-64.113v5.964H-5.186v9.389H8.853v5.972L19.5-53.455z M19.5-53.455"/>
</g>
</svg>
