<?xml version="1.0" encoding="utf-8"?>
<!-- Generator: Adobe Illustrator 16.0.0, SVG Export Plug-In . SVG Version: 6.00 Build 0)  -->
<!DOCTYPE svg PUBLIC "-//W3C//DTD SVG 1.1//EN" "http://www.w3.org/Graphics/SVG/1.1/DTD/svg11.dtd">
<svg version="1.1" id="Capa_1" xmlns="http://www.w3.org/2000/svg" xmlns:xlink="http://www.w3.org/1999/xlink" x="0px" y="0px"
	 width="50px" height="50px" viewBox="0 0 50 50" style="enable-background:new 0 0 50 50;" xml:space="preserve">
<style type="text/css">
<![CDATA[
	.st0{fill:#FFFFFF;}
]]>
</style>
<g>
	<path class="st0" d="M-22.032,2.552c0.231,0.285,0.577,0.444,0.936,0.444c0.36,0,0.705-0.159,0.936-0.444
		c1.05-1.257,2.603-3.573,2.603-6.226c0-2.641-1.553-4.957-2.603-6.219c-0.23-0.279-0.57-0.44-0.936-0.44
		c-0.358,0-0.698,0.161-0.936,0.44c-1.049,1.263-2.599,3.579-2.599,6.219C-24.631-1.021-23.081,1.295-22.032,2.552L-22.032,2.552z
		 M-22.032,2.552"/>
	<path class="st0" d="M-21.088,11.226c0.192,0.013,4.796,0.197,7.51-2.565c1.842-1.873,2.353-4.631,2.484-6.273
		c0.033-0.372-0.098-0.732-0.354-0.987c-0.253-0.262-0.605-0.395-0.972-0.363c-1.616,0.139-4.32,0.656-6.157,2.532
		c-2.03,2.063-2.438,5.21-2.513,6.747c-0.073-1.536-0.479-4.684-2.511-6.747c-1.844-1.876-4.547-2.393-6.161-2.532
		c-0.362-0.032-0.715,0.105-0.968,0.363c-0.257,0.26-0.387,0.621-0.354,0.991c0.133,1.643,0.642,4.4,2.48,6.27
		C-25.884,11.423-21.282,11.239-21.088,11.226L-21.088,11.226z M-21.088,11.226"/>
	<path class="st0" d="M-18.577,13.489c-2.03,2.07-2.438,5.219-2.511,6.752c-0.075-1.533-0.48-4.682-2.513-6.752
		c-1.837-1.872-4.542-2.388-6.161-2.524c-0.362-0.03-0.715,0.098-0.968,0.362c-0.257,0.256-0.387,0.62-0.354,0.986
		c0.133,1.643,0.642,4.396,2.484,6.273c2.716,2.764,7.317,2.576,7.51,2.566c0.194,0.01,4.798,0.197,7.512-2.566
		c1.842-1.877,2.353-4.63,2.484-6.273c0.033-0.366-0.103-0.73-0.354-0.986c-0.256-0.265-0.611-0.393-0.972-0.362
		C-14.036,11.101-16.74,11.617-18.577,13.489L-18.577,13.489z M-18.577,13.489"/>
	<path class="st0" d="M-18.577,23.418c-2.03,2.066-2.438,5.214-2.511,6.75c-0.075-1.535-0.48-4.684-2.513-6.75
		c-1.837-1.871-4.542-2.393-6.157-2.527c-0.36-0.031-0.716,0.102-0.972,0.359c-0.25,0.256-0.387,0.619-0.354,0.984
		c0.133,1.646,0.642,4.402,2.484,6.271c1.855,1.9,4.596,2.406,6.207,2.537v7.156c0,0.811,0.55,1.467,1.348,1.467
		s1.354-0.656,1.354-1.467v-7.164c1.613-0.141,4.29-0.668,6.113-2.523c1.837-1.875,2.353-4.63,2.484-6.277
		c0.033-0.365-0.103-0.729-0.354-0.984c-0.256-0.258-0.611-0.391-0.972-0.359C-14.036,21.026-16.74,21.547-18.577,23.418
		L-18.577,23.418z M-18.577,23.418"/>
</g>
<g>
	<path class="st0" d="M90.459-0.585l0.014-0.007l-1.4-4.201c-0.371-1.271-2.713-3.791-15.4-3.791c-12.69,0-15.031,2.52-15.4,3.791
		l-1.402,4.201l0.014,0.007c-0.048,0.138-0.09,0.28-0.09,0.438c0,1.443,1.134,2.535,2.857,3.366l2.774,29.115
		c0.007,0.033,0.028,0.066,0.033,0.1c0.399,3.859,10.079,3.982,11.214,3.982c1.125,0,10.807-0.123,11.211-3.982
		c0.008-0.033,0.029-0.066,0.029-0.1l2.773-29.115c1.725-0.832,2.854-1.923,2.854-3.366C90.539-0.305,90.502-0.447,90.459-0.585
		L90.459-0.585z M73.672-5.771C79.9-5.771,83.949-5,85.646-4.369C83.949-3.73,79.9-2.96,73.672-2.96
		c-6.235,0-10.287-0.77-11.977-1.409C63.385-5,67.437-5.771,73.672-5.771L73.672-5.771z M82.117,32.002
		c-0.563,0.578-3.521,1.602-8.445,1.602c-4.93,0-7.89-1.023-8.452-1.602l-0.764-7.97c3.277,1.05,7.888,1.132,9.216,1.132
		c1.316,0,5.932-0.082,9.205-1.127L82.117,32.002z M84.238,9.742c-1.539,0.61-5.143,1.359-10.566,1.359
		c-5.426,0-9.035-0.749-10.576-1.359l-0.52-5.491c3.487,0.904,7.861,1.228,11.096,1.228c3.225,0,7.602-0.323,11.088-1.228
		L84.238,9.742z M73.672,2.664c-8.287,0-13.409-1.771-14.015-2.734l0.646-1.943c2.004,0.981,5.869,1.866,13.369,1.866
		c7.49,0,11.363-0.884,13.363-1.866l0.637,1.91C86.984,0.918,81.885,2.664,73.672,2.664L73.672,2.664z M73.672,2.664"/>
</g>
<g>
	<path class="st0" d="M40.139-50.533l2.416-0.659v-1.559l-2.416-0.859V-50.533z M40.139-50.533"/>
	<path class="st0" d="M42.158-40.402c-3.67-3.774-3.725-8.872-3.725-8.872H34.02c0.918,5.376,4.293,8.27,6.555,9.629
		c1.184,0.703,1.576,0.602,1.766,0.361C42.816-39.898,42.158-40.402,42.158-40.402L42.158-40.402z M42.158-40.402"/>
	<path class="st0" d="M17.892-45.159l4.643-0.084l0.216,2.419h7.217l2.967-7.257h6.396v-4.033H26.101
		c-1.504,0-2.429,0.978-2.429,0.978s-4.619,4.543-5.946,5.733C15.486-45.395,17.892-45.159,17.892-45.159L17.892-45.159z
		 M17.892-45.159"/>
	<rect x="21.593" y="-42.017" class="st0" width="9.674" height="3.226"/>
	<path class="st0" d="M35.299-18.328c0-7.359-3.973-9.107-4.402-9.509s-0.713-0.776-0.713-1.584c0-0.803,1.084-1.404,1.084-2.246
		c0-1.478-1.037-1.713-1.037-2.419c0-1.208,0.902-1.173,0.902-2.181c0-1.382-0.902-1.717-0.902-1.717s-6.692-0.051-8.197,0
		c-6.188,9.976-6.088,20.159-6.088,20.159v11.09c0,2.418,1.174,2.622,1.174,2.622h17.187c1.205,0,0.992-1.613,0.992-1.613V-18.328z
		 M35.299-18.328"/>
</g>
<g>
	<g>
		<path class="st0" d="M-34.177,54.581c3.061,0,5.547-2.485,5.547-5.548c0-3.067-5.547-9.842-5.547-9.842s-5.553,6.774-5.553,9.842
			C-39.73,52.096-37.245,54.581-34.177,54.581L-34.177,54.581z M-34.177,54.581"/>
	</g>
	<path class="st0" d="M-4.273,50.654c-2.076-0.196-14.734-0.658-16.555,0c-1.816,0.645-10.174,7.425-12.229,8.922
		c-2.05,1.501,0.601,4.31,3.011,2.676c2.417-1.63,6.244-4.054,7.934-5.147c1.688-1.103,3.623,0.911,2.155,2.347
		c-1.088,1.064-7.584,5.798-8.969,5.862c-1.38,0.063-7.584,0-11.032,0c-3.448,0-3.106,4.178,0,4.178c2.068,0,15.257,0.713,16.555,0
		c1.291-0.716,11.039-8.22,12.234-8.483c1.194-0.266,4.062,0,6.896,0C-1.434,61.008-2.192,50.844-4.273,50.654L-4.273,50.654z"/>
</g>
<g>
	<path class="st0" d="M25.049,11.048c-3.653,0-6.622,2.971-6.622,6.622c0,3.655,2.969,6.626,6.622,6.626
		c3.651,0,6.624-2.971,6.624-6.626C31.673,14.023,28.7,11.048,25.049,11.048L25.049,11.048z M25.049,11.048"/>
	<path class="st0" d="M16.624,38.951c3.65,0,6.624-2.971,6.624-6.625c0-3.65-2.974-6.624-6.624-6.624
		c-3.653,0-6.624,2.974-6.624,6.624C10,35.978,12.971,38.951,16.624,38.951L16.624,38.951z M16.624,38.951"/>
	<path class="st0" d="M33.376,25.702c-3.65,0-6.624,2.973-6.624,6.624s2.974,6.622,6.624,6.622c3.653,0,6.624-2.971,6.624-6.622
		C40,28.676,37.029,25.702,33.376,25.702L33.376,25.702z M33.376,25.702"/>
</g>
</svg>
