<?xml version="1.0" encoding="utf-8"?>
<!-- Generator: Adobe Illustrator 16.0.0, SVG Export Plug-In . SVG Version: 6.00 Build 0)  -->
<!DOCTYPE svg PUBLIC "-//W3C//DTD SVG 1.1//EN" "http://www.w3.org/Graphics/SVG/1.1/DTD/svg11.dtd">
<svg version="1.1" id="Capa_1" xmlns="http://www.w3.org/2000/svg" xmlns:xlink="http://www.w3.org/1999/xlink" x="0px" y="0px"
	 width="50px" height="50px" viewBox="0 0 50 50" style="enable-background:new 0 0 50 50;" xml:space="preserve">
<style type="text/css">
<![CDATA[
	.st0{fill:#FFFFFF;}
]]>
</style>
<g>
	<path class="st0" d="M-22.032,2.552c0.231,0.285,0.577,0.444,0.936,0.444c0.36,0,0.705-0.159,0.936-0.444
		c1.05-1.257,2.603-3.573,2.603-6.226c0-2.641-1.553-4.957-2.603-6.219c-0.23-0.279-0.57-0.44-0.936-0.44
		c-0.358,0-0.698,0.161-0.936,0.44c-1.049,1.263-2.599,3.579-2.599,6.219C-24.631-1.021-23.081,1.295-22.032,2.552L-22.032,2.552z
		 M-22.032,2.552"/>
	<path class="st0" d="M-21.088,11.226c0.192,0.013,4.796,0.197,7.51-2.565c1.842-1.873,2.353-4.631,2.484-6.273
		c0.033-0.372-0.098-0.732-0.354-0.987c-0.253-0.262-0.605-0.395-0.972-0.363c-1.616,0.139-4.32,0.656-6.157,2.532
		c-2.03,2.063-2.438,5.21-2.513,6.747c-0.073-1.536-0.479-4.684-2.511-6.747c-1.844-1.876-4.547-2.393-6.161-2.532
		c-0.362-0.032-0.715,0.105-0.968,0.363c-0.257,0.26-0.387,0.621-0.354,0.991c0.133,1.643,0.642,4.4,2.48,6.27
		C-25.884,11.423-21.282,11.239-21.088,11.226L-21.088,11.226z M-21.088,11.226"/>
	<path class="st0" d="M-18.577,13.489c-2.03,2.07-2.438,5.219-2.511,6.752c-0.075-1.533-0.48-4.682-2.513-6.752
		c-1.837-1.872-4.542-2.388-6.161-2.524c-0.362-0.03-0.715,0.098-0.968,0.362c-0.257,0.256-0.387,0.62-0.354,0.986
		c0.133,1.643,0.642,4.396,2.484,6.273c2.716,2.764,7.317,2.576,7.51,2.566c0.194,0.01,4.798,0.197,7.512-2.566
		c1.842-1.877,2.353-4.63,2.484-6.273c0.033-0.366-0.103-0.73-0.354-0.986c-0.256-0.265-0.611-0.393-0.972-0.362
		C-14.036,11.101-16.74,11.617-18.577,13.489L-18.577,13.489z M-18.577,13.489"/>
	<path class="st0" d="M-18.577,23.418c-2.03,2.066-2.438,5.214-2.511,6.75c-0.075-1.535-0.48-4.684-2.513-6.75
		c-1.837-1.871-4.542-2.393-6.157-2.527c-0.36-0.031-0.716,0.102-0.972,0.359c-0.25,0.256-0.387,0.619-0.354,0.984
		c0.133,1.646,0.642,4.402,2.484,6.271c1.855,1.9,4.596,2.406,6.207,2.537v7.156c0,0.811,0.55,1.467,1.348,1.467
		s1.354-0.656,1.354-1.467v-7.164c1.613-0.141,4.29-0.668,6.113-2.523c1.837-1.875,2.353-4.63,2.484-6.277
		c0.033-0.365-0.103-0.729-0.354-0.984c-0.256-0.258-0.611-0.391-0.972-0.359C-14.036,21.026-16.74,21.547-18.577,23.418
		L-18.577,23.418z M-18.577,23.418"/>
</g>
<g>
	<path class="st0" d="M97.49,4.774l0.017-0.008L95.95,0.099c-0.412-1.413-3.014-4.212-17.112-4.212
		c-14.1,0-16.701,2.799-17.111,4.212l-1.558,4.667l0.016,0.008c-0.054,0.153-0.101,0.312-0.101,0.487c0,1.604,1.26,2.816,3.176,3.74
		l3.082,32.35c0.007,0.037,0.031,0.073,0.037,0.11c0.443,4.289,11.199,4.426,12.459,4.426c1.25,0,12.008-0.137,12.458-4.426
		c0.008-0.037,0.032-0.073,0.032-0.11l3.08-32.35c1.916-0.924,3.173-2.137,3.173-3.74C97.581,5.085,97.537,4.927,97.49,4.774
		L97.49,4.774z M78.838-0.988c6.92,0,11.42,0.856,13.305,1.557c-1.885,0.71-6.385,1.565-13.305,1.565
		c-6.928,0-11.429-0.855-13.307-1.565C67.409-0.131,71.91-0.988,78.838-0.988L78.838-0.988z M88.222,40.982
		c-0.625,0.642-3.913,1.778-9.384,1.778c-5.478,0-8.766-1.137-9.391-1.778l-0.849-8.856c3.642,1.166,8.766,1.258,10.239,1.258
		c1.464,0,6.591-0.092,10.229-1.253L88.222,40.982z M90.579,16.248c-1.709,0.678-5.713,1.51-11.741,1.51
		c-6.027,0-10.039-0.832-11.75-1.51l-0.578-6.102c3.875,1.005,8.734,1.364,12.328,1.364c3.585,0,8.446-0.359,12.321-1.364
		L90.579,16.248z M78.838,8.384c-9.208,0-14.898-1.968-15.571-3.038l0.718-2.159c2.227,1.091,6.521,2.073,14.854,2.073
		c8.323,0,12.626-0.982,14.848-2.073l0.709,2.122C93.63,6.444,87.963,8.384,78.838,8.384L78.838,8.384z M78.838,8.384"/>
</g>
<g>
	<path class="st0" d="M40.139-50.533l2.416-0.659v-1.559l-2.416-0.859V-50.533z M40.139-50.533"/>
	<path class="st0" d="M42.158-40.402c-3.67-3.774-3.725-8.872-3.725-8.872H34.02c0.918,5.376,4.293,8.27,6.555,9.629
		c1.184,0.703,1.576,0.602,1.766,0.361C42.816-39.898,42.158-40.402,42.158-40.402L42.158-40.402z M42.158-40.402"/>
	<path class="st0" d="M17.892-45.159l4.643-0.084l0.216,2.419h7.217l2.967-7.257h6.396v-4.033H26.101
		c-1.504,0-2.429,0.978-2.429,0.978s-4.619,4.543-5.946,5.733C15.486-45.395,17.892-45.159,17.892-45.159L17.892-45.159z
		 M17.892-45.159"/>
	<rect x="21.593" y="-42.017" class="st0" width="9.674" height="3.226"/>
	<path class="st0" d="M35.299-18.328c0-7.359-3.973-9.107-4.402-9.509s-0.713-0.776-0.713-1.584c0-0.803,1.084-1.404,1.084-2.246
		c0-1.478-1.037-1.713-1.037-2.419c0-1.208,0.902-1.173,0.902-2.181c0-1.382-0.902-1.717-0.902-1.717s-6.692-0.051-8.197,0
		c-6.188,9.976-6.088,20.159-6.088,20.159v11.09c0,2.418,1.174,2.622,1.174,2.622h17.187c1.205,0,0.992-1.613,0.992-1.613V-18.328z
		 M35.299-18.328"/>
</g>
<g>
	<g>
		<path class="st0" d="M13.24,25.081c3.061,0,5.547-2.485,5.547-5.547c0-3.068-5.547-9.842-5.547-9.842s-5.553,6.774-5.553,9.842
			C7.687,22.596,10.172,25.081,13.24,25.081L13.24,25.081z M13.24,25.081"/>
	</g>
	<path class="st0" d="M43.144,21.155c-2.076-0.197-14.734-0.659-16.555,0c-1.816,0.645-10.174,7.424-12.229,8.921
		c-2.05,1.501,0.601,4.31,3.011,2.676c2.417-1.63,6.244-4.054,7.934-5.147c1.688-1.103,3.623,0.911,2.155,2.347
		c-1.088,1.064-7.584,5.798-8.969,5.862c-1.38,0.063-7.584,0-11.032,0c-3.448,0-3.106,4.178,0,4.178c2.068,0,15.257,0.713,16.555,0
		c1.291-0.716,11.039-8.22,12.234-8.483c1.194-0.266,4.062,0,6.896,0C45.983,31.508,45.225,21.343,43.144,21.155L43.144,21.155z"/>
</g>
</svg>
