<?xml version="1.0" encoding="utf-8"?>
<!-- Generator: Adobe Illustrator 16.0.0, SVG Export Plug-In . SVG Version: 6.00 Build 0)  -->
<!DOCTYPE svg PUBLIC "-//W3C//DTD SVG 1.1//EN" "http://www.w3.org/Graphics/SVG/1.1/DTD/svg11.dtd">
<svg version="1.1" id="Capa_1" xmlns="http://www.w3.org/2000/svg" xmlns:xlink="http://www.w3.org/1999/xlink" x="0px" y="0px"
	 width="105px" height="105px" viewBox="0 0 105 105" style="enable-background:new 0 0 105 105;" xml:space="preserve">
<style type="text/css">
<![CDATA[
	.st0{fill:#E5F3F1;}
	.st1{fill:#1C1D1D;}
	.st2{fill:#2A2B2B;}
	.st3{fill:#FFFFFF;}
	.st4{fill:#323B45;}
]]>
</style>
<g>
	<rect x="-1046.472" y="65.555" class="st0" width="537.939" height="223.049"/>
	<polygon class="st0" points="-424.441,338.119 113.481,505.697 113.481,522.604 -424.5,522.604 	"/>
	<polygon class="st4" points="113.918,520.958 -39.078,458.771 113.468,288.604 	"/>
</g>
<rect x="306.5" y="-122.445" class="st1" width="108" height="21"/>
<rect x="298.5" y="-103.445" class="st1" width="129" height="78"/>
<g>
	<text transform="matrix(0.9663 0 0 1 319.3145 -107.3179)"><tspan x="0" y="0" style="fill:#61605F; font-family:'DIN-Regular'; font-size:14;">Metodología de</tspan><tspan x="-20.042" y="16.538" style="fill:#61605F; font-family:'DIN-Regular'; font-size:14;">procesos de negocio con</tspan><tspan x="-11.159" y="33.077" style="fill:#61605F; font-family:'DIN-Regular'; font-size:14;">foco en CAPITALIZAR</tspan><tspan x="-11.369" y="49.615" style="fill:#61605F; font-family:'DIN-Regular'; font-size:14;">LAS BRECHAS en los</tspan><tspan x="-14.827" y="66.153" style="fill:#61605F; font-family:'DIN-Regular'; font-size:14;">procesos comerciales</tspan></text>
</g>
<circle class="st2" cx="362.401" cy="-203.531" r="65.462"/>
<text transform="matrix(1.0577 0 0 1 357.2363 -240.3867)" class="st3" style="font-family:'COCOGOOSE'; font-size:19.5033; letter-spacing:-0.945;">1</text>
<g>
	<path class="st3" d="M-123.186,16.887c-0.597,0-1.081,0.496-1.081,1.11v28.441c0,0.615,0.484,1.116,1.081,1.116h9.856
		c0.597,0,1.082-0.501,1.082-1.116V17.997c0-0.614-0.485-1.11-1.082-1.11H-123.186z M-123.186,16.887"/>
	<path class="st3" d="M-105.035,3.961v42.477c0,0.615,0.481,1.116,1.082,1.116h9.854c0.606,0,1.083-0.501,1.083-1.116V3.961
		c0-0.299-0.116-0.587-0.319-0.797c-0.202-0.207-0.473-0.324-0.764-0.324h-9.854C-104.553,2.84-105.035,3.341-105.035,3.961
		L-105.035,3.961z M-105.035,3.961"/>
	<path class="st3" d="M-142.418,6.937c-0.6,0-1.082,0.502-1.082,1.12v38.382c0,0.615,0.482,1.116,1.082,1.116h9.855
		c0.593,0,1.078-0.501,1.078-1.116V8.057c0-0.613-0.485-1.12-1.078-1.12H-142.418z M-142.418,6.937"/>
	<path class="st3" d="M-161.655,18.876c-0.597,0-1.074,0.494-1.074,1.117v26.445c0,0.615,0.477,1.116,1.074,1.116h9.855
		c0.601,0,1.082-0.501,1.082-1.116V19.993c0-0.623-0.481-1.117-1.082-1.117H-161.655z M-161.655,18.876"/>
	<path class="st3" d="M-159.255,15.113c0.282,0.348,0.688,0.531,1.102,0.531c0.327,0,0.656-0.116,0.927-0.359l19.702-17.219
		l17.274,13.669c0.608,0.48,1.465,0.391,1.965-0.21l15.964-19.046l2.236,2.002c0.389,0.344,0.925,0.45,1.415,0.279
		c0.482-0.174,0.849-0.602,0.942-1.127l2.662-14.305c0.104-0.522-0.079-1.062-0.466-1.411c-0.389-0.346-0.935-0.455-1.415-0.284
		l-13.317,4.765c-0.485,0.177-0.844,0.607-0.942,1.132c-0.096,0.522,0.08,1.057,0.474,1.403l2.231,2.01l-11.817,14.098
		l-16.545-13.092c-0.542-0.424-1.289-0.41-1.807,0.049L-162.498,8.83c-0.294,0.259-0.481,0.622-0.513,1.017
		c-0.028,0.396,0.095,0.786,0.337,1.091L-159.255,15.113z M-159.255,15.113"/>
</g>
<circle class="st2" cx="223.065" cy="-34.627" r="63.208"/>
<rect x="181.5" y="47.555" class="st1" width="86" height="17"/>
<rect x="159.5" y="62.555" class="st1" width="127" height="19"/>
<text transform="matrix(0.9663 0 0 1 187.5498 60.6533)"><tspan x="0" y="0" style="fill:#61605F; font-family:'DIN-Regular'; font-size:14;">Ejecución </tspan><tspan x="60.662" y="0" style="fill:#61605F; font-family:'DIN-Regular'; font-size:14;">de</tspan><tspan x="-21.945" y="15.915" style="fill:#61605F; font-family:'DIN-Regular'; font-size:14;">tienda perfecta MAPS</tspan></text>
<text transform="matrix(1.0081 0 0 1 217.1797 -70.228)" class="st3" style="font-family:'COCOGOOSE'; font-size:18.7679;">2</text>
<g>
	<path class="st3" d="M-35.667-104.517l5.36-5.364l-5.468-5.466l-5.364,5.364c-2.245-1.506-4.801-2.578-7.564-3.122v-7.588h-7.714
		v7.608c-2.772,0.523-5.302,1.57-7.541,3.102l-5.364-5.364l-5.472,5.466l5.369,5.364c-1.517,2.243-2.582,4.778-3.11,7.565h-7.604
		v7.709h7.604c0.528,2.748,1.594,5.304,3.11,7.547l-5.369,5.364l5.472,5.45l5.364-5.346c2.219,1.51,4.769,2.58,7.541,3.101v7.607
		h7.732v-7.607c2.745-0.521,5.301-1.57,7.546-3.101l5.364,5.346l5.468-5.45l-5.36-5.364c1.508-2.243,2.573-4.799,3.1-7.547h7.605
		v-7.709h-7.605C-33.093-99.738-34.159-102.273-35.667-104.517L-35.667-104.517z M-52.562-84.673c-4.646,0-8.423-3.792-8.423-8.444
		s3.777-8.421,8.423-8.421c4.679,0,8.447,3.769,8.447,8.421S-47.883-84.673-52.562-84.673L-52.562-84.673z M-52.562-84.673"/>
	<path class="st3" d="M-28.163-130.495c-6.775-4.322-14.78-6.877-23.413-6.877c-23.999,0-43.461,19.466-43.461,43.459
		c0,10.04,3.435,19.238,9.134,26.594l5.448-5.45c-4.337-5.93-6.975-13.183-6.975-21.102c0-19.804,16.051-35.853,35.854-35.853
		c6.604,0,12.681,1.908,17.979,5.029l-4.191,4.465l17.019,1.551l-1.823-17.771L-28.163-130.495z M-28.163-130.495"/>
	<path class="st3" d="M4.963-92.992L-5.684-103.65v5.964h-14.038v9.389h14.038v5.972L4.963-92.992z M4.963-92.992"/>
</g>
<circle class="st2" cx="355.252" cy="57.709" r="63.771"/>
<rect x="291.5" y="139.555" class="st1" width="129" height="61"/>
<text transform="matrix(0.9663 0 0 1 298.2227 151.8916)"><tspan x="0" y="0" style="fill:#61605F; font-family:'DIN-Regular'; font-size:14;">Auditorias de Procesos</tspan><tspan x="117.137" y="0" style="fill:#61605F; font-family:'DIN-Regular'; font-size:14;"> </tspan><tspan x="1.057" y="15.152" style="fill:#61605F; font-family:'DIN-Regular'; font-size:14;">(Distribuidores, Trade</tspan><tspan x="7.743" y="30.305" style="fill:#61605F; font-family:'DIN-Regular'; font-size:14;">Marketing, Ventas ,</tspan><tspan x="6.427" y="45.458" style="fill:#61605F; font-family:'DIN-Regular'; font-size:14;">Gestión Comercial) </tspan></text>
<text transform="matrix(1.0081 0 0 1 350.3223 21.8687)" class="st3" style="font-family:'COCOGOOSE'; font-size:19.0642;">3</text>
<g>
	<path class="st3" d="M-226.062-146.945h-40.894c-2.34,0-4.242,1.904-4.242,4.244v9.498c-7.761,2.221-13.451,9.376-13.451,17.837
		c0,8.459,5.69,15.616,13.451,17.835v16.342c0,2.34,1.902,4.244,4.242,4.244h33.421c0.393,0,0.774-0.157,1.058-0.438l10.224-10.225
		c0.28-0.279,0.435-0.658,0.435-1.058v-54.035C-221.818-145.041-223.719-146.945-226.062-146.945L-226.062-146.945z
		 M-266.955-143.956h40.894c0.691,0,1.25,0.561,1.25,1.255v4.511h-43.399v-4.511C-268.211-143.396-267.646-143.956-266.955-143.956
		L-266.955-143.956z M-281.662-115.367c0-8.58,6.98-15.561,15.56-15.561c8.575,0,15.558,6.981,15.558,15.561
		c0,8.579-6.982,15.558-15.558,15.558C-274.682-99.809-281.662-106.788-281.662-115.367L-281.662-115.367z M-268.211-81.189v-15.749
		c0.69,0.078,1.397,0.12,2.108,0.12c5.569,0,10.577-2.47,13.984-6.372h9.154c0.829,0,1.496-0.668,1.496-1.494
		s-0.667-1.495-1.496-1.495h-7.029c1.302-2.269,2.134-4.842,2.368-7.579h4.661c0.822,0,1.496-0.67,1.496-1.496
		c0-0.826-0.674-1.496-1.496-1.496h-4.642c-0.202-2.732-1.003-5.3-2.263-7.577h6.904c0.822,0,1.496-0.67,1.496-1.496
		s-0.674-1.493-1.496-1.493h-8.968c-3.404-4.034-8.488-6.6-14.171-6.6c-0.714,0-1.418,0.042-2.108,0.122v-1.406h43.399v45.041
		h-5.978c-2.34,0-4.243,1.904-4.243,4.242v5.983h-31.923C-267.646-79.935-268.211-80.498-268.211-81.189L-268.211-81.189z
		 M-232.043-82.051v-3.863c0-0.694,0.564-1.257,1.254-1.257h3.869L-232.043-82.051z M-232.043-82.051"/>
	<path class="st3" d="M-237.092-124.328h4.966c0.825,0,1.497-0.67,1.497-1.496s-0.672-1.493-1.497-1.493h-4.966
		c-0.823,0-1.492,0.667-1.492,1.493S-237.915-124.328-237.092-124.328L-237.092-124.328z M-237.092-124.328"/>
	<path class="st3" d="M-237.092-113.758h4.966c0.825,0,1.497-0.67,1.497-1.496c0-0.826-0.672-1.496-1.497-1.496h-4.966
		c-0.823,0-1.492,0.67-1.492,1.496C-238.584-114.428-237.915-113.758-237.092-113.758L-237.092-113.758z M-237.092-113.758"/>
	<path class="st3" d="M-237.092-103.19h4.966c0.825,0,1.497-0.668,1.497-1.494s-0.672-1.495-1.497-1.495h-4.966
		c-0.823,0-1.492,0.669-1.492,1.495S-237.915-103.19-237.092-103.19L-237.092-103.19z M-237.092-103.19"/>
	<path class="st3" d="M-232.126-92.62c0.825,0,1.497-0.671,1.497-1.496c0-0.826-0.672-1.495-1.497-1.495h-13.981
		c-0.829,0-1.498,0.669-1.498,1.495c0,0.825,0.669,1.496,1.498,1.496H-232.126z M-232.126-92.62"/>
	<path class="st3" d="M-254.5-122.909l-1.819-1.822c-0.495-0.492-1.145-0.762-1.838-0.762c-0.698,0-1.351,0.27-1.839,0.762
		l-9.565,9.565l-2.645-2.644c-0.492-0.492-1.147-0.763-1.836-0.763c-0.699,0-1.353,0.271-1.845,0.763l-1.822,1.824
		c-1.013,1.012-1.013,2.661,0,3.677l6.306,6.303c0.492,0.493,1.145,0.766,1.842,0.766c0.692,0,1.344-0.272,1.839-0.762
		l13.223-13.229C-253.482-120.246-253.482-121.895-254.5-122.909L-254.5-122.909z M-269.562-108.394l-5.76-5.753l1.274-1.273
		l3.425,3.423c0.585,0.585,1.533,0.585,2.118,0l10.347-10.345l1.272,1.271L-269.562-108.394z M-269.562-108.394"/>
</g>
<circle class="st2" cx="203.926" cy="205.306" r="65.438"/>
<rect x="159.5" y="285.555" class="st1" width="83" height="17"/>
<rect x="137.5" y="300.555" class="st1" width="131" height="18"/>
<g>
	<text transform="matrix(0.9663 0 0 1 170.2627 298.3154)"><tspan x="0" y="0" style="fill:#61605F; font-family:'DIN-Regular'; font-size:14;">Programas</tspan><tspan x="-14.776" y="15.524" style="fill:#61605F; font-family:'DIN-Regular'; font-size:14;">de capacitación</tspan></text>
</g>
<text transform="matrix(1.0081 0 0 1 196.1123 167.6357)" class="st3" style="font-family:'COCOGOOSE'; font-size:19.5324;">4</text>
<g>
	<path class="st3" d="M52.738,24.524c-0.229,0-0.46-0.014-0.689-0.014h0.909C52.872,24.511,52.806,24.524,52.738,24.524
		L52.738,24.524z M80.405,35.588c0.164,0,0.322,0.016,0.485,0.016c0.068,0,0.111-0.016,0.158-0.016H80.405z M39.817,46.651
		c0.027,0,0.054-0.043,0.091-0.043c2.027,7.33,7.262,12.814,12.601,12.936c4.858-0.231,10.805-5.619,12.801-12.909
		c0.907,0.052,1.824-1.021,2.078-2.522c0.271-1.56-0.286-2.948-1.225-3.125c-0.066,0-0.118,0.041-0.188,0.041
		C65.699,28.96,59.971,24.715,52.75,24.524c-7.435,0.027-14.1,5.212-13.681,16.504c-0.068,0-0.131-0.041-0.204-0.041
		c-0.948,0.177-1.495,1.565-1.23,3.125C37.89,45.671,38.865,46.812,39.817,46.651L39.817,46.651z M52.4,59.544h0.2
		c-0.037,0-0.078,0-0.105,0C52.45,59.544,52.427,59.544,52.4,59.544L52.4,59.544z M71.569,51.561c0.027,0,0.04-0.027,0.04-0.027
		c1.475,5.282,5.263,9.246,9.104,9.328c3.52-0.165,7.807-4.061,9.23-9.315c0.662,0.043,1.318-0.732,1.511-1.816
		c0.187-1.123-0.207-2.13-0.898-2.254c-0.041,0-0.081,0.025-0.122,0.025c-0.19-8.7-4.332-11.762-9.544-11.898
		c-5.357,0.021-10.17,3.758-9.865,11.898c-0.055,0-0.096-0.036-0.154-0.025c-0.677,0.125-1.085,1.131-0.88,2.254
		C70.167,50.855,70.871,51.684,71.569,51.561L71.569,51.561z M80.813,60.862c-0.048,0-0.063,0-0.1,0c0,0-0.041,0-0.055,0H80.813z
		 M62.529,61.633l-6.764,13.223l-1.057-8.604l1.669-1.359h-7.752l1.672,1.359l-1.059,8.604L42.48,61.633
		c-11.743,1.574-20.171,6.612-20.171,18.856h60.405C82.696,68.245,74.269,63.207,62.529,61.633L62.529,61.633z M23.96,35.588
		c0.179,0,0.342,0.016,0.499,0.016c0.062,0,0.111-0.016,0.173-0.016H23.96z M25.876,65.709l1.195-0.993h-5.575l1.202,0.993
		l-0.773,6.201l-4.861-9.542C8.581,63.509,2.5,67.146,2.5,75.969h19.426c0.641-3.286,2.034-6.039,4.198-8.28L25.876,65.709z
		 M87.949,62.368L83.08,71.91l-0.779-6.201l1.209-0.993h-5.576l1.206,0.993l-0.259,1.979c2.16,2.241,3.561,4.994,4.21,8.28H102.5
		C102.5,67.146,96.422,63.509,87.949,62.368L87.949,62.368z M24.368,60.862c-0.027,0-0.055,0-0.077,0c-0.019,0-0.041,0-0.073,0
		H24.368z M15.137,51.561c0.027,0,0.045-0.027,0.068-0.027c1.456,5.282,5.239,9.246,9.085,9.328
		c3.497-0.165,7.806-4.061,9.226-9.315c0.667,0.043,1.315-0.732,1.506-1.816c0.193-1.123-0.204-2.13-0.894-2.254
		c-0.043,0-0.077,0.025-0.123,0.025c-0.204-8.7-4.33-11.762-9.548-11.898c-5.352,0.021-10.161,3.758-9.861,11.898
		c-0.057,0-0.095-0.036-0.154-0.025c-0.676,0.125-1.084,1.131-0.894,2.254C13.752,50.855,14.443,51.684,15.137,51.561L15.137,51.561
		z M15.137,51.561"/>
</g>
</svg>
