<?xml version="1.0" encoding="utf-8"?>
<!-- Generator: Adobe Illustrator 16.0.0, SVG Export Plug-In . SVG Version: 6.00 Build 0)  -->
<!DOCTYPE svg PUBLIC "-//W3C//DTD SVG 1.1//EN" "http://www.w3.org/Graphics/SVG/1.1/DTD/svg11.dtd">
<svg version="1.1" id="Capa_1" xmlns="http://www.w3.org/2000/svg" xmlns:xlink="http://www.w3.org/1999/xlink" x="0px" y="0px"
	 width="105px" height="105px" viewBox="0 0 105 105" style="enable-background:new 0 0 105 105;" xml:space="preserve">
<style type="text/css">
<![CDATA[
	.st0{fill:#E5F3F1;}
	.st1{fill:#1C1D1D;}
	.st2{fill:#2A2B2B;}
	.st3{fill:#FFFFFF;}
	.st4{fill:#323B45;}
]]>
</style>
<g>
	<rect x="-1046.472" y="65.555" class="st0" width="537.939" height="223.049"/>
	<polygon class="st0" points="-424.441,338.119 113.481,505.697 113.481,522.604 -424.5,522.604 	"/>
	<polygon class="st4" points="113.918,520.958 -39.078,458.771 113.468,288.604 	"/>
</g>
<g>
	<path class="st3" d="M-123.186,16.887c-0.597,0-1.081,0.496-1.081,1.11v28.441c0,0.615,0.484,1.116,1.081,1.116h9.856
		c0.597,0,1.082-0.501,1.082-1.116V17.997c0-0.614-0.485-1.11-1.082-1.11H-123.186z M-123.186,16.887"/>
	<path class="st3" d="M-105.035,3.961v42.477c0,0.615,0.481,1.116,1.082,1.116h9.854c0.606,0,1.083-0.501,1.083-1.116V3.961
		c0-0.299-0.116-0.587-0.319-0.797c-0.202-0.207-0.473-0.324-0.764-0.324h-9.854C-104.553,2.84-105.035,3.341-105.035,3.961
		L-105.035,3.961z M-105.035,3.961"/>
	<path class="st3" d="M-142.418,6.937c-0.6,0-1.082,0.502-1.082,1.12v38.382c0,0.615,0.482,1.116,1.082,1.116h9.855
		c0.593,0,1.078-0.501,1.078-1.116V8.057c0-0.613-0.485-1.12-1.078-1.12H-142.418z M-142.418,6.937"/>
	<path class="st3" d="M-161.655,18.876c-0.597,0-1.074,0.494-1.074,1.117v26.445c0,0.615,0.477,1.116,1.074,1.116h9.855
		c0.601,0,1.082-0.501,1.082-1.116V19.993c0-0.623-0.481-1.117-1.082-1.117H-161.655z M-161.655,18.876"/>
	<path class="st3" d="M-159.255,15.113c0.282,0.348,0.688,0.531,1.102,0.531c0.327,0,0.656-0.116,0.927-0.359l19.702-17.219
		l17.274,13.669c0.608,0.48,1.465,0.391,1.965-0.21l15.964-19.046l2.236,2.002c0.389,0.344,0.925,0.45,1.415,0.279
		c0.482-0.174,0.849-0.602,0.942-1.127l2.662-14.305c0.104-0.522-0.079-1.062-0.466-1.411c-0.389-0.346-0.935-0.455-1.415-0.284
		l-13.317,4.765c-0.485,0.177-0.844,0.607-0.942,1.132c-0.096,0.522,0.08,1.057,0.474,1.403l2.231,2.01l-11.817,14.098
		l-16.545-13.092c-0.542-0.424-1.289-0.41-1.807,0.049L-162.498,8.83c-0.294,0.259-0.481,0.622-0.513,1.017
		c-0.028,0.396,0.095,0.786,0.337,1.091L-159.255,15.113z M-159.255,15.113"/>
</g>
<g>
	<path class="st3" d="M-96.647-104.517l5.359-5.364l-5.467-5.466l-5.365,5.364c-2.244-1.506-4.801-2.578-7.564-3.122v-7.588h-7.713
		v7.608c-2.772,0.523-5.302,1.57-7.541,3.102l-5.364-5.364l-5.472,5.466l5.369,5.364c-1.517,2.243-2.582,4.778-3.11,7.565h-7.604
		v7.709h7.604c0.528,2.748,1.594,5.304,3.11,7.547l-5.369,5.364l5.472,5.45l5.364-5.346c2.219,1.51,4.769,2.58,7.541,3.101v7.607
		h7.733v-7.607c2.744-0.521,5.301-1.57,7.545-3.101l5.365,5.346l5.467-5.45l-5.359-5.364c1.508-2.243,2.572-4.799,3.1-7.547h7.605
		v-7.709h-7.605C-94.075-99.738-95.14-102.273-96.647-104.517L-96.647-104.517z M-113.544-84.673c-4.645,0-8.422-3.792-8.422-8.444
		s3.777-8.421,8.422-8.421c4.68,0,8.447,3.769,8.447,8.421S-108.864-84.673-113.544-84.673L-113.544-84.673z M-113.544-84.673"/>
	<path class="st3" d="M-89.144-130.495c-6.775-4.322-14.781-6.877-23.414-6.877c-23.999,0-43.46,19.466-43.46,43.459
		c0,10.04,3.435,19.238,9.134,26.594l5.448-5.45c-4.337-5.93-6.975-13.183-6.975-21.102c0-19.804,16.051-35.853,35.853-35.853
		c6.605,0,12.682,1.908,17.98,5.029l-4.191,4.465l17.018,1.551l-1.822-17.771L-89.144-130.495z M-89.144-130.495"/>
	<path class="st3" d="M-63.981-92.992l-8.361-10.658v5.964h-8.361v9.389h8.361v5.972L-63.981-92.992z M-63.981-92.992"/>
</g>
<g>
	<path class="st3" d="M-226.062-146.945h-40.894c-2.34,0-4.242,1.904-4.242,4.244v9.498c-7.761,2.221-13.451,9.376-13.451,17.837
		c0,8.459,5.69,15.616,13.451,17.835v16.342c0,2.34,1.902,4.244,4.242,4.244h33.421c0.393,0,0.774-0.157,1.058-0.438l10.224-10.225
		c0.28-0.279,0.435-0.658,0.435-1.058v-54.035C-221.818-145.041-223.719-146.945-226.062-146.945L-226.062-146.945z
		 M-266.955-143.956h40.894c0.691,0,1.25,0.561,1.25,1.255v4.511h-43.399v-4.511C-268.211-143.396-267.646-143.956-266.955-143.956
		L-266.955-143.956z M-281.662-115.367c0-8.58,6.98-15.561,15.56-15.561c8.575,0,15.558,6.981,15.558,15.561
		c0,8.579-6.982,15.558-15.558,15.558C-274.682-99.809-281.662-106.788-281.662-115.367L-281.662-115.367z M-268.211-81.189v-15.749
		c0.69,0.078,1.397,0.12,2.108,0.12c5.569,0,10.577-2.47,13.984-6.372h9.154c0.829,0,1.496-0.668,1.496-1.494
		s-0.667-1.495-1.496-1.495h-7.029c1.302-2.269,2.134-4.842,2.368-7.579h4.661c0.822,0,1.496-0.67,1.496-1.496
		c0-0.826-0.674-1.496-1.496-1.496h-4.642c-0.202-2.732-1.003-5.3-2.263-7.577h6.904c0.822,0,1.496-0.67,1.496-1.496
		s-0.674-1.493-1.496-1.493h-8.968c-3.404-4.034-8.488-6.6-14.171-6.6c-0.714,0-1.418,0.042-2.108,0.122v-1.406h43.399v45.041
		h-5.978c-2.34,0-4.243,1.904-4.243,4.242v5.983h-31.923C-267.646-79.935-268.211-80.498-268.211-81.189L-268.211-81.189z
		 M-232.043-82.051v-3.863c0-0.694,0.564-1.257,1.254-1.257h3.869L-232.043-82.051z M-232.043-82.051"/>
	<path class="st3" d="M-237.092-124.328h4.966c0.825,0,1.497-0.67,1.497-1.496s-0.672-1.493-1.497-1.493h-4.966
		c-0.823,0-1.492,0.667-1.492,1.493S-237.915-124.328-237.092-124.328L-237.092-124.328z M-237.092-124.328"/>
	<path class="st3" d="M-237.092-113.758h4.966c0.825,0,1.497-0.67,1.497-1.496c0-0.826-0.672-1.496-1.497-1.496h-4.966
		c-0.823,0-1.492,0.67-1.492,1.496C-238.584-114.428-237.915-113.758-237.092-113.758L-237.092-113.758z M-237.092-113.758"/>
	<path class="st3" d="M-237.092-103.19h4.966c0.825,0,1.497-0.668,1.497-1.494s-0.672-1.495-1.497-1.495h-4.966
		c-0.823,0-1.492,0.669-1.492,1.495S-237.915-103.19-237.092-103.19L-237.092-103.19z M-237.092-103.19"/>
	<path class="st3" d="M-232.126-92.62c0.825,0,1.497-0.671,1.497-1.496c0-0.826-0.672-1.495-1.497-1.495h-13.981
		c-0.829,0-1.498,0.669-1.498,1.495c0,0.825,0.669,1.496,1.498,1.496H-232.126z M-232.126-92.62"/>
	<path class="st3" d="M-254.5-122.909l-1.819-1.822c-0.495-0.492-1.145-0.762-1.838-0.762c-0.698,0-1.351,0.27-1.839,0.762
		l-9.565,9.565l-2.645-2.644c-0.492-0.492-1.147-0.763-1.836-0.763c-0.699,0-1.353,0.271-1.845,0.763l-1.822,1.824
		c-1.013,1.012-1.013,2.661,0,3.677l6.306,6.303c0.492,0.493,1.145,0.766,1.842,0.766c0.692,0,1.344-0.272,1.839-0.762
		l13.223-13.229C-253.482-120.246-253.482-121.895-254.5-122.909L-254.5-122.909z M-269.562-108.394l-5.76-5.753l1.274-1.273
		l3.425,3.423c0.585,0.585,1.533,0.585,2.118,0l10.347-10.345l1.272,1.271L-269.562-108.394z M-269.562-108.394"/>
</g>
<g>
	<path class="st3" d="M-159.762-259.496c-0.229,0-0.46-0.014-0.689-0.014h0.909C-159.628-259.51-159.694-259.496-159.762-259.496
		L-159.762-259.496z M-132.095-248.433c0.164,0,0.322,0.016,0.485,0.016c0.068,0,0.111-0.016,0.158-0.016H-132.095z
		 M-172.683-237.37c0.027,0,0.054-0.043,0.091-0.043c2.027,7.33,7.262,12.814,12.601,12.936c4.858-0.231,10.805-5.619,12.801-12.909
		c0.907,0.052,1.824-1.021,2.078-2.522c0.271-1.56-0.286-2.948-1.225-3.125c-0.066,0-0.118,0.041-0.188,0.041
		c-0.275-12.068-6.004-16.314-13.225-16.504c-7.435,0.027-14.1,5.212-13.681,16.504c-0.068,0-0.131-0.041-0.204-0.041
		c-0.948,0.177-1.495,1.565-1.23,3.125C-174.61-238.35-173.635-237.208-172.683-237.37L-172.683-237.37z M-160.1-224.477h0.2
		c-0.037,0-0.078,0-0.105,0C-160.05-224.477-160.073-224.477-160.1-224.477L-160.1-224.477z M-140.931-232.459
		c0.027,0,0.04-0.027,0.04-0.027c1.475,5.282,5.263,9.246,9.104,9.328c3.52-0.165,7.807-4.061,9.23-9.315
		c0.662,0.043,1.318-0.732,1.511-1.816c0.187-1.123-0.207-2.13-0.898-2.254c-0.041,0-0.081,0.025-0.122,0.025
		c-0.19-8.7-4.332-11.762-9.544-11.898c-5.357,0.021-10.17,3.758-9.865,11.898c-0.055,0-0.096-0.036-0.154-0.025
		c-0.677,0.125-1.085,1.131-0.88,2.254C-142.333-233.165-141.629-232.337-140.931-232.459L-140.931-232.459z M-131.687-223.158
		c-0.048,0-0.063,0-0.1,0c0,0-0.041,0-0.055,0H-131.687z M-149.971-222.388l-6.764,13.223l-1.057-8.604l1.669-1.359h-7.752
		l1.672,1.359l-1.059,8.604l-6.759-13.223c-11.743,1.574-20.171,6.612-20.171,18.856h60.405
		C-129.804-215.775-138.231-220.813-149.971-222.388L-149.971-222.388z M-188.54-248.433c0.179,0,0.342,0.016,0.499,0.016
		c0.062,0,0.111-0.016,0.173-0.016H-188.54z M-186.624-218.312l1.195-0.993h-5.575l1.202,0.993l-0.773,6.201l-4.861-9.542
		c-8.484,1.141-14.565,4.778-14.565,13.601h19.426c0.641-3.286,2.034-6.039,4.198-8.28L-186.624-218.312z M-124.551-221.652
		l-4.869,9.542l-0.779-6.201l1.209-0.993h-5.576l1.206,0.993l-0.259,1.979c2.16,2.241,3.561,4.994,4.21,8.28H-110
		C-110-216.874-116.078-220.512-124.551-221.652L-124.551-221.652z M-188.132-223.158c-0.027,0-0.055,0-0.077,0
		c-0.019,0-0.041,0-0.073,0H-188.132z M-197.363-232.459c0.027,0,0.045-0.027,0.068-0.027c1.456,5.282,5.239,9.246,9.085,9.328
		c3.497-0.165,7.806-4.061,9.226-9.315c0.667,0.043,1.315-0.732,1.506-1.816c0.193-1.123-0.204-2.13-0.894-2.254
		c-0.043,0-0.077,0.025-0.123,0.025c-0.204-8.7-4.33-11.762-9.548-11.898c-5.352,0.021-10.161,3.758-9.861,11.898
		c-0.057,0-0.095-0.036-0.154-0.025c-0.676,0.125-1.084,1.131-0.894,2.254C-198.748-233.165-198.057-232.337-197.363-232.459
		L-197.363-232.459z M-197.363-232.459"/>
</g>
<circle class="st2" cx="227.358" cy="-219.528" r="63.761"/>
<rect x="177.5" y="-15.445" class="st1" width="129" height="17"/>
<rect x="201.5" y="-0.445" class="st1" width="78" height="17"/>
<g>
	<text transform="matrix(0.9663 0 0 1 188.2461 -2.208)"><tspan x="0" y="0" style="fill:#61605F; font-family:'DIN-Regular'; font-size:14;">Diseño del Road to</tspan><tspan x="35.399" y="15.127" style="fill:#61605F; font-family:'DIN-Regular'; font-size:14;">Market</tspan></text>
</g>
<text transform="matrix(1.0081 0 0 1 235.7432 -135.2314)" class="st3" style="font-family:'COCOGOOSE'; font-size:19.0317;">5</text>
<g>
	<path class="st3" d="M69.82,25.455L25.297,62.906l25.851-0.066l15.474,20.705L69.82,25.455z M69.82,25.455"/>
</g>
<circle class="st2" cx="350.216" cy="-16.153" r="64.614"/>
<rect x="306.5" y="64.555" class="st1" width="82" height="17"/>
<rect x="284.5" y="79.555" class="st1" width="129" height="17"/>
<g>
	<text transform="matrix(0.9663 0 0 1 320.2129 77.5342)"><tspan x="0" y="0" style="fill:#61605F; font-family:'DIN-Regular'; font-size:14;">Coaching</tspan><tspan x="-1.673" y="15.329" style="fill:#61605F; font-family:'DIN-Regular'; font-size:14;">Comercial</tspan></text>
</g>
<text transform="matrix(1.0081 0 0 1 342.501 -53.3477)" class="st3" style="font-family:'COCOGOOSE'; font-size:19.2862;">6</text>
<g>
	<path class="st3" d="M-1.711-120.692c-9.425,0-18.519,3.714-25.253,10.248l-2.389-1.711c-0.309-0.225-0.72-0.264-1.07-0.106
		c-0.352,0.158-0.589,0.494-0.629,0.876l-1.278,12.846c-0.036,0.382,0.131,0.758,0.449,0.982c0.183,0.135,0.406,0.203,0.625,0.203
		c0.151,0,0.302-0.032,0.445-0.097l11.761-5.314c0.351-0.162,0.591-0.494,0.629-0.878c0.041-0.384-0.127-0.758-0.444-0.984
		l-2.141-1.536c5.291-4.693,12.171-7.34,19.295-7.34c16.008,0,29.036,13.029,29.036,29.042c0,1.986,1.611,3.595,3.596,3.595
		c1.99,0,3.596-1.608,3.596-3.595C34.516-104.441,18.267-120.692-1.711-120.692L-1.711-120.692z M-1.711-120.692"/>
	<path class="st3" d="M29.482-71.149c-0.185-0.135-0.405-0.203-0.627-0.203c-0.154,0-0.303,0.033-0.445,0.098l-11.763,5.317
		c-0.349,0.158-0.589,0.49-0.627,0.875c-0.041,0.384,0.131,0.76,0.441,0.982l2.143,1.539c-5.287,4.69-12.172,7.338-19.291,7.338
		c-16.012,0-29.04-13.027-29.04-29.04c0-1.988-1.609-3.597-3.595-3.597c-1.986,0-3.596,1.609-3.596,3.597
		c0,19.978,16.25,36.23,36.23,36.23c9.421,0,18.516-3.712,25.25-10.251l2.389,1.715c0.313,0.225,0.722,0.265,1.074,0.106
		c0.348-0.16,0.589-0.494,0.625-0.878l1.276-12.847C29.967-70.548,29.796-70.923,29.482-71.149L29.482-71.149z M29.482-71.149"/>
	<path class="st3" d="M-13.427-74.992v-13.685c0-1.587-1.289-2.878-2.877-2.878c-1.587,0-2.88,1.291-2.88,2.878v13.685
		c0,1.589,1.293,2.877,2.88,2.877C-14.716-72.115-13.427-73.403-13.427-74.992L-13.427-74.992z M-13.427-74.992"/>
	<path class="st3" d="M-3.359-74.992v-23.754c0-1.589-1.29-2.879-2.875-2.879c-1.591,0-2.875,1.29-2.875,2.879v23.752
		c0,1.591,1.284,2.877,2.875,2.877C-4.649-72.115-3.359-73.403-3.359-74.992L-3.359-74.992z M-3.359-74.992"/>
	<path class="st3" d="M6.712-74.992v-17.713c0-1.588-1.29-2.879-2.879-2.879c-1.59,0-2.876,1.291-2.876,2.879v17.713
		c0,1.589,1.286,2.877,2.876,2.877C5.422-72.115,6.712-73.403,6.712-74.992L6.712-74.992z M6.712-74.992"/>
	<path class="st3" d="M16.78-74.992v-20.735c0-1.588-1.286-2.875-2.875-2.875c-1.592,0-2.879,1.288-2.879,2.875v20.735
		c0,1.589,1.287,2.877,2.879,2.877C15.494-72.115,16.78-73.403,16.78-74.992L16.78-74.992z M16.78-74.992"/>
</g>
</svg>
