<?xml version="1.0" encoding="utf-8"?>
<!-- Generator: Adobe Illustrator 16.0.0, SVG Export Plug-In . SVG Version: 6.00 Build 0)  -->
<!DOCTYPE svg PUBLIC "-//W3C//DTD SVG 1.1//EN" "http://www.w3.org/Graphics/SVG/1.1/DTD/svg11.dtd">
<svg version="1.1" xmlns="http://www.w3.org/2000/svg" xmlns:xlink="http://www.w3.org/1999/xlink" x="0px" y="0px" width="986px"
	 height="117.405px" viewBox="0 0 986 117.405" style="enable-background:new 0 0 986 117.405;" xml:space="preserve">
<style type="text/css">
<![CDATA[
	.st0{fill:#262323;}
	.st1{fill:#C67037;}
	.st2{display:inline;}
	.st3{fill:#323B45;}
	.st4{fill:#010202;}
	.st5{display:none;}
]]>
</style>
<g id="Capa_1">
	<g>
		<polygon class="st0" points="989.501,64.632 439.263,37.834 -4.408,77.243 -4.408,0 679.474,0 989.501,0 		"/>
		<polygon class="st3" points="989.501,87.394 436.157,37.405 989.501,44.667 		"/>
		<polygon class="st3" points="-4.435,57.422 310.36,48.853 -3.605,81.265 		"/>
		<polygon class="st4" points="-4.435,76.815 439.237,37.405 -4.435,117.405 		"/>
	</g>
</g>
<g id="Capa_2" class="st5">
	<g class="st2">
		<path class="st1" d="M84.478,258.299c3.944,0.389,7.816-1.226,11.192-3.103c4.682-2.603,8.848-6.137,12.689-9.841
			c8.577-8.271,16.06-18.163,21.368-28.843c2.001-4.026,3.757-8.338,4.339-12.825c0.376-2.9,0.111-6.231-2.174-8.322
			c-2.984-2.733-8.704-2.532-11.773-0.183c-4.208,3.22-3.099,9.753-1.106,13.864c2.958,6.104,9.85,9.586,15.912,11.842
			c7.818,2.91,16.254,4.026,24.522,4.731c8.169,0.697,16.37,0.805,24.554,1.225c11.168,0.572,22.323,1.341,33.496,1.834
			c48.026,2.118,96.475,1.389,144.047-6.136c10.63-1.681,21.216-3.768,31.59-6.64c7.911-2.19,15.855-4.796,22.908-9.08
			c6.002-3.646,11.883-9.292,12.522-16.669c0.612-7.07-6.167-11.215-12.538-9.042c-6.514,2.222-10.306,9.747-12.238,15.852
			c-1.98,6.257-2.965,13.302-0.969,19.675c3.445,11.004,15.488,14.997,25.807,16.353c8.918,1.172,18.045,0.716,26.953-0.322
			c0.278-0.033,0.281-0.474,0-0.44c-12.203,1.423-25.395,2.011-37.199-1.966c-5.39-1.817-10.43-4.961-13.42-9.917
			c-3.598-5.966-3.182-13.363-1.651-19.892c1.692-7.224,5.37-16.053,12.835-18.918c4.029-1.546,8.963-0.216,11.084,3.671
			c1.98,3.63,0.615,8.317-1.316,11.644c-4.313,7.432-12.882,11.658-20.584,14.652c-8.292,3.223-17.035,5.38-25.717,7.247
			c-23.576,5.068-47.736,7.491-71.77,9.101c-24.248,1.624-48.579,1.721-72.864,1.027c-21.09-0.603-42.13-2.114-63.208-2.975
			c-8.764-0.358-17.557-0.9-26.183-2.569c-7.974-1.543-16.104-4.192-22.363-9.555c-4.401-3.771-7.672-11.666-4.051-16.973
			c2.646-3.879,10.108-4.039,13.091-0.412c2.292,2.787,1.565,7.165,0.77,10.352c-1.26,5.051-3.659,9.818-6.243,14.306
			c-5.41,9.395-12.345,18.091-20.293,25.46c-3.516,3.261-7.33,6.277-11.548,8.581c-3.161,1.725-6.807,3.126-10.469,2.766
			C84.195,257.831,84.198,258.271,84.478,258.299L84.478,258.299z"/>
	</g>
</g>
</svg>
