<?xml version="1.0" encoding="utf-8"?>
<!-- Generator: Adobe Illustrator 16.0.0, SVG Export Plug-In . SVG Version: 6.00 Build 0)  -->
<!DOCTYPE svg PUBLIC "-//W3C//DTD SVG 1.1//EN" "http://www.w3.org/Graphics/SVG/1.1/DTD/svg11.dtd">
<svg version="1.1" id="Capa_1" xmlns="http://www.w3.org/2000/svg" xmlns:xlink="http://www.w3.org/1999/xlink" x="0px" y="0px"
	 width="80px" height="30px" viewBox="0 10 80 30" style="enable-background:new 0 10 80 30;" xml:space="preserve">
<style type="text/css">
<![CDATA[
	.st0{fill-rule:evenodd;clip-rule:evenodd;fill:#AEC90B;}
	.st1{fill-rule:evenodd;clip-rule:evenodd;fill:#FFD900;}
	.st2{fill-rule:evenodd;clip-rule:evenodd;fill:#FFFFFF;}
	.st3{fill-rule:evenodd;clip-rule:evenodd;fill:#009540;}
]]>
</style>
<g>
	<path d="M-67.686,85.709c0,0.766-0.055,0.846-0.615,0.91l-0.327,0.042c-0.094,0.063-0.077,0.291,0.026,0.329
		c0.589-0.025,0.991-0.038,1.408-0.038c0.406,0,0.835,0.013,1.408,0.038c0.104-0.038,0.118-0.265,0.026-0.329l-0.323-0.042
		c-0.565-0.063-0.618-0.144-0.618-0.91v-0.701c0-0.379,0.027-0.51,0.496-1.252l0.81-1.301c0.405-0.65,0.473-0.729,0.875-0.809
		l0.315-0.064c0.103-0.067,0.078-0.293-0.028-0.332c-0.365,0.028-0.64,0.037-0.926,0.037c-0.301,0-0.601-0.009-0.992-0.037
		c-0.132,0.053-0.145,0.265-0.026,0.332l0.272,0.04c0.313,0.038,0.288,0.153,0.094,0.518l-0.522,0.952
		c-0.222,0.416-0.416,0.729-0.625,1.079c-0.197-0.337-0.393-0.689-0.589-1.079l-0.483-0.924c-0.207-0.402-0.169-0.481,0.116-0.546
		l0.184-0.04c0.131-0.067,0.093-0.279-0.012-0.332c-0.419,0.028-0.719,0.037-1.113,0.037c-0.468,0-0.765-0.009-1.199-0.037
		c-0.101,0.039-0.127,0.252-0.036,0.332l0.338,0.064c0.34,0.064,0.47,0.183,0.744,0.703l0.953,1.756
		c0.326,0.6,0.368,0.704,0.368,1.109v0.494H-67.686z"/>
	<path d="M-54.112,81.484c1.435,0,2.1,1.407,2.1,2.805c0,1.783-0.954,2.465-1.943,2.465c-1.514,0-2.127-1.447-2.127-2.791
		C-56.083,82.123-55.053,81.484-54.112,81.484L-54.112,81.484z M-54.021,81.104c-1.895,0-3.224,1.333-3.224,3.067
		c0,1.645,1.199,2.962,3.224,2.962c1.838,0,3.169-1.279,3.169-3.039C-50.852,82.498-51.92,81.104-54.021,81.104L-54.021,81.104z"/>
	<path d="M-49.392,85.579v-2.764c0-0.851-0.013-1.071-0.313-1.111l-0.366-0.051c-0.103-0.013-0.131-0.288,0-0.325
		c0.716-0.053,1.448-0.08,2.166-0.08c1.215,0,2.532,0.197,2.532,1.566c0,0.832-0.652,1.21-1.161,1.396
		c-0.054,0.052-0.038,0.128,0,0.194l0.15,0.255c3.769,6.128,8.784,2.804,9.731,1.947c0.054,0.056,0.133,0.003,0.061,0.104
		c-0.856,1.179-6.146,5.058-10.92-2.059c-0.146-0.195-0.314-0.208-0.523-0.208c-0.339,0-0.363,0.024-0.363,0.208v0.925
		c0,0.896,0.05,0.962,0.611,1.039l0.298,0.041c0.094,0.065,0.083,0.291-0.022,0.329c-0.546-0.024-0.977-0.036-1.384-0.036
		c-0.418,0-0.821,0.012-1.277,0.036c-0.131-0.038-0.146-0.275-0.027-0.329l0.196-0.041C-49.444,86.499-49.392,86.475-49.392,85.579
		L-49.392,85.579z M-48.4,81.992v1.775c0,0.326,0.014,0.326,0.652,0.326c0.848,0,1.292-0.34,1.292-1.24
		c0-0.652-0.458-1.229-1.371-1.229C-48.31,81.625-48.4,81.653-48.4,81.992L-48.4,81.992z"/>
	<path d="M-40.951,81.484c1.436,0,2.101,1.407,2.101,2.805c0,1.783-0.952,2.465-1.943,2.465c-1.515,0-2.126-1.447-2.126-2.791
		C-42.92,82.123-41.89,81.484-40.951,81.484L-40.951,81.484z M-40.86,81.104c-1.891,0-3.223,1.333-3.223,3.067
		c0,1.645,1.199,2.962,3.223,2.962c1.842,0,3.171-1.279,3.171-3.039C-37.689,82.498-38.758,81.104-40.86,81.104L-40.86,81.104z"/>
	<path d="M-94.311,84.789c0,0.311,0,0.493-0.076,0.52c-0.142-0.103-0.902-0.923-1.186-1.208l-1.23-1.265
		c-0.533-0.547-1.016-1.107-1.279-1.605c-0.156,0.023-0.339,0.037-0.521,0.037c-0.275,0-0.627,0-1.122-0.037
		c-0.119,0.053-0.119,0.252-0.026,0.33l0.195,0.041c0.13,0.023,0.379,0.103,0.482,0.183c0.265,0.194,0.277,0.375,0.277,0.804v2.329
		c0,1.29-0.106,1.643-0.444,1.681l-0.393,0.04c-0.091,0.065-0.091,0.278,0.015,0.331c0.455-0.024,0.703-0.037,1.08-0.037
		c0.381,0,0.68,0.013,1.163,0.037c0.101-0.065,0.131-0.255,0.024-0.331l-0.417-0.04c-0.482-0.038-0.561-0.377-0.561-1.681v-1.716
		c0-0.403,0-0.545,0.05-0.545c0.172,0.142,0.51,0.479,1.003,0.999l1.984,2.107c0.811,0.881,1.072,1.155,1.215,1.338
		c0.118,0.026,0.236-0.04,0.272-0.12c-0.036-0.191-0.036-1.249-0.036-1.51v-2.189c0-1.289,0.103-1.643,0.441-1.68l0.39-0.041
		c0.092-0.065,0.092-0.264-0.011-0.33c-0.416,0.023-0.705,0.037-1.083,0.037c-0.378,0-0.678-0.014-1.161-0.037
		c-0.105,0.066-0.119,0.252-0.027,0.33l0.42,0.041c0.482,0.053,0.558,0.377,0.558,1.68L-94.311,84.789L-94.311,84.789z"/>
	<path d="M-88.938,81.087c-1.005,0-1.904,0.259-2.544,0.757c-0.654,0.506-1.096,1.287-1.096,2.347c0,1.044,0.535,1.839,1.239,2.322
		c0.667,0.459,1.475,0.598,2.296,0.598c0.902,0,1.382-0.207,1.762-0.274c0.156-0.232,0.365-0.832,0.431-1.405
		c-0.066-0.131-0.274-0.131-0.339-0.015c-0.143,0.341-0.656,1.317-1.882,1.317c-1.225,0-2.349-0.99-2.349-2.737
		c0-1.775,1.11-2.531,2.232-2.531c1.173,0,1.618,0.611,1.815,1.33c0.09,0.104,0.285,0.076,0.338-0.025
		c-0.077-0.522-0.117-1.163-0.117-1.438C-87.255,81.332-88.09,81.087-88.938,81.087L-88.938,81.087z"/>
	<path d="M-83.598,83.771c-0.418,0-0.47,0-0.47-0.338v-0.793c0-0.898,0.068-0.938,0.614-1.041l0.195-0.039
		c0.092-0.066,0.08-0.293-0.024-0.332c-0.458,0.025-0.859,0.039-1.278,0.039s-0.825-0.014-1.384-0.039
		c-0.103,0.039-0.119,0.266-0.026,0.332l0.299,0.039c0.562,0.078,0.616,0.143,0.616,1.041v2.915c0,0.899-0.068,0.899-0.616,1.04
		l-0.143,0.04c-0.093,0.065-0.078,0.293,0.023,0.331c0.407-0.024,0.813-0.037,1.231-0.037c0.403,0,0.833,0.013,1.433,0.037
		c0.104-0.038,0.117-0.264,0.028-0.331l-0.354-0.04c-0.561-0.064-0.614-0.142-0.614-1.04v-1.027c0-0.324,0.028-0.339,0.47-0.339
		h2.294c0.446,0,0.471,0.014,0.471,0.339v1.027c0,0.899-0.052,0.951-0.615,1.04l-0.246,0.04c-0.092,0.065-0.078,0.293,0.028,0.331
		c0.507-0.024,0.91-0.037,1.328-0.037c0.404,0,0.835,0.013,1.382,0.037c0.105-0.038,0.116-0.264,0.025-0.331l-0.299-0.04
		c-0.561-0.076-0.615-0.142-0.615-1.04v-2.915c0-0.898,0.054-0.949,0.615-1.041l0.247-0.039c0.092-0.066,0.079-0.293-0.026-0.332
		c-0.508,0.025-0.914,0.039-1.329,0.039c-0.419,0-0.821-0.014-1.328-0.039c-0.106,0.039-0.12,0.266-0.028,0.332l0.246,0.039
		c0.563,0.092,0.615,0.143,0.615,1.041v0.793c0,0.338-0.052,0.338-0.471,0.338H-83.598L-83.598,83.771z"/>
	<path d="M-75.849,84.49c-0.288,0-0.313-0.027-0.17-0.378l0.468-1.162c0.116-0.275,0.169-0.392,0.208-0.442h0.027
		c0.04,0.064,0.093,0.167,0.199,0.471l0.403,1.107c0.143,0.378,0.104,0.405-0.236,0.405L-75.849,84.49L-75.849,84.49z
		 M-74.739,84.907c0.299,0,0.337,0.014,0.444,0.312l0.312,0.847c0.154,0.401,0.168,0.479-0.168,0.531l-0.264,0.04
		c-0.116,0.053-0.103,0.293,0.027,0.332c0.327-0.026,0.706-0.038,1.175-0.038c0.443,0,0.744,0.012,1.081,0.038
		c0.129-0.026,0.154-0.266,0.042-0.332l-0.212-0.04c-0.468-0.09-0.587-0.262-0.744-0.686l-1.174-3.117
		c-0.3-0.796-0.508-1.474-0.56-1.606c-0.026-0.076-0.098-0.181-0.235-0.181c-0.119,0-0.185,0.061-0.231,0.177
		c-0.034,0.082-0.407,0.997-0.63,1.531l-1.255,2.997c-0.257,0.623-0.402,0.768-0.805,0.857l-0.301,0.065
		c-0.09,0.066-0.09,0.279,0.027,0.333c0.232-0.016,0.546-0.038,0.912-0.038c0.368,0,0.705,0.013,1.032,0.038
		c0.131-0.025,0.142-0.265,0.04-0.333l-0.354-0.065c-0.248-0.05-0.288-0.103-0.144-0.52l0.302-0.832
		c0.104-0.299,0.144-0.312,0.443-0.312L-74.739,84.907L-74.739,84.907z"/>
	<path d="M-103.376,81.465c1.438,0,2.104,1.406,2.104,2.805c0,1.788-0.954,2.464-1.946,2.464c-1.514,0-2.126-1.447-2.126-2.792
		C-105.343,82.104-104.314,81.465-103.376,81.465L-103.376,81.465z M-103.283,81.086c-1.892,0-3.221,1.329-3.221,3.064
		c0,1.643,1.199,2.96,3.221,2.96c1.84,0,3.169-1.277,3.169-3.036C-100.114,82.482-101.183,81.086-103.283,81.086L-103.283,81.086z"
		/>
	<path d="M-114.564,83.498c0,1.628,0.759,2.775,1.744,3.47c0.898,0.62,1.953,0.85,3.058,0.85c0.787,0,1.675-0.193,1.944-0.296
		c0.135-0.049,0.281-0.1,0.429-0.125c0.184-0.238,0.505-1.072,0.589-1.728c-0.051-0.088-0.234-0.114-0.32-0.05
		c-0.281,0.743-0.983,1.804-2.567,1.804c-2.018,0-3.651-1.463-3.651-4.114c0-2.613,1.6-3.838,3.478-3.838
		c1.784,0,2.335,0.985,2.521,1.844c0.087,0.078,0.271,0.064,0.333-0.025c-0.102-0.771-0.16-1.565-0.174-1.854
		c-0.11,0.012-0.195-0.014-0.345-0.051c-0.578-0.164-1.512-0.303-2.177-0.303c-1.276,0-2.417,0.352-3.316,1.072
		C-113.953,80.898-114.564,82.098-114.564,83.498L-114.564,83.498z"/>
	<path d="M-58.374,79.145h1.168c0.554,0,0.928-0.002,1.063-0.359c0.044-0.029,0.237,0.023,0.27,0.055
		c-0.002,0.48,0.059,1.352,0.154,1.91c-0.065,0.086-0.284,0.1-0.366,0.014c-0.076-0.315-0.154-0.645-0.392-0.951
		c-0.24-0.316-0.817-0.293-1.323-0.301h-0.653c-0.286,0-0.34,0.01-0.351,0.197v1.706l0.006,3.759c0,1.241,0.02,1.407,0.708,1.478
		l0.381,0.035c0.069,0.049,0.046,0.266-0.024,0.302c-0.675-0.023-1.076-0.034-1.551-0.034c-0.473,0-0.887,0.011-1.646,0.034
		c-0.068-0.036-0.093-0.237,0-0.302l0.427-0.035c0.678-0.059,0.737-0.234,0.737-1.478v-5.285c0-0.367,0-0.377-0.355-0.377h-0.652
		c-0.513,0.006-1.101-0.02-1.346,0.299c-0.234,0.309-0.313,0.637-0.39,0.951c-0.082,0.087-0.301,0.072-0.363-0.012
		c0.093-0.559,0.154-1.43,0.154-1.911c0.03-0.03,0.227-0.084,0.265-0.055c0.136,0.36,0.518,0.36,1.064,0.36h1.165H-58.374
		L-58.374,79.145z"/>
</g>
<g>
	<path class="st3" d="M39.974,28.43L39.974,28.43L39.974,28.43L39.974,28.43L39.974,28.43L39.974,28.43L39.974,28.43L39.974,28.43
		L39.974,28.43L39.974,28.43L39.974,28.43L39.974,28.43L39.974,28.43L39.974,28.43L39.974,28.43L39.974,28.43L39.974,28.43
		L39.974,28.43L39.974,28.43L39.974,28.43L39.974,28.43L39.974,28.43L39.974,28.43L39.974,28.43L39.974,28.43L39.974,28.43
		L39.974,28.43L39.974,28.43L39.974,28.43L39.974,28.43L39.974,28.43L39.974,28.43L39.974,28.43L39.974,28.43L39.974,28.43
		L39.974,28.43L39.974,28.43L39.974,28.43C39.974,28.43,39.974,28.43,39.974,28.43S39.974,28.43,39.974,28.43L39.974,28.43
		C39.974,28.43,39.974,28.43,39.974,28.43S39.974,28.43,39.974,28.43L39.974,28.43L39.974,28.43L39.974,28.43L39.974,28.43
		L39.974,28.43L39.974,28.43L39.974,28.43L39.974,28.43L39.974,28.43L39.974,28.43L39.974,28.43z M35.674,20.983
		c0.06-1.159,0.284-2.209,0.513-2.955c0.656,0.424,1.502,1.084,2.293,1.934c0.453-1.069,1.022-1.979,1.493-2.603
		c0.471,0.624,1.04,1.534,1.493,2.603c0.791-0.85,1.639-1.51,2.294-1.934c0.229,0.746,0.453,1.796,0.512,2.955
		c1.035-0.527,2.055-0.858,2.815-1.033c-0.038,0.78-0.188,1.844-0.525,2.953c1.148-0.142,2.223-0.104,2.998-0.008
		c-0.304,0.72-0.808,1.667-1.508,2.595c1.131,0.259,2.129,0.663,2.822,1.018c-0.53,0.571-1.329,1.291-2.302,1.922
		c0.973,0.632,1.771,1.352,2.302,1.923c-0.693,0.356-1.691,0.758-2.822,1.019c0.7,0.928,1.204,1.875,1.508,2.595
		c-0.775,0.096-1.85,0.133-2.998-0.009c0.338,1.111,0.487,2.173,0.525,2.953c-0.761-0.176-1.78-0.505-2.815-1.033
		c-0.059,1.159-0.283,2.21-0.512,2.955c-0.655-0.425-1.503-1.084-2.294-1.934c-0.453,1.068-1.022,1.979-1.493,2.602
		c-0.471-0.623-1.04-1.533-1.493-2.602c-0.792,0.85-1.637,1.509-2.293,1.934c-0.229-0.745-0.453-1.796-0.513-2.955
		c-1.034,0.528-2.055,0.858-2.815,1.033c0.039-0.779,0.188-1.842,0.528-2.953c-1.151,0.142-2.225,0.104-3,0.009
		c0.304-0.72,0.808-1.667,1.507-2.595c-1.131-0.261-2.127-0.662-2.822-1.019c0.532-0.571,1.33-1.291,2.303-1.923
		c-0.974-0.631-1.771-1.351-2.303-1.922c0.695-0.354,1.691-0.758,2.822-1.018c-0.699-0.927-1.203-1.875-1.507-2.595
		c0.775-0.096,1.848-0.134,3,0.008c-0.34-1.109-0.489-2.173-0.528-2.953C33.619,20.125,34.641,20.456,35.674,20.983L35.674,20.983z
		 M39.974,28.43L39.974,28.43L39.974,28.43L39.974,28.43z"/>
	<path class="st0" d="M39.974,28.43L39.974,28.43L39.974,28.43L39.974,28.43L39.974,28.43L39.974,28.43L39.974,28.43L39.974,28.43
		L39.974,28.43L39.974,28.43L39.974,28.43C39.974,28.43,39.974,28.43,39.974,28.43S39.974,28.43,39.974,28.43
		C39.974,28.431,39.974,28.431,39.974,28.43L39.974,28.43L39.974,28.43L39.974,28.43L39.974,28.43L39.974,28.43L39.974,28.43
		L39.974,28.43L39.974,28.43L39.974,28.43L39.974,28.43L39.974,28.43L39.974,28.43L39.974,28.43L39.974,28.43L39.974,28.43
		L39.974,28.43L39.974,28.43L39.974,28.43L39.974,28.43L39.974,28.43L39.974,28.43L39.974,28.43L39.974,28.43L39.974,28.43z
		 M33.646,29.545c-0.823-0.275-1.59-0.673-2.271-1.115c0.681-0.441,1.447-0.838,2.271-1.114c-0.679-0.541-1.263-1.18-1.751-1.825
		c0.79-0.183,1.647-0.295,2.515-0.273c-0.453-0.74-0.784-1.538-1.022-2.314c0.805,0.099,1.648,0.287,2.457,0.605
		c-0.173-0.852-0.21-1.714-0.169-2.525c0.723,0.369,1.451,0.834,2.102,1.409c0.129-0.858,0.388-1.683,0.705-2.429
		c0.553,0.593,1.078,1.279,1.493,2.042c0.415-0.762,0.94-1.449,1.493-2.042c0.317,0.747,0.576,1.571,0.706,2.429
		c0.649-0.574,1.377-1.04,2.1-1.409c0.042,0.811,0.004,1.673-0.17,2.525c0.809-0.318,1.654-0.506,2.46-0.605
		c-0.239,0.776-0.57,1.574-1.023,2.314c0.867-0.021,1.726,0.091,2.514,0.273c-0.487,0.646-1.071,1.284-1.749,1.825
		c0.821,0.276,1.59,0.673,2.27,1.114c-0.68,0.442-1.448,0.84-2.27,1.115c0.678,0.543,1.262,1.179,1.749,1.826
		c-0.788,0.182-1.646,0.294-2.514,0.272c0.453,0.74,0.784,1.538,1.023,2.313c-0.806-0.1-1.651-0.286-2.46-0.604
		c0.174,0.851,0.212,1.714,0.17,2.524c-0.723-0.369-1.45-0.833-2.1-1.409c-0.13,0.86-0.389,1.684-0.706,2.431
		c-0.553-0.594-1.078-1.28-1.493-2.042c-0.415,0.762-0.94,1.448-1.493,2.042c-0.317-0.747-0.576-1.57-0.705-2.431
		c-0.65,0.576-1.378,1.04-2.102,1.409c-0.042-0.811-0.004-1.674,0.169-2.524c-0.808,0.318-1.651,0.505-2.457,0.604
		c0.238-0.775,0.569-1.573,1.022-2.313c-0.867,0.021-1.725-0.091-2.515-0.272C32.382,30.724,32.966,30.088,33.646,29.545
		L33.646,29.545z"/>
	<path class="st1" d="M39.974,28.43L39.974,28.43L39.974,28.43L39.974,28.43L39.974,28.43z M39.974,28.431L39.974,28.431
		L39.974,28.431L39.974,28.431L39.974,28.431L39.974,28.431L39.974,28.431L39.974,28.431C39.974,28.431,39.974,28.431,39.974,28.431
		C39.974,28.43,39.974,28.43,39.974,28.431C39.974,28.43,39.974,28.43,39.974,28.431L39.974,28.431L39.974,28.431z M39.974,28.43
		L39.974,28.43L39.974,28.43L39.974,28.43L39.974,28.43L39.974,28.43C39.974,28.43,39.974,28.43,39.974,28.43L39.974,28.43
		L39.974,28.43L39.974,28.43L39.974,28.43L39.974,28.43L39.974,28.43L39.974,28.43L39.974,28.43
		C39.974,28.43,39.974,28.43,39.974,28.43L39.974,28.43C39.974,28.43,39.974,28.43,39.974,28.43L39.974,28.43L39.974,28.43
		L39.974,28.43z M39.974,28.431L39.974,28.431L39.974,28.431L39.974,28.431z M39.21,24.098c0.14-0.746,0.412-1.447,0.763-2.093
		c0.352,0.646,0.623,1.347,0.765,2.093c0.387-0.653,0.882-1.218,1.435-1.706c0.107,0.728,0.123,1.479,0,2.228
		c0.589-0.481,1.248-0.843,1.93-1.112c-0.144,0.721-0.387,1.432-0.759,2.094c0.716-0.25,1.461-0.365,2.195-0.385
		c-0.383,0.628-0.856,1.213-1.431,1.708c0.759,0.009,1.495,0.155,2.193,0.391c-0.575,0.457-1.218,0.848-1.929,1.114
		c0.711,0.27,1.354,0.657,1.931,1.115c-0.7,0.234-1.437,0.38-2.195,0.39c0.574,0.496,1.048,1.08,1.431,1.709
		c-0.734-0.02-1.479-0.135-2.195-0.386c0.372,0.661,0.615,1.373,0.759,2.094c-0.682-0.269-1.341-0.63-1.928-1.111
		c0.121,0.749,0.105,1.501-0.002,2.227c-0.553-0.485-1.046-1.051-1.435-1.704c-0.142,0.745-0.413,1.447-0.765,2.094
		c-0.352-0.646-0.623-1.349-0.763-2.094c-0.388,0.653-0.883,1.219-1.435,1.704c-0.109-0.726-0.125-1.478-0.001-2.227
		c-0.588,0.481-1.247,0.843-1.931,1.112c0.146-0.72,0.389-1.434,0.761-2.095c-0.716,0.251-1.459,0.366-2.195,0.386
		c0.384-0.629,0.854-1.213,1.431-1.709c-0.76-0.01-1.497-0.155-2.195-0.39c0.576-0.458,1.218-0.846,1.93-1.115
		c-0.711-0.267-1.354-0.657-1.93-1.114c0.698-0.235,1.435-0.382,2.195-0.391c-0.577-0.495-1.047-1.08-1.431-1.708
		c0.735,0.02,1.479,0.134,2.195,0.385c-0.372-0.662-0.614-1.373-0.761-2.093c0.685,0.269,1.343,0.631,1.931,1.112
		c-0.123-0.75-0.107-1.5,0.001-2.228C38.327,22.879,38.822,23.445,39.21,24.098L39.21,24.098z M39.974,28.43L39.974,28.43
		L39.974,28.43z"/>
	<path class="st2" d="M39.201,26.306c-0.14-0.771-0.123-1.508,0.009-2.208c0.362,0.612,0.63,1.3,0.763,2.071
		c0.133-0.771,0.401-1.459,0.765-2.071c0.132,0.7,0.147,1.438,0.008,2.208c0.389-0.68,0.876-1.234,1.427-1.685
		c-0.113,0.702-0.353,1.401-0.747,2.077c0.597-0.506,1.246-0.86,1.918-1.096c-0.348,0.62-0.812,1.197-1.414,1.698
		c0.734-0.271,1.465-0.383,2.179-0.376c-0.542,0.464-1.171,0.849-1.909,1.112c0.782-0.003,1.507,0.142,2.172,0.393
		c-0.665,0.251-1.39,0.396-2.172,0.393c0.738,0.264,1.367,0.648,1.909,1.112c-0.714,0.007-1.444-0.103-2.179-0.375
		c0.603,0.502,1.066,1.077,1.414,1.698c-0.672-0.235-1.321-0.591-1.918-1.097c0.395,0.676,0.634,1.376,0.747,2.078
		c-0.551-0.45-1.038-1.006-1.427-1.686c0.14,0.77,0.124,1.508-0.008,2.208c-0.364-0.612-0.632-1.3-0.765-2.072
		c-0.133,0.772-0.401,1.46-0.763,2.072c-0.132-0.7-0.149-1.438-0.01-2.208c-0.388,0.68-0.875,1.235-1.426,1.686
		c0.115-0.702,0.353-1.402,0.747-2.078c-0.598,0.506-1.246,0.861-1.917,1.097c0.348-0.621,0.811-1.196,1.412-1.698
		c-0.734,0.272-1.465,0.382-2.176,0.375c0.539-0.464,1.17-0.849,1.908-1.112c-0.782,0.004-1.507-0.142-2.173-0.393
		c0.666-0.251,1.391-0.396,2.173-0.393c-0.737-0.265-1.369-0.648-1.908-1.112c0.711-0.007,1.442,0.104,2.176,0.376
		c-0.602-0.501-1.064-1.078-1.412-1.698c0.672,0.235,1.319,0.59,1.917,1.096c-0.395-0.676-0.632-1.375-0.747-2.077
		C38.325,25.071,38.813,25.626,39.201,26.306L39.201,26.306z"/>
	<path class="st3" d="M42.911,10.5v5.405h0.805v-0.519c0.33,0.443,0.698,0.647,1.232,0.647c0.993,0,1.701-0.806,1.701-2.091
		c0-1.322-0.723-2.127-1.693-2.127c-0.534,0-0.946,0.226-1.231,0.654V10.5H42.911L42.911,10.5z M44.76,12.552
		c0.642,0,1.038,0.497,1.038,1.399c0,0.856-0.396,1.346-1.038,1.346c-0.667,0-1.052-0.474-1.052-1.369
		C43.708,13.018,44.07,12.552,44.76,12.552L44.76,12.552z"/>
	<path class="st3" d="M49.042,12.552c0.632,0,1.036,0.497,1.036,1.354c0,0.902-0.396,1.391-1.036,1.391
		c-0.686,0-1.054-0.459-1.054-1.346C47.988,13.025,48.364,12.552,49.042,12.552L49.042,12.552z M48.005,15.416
		c0.276,0.406,0.697,0.618,1.231,0.618c0.971,0,1.691-0.806,1.691-2.128c0-1.285-0.706-2.09-1.699-2.09
		c-0.54,0-0.908,0.21-1.232,0.684v-0.557h-0.805v5.542h0.813V15.416L48.005,15.416z"/>
</g>
</svg>
