<?xml version="1.0" encoding="utf-8"?>
<!-- Generator: Adobe Illustrator 16.0.0, SVG Export Plug-In . SVG Version: 6.00 Build 0)  -->
<!DOCTYPE svg PUBLIC "-//W3C//DTD SVG 1.1//EN" "http://www.w3.org/Graphics/SVG/1.1/DTD/svg11.dtd">
<svg version="1.1" id="Capa_1" xmlns="http://www.w3.org/2000/svg" xmlns:xlink="http://www.w3.org/1999/xlink" x="0px" y="0px"
	 width="80px" height="30px" viewBox="0 10 80 30" style="enable-background:new 0 10 80 30;" xml:space="preserve">
<g>
	<path d="M47.878,26.907c0,0.766-0.055,0.846-0.615,0.91l-0.327,0.042c-0.094,0.063-0.077,0.291,0.026,0.329
		c0.589-0.025,0.991-0.038,1.408-0.038c0.406,0,0.835,0.013,1.408,0.038c0.104-0.038,0.118-0.265,0.026-0.329l-0.323-0.042
		c-0.565-0.063-0.618-0.144-0.618-0.91v-0.701c0-0.379,0.027-0.51,0.496-1.252l0.81-1.3c0.405-0.65,0.473-0.729,0.875-0.809
		l0.315-0.064c0.103-0.068,0.078-0.293-0.028-0.332c-0.365,0.028-0.64,0.037-0.926,0.037c-0.301,0-0.601-0.009-0.992-0.037
		c-0.132,0.053-0.145,0.264-0.026,0.332l0.272,0.04c0.313,0.038,0.288,0.154,0.094,0.518l-0.522,0.953
		c-0.222,0.416-0.416,0.729-0.625,1.079c-0.197-0.337-0.393-0.689-0.589-1.079l-0.483-0.924c-0.207-0.403-0.169-0.482,0.116-0.546
		l0.184-0.04c0.131-0.068,0.093-0.279-0.012-0.332c-0.419,0.028-0.719,0.037-1.113,0.037c-0.468,0-0.765-0.009-1.199-0.037
		c-0.101,0.039-0.127,0.252-0.036,0.332l0.338,0.064c0.34,0.064,0.47,0.183,0.744,0.703l0.953,1.756
		c0.326,0.6,0.368,0.704,0.368,1.109v0.494H47.878z"/>
	<path d="M61.451,22.682c1.435,0,2.1,1.408,2.1,2.805c0,1.783-0.954,2.465-1.943,2.465c-1.514,0-2.127-1.447-2.127-2.791
		C59.48,23.321,60.511,22.682,61.451,22.682L61.451,22.682z M61.543,22.302c-1.895,0-3.224,1.333-3.224,3.067
		c0,1.645,1.199,2.962,3.224,2.962c1.838,0,3.169-1.279,3.169-3.039C64.712,23.697,63.644,22.302,61.543,22.302L61.543,22.302z"/>
	<path d="M66.172,26.777v-2.764c0-0.851-0.013-1.071-0.313-1.111l-0.366-0.051c-0.103-0.013-0.131-0.289,0-0.326
		c0.716-0.052,1.448-0.079,2.166-0.079c1.215,0,2.532,0.196,2.532,1.566c0,0.833-0.652,1.21-1.161,1.396
		c-0.054,0.052-0.038,0.128,0,0.194l0.15,0.255c3.769,6.128,8.784,2.804,9.731,1.947c0.054,0.056,0.133,0.003,0.061,0.104
		c-0.856,1.179-6.146,5.058-10.92-2.059c-0.146-0.195-0.314-0.208-0.523-0.208c-0.339,0-0.363,0.024-0.363,0.208v0.925
		c0,0.896,0.05,0.962,0.611,1.039l0.298,0.041c0.094,0.065,0.083,0.291-0.022,0.329c-0.546-0.024-0.977-0.036-1.384-0.036
		c-0.418,0-0.821,0.012-1.277,0.036c-0.131-0.038-0.146-0.275-0.027-0.329l0.196-0.041C66.119,27.697,66.172,27.673,66.172,26.777
		L66.172,26.777z M67.163,23.191v1.775c0,0.326,0.014,0.326,0.652,0.326c0.848,0,1.292-0.339,1.292-1.24
		c0-0.652-0.458-1.229-1.371-1.229C67.254,22.823,67.163,22.852,67.163,23.191L67.163,23.191z"/>
	<path d="M74.612,22.682c1.436,0,2.101,1.408,2.101,2.805c0,1.783-0.952,2.465-1.943,2.465c-1.515,0-2.126-1.447-2.126-2.791
		C72.644,23.321,73.674,22.682,74.612,22.682L74.612,22.682z M74.703,22.302c-1.891,0-3.223,1.333-3.223,3.067
		c0,1.645,1.199,2.962,3.223,2.962c1.842,0,3.171-1.279,3.171-3.039C77.874,23.697,76.806,22.302,74.703,22.302L74.703,22.302z"/>
	<path d="M21.253,25.987c0,0.311,0,0.493-0.076,0.52c-0.142-0.103-0.902-0.923-1.186-1.208l-1.23-1.265
		c-0.533-0.547-1.016-1.107-1.279-1.606c-0.156,0.024-0.339,0.038-0.521,0.038c-0.275,0-0.627,0-1.122-0.038
		c-0.119,0.054-0.119,0.252-0.026,0.331l0.195,0.04c0.13,0.024,0.379,0.103,0.482,0.183c0.265,0.194,0.277,0.375,0.277,0.804v2.329
		c0,1.29-0.106,1.643-0.444,1.681l-0.393,0.04c-0.091,0.065-0.091,0.278,0.015,0.331c0.455-0.024,0.703-0.037,1.08-0.037
		c0.381,0,0.68,0.013,1.163,0.037c0.101-0.065,0.131-0.255,0.024-0.331l-0.417-0.04c-0.482-0.038-0.561-0.377-0.561-1.681V24.4
		c0-0.404,0-0.546,0.05-0.546c0.172,0.142,0.51,0.479,1.003,1l1.984,2.107c0.811,0.881,1.072,1.155,1.215,1.338
		c0.118,0.026,0.236-0.04,0.272-0.12c-0.036-0.191-0.036-1.249-0.036-1.51v-2.189c0-1.29,0.103-1.642,0.441-1.68l0.39-0.04
		c0.092-0.066,0.092-0.264-0.011-0.331c-0.416,0.024-0.705,0.038-1.083,0.038c-0.378,0-0.678-0.014-1.161-0.038
		c-0.105,0.067-0.119,0.252-0.027,0.331l0.42,0.04c0.482,0.053,0.558,0.377,0.558,1.68L21.253,25.987L21.253,25.987z"/>
	<path d="M26.625,22.285c-1.005,0-1.904,0.259-2.544,0.757c-0.654,0.505-1.096,1.288-1.096,2.347c0,1.044,0.535,1.839,1.239,2.322
		c0.667,0.459,1.475,0.598,2.296,0.598c0.902,0,1.382-0.207,1.762-0.274c0.156-0.232,0.365-0.832,0.431-1.405
		c-0.066-0.131-0.274-0.131-0.339-0.015c-0.143,0.341-0.656,1.317-1.882,1.317c-1.225,0-2.349-0.99-2.349-2.738
		c0-1.775,1.11-2.531,2.232-2.531c1.173,0,1.618,0.611,1.815,1.331c0.09,0.104,0.285,0.076,0.338-0.025
		c-0.077-0.522-0.117-1.163-0.117-1.437C28.308,22.53,27.473,22.285,26.625,22.285L26.625,22.285z"/>
	<path d="M31.965,24.97c-0.418,0-0.47,0-0.47-0.338v-0.793c0-0.898,0.068-0.937,0.614-1.04l0.195-0.04
		c0.092-0.066,0.08-0.293-0.024-0.331c-0.458,0.024-0.859,0.038-1.278,0.038s-0.825-0.014-1.384-0.038
		c-0.103,0.038-0.119,0.265-0.026,0.331l0.299,0.04c0.562,0.078,0.616,0.142,0.616,1.04v2.916c0,0.899-0.068,0.899-0.616,1.04
		l-0.143,0.04c-0.093,0.065-0.078,0.293,0.023,0.331c0.407-0.024,0.813-0.037,1.231-0.037c0.403,0,0.833,0.013,1.433,0.037
		c0.104-0.038,0.117-0.264,0.028-0.331l-0.354-0.04c-0.561-0.064-0.614-0.142-0.614-1.04v-1.027c0-0.324,0.028-0.339,0.47-0.339
		h2.294c0.446,0,0.471,0.014,0.471,0.339v1.027c0,0.899-0.052,0.951-0.615,1.04l-0.246,0.04c-0.092,0.065-0.078,0.293,0.028,0.331
		c0.507-0.024,0.91-0.037,1.328-0.037c0.404,0,0.835,0.013,1.382,0.037c0.105-0.038,0.116-0.264,0.025-0.331l-0.299-0.04
		c-0.561-0.076-0.615-0.142-0.615-1.04v-2.916c0-0.898,0.054-0.949,0.615-1.04l0.247-0.04c0.092-0.066,0.079-0.293-0.026-0.331
		c-0.508,0.024-0.914,0.038-1.329,0.038c-0.419,0-0.821-0.014-1.328-0.038c-0.106,0.038-0.12,0.265-0.028,0.331l0.246,0.04
		c0.563,0.091,0.615,0.142,0.615,1.04v0.793c0,0.338-0.052,0.338-0.471,0.338H31.965L31.965,24.97z"/>
	<path d="M39.715,25.688c-0.288,0-0.313-0.027-0.17-0.378l0.468-1.162c0.116-0.275,0.169-0.392,0.208-0.443h0.027
		c0.04,0.065,0.093,0.167,0.199,0.471l0.403,1.108c0.143,0.378,0.104,0.405-0.236,0.405L39.715,25.688L39.715,25.688z
		 M40.824,26.105c0.299,0,0.337,0.014,0.444,0.312l0.312,0.847c0.154,0.401,0.168,0.479-0.168,0.531l-0.264,0.04
		c-0.116,0.053-0.103,0.293,0.027,0.332c0.327-0.026,0.706-0.038,1.175-0.038c0.443,0,0.744,0.012,1.081,0.038
		c0.129-0.026,0.154-0.266,0.042-0.332l-0.212-0.04c-0.468-0.09-0.587-0.262-0.744-0.686l-1.174-3.117
		c-0.3-0.795-0.508-1.474-0.56-1.607c-0.026-0.076-0.098-0.18-0.235-0.18c-0.119,0-0.185,0.061-0.231,0.177
		c-0.034,0.082-0.407,0.997-0.63,1.531l-1.255,2.997c-0.257,0.623-0.402,0.768-0.805,0.857l-0.301,0.065
		c-0.09,0.066-0.09,0.279,0.027,0.333c0.232-0.016,0.546-0.038,0.912-0.038c0.368,0,0.705,0.013,1.032,0.038
		c0.131-0.025,0.142-0.265,0.04-0.333l-0.354-0.065c-0.248-0.05-0.288-0.103-0.144-0.52l0.302-0.832
		c0.104-0.299,0.144-0.312,0.443-0.312L40.824,26.105L40.824,26.105z"/>
	<path d="M12.188,22.663c1.438,0,2.104,1.407,2.104,2.806c0,1.788-0.954,2.463-1.946,2.463c-1.514,0-2.126-1.447-2.126-2.792
		C10.22,23.302,11.25,22.663,12.188,22.663L12.188,22.663z M12.281,22.284c-1.892,0-3.221,1.329-3.221,3.064
		c0,1.643,1.199,2.96,3.221,2.96c1.84,0,3.169-1.277,3.169-3.036C15.45,23.68,14.38,22.284,12.281,22.284L12.281,22.284z"/>
	<path d="M1,24.696c0,1.628,0.759,2.775,1.744,3.47c0.898,0.62,1.953,0.85,3.058,0.85c0.787,0,1.675-0.193,1.944-0.296
		c0.135-0.049,0.281-0.1,0.429-0.125c0.184-0.238,0.505-1.072,0.589-1.728c-0.051-0.088-0.234-0.114-0.32-0.05
		c-0.281,0.743-0.983,1.804-2.567,1.804c-2.018,0-3.651-1.463-3.651-4.114c0-2.613,1.6-3.838,3.478-3.838
		c1.784,0,2.335,0.985,2.521,1.843c0.087,0.078,0.271,0.064,0.333-0.026c-0.102-0.771-0.16-1.565-0.174-1.854
		c-0.11,0.012-0.195-0.014-0.345-0.05C7.459,20.419,6.525,20.28,5.86,20.28c-1.276,0-2.417,0.353-3.316,1.072
		C1.611,22.096,1,23.296,1,24.696L1,24.696z"/>
	<path d="M57.189,20.343h1.168c0.554,0,0.928-0.002,1.063-0.36c0.044-0.029,0.237,0.024,0.27,0.055
		c-0.002,0.481,0.059,1.352,0.154,1.911c-0.065,0.085-0.284,0.1-0.366,0.013c-0.076-0.315-0.154-0.644-0.392-0.951
		c-0.24-0.315-0.817-0.292-1.323-0.3H57.11c-0.286,0-0.34,0.01-0.351,0.197v1.706l0.006,3.759c0,1.241,0.02,1.407,0.708,1.478
		l0.381,0.035c0.069,0.049,0.046,0.266-0.024,0.302c-0.675-0.023-1.076-0.034-1.551-0.034c-0.473,0-0.887,0.011-1.646,0.034
		c-0.068-0.036-0.093-0.237,0-0.302l0.427-0.035c0.678-0.059,0.737-0.234,0.737-1.478v-5.285c0-0.367,0-0.377-0.355-0.377h-0.652
		c-0.513,0.007-1.101-0.02-1.346,0.3c-0.234,0.308-0.313,0.636-0.39,0.951c-0.082,0.086-0.301,0.072-0.363-0.013
		c0.093-0.559,0.154-1.43,0.154-1.911c0.03-0.031,0.227-0.084,0.265-0.055c0.136,0.36,0.518,0.36,1.064,0.36h1.165L57.189,20.343
		L57.189,20.343z"/>
</g>
</svg>
