<?xml version="1.0" encoding="utf-8"?>
<!-- Generator: Adobe Illustrator 16.0.0, SVG Export Plug-In . SVG Version: 6.00 Build 0)  -->
<!DOCTYPE svg PUBLIC "-//W3C//DTD SVG 1.1//EN" "http://www.w3.org/Graphics/SVG/1.1/DTD/svg11.dtd">
<svg version="1.1" id="Capa_1" xmlns="http://www.w3.org/2000/svg" xmlns:xlink="http://www.w3.org/1999/xlink" x="0px" y="0px"
	 width="80px" height="30px" viewBox="0 10 80 30" style="enable-background:new 0 10 80 30;" xml:space="preserve">
<style type="text/css">
<![CDATA[
	.st0{clip-path:url(#SVGID_2_);fill:url(#SVGID_3_);}
	.st1{fill-rule:evenodd;clip-rule:evenodd;fill:#AEC90B;}
	.st2{fill-rule:evenodd;clip-rule:evenodd;fill:#1D1D1B;}
	.st3{fill:#C4004B;}
	.st4{fill:none;}
	.st5{fill-rule:evenodd;clip-rule:evenodd;fill:#FFD900;}
	.st6{fill-rule:evenodd;clip-rule:evenodd;fill:#FFFFFF;}
	.st7{fill-rule:evenodd;clip-rule:evenodd;fill:#001F82;}
	.st8{fill-rule:evenodd;clip-rule:evenodd;fill:#0072BA;}
	.st9{fill-rule:evenodd;clip-rule:evenodd;fill:#009540;}
]]>
</style>
<g>
	<path d="M133.854,75.337c0,0.766-0.055,0.846-0.615,0.91l-0.327,0.042c-0.094,0.063-0.077,0.291,0.026,0.329
		c0.589-0.025,0.991-0.038,1.408-0.038c0.406,0,0.835,0.013,1.408,0.038c0.104-0.038,0.118-0.265,0.026-0.329l-0.323-0.042
		c-0.565-0.063-0.618-0.144-0.618-0.91v-0.701c0-0.379,0.027-0.51,0.496-1.252l0.81-1.301c0.405-0.65,0.473-0.729,0.875-0.809
		l0.315-0.064c0.103-0.067,0.078-0.293-0.028-0.332c-0.365,0.028-0.64,0.037-0.926,0.037c-0.301,0-0.601-0.009-0.992-0.037
		c-0.132,0.053-0.145,0.265-0.026,0.332l0.272,0.04c0.313,0.038,0.288,0.153,0.094,0.518l-0.522,0.952
		c-0.222,0.416-0.416,0.729-0.625,1.079c-0.197-0.337-0.393-0.689-0.589-1.079l-0.483-0.924c-0.207-0.402-0.169-0.481,0.116-0.546
		l0.184-0.04c0.131-0.067,0.093-0.279-0.012-0.332c-0.419,0.028-0.719,0.037-1.113,0.037c-0.468,0-0.765-0.009-1.199-0.037
		c-0.101,0.039-0.127,0.252-0.036,0.332l0.338,0.064c0.34,0.064,0.47,0.183,0.744,0.703l0.953,1.756
		c0.326,0.6,0.368,0.704,0.368,1.109v0.494H133.854z"/>
	<path d="M147.427,71.112c1.435,0,2.1,1.407,2.1,2.805c0,1.783-0.954,2.465-1.943,2.465c-1.514,0-2.127-1.447-2.127-2.791
		C145.456,71.751,146.486,71.112,147.427,71.112L147.427,71.112z M147.519,70.731c-1.895,0-3.224,1.333-3.224,3.067
		c0,1.645,1.199,2.962,3.224,2.962c1.838,0,3.169-1.279,3.169-3.039C150.688,72.126,149.619,70.731,147.519,70.731L147.519,70.731z"
		/>
	<path d="M152.147,75.207v-2.764c0-0.851-0.013-1.071-0.313-1.111l-0.366-0.051c-0.103-0.013-0.131-0.288,0-0.325
		c0.716-0.053,1.448-0.08,2.166-0.08c1.215,0,2.532,0.197,2.532,1.566c0,0.832-0.652,1.21-1.161,1.396
		c-0.054,0.052-0.038,0.128,0,0.194l0.15,0.255c3.769,6.128,8.784,2.804,9.731,1.947c0.054,0.056,0.133,0.003,0.061,0.104
		c-0.856,1.179-6.146,5.058-10.92-2.059c-0.146-0.195-0.314-0.208-0.523-0.208c-0.339,0-0.363,0.024-0.363,0.208v0.925
		c0,0.896,0.05,0.962,0.611,1.039l0.298,0.041c0.094,0.065,0.083,0.291-0.022,0.329c-0.546-0.024-0.977-0.036-1.384-0.036
		c-0.418,0-0.821,0.012-1.277,0.036c-0.131-0.038-0.146-0.275-0.027-0.329l0.196-0.041
		C152.095,76.127,152.147,76.103,152.147,75.207L152.147,75.207z M153.139,71.62v1.775c0,0.326,0.014,0.326,0.652,0.326
		c0.848,0,1.292-0.34,1.292-1.24c0-0.652-0.458-1.229-1.371-1.229C153.229,71.253,153.139,71.281,153.139,71.62L153.139,71.62z"/>
	<path d="M160.588,71.112c1.436,0,2.101,1.407,2.101,2.805c0,1.783-0.952,2.465-1.943,2.465c-1.515,0-2.126-1.447-2.126-2.791
		C158.619,71.751,159.649,71.112,160.588,71.112L160.588,71.112z M160.679,70.731c-1.891,0-3.223,1.333-3.223,3.067
		c0,1.645,1.199,2.962,3.223,2.962c1.842,0,3.171-1.279,3.171-3.039C163.85,72.126,162.781,70.731,160.679,70.731L160.679,70.731z"
		/>
	<path d="M107.229,74.417c0,0.311,0,0.493-0.076,0.52c-0.143-0.103-0.902-0.923-1.186-1.208l-1.23-1.265
		c-0.533-0.547-1.016-1.107-1.278-1.605c-0.156,0.023-0.339,0.037-0.521,0.037c-0.275,0-0.628,0-1.122-0.037
		c-0.119,0.053-0.119,0.252-0.026,0.33l0.195,0.041c0.131,0.023,0.379,0.103,0.482,0.183c0.265,0.194,0.277,0.375,0.277,0.804v2.329
		c0,1.29-0.107,1.643-0.445,1.681l-0.393,0.04c-0.091,0.065-0.091,0.278,0.016,0.331c0.455-0.024,0.703-0.037,1.08-0.037
		c0.381,0,0.68,0.013,1.162,0.037c0.102-0.065,0.132-0.255,0.025-0.331l-0.418-0.04c-0.482-0.038-0.561-0.377-0.561-1.681v-1.716
		c0-0.403,0-0.545,0.051-0.545c0.172,0.142,0.51,0.479,1.004,0.999l1.984,2.107c0.811,0.881,1.072,1.155,1.215,1.338
		c0.117,0.026,0.236-0.04,0.271-0.12c-0.035-0.191-0.035-1.249-0.035-1.51v-2.189c0-1.289,0.102-1.643,0.44-1.68l0.39-0.041
		c0.093-0.065,0.093-0.264-0.011-0.33c-0.416,0.023-0.704,0.037-1.083,0.037s-0.679-0.014-1.161-0.037
		c-0.104,0.066-0.119,0.252-0.026,0.33l0.42,0.041c0.481,0.053,0.558,0.377,0.558,1.68L107.229,74.417L107.229,74.417z"/>
	<path d="M112.602,70.715c-1.006,0-1.904,0.259-2.545,0.757c-0.654,0.506-1.096,1.287-1.096,2.347c0,1.044,0.535,1.839,1.239,2.322
		c0.667,0.459,1.475,0.598,2.296,0.598c0.902,0,1.383-0.207,1.763-0.274c0.156-0.232,0.364-0.832,0.431-1.405
		c-0.066-0.131-0.274-0.131-0.339-0.015c-0.144,0.341-0.656,1.317-1.882,1.317c-1.225,0-2.349-0.99-2.349-2.737
		c0-1.775,1.11-2.531,2.231-2.531c1.174,0,1.618,0.611,1.816,1.33c0.09,0.104,0.284,0.076,0.338-0.025
		c-0.078-0.522-0.117-1.163-0.117-1.438C114.283,70.96,113.449,70.715,112.602,70.715L112.602,70.715z"/>
	<path d="M117.941,73.399c-0.418,0-0.471,0-0.471-0.338v-0.793c0-0.898,0.068-0.938,0.613-1.041l0.195-0.039
		c0.093-0.066,0.08-0.293-0.023-0.332c-0.457,0.025-0.859,0.039-1.278,0.039s-0.825-0.014-1.384-0.039
		c-0.103,0.039-0.119,0.266-0.026,0.332l0.299,0.039c0.562,0.078,0.616,0.143,0.616,1.041v2.915c0,0.899-0.068,0.899-0.616,1.04
		l-0.144,0.04c-0.093,0.065-0.077,0.293,0.023,0.331c0.406-0.024,0.813-0.037,1.231-0.037c0.403,0,0.833,0.013,1.433,0.037
		c0.104-0.038,0.117-0.264,0.027-0.331l-0.354-0.04c-0.561-0.064-0.613-0.142-0.613-1.04v-1.027c0-0.324,0.028-0.339,0.471-0.339
		h2.294c0.446,0,0.471,0.014,0.471,0.339v1.027c0,0.899-0.052,0.951-0.615,1.04l-0.245,0.04c-0.093,0.065-0.078,0.293,0.027,0.331
		c0.508-0.024,0.91-0.037,1.328-0.037c0.404,0,0.835,0.013,1.383,0.037c0.104-0.038,0.115-0.264,0.024-0.331l-0.299-0.04
		c-0.562-0.076-0.615-0.142-0.615-1.04v-2.915c0-0.898,0.054-0.949,0.615-1.041l0.247-0.039c0.092-0.066,0.078-0.293-0.026-0.332
		c-0.509,0.025-0.914,0.039-1.329,0.039c-0.419,0-0.82-0.014-1.328-0.039c-0.105,0.039-0.12,0.266-0.027,0.332l0.245,0.039
		c0.563,0.092,0.615,0.143,0.615,1.041v0.793c0,0.338-0.052,0.338-0.471,0.338H117.941L117.941,73.399z"/>
	<path d="M125.69,74.118c-0.288,0-0.313-0.027-0.171-0.378l0.469-1.162c0.116-0.275,0.17-0.392,0.207-0.442h0.027
		c0.04,0.064,0.094,0.167,0.199,0.471l0.403,1.107c0.143,0.378,0.104,0.405-0.236,0.405L125.69,74.118L125.69,74.118z M126.8,74.535
		c0.299,0,0.337,0.014,0.444,0.312l0.312,0.847c0.154,0.401,0.168,0.479-0.168,0.531l-0.264,0.04
		c-0.116,0.053-0.103,0.293,0.027,0.332c0.327-0.026,0.706-0.038,1.175-0.038c0.443,0,0.744,0.012,1.081,0.038
		c0.129-0.026,0.154-0.266,0.042-0.332l-0.212-0.04c-0.468-0.09-0.587-0.262-0.744-0.686l-1.174-3.117
		c-0.3-0.796-0.508-1.474-0.56-1.606c-0.026-0.076-0.098-0.181-0.235-0.181c-0.119,0-0.185,0.061-0.231,0.177
		c-0.034,0.082-0.407,0.997-0.631,1.531l-1.254,2.997c-0.258,0.623-0.402,0.768-0.806,0.857l-0.302,0.065
		c-0.09,0.066-0.09,0.279,0.027,0.333c0.232-0.016,0.547-0.038,0.912-0.038c0.367,0,0.705,0.013,1.032,0.038
		c0.132-0.025,0.142-0.265,0.04-0.333l-0.354-0.065c-0.248-0.05-0.287-0.103-0.144-0.52l0.302-0.832
		c0.104-0.299,0.145-0.312,0.443-0.312L126.8,74.535L126.8,74.535z"/>
	<path d="M98.163,71.093c1.438,0,2.104,1.406,2.104,2.805c0,1.788-0.955,2.464-1.946,2.464c-1.515,0-2.126-1.447-2.126-2.792
		C96.195,71.731,97.225,71.093,98.163,71.093L98.163,71.093z M98.256,70.714c-1.892,0-3.221,1.329-3.221,3.064
		c0,1.643,1.199,2.96,3.221,2.96c1.841,0,3.17-1.277,3.17-3.036C101.426,72.11,100.355,70.714,98.256,70.714L98.256,70.714z"/>
	<path d="M86.975,73.126c0,1.628,0.76,2.775,1.744,3.47c0.898,0.62,1.953,0.85,3.059,0.85c0.786,0,1.674-0.193,1.943-0.296
		c0.136-0.049,0.281-0.1,0.43-0.125c0.184-0.238,0.505-1.072,0.589-1.728c-0.051-0.088-0.234-0.114-0.32-0.05
		c-0.28,0.743-0.983,1.804-2.567,1.804c-2.018,0-3.65-1.463-3.65-4.114c0-2.613,1.6-3.838,3.478-3.838
		c1.784,0,2.335,0.985,2.521,1.844c0.088,0.078,0.271,0.064,0.332-0.025c-0.102-0.771-0.16-1.565-0.174-1.854
		c-0.11,0.012-0.195-0.014-0.345-0.051c-0.578-0.164-1.513-0.303-2.177-0.303c-1.275,0-2.418,0.352-3.316,1.072
		C87.586,70.526,86.975,71.726,86.975,73.126L86.975,73.126z"/>
	<path d="M143.165,68.772h1.168c0.554,0,0.928-0.002,1.063-0.359c0.044-0.029,0.237,0.023,0.27,0.055
		c-0.002,0.48,0.059,1.352,0.154,1.91c-0.065,0.086-0.284,0.1-0.366,0.014c-0.076-0.315-0.154-0.645-0.392-0.951
		c-0.24-0.316-0.817-0.293-1.323-0.301h-0.653c-0.286,0-0.34,0.01-0.351,0.197v1.706l0.006,3.759c0,1.241,0.02,1.407,0.708,1.478
		l0.381,0.035c0.069,0.049,0.046,0.266-0.024,0.302c-0.675-0.023-1.076-0.034-1.551-0.034c-0.473,0-0.887,0.011-1.646,0.034
		c-0.068-0.036-0.093-0.237,0-0.302l0.427-0.035c0.678-0.059,0.737-0.234,0.737-1.478v-5.285c0-0.367,0-0.377-0.355-0.377h-0.652
		c-0.513,0.006-1.101-0.02-1.346,0.299c-0.234,0.309-0.313,0.637-0.39,0.951c-0.082,0.087-0.301,0.072-0.363-0.012
		c0.093-0.559,0.154-1.43,0.154-1.911c0.03-0.03,0.227-0.084,0.265-0.055c0.136,0.36,0.518,0.36,1.064,0.36h1.165H143.165
		L143.165,68.772z"/>
</g>
<g>
	<path class="st9" d="M144.397,33.724L144.397,33.724L144.397,33.724L144.397,33.724L144.397,33.724L144.397,33.724L144.397,33.724
		L144.397,33.724L144.397,33.724L144.397,33.724L144.397,33.724L144.397,33.724L144.397,33.724L144.397,33.724L144.397,33.724
		L144.397,33.724L144.397,33.724L144.397,33.724L144.397,33.724L144.397,33.724L144.397,33.724L144.397,33.724L144.397,33.724
		L144.397,33.724L144.397,33.724L144.397,33.724L144.397,33.724L144.397,33.724L144.397,33.724L144.397,33.724L144.397,33.724
		L144.397,33.724L144.397,33.724L144.397,33.724L144.397,33.724L144.397,33.724L144.397,33.724L144.397,33.724
		C144.397,33.724,144.397,33.724,144.397,33.724S144.397,33.724,144.397,33.724L144.397,33.724
		C144.397,33.724,144.397,33.724,144.397,33.724S144.397,33.724,144.397,33.724L144.397,33.724L144.397,33.724L144.397,33.724
		L144.397,33.724L144.397,33.724L144.397,33.724L144.397,33.724L144.397,33.724L144.397,33.724L144.397,33.724L144.397,33.724z
		 M140.098,26.277c0.061-1.159,0.285-2.21,0.514-2.955c0.656,0.425,1.502,1.085,2.293,1.935c0.453-1.069,1.022-1.979,1.493-2.604
		c0.471,0.624,1.04,1.534,1.493,2.604c0.791-0.85,1.639-1.51,2.294-1.935c0.229,0.745,0.453,1.796,0.512,2.954
		c1.035-0.526,2.055-0.857,2.815-1.033c-0.038,0.781-0.188,1.844-0.525,2.953c1.148-0.142,2.223-0.104,2.998-0.008
		c-0.304,0.721-0.808,1.668-1.508,2.596c1.131,0.259,2.129,0.663,2.822,1.018c-0.53,0.571-1.329,1.291-2.302,1.922
		c0.973,0.632,1.771,1.352,2.302,1.923c-0.693,0.356-1.691,0.758-2.822,1.019c0.7,0.928,1.204,1.875,1.508,2.595
		c-0.775,0.096-1.85,0.133-2.998-0.009c0.338,1.111,0.487,2.173,0.525,2.953c-0.761-0.176-1.78-0.505-2.815-1.033
		c-0.059,1.159-0.283,2.21-0.512,2.955c-0.655-0.425-1.503-1.084-2.294-1.934c-0.453,1.068-1.022,1.979-1.493,2.602
		c-0.471-0.623-1.04-1.533-1.493-2.602c-0.791,0.85-1.637,1.509-2.293,1.934c-0.229-0.745-0.453-1.796-0.514-2.955
		c-1.033,0.528-2.055,0.858-2.814,1.033c0.038-0.779,0.188-1.842,0.527-2.953c-1.151,0.142-2.225,0.104-3,0.009
		c0.305-0.72,0.809-1.667,1.508-2.595c-1.132-0.261-2.127-0.662-2.822-1.019c0.531-0.571,1.329-1.291,2.303-1.923
		c-0.974-0.631-1.771-1.351-2.303-1.922c0.695-0.354,1.69-0.758,2.822-1.018c-0.699-0.928-1.203-1.875-1.508-2.596
		c0.775-0.096,1.849-0.134,3,0.008c-0.34-1.109-0.489-2.172-0.528-2.953C138.043,25.419,139.064,25.75,140.098,26.277
		L140.098,26.277z M144.397,33.724L144.397,33.724L144.397,33.724L144.397,33.724z"/>
	<path class="st1" d="M144.397,33.724L144.397,33.724L144.397,33.724L144.397,33.724L144.397,33.724L144.397,33.724L144.397,33.724
		L144.397,33.724L144.397,33.724L144.397,33.724L144.397,33.724C144.397,33.724,144.397,33.724,144.397,33.724
		S144.397,33.724,144.397,33.724C144.397,33.725,144.397,33.725,144.397,33.724L144.397,33.724L144.397,33.724L144.397,33.724
		L144.397,33.724L144.397,33.724L144.397,33.724L144.397,33.724L144.397,33.724L144.397,33.724L144.397,33.724L144.397,33.724
		L144.397,33.724L144.397,33.724L144.397,33.724L144.397,33.724L144.397,33.724L144.397,33.724L144.397,33.724L144.397,33.724
		L144.397,33.724L144.397,33.724L144.397,33.724L144.397,33.724L144.397,33.724z M138.069,34.839
		c-0.823-0.275-1.59-0.673-2.271-1.115c0.681-0.441,1.447-0.838,2.271-1.114c-0.679-0.541-1.263-1.18-1.751-1.825
		c0.789-0.183,1.646-0.295,2.514-0.273c-0.453-0.74-0.783-1.537-1.021-2.314c0.805,0.1,1.648,0.287,2.457,0.605
		c-0.174-0.852-0.211-1.715-0.17-2.525c0.724,0.369,1.451,0.834,2.102,1.409c0.13-0.858,0.389-1.683,0.705-2.429
		c0.553,0.592,1.078,1.279,1.493,2.041c0.415-0.762,0.94-1.449,1.493-2.041c0.317,0.746,0.576,1.57,0.706,2.429
		c0.649-0.574,1.377-1.04,2.1-1.409c0.042,0.811,0.004,1.674-0.17,2.525c0.809-0.318,1.654-0.506,2.46-0.605
		c-0.239,0.777-0.57,1.574-1.023,2.314c0.867-0.021,1.726,0.091,2.514,0.273c-0.487,0.646-1.071,1.284-1.749,1.825
		c0.821,0.276,1.59,0.673,2.27,1.114c-0.68,0.442-1.448,0.84-2.27,1.115c0.678,0.543,1.262,1.179,1.749,1.826
		c-0.788,0.182-1.646,0.294-2.514,0.272c0.453,0.74,0.784,1.538,1.023,2.313c-0.806-0.1-1.651-0.286-2.46-0.604
		c0.174,0.851,0.212,1.714,0.17,2.524c-0.723-0.369-1.45-0.833-2.1-1.409c-0.13,0.86-0.389,1.684-0.706,2.431
		c-0.553-0.594-1.078-1.28-1.493-2.042c-0.415,0.762-0.94,1.448-1.493,2.042c-0.316-0.747-0.576-1.57-0.705-2.431
		c-0.65,0.576-1.378,1.04-2.102,1.409c-0.041-0.811-0.004-1.674,0.17-2.524c-0.809,0.318-1.652,0.505-2.457,0.604
		c0.238-0.775,0.568-1.573,1.021-2.313c-0.867,0.021-1.725-0.091-2.514-0.272C136.807,36.018,137.391,35.382,138.069,34.839
		L138.069,34.839z"/>
	<path class="st5" d="M144.397,33.724L144.397,33.724L144.397,33.724L144.397,33.724L144.397,33.724z M144.397,33.725
		L144.397,33.725L144.397,33.725L144.397,33.725L144.397,33.725L144.397,33.725L144.397,33.725L144.397,33.725
		C144.398,33.725,144.398,33.725,144.397,33.725L144.397,33.725L144.397,33.725L144.397,33.725L144.397,33.725z M144.398,33.724
		L144.398,33.724L144.398,33.724L144.398,33.724L144.398,33.724L144.398,33.724C144.398,33.724,144.398,33.724,144.398,33.724
		L144.398,33.724L144.398,33.724L144.398,33.724L144.398,33.724L144.398,33.724L144.398,33.724L144.398,33.724L144.398,33.724
		c-0.001,0-0.001,0-0.002,0H144.398c-0.001,0-0.001,0-0.002,0H144.398L144.398,33.724L144.398,33.724z M144.397,33.725
		L144.397,33.725L144.397,33.725L144.397,33.725z M143.635,29.392c0.14-0.746,0.411-1.447,0.763-2.094
		c0.352,0.646,0.623,1.348,0.765,2.094c0.387-0.652,0.882-1.219,1.435-1.705c0.107,0.727,0.123,1.479,0,2.228
		c0.589-0.481,1.248-0.843,1.93-1.112c-0.144,0.721-0.387,1.432-0.759,2.094c0.716-0.25,1.461-0.365,2.195-0.385
		c-0.383,0.628-0.856,1.213-1.431,1.708c0.759,0.009,1.495,0.155,2.193,0.391c-0.575,0.457-1.218,0.848-1.929,1.114
		c0.711,0.27,1.354,0.657,1.931,1.115c-0.7,0.234-1.437,0.38-2.195,0.39c0.574,0.496,1.048,1.08,1.431,1.709
		c-0.734-0.02-1.479-0.135-2.195-0.386c0.372,0.661,0.615,1.373,0.759,2.094c-0.682-0.269-1.341-0.63-1.928-1.111
		c0.121,0.749,0.105,1.501-0.002,2.227c-0.553-0.485-1.046-1.051-1.435-1.704c-0.142,0.745-0.413,1.447-0.765,2.094
		c-0.352-0.646-0.622-1.349-0.763-2.094c-0.389,0.653-0.883,1.219-1.436,1.704c-0.108-0.726-0.124-1.478-0.001-2.227
		c-0.589,0.481-1.247,0.843-1.931,1.112c0.146-0.72,0.389-1.434,0.76-2.095c-0.716,0.251-1.459,0.366-2.194,0.386
		c0.384-0.629,0.854-1.213,1.431-1.709c-0.76-0.01-1.496-0.155-2.194-0.39c0.575-0.458,1.218-0.846,1.93-1.115
		c-0.712-0.267-1.354-0.657-1.93-1.114c0.698-0.235,1.435-0.382,2.194-0.391c-0.576-0.495-1.047-1.08-1.431-1.708
		c0.735,0.02,1.479,0.135,2.194,0.385c-0.371-0.662-0.613-1.373-0.76-2.094c0.684,0.27,1.342,0.631,1.931,1.112
		c-0.123-0.749-0.107-1.501,0.001-2.228C142.751,28.173,143.246,28.739,143.635,29.392L143.635,29.392z M144.397,33.724
		L144.397,33.724L144.397,33.724z"/>
	<path class="st6" d="M143.625,31.6c-0.14-0.771-0.123-1.509,0.01-2.208c0.361,0.612,0.63,1.301,0.763,2.071
		c0.133-0.771,0.401-1.459,0.765-2.071c0.132,0.699,0.147,1.438,0.008,2.208c0.389-0.68,0.876-1.234,1.427-1.685
		c-0.113,0.701-0.353,1.401-0.747,2.077c0.597-0.506,1.246-0.86,1.918-1.096c-0.348,0.62-0.812,1.197-1.414,1.698
		c0.734-0.271,1.465-0.383,2.179-0.376c-0.542,0.464-1.171,0.849-1.909,1.112c0.782-0.003,1.507,0.142,2.172,0.393
		c-0.665,0.251-1.39,0.396-2.172,0.393c0.738,0.264,1.367,0.648,1.909,1.112c-0.714,0.007-1.444-0.103-2.179-0.375
		c0.603,0.502,1.066,1.077,1.414,1.698c-0.672-0.235-1.321-0.591-1.918-1.097c0.395,0.676,0.634,1.376,0.747,2.078
		c-0.551-0.45-1.038-1.006-1.427-1.686c0.14,0.77,0.124,1.508-0.008,2.208c-0.363-0.612-0.632-1.3-0.765-2.072
		c-0.133,0.772-0.401,1.46-0.763,2.072c-0.133-0.7-0.149-1.438-0.01-2.208c-0.389,0.68-0.876,1.235-1.427,1.686
		c0.115-0.702,0.353-1.402,0.747-2.078c-0.598,0.506-1.246,0.861-1.918,1.097c0.349-0.621,0.811-1.196,1.412-1.698
		c-0.733,0.272-1.465,0.382-2.176,0.375c0.539-0.464,1.171-0.849,1.908-1.112c-0.782,0.004-1.508-0.142-2.173-0.393
		c0.665-0.251,1.391-0.396,2.173-0.393c-0.737-0.265-1.369-0.648-1.908-1.112c0.711-0.007,1.442,0.104,2.176,0.376
		c-0.602-0.501-1.063-1.078-1.412-1.698c0.672,0.235,1.32,0.59,1.918,1.096c-0.395-0.676-0.632-1.376-0.747-2.077
		C142.749,30.365,143.236,30.92,143.625,31.6L143.625,31.6z"/>
	<path class="st9" d="M147.335,15.794v5.405h0.805v-0.519c0.33,0.442,0.698,0.646,1.232,0.646c0.993,0,1.701-0.805,1.701-2.091
		c0-1.322-0.723-2.127-1.693-2.127c-0.534,0-0.946,0.226-1.231,0.654v-1.97H147.335L147.335,15.794z M149.184,17.846
		c0.642,0,1.038,0.497,1.038,1.399c0,0.855-0.396,1.346-1.038,1.346c-0.667,0-1.052-0.475-1.052-1.369
		C148.132,18.312,148.494,17.846,149.184,17.846L149.184,17.846z"/>
	<path class="st9" d="M153.466,17.846c0.632,0,1.036,0.497,1.036,1.354c0,0.901-0.396,1.392-1.036,1.392
		c-0.686,0-1.054-0.46-1.054-1.346C152.412,18.319,152.788,17.846,153.466,17.846L153.466,17.846z M152.429,20.71
		c0.276,0.406,0.697,0.617,1.231,0.617c0.971,0,1.691-0.805,1.691-2.128c0-1.285-0.706-2.09-1.699-2.09
		c-0.54,0-0.908,0.21-1.232,0.685v-0.557h-0.805v5.541h0.813V20.71L152.429,20.71z"/>
</g>
<g>
	<rect x="146.814" y="-43.897" class="st6" width="32.93" height="12.723"/>
	<path class="st6" d="M142.045-43.898h22.17v12.724h-32.929v-12.724h6.269l0.747-1.59l1.356,0.375
		C139.658-45.114,141.063-45.161,142.045-43.898"/>
	<path class="st7" d="M146.939-37.094h0.376l0.708-1.54h2.273l0.691,1.54h0.629l-2.317-5.079h-0.017L146.939-37.094z M149.16-41.167
		l1.006,2.289h-2.038L149.16-41.167z"/>
	<path class="st7" d="M151.791-42.539v5.041c0,0.222,0.104,0.404,0.516,0.404h0.734v-0.168H152.7c-0.263,0-0.351-0.121-0.351-0.328
		v-4.949H151.791z"/>
	<path class="st7" d="M154.012-37.094v-3.119h0.709v-0.168h-0.709v-1.541c0-0.297,0.201-0.449,0.499-0.449
		c0.104,0,0.298,0.038,0.401,0.099v-0.197c-0.131-0.046-0.297-0.069-0.437-0.069c-0.708,0-1.022,0.342-1.022,0.893v4.553H154.012z"
		/>
	<path class="st7" d="M154.555-38.741c0,0.886,0.805,1.725,1.811,1.725c1.189,0,1.801-0.817,1.801-1.725
		c0-0.876-0.805-1.715-1.801-1.715C155.166-40.456,154.555-39.642,154.555-38.741 M155.114-38.741c0-1.013,0.567-1.548,1.251-1.548
		c0.672,0,1.24,0.535,1.24,1.548c0,1.022-0.568,1.556-1.24,1.556C155.682-37.186,155.114-37.719,155.114-38.741"/>
	<path class="st7" d="M158.962-37.094v-2.783c0-0.107,0.019-0.152,0.087-0.152c0.132,0,0.149,0.062,0.219,0.167l1.768,2.502
		c0.121,0.175,0.2,0.344,0.322,0.344c0.07,0,0.123-0.023,0.123-0.161v-3.203h-0.227v2.518h-0.019l-1.425-2.082
		c-0.219-0.313-0.324-0.436-0.63-0.436c-0.2,0-0.446,0.062-0.446,0.335v2.952H158.962z"/>
	<path class="st7" d="M163.512-40.175l-1.627,3.081h2.476v-0.205h-1.819l1.232-2.312c0.113-0.214,0.193-0.366,0.193-0.504
		c0-0.175-0.149-0.267-0.613-0.267h-1.441v0.206H163.512z"/>
	<path class="st7" d="M164.156-38.741c0,0.886,0.806,1.725,1.811,1.725c1.189,0,1.802-0.817,1.802-1.725
		c0-0.876-0.805-1.715-1.802-1.715C164.77-40.456,164.156-39.642,164.156-38.741 M164.717-38.741c0-1.013,0.568-1.548,1.25-1.548
		c0.674,0,1.242,0.535,1.242,1.548c0,1.022-0.568,1.556-1.242,1.556C165.285-37.186,164.717-37.719,164.717-38.741"/>
	<path class="st7" d="M170.864-37.094v-4.736h0.988c0.674,0,1.504,0.259,1.504,1.183c0,0.771-0.821,0.984-1.749,0.984h-0.428
		l2.055,2.569h0.761l-1.897-2.364h0.122c1.25,0,1.783-0.542,1.783-1.197c0-0.824-0.716-1.381-2.106-1.381h-1.644v4.942H170.864z"/>
	<path class="st7" d="M174.981-37.094 M174.981-40.381h-0.561v3.287h0.561V-40.381z M174.701-41.066
		c0.175,0,0.307-0.123,0.307-0.268c0-0.146-0.132-0.268-0.307-0.268c-0.176,0-0.307,0.122-0.307,0.268
		C174.395-41.189,174.525-41.066,174.701-41.066"/>
	<path class="st7" d="M175.269-40.381l1.241,2.922c0.096,0.229,0.113,0.442,0.349,0.442c0.254,0,0.263-0.177,0.359-0.396
		l1.285-2.968h-0.254l-1.006,2.312c-0.07,0.168-0.095,0.327-0.244,0.327c-0.098,0-0.141-0.167-0.211-0.327l-0.987-2.312H175.269z"/>
	<path class="st7" d="M178.574-37.094l0.306-0.93h1.602l0.375,0.93h0.568l-1.075-2.66c-0.113-0.275-0.201-0.702-0.576-0.702
		c-0.308,0-0.447,0.236-0.525,0.488l-0.927,2.874H178.574z M178.942-38.191l0.507-1.579c0.034-0.122,0.053-0.184,0.147-0.184
		c0.098,0,0.132,0.077,0.177,0.184l0.629,1.579H178.942z"/>
	<path class="st7" d="M183.397-40.381h-0.777c-0.945,0-1.285,0.535-1.285,0.893c0,1.229,1.862,0.603,1.862,1.617
		c0,0.465-0.412,0.572-0.821,0.572h-0.919v0.205h0.988c1.022,0,1.25-0.51,1.25-0.915c0-1.235-1.862-0.693-1.862-1.641
		c0-0.41,0.498-0.525,0.726-0.525h0.839V-40.381z"/>
	<path class="st7" d="M187.767-40.328c0.341-0.266,0.752-0.579,0.752-1.014c0-0.489-0.438-0.831-1.005-0.831
		c-0.577,0-1.031,0.419-1.075,0.931l0.611,0.778c-0.805,0.503-1.364,0.861-1.364,1.814c0,0.999,0.901,1.692,1.932,1.692
		c0.796,0,1.295-0.242,1.731-0.624l0.341,0.487h0.647l-0.708-0.9c0.096-0.183,0.21-0.449,0.21-0.869c0-0.313-0.07-0.495-0.157-0.786
		h-0.254c0.088,0.245,0.176,0.581,0.176,0.794c0,0.236-0.079,0.526-0.149,0.672L187.767-40.328z M189.175-37.757
		c-0.237,0.244-0.683,0.558-1.434,0.558c-0.962,0-1.496-0.748-1.496-1.434c0-0.787,0.429-1.03,1.085-1.48L189.175-37.757z
		 M186.822-41.532c0.06-0.305,0.342-0.473,0.691-0.473c0.394,0,0.62,0.244,0.62,0.579c0,0.319-0.376,0.618-0.646,0.747
		L186.822-41.532z"/>
	<path class="st7" d="M197.023-41.09c-0.385-0.725-1.128-1.083-2.028-1.083c-1.607,0-2.781,1.152-2.781,2.608
		s1.174,2.607,2.781,2.607c0.909,0,1.731-0.381,2.09-1.099l-0.324-0.183c-0.332,0.726-0.943,1.038-1.766,1.038
		c-0.936,0-2.081-0.679-2.081-2.364c0-1.678,1.023-2.402,2.081-2.402c0.849,0,1.486,0.412,1.723,1.029L197.023-41.09z"/>
	<rect x="197.521" y="-40.381" class="st7" width="0.56" height="3.287"/>
	<path class="st7" d="M198.687-37.094l0.306-0.93h1.601l0.377,0.93h0.567l-1.075-2.66c-0.113-0.275-0.201-0.702-0.577-0.702
		c-0.306,0-0.445,0.236-0.524,0.488l-0.927,2.874H198.687z M199.055-38.191l0.507-1.579c0.034-0.122,0.052-0.184,0.147-0.184
		c0.097,0,0.132,0.077,0.176,0.184l0.63,1.579H199.055z"/>
	<path class="st7" d="M202.15-37.291c0,0.16,0.113,0.274,0.314,0.274c0.202,0,0.315-0.114,0.315-0.274
		c0-0.161-0.113-0.275-0.315-0.275C202.264-37.566,202.15-37.452,202.15-37.291"/>
	<polygon class="st4" points="132.758,-36.528 131.238,-33.032 202.957,-33.032 204.477,-36.528 	"/>
	<g>
		<g>
			<defs>
				<rect id="SVGID_1_" x="131.199" y="-36.504" width="73.238" height="3.442"/>
			</defs>
			<clipPath id="SVGID_2_">
				<use xlink:href="#SVGID_1_"  style="overflow:visible;"/>
			</clipPath>
			
				<linearGradient id="SVGID_3_" gradientUnits="userSpaceOnUse" x1="-257.5" y1="445.5" x2="-256.5" y2="445.5" gradientTransform="matrix(-73.2385 0 0 73.2385 -18654.4668 -32662.4297)">
				<stop  offset="0" style="stop-color:#ED081B"/>
				<stop  offset="0.625" style="stop-color:#ED081B"/>
				<stop  offset="0.7181" style="stop-color:#F24C5A"/>
				<stop  offset="0.8569" style="stop-color:#F9ABB2"/>
				<stop  offset="0.9539" style="stop-color:#FDE8E9"/>
				<stop  offset="1" style="stop-color:#FFFFFF"/>
			</linearGradient>
			<rect x="131.199" y="-36.459" class="st0" width="73.238" height="3.397"/>
		</g>
	</g>
	<path class="st6" d="M149.859-33.987l0.373-0.634l-0.087-0.017c-0.048,0.06-0.108,0.116-0.233,0.222
		c-0.109,0.089-0.201,0.151-0.326,0.201c-0.334,0.135-0.643,0.14-0.777,0.112c-0.024-0.003-0.053-0.007-0.064-0.026
		c-0.021-0.017-0.021-0.051-0.014-0.077l0.473-0.885c0.25,0.011,0.521-0.013,0.443,0.29c-0.012,0.051-0.03,0.096-0.051,0.146
		l0.094,0.017l0.492-0.893l-0.098-0.013c-0.256,0.357-0.443,0.338-0.822,0.347l0.381-0.689c0.086-0.153,0.111-0.186,0.296-0.186
		c0.065,0,0.13,0.003,0.192,0.014c0.334,0.052,0.42,0.158,0.329,0.488l0.094,0.016l0.308-0.621h-1.932l-0.021,0.083
		c0.129,0.023,0.264-0.013,0.223,0.149l-0.921,1.675c-0.047,0.086-0.081,0.118-0.133,0.151c-0.058,0.033-0.12,0.036-0.181,0.047
		l-0.021,0.082H149.859z"/>
	<path class="st6" d="M153.103-34.39c-0.072,0.059-0.196,0.208-0.305,0.192c-0.13-0.021-0.062-0.448-0.058-0.682
		c0.05-0.049,0.238-0.311,0.397-0.311c0.087,0,0.136,0.066,0.208,0.066c0.102,0,0.211-0.092,0.234-0.183s-0.01-0.194-0.146-0.194
		c-0.268,0-0.559,0.333-0.689,0.453c0.001-0.032,0.018-0.344-0.049-0.453c-0.203,0.029-0.412,0.066-0.62,0.09l-0.022,0.089
		c0.073-0.004,0.16-0.018,0.221,0.014c0.064,0.062,0.055,0.158,0.053,0.247l-0.018,0.445c-0.203,0.215-0.319,0.363-0.41,0.363
		c-0.088-0.032-0.175-0.065-0.262-0.051c-0.079,0.026-0.154,0.095-0.173,0.171c-0.025,0.095,0.04,0.188,0.147,0.188
		c0.242,0,0.492-0.274,0.693-0.509c-0.006,0.321,0.037,0.509,0.24,0.509c0.207,0,0.439-0.234,0.622-0.399L153.103-34.39z"/>
	<path class="st6" d="M155.87-35.223c0.036,0.047,0.015,0.112,0.001,0.169c-0.051,0.198-0.572,1.106-0.906,0.983
		c-0.063-0.022-0.079-0.105-0.021-0.206l0.357-0.616c0.119-0.198,0.332-0.369,0.47-0.369
		C155.812-35.262,155.854-35.255,155.87-35.223 M154.749-33.315l0.021-0.083c-0.097-0.007-0.234,0.009-0.204-0.112l0.262-0.505
		c0.081,0.049,0.137,0.071,0.249,0.071c0.185,0,0.388-0.099,0.546-0.211c0.41-0.29,0.645-0.677,0.707-0.924
		c0.061-0.243-0.007-0.421-0.293-0.421c-0.22,0-0.473,0.186-0.621,0.344l0.194-0.344c-0.273,0.039-0.521,0.073-0.714,0.09
		l-0.021,0.086c0.102,0,0.213,0.019,0.171,0.098l-0.837,1.586c-0.078,0.146-0.142,0.259-0.33,0.242l-0.02,0.083H154.749z"/>
	<path class="st6" d="M158.505-34.453c-0.106,0.119-0.304,0.302-0.47,0.302c-0.333,0-0.158-0.367-0.127-0.43
		c0.428-0.046,0.997-0.312,1.075-0.622c0.05-0.197-0.103-0.297-0.305-0.297c-0.542,0-1.171,0.585-1.288,1.051
		c-0.075,0.294,0.09,0.504,0.414,0.504c0.315,0,0.591-0.217,0.791-0.452L158.505-34.453z M157.959-34.688
		c0.088-0.172,0.432-0.773,0.689-0.693C158.772-35.345,158.563-34.813,157.959-34.688"/>
	<path class="st6" d="M160.314-33.987c0.257-0.402,0.454-0.853,0.861-1.175c0.023-0.01,0.047-0.018,0.069-0.005
		c0.055,0.083,0.079,0.12,0.158,0.12c0.152,0,0.247-0.136,0.277-0.255c0.028-0.108-0.029-0.198-0.155-0.198
		c-0.239,0-0.576,0.416-0.705,0.589l-0.018-0.008l0.346-0.581c-0.271,0.039-0.508,0.06-0.739,0.09l-0.022,0.088
		c0.087,0,0.133-0.006,0.158,0.021c0.028,0.03,0.02,0.093-0.052,0.218l-0.612,1.097H160.314z"/>
	<path class="st6" d="M163.582-35.5c-0.295,0.034-0.564,0.066-0.742,0.09l-0.023,0.088c0.177,0.004,0.238,0.021,0.145,0.189
		l-0.461,0.835c-0.146,0.265,0.012,0.354,0.136,0.354c0.304,0,0.517-0.244,0.722-0.453l-0.068-0.046
		c-0.079,0.086-0.169,0.172-0.267,0.242c-0.079,0.029-0.1,0.022-0.12,0.004c-0.002-0.037,0.016-0.074,0.031-0.107L163.582-35.5z
		 M163.553-35.774c0.131,0,0.267-0.108,0.297-0.228c0.029-0.116-0.057-0.218-0.184-0.218s-0.27,0.105-0.298,0.218
		C163.338-35.883,163.42-35.774,163.553-35.774"/>
	<path class="st6" d="M165.7-34.453c-0.105,0.119-0.304,0.302-0.47,0.302c-0.333,0-0.157-0.367-0.127-0.43
		c0.428-0.046,0.998-0.312,1.076-0.622c0.05-0.197-0.103-0.297-0.306-0.297c-0.543,0-1.172,0.585-1.289,1.051
		c-0.074,0.294,0.091,0.504,0.415,0.504c0.316,0,0.592-0.217,0.791-0.452L165.7-34.453z M165.155-34.688
		c0.087-0.172,0.43-0.773,0.688-0.693C165.969-35.345,165.759-34.813,165.155-34.688"/>
	<path class="st6" d="M167.561-33.987c0.107-0.194,0.212-0.393,0.347-0.581c0.192-0.277,0.563-0.687,0.737-0.687
		c0.054,0,0.088,0.019,0.075,0.072l-0.525,0.885c-0.102,0.198-0.055,0.353,0.138,0.353c0.275,0,0.514-0.23,0.684-0.428l-0.069-0.043
		c-0.087,0.085-0.169,0.182-0.278,0.244c-0.056,0.021-0.084-0.01-0.073-0.057l0.541-0.934c0.114-0.202,0.005-0.338-0.181-0.338
		c-0.336,0-0.698,0.387-0.906,0.614l-0.007-0.007l0.356-0.607c-0.222,0.034-0.491,0.066-0.738,0.09l-0.023,0.088
		c0.091,0,0.225,0,0.171,0.096l-0.677,1.239H167.561z"/>
	<path class="st6" d="M171.476-34.449c-0.126,0.126-0.314,0.298-0.498,0.298c-0.206,0-0.235-0.156-0.195-0.317
		c0.054-0.215,0.449-0.922,0.742-0.922c0.11,0,0.072,0.09,0.047,0.115c-0.161,0.172-0.036,0.3,0.068,0.3
		c0.139,0,0.256-0.088,0.29-0.211c0.066-0.218-0.124-0.313-0.334-0.313c-0.593,0-1.175,0.654-1.273,1.051
		c-0.072,0.28,0.081,0.505,0.396,0.505c0.343,0,0.607-0.194,0.843-0.445L171.476-34.449z"/>
	<path class="st6" d="M174.047-35.5c-0.294,0.034-0.563,0.066-0.742,0.09l-0.022,0.088c0.177,0.004,0.237,0.021,0.144,0.189
		l-0.459,0.835c-0.146,0.265,0.012,0.354,0.135,0.354c0.304,0,0.518-0.244,0.722-0.453l-0.067-0.046
		c-0.079,0.086-0.17,0.172-0.268,0.242c-0.08,0.029-0.099,0.022-0.12,0.004c-0.001-0.037,0.015-0.074,0.03-0.107L174.047-35.5z
		 M174.019-35.774c0.13,0,0.267-0.108,0.297-0.228c0.029-0.116-0.058-0.218-0.184-0.218c-0.128,0-0.27,0.105-0.299,0.218
		C173.804-35.883,173.886-35.774,174.019-35.774"/>
	<path class="st6" d="M176.443-35.275c-0.006-0.151-0.037-0.225-0.211-0.225c-0.489,0-1.155,0.714-1.256,1.113
		c-0.061,0.245,0.005,0.442,0.298,0.442c0.25,0,0.511-0.24,0.667-0.42c-0.182,0.206-0.125,0.424,0.086,0.424
		c0.227,0,0.49-0.254,0.646-0.414l-0.063-0.048c-0.066,0.048-0.243,0.257-0.333,0.227c-0.008-0.082,0.021-0.142,0.051-0.201
		l0.626-1.09l-0.403,0.02L176.443-35.275z M175.521-34.176c-0.112,0-0.129-0.104-0.106-0.194c0.05-0.2,0.545-0.987,0.821-0.987
		c0.141,0,0.118,0.115,0.104,0.178C176.284-34.958,175.833-34.176,175.521-34.176"/>
	<path class="st6" d="M181.465-33.928l1.059-1.902c0.111-0.198,0.214-0.245,0.362-0.261l0.021-0.083h-0.749l-0.021,0.083
		c0.156-0.004,0.309,0.05,0.229,0.254l-0.652,1.179l-0.39-1.516h-0.698l-0.021,0.083c0.169-0.01,0.236,0.069,0.251,0.182
		l-0.892,1.526c-0.112,0.244-0.281,0.311-0.365,0.313l-0.02,0.082h0.746l0.02-0.082c-0.272-0.023-0.286-0.143-0.221-0.262
		l0.774-1.404l0.465,1.808H181.465z"/>
	<path class="st6" d="M183.658-34.383c-0.22,0.399-0.042,0.438,0.135,0.438c0.315,0,0.618-0.335,0.831-0.537l0.007,0.003
		c-0.088,0.132-0.172,0.278-0.174,0.421c0.008,0.081,0.107,0.113,0.191,0.113c0.271,0,0.513-0.23,0.683-0.425l-0.062-0.042
		c-0.111,0.107-0.225,0.215-0.326,0.23c-0.083,0.026-0.012-0.099,0.036-0.185l0.616-1.1h-0.423
		c-0.266,0.465-0.392,0.663-0.555,0.864c-0.088,0.106-0.391,0.43-0.54,0.42c-0.063-0.007-0.09-0.072-0.016-0.195l0.663-1.123
		c-0.255,0.034-0.516,0.076-0.772,0.09l-0.021,0.088c0.138,0.01,0.179,0.034,0.182,0.054c0.002,0.032-0.011,0.068-0.021,0.102
		L183.658-34.383z"/>
	<path class="st6" d="M186.665-34.459c-0.305,0.472-0.084,0.519,0.025,0.519c0.308,0,0.541-0.241,0.732-0.449l-0.065-0.047
		c-0.089,0.096-0.22,0.215-0.338,0.265c-0.067,0.022-0.055-0.057-0.015-0.129l0.56-1.03h0.298l0.034-0.135h-0.258l0.259-0.478
		h-0.127c-0.208,0.222-0.483,0.411-0.781,0.5l-0.029,0.112h0.186L186.665-34.459z"/>
	<path class="st6" d="M188.951-33.987c0.257-0.402,0.453-0.853,0.861-1.175c0.023-0.01,0.046-0.018,0.068-0.005
		c0.056,0.083,0.078,0.12,0.159,0.12c0.152,0,0.247-0.136,0.278-0.255c0.026-0.108-0.03-0.198-0.157-0.198
		c-0.238,0-0.575,0.416-0.706,0.589l-0.016-0.008l0.346-0.581c-0.271,0.039-0.508,0.06-0.739,0.09l-0.022,0.088
		c0.087,0,0.132-0.006,0.157,0.021c0.029,0.03,0.021,0.093-0.052,0.218l-0.612,1.097H188.951z"/>
	<path class="st6" d="M192.218-35.5c-0.294,0.034-0.563,0.066-0.742,0.09l-0.022,0.088c0.176,0.004,0.237,0.021,0.144,0.189
		l-0.461,0.835c-0.146,0.265,0.013,0.354,0.136,0.354c0.306,0,0.519-0.244,0.724-0.453l-0.068-0.046
		c-0.08,0.086-0.17,0.172-0.268,0.242c-0.08,0.029-0.1,0.022-0.12,0.004c-0.001-0.037,0.016-0.074,0.03-0.107L192.218-35.5z
		 M192.188-35.774c0.132,0,0.268-0.108,0.298-0.228c0.028-0.116-0.059-0.218-0.185-0.218c-0.127,0-0.27,0.105-0.297,0.218
		C191.974-35.883,192.056-35.774,192.188-35.774"/>
	<path class="st6" d="M193.261-34.459c-0.304,0.472-0.084,0.519,0.025,0.519c0.307,0,0.542-0.241,0.73-0.449l-0.063-0.047
		c-0.09,0.096-0.221,0.215-0.339,0.265c-0.067,0.022-0.054-0.057-0.014-0.129l0.56-1.03h0.297l0.034-0.135h-0.257l0.258-0.478
		h-0.128c-0.206,0.222-0.481,0.411-0.78,0.5l-0.027,0.112h0.184L193.261-34.459z"/>
	<path class="st6" d="M196.348-35.5c-0.295,0.034-0.563,0.066-0.742,0.09l-0.023,0.088c0.177,0.004,0.238,0.021,0.145,0.189
		l-0.46,0.835c-0.146,0.265,0.012,0.354,0.135,0.354c0.305,0,0.518-0.244,0.723-0.453l-0.069-0.046
		c-0.078,0.086-0.169,0.172-0.267,0.242c-0.08,0.029-0.1,0.022-0.12,0.004c-0.001-0.037,0.016-0.074,0.03-0.107L196.348-35.5z
		 M196.319-35.774c0.13,0,0.266-0.108,0.296-0.228c0.029-0.116-0.058-0.218-0.184-0.218c-0.128,0-0.271,0.105-0.298,0.218
		C196.104-35.883,196.185-35.774,196.319-35.774"/>
	<path class="st6" d="M197.654-33.944c0.694-0.513,1.299-1.018,1.386-1.364c0.029-0.114-0.052-0.191-0.183-0.191
		c-0.094,0-0.211,0.093-0.236,0.191c-0.027,0.106,0.109,0.212,0.093,0.276c-0.019,0.074-0.114,0.183-0.176,0.236l-0.438,0.39
		l0.15-0.77c0.015-0.076,0.024-0.215,0.013-0.324c-0.196,0.047-0.388,0.073-0.579,0.09l-0.023,0.088c0.048,0,0.091,0,0.127,0.017
		c0.09,0.044,0.041,0.407-0.063,0.781l-0.16,0.58H197.654z"/>
	<path class="st6" d="M201.408-35.275c-0.006-0.151-0.038-0.225-0.211-0.225c-0.489,0-1.154,0.714-1.255,1.113
		c-0.062,0.245,0.004,0.442,0.297,0.442c0.25,0,0.511-0.24,0.668-0.42c-0.183,0.206-0.125,0.424,0.085,0.424
		c0.228,0,0.49-0.254,0.646-0.414l-0.063-0.048c-0.067,0.048-0.242,0.257-0.333,0.227c-0.008-0.082,0.022-0.142,0.052-0.201
		l0.626-1.09l-0.403,0.02L201.408-35.275z M200.486-34.176c-0.112,0-0.13-0.104-0.105-0.194c0.049-0.2,0.545-0.987,0.819-0.987
		c0.143,0,0.121,0.115,0.104,0.178C201.248-34.958,200.799-34.176,200.486-34.176"/>
	<path class="st7" d="M134.037-52.89c0,0-0.049-0.293,0.148-0.44l0.146,0.147c0,0,0.488-1.418,0.146-3.131l0.439-1.517
		c0,0-1.174-0.342-1.957,0.93c0,0-0.537-0.098-0.88,0.439c0,0-0.978,0.441-1.076,1.37c0,0-0.782,0.686-0.733,1.224
		c0,0-0.686,0.832-0.489,1.712c0,0-0.294,0.538-0.05,0.88l-0.488,0.392l0.342,0.489l-0.439,0.636l0.195,0.293
		c0,0-0.637,0.342-0.489,0.832l0.195,0.244l-0.343,0.392l0.098,0.342c0,0-0.391,0.587-0.244,0.832c0,0,0,0.734-0.391,1.418
		l0.195,0.342l-0.147,0.245l0.147,0.392l-0.147,0.439l0.245,0.441l-0.146,0.782l0.293,0.098l-0.138,0.318l0.333,0.563l0.05,0.489
		l0.392,0.195c0,0,0.234,0.577,1.094,0.177l0.324,0.165l0.294-0.244l0.245,0.391l0.195-0.293l0.587,0.099
		c0,0-1.614,1.664-6.507,1.223c0,0,0.637,1.271,1.713,1.908l-0.049,0.537c0,0,0.537,0.146,0.635,0.342l-0.098,0.344h0.49l0.195,0.44
		l0.881-0.245c0,0,0.146,0.294,0.342,0.294c0.196,0,1.468-0.393,2.691-1.81c-0.03-0.192-0.129-0.406-0.203-0.584v-0.298
		c0.016-0.177-0.029-0.296-0.133-0.443c-0.416,0.237-0.416,0.696-0.891,0.489c-0.119,0.311-0.252,0.46-0.489,0.593
		c-0.045-0.088-0.163-0.207-0.193-0.253l-0.148,0.15c-0.104-0.135-0.237-0.15-0.415-0.15c-0.209,0-0.268,0.209-0.52,0.209
		c-0.029,0-0.148-0.148-0.342-0.059c-0.254,0.118-0.296,0.073-0.578,0.088l-0.104-0.134l0.004-0.147c0,0-1.473,0.37-1.902-0.861
		c0,0,3.367,0.172,5.177-0.904c0.089,0.088,0.149,0.148,0.253,0.207l0.34-0.252l-0.149,0.539c0.183-0.091,0.216-0.103,0.245-0.124
		c0.031-0.021,0.057-0.051,0.275-0.206c0.061,0.177,0.119,0.311,0.119,0.503c0,0.237-0.4,0.164-0.15,0.953
		c0.188,0.594,0.105,0.962,0.832,1.319c0.025,0.014,0.684,0.146,0.787,0.146c0.089,0,0.148-0.103,0.148-0.192
		c0-0.356-0.49-0.192-0.697-0.341c-0.238-0.164-0.532-0.927-0.532-1.373c0-0.281-0.046-0.793-0.046-0.838l-0.004-0.288
		c0-0.103,0.078-0.216,0.078-0.319c0-0.237,0.236-0.431,0.311-0.461c0.134-0.103,0.148-0.251,0.148-0.4
		c0-0.208-0.237-0.331-0.192-0.534c0.03-0.132,0.089-0.163,0.37-0.192c0,0.594-0.088,0.431,0.297,0.831
		c0.082,0.086-0.088,0.237-0.178,0.296c-0.267,0.193-0.445,0.445-0.445,0.787c0,0.385,0.045,0.964,0.045,1.38
		c0,0.118,0.285,0.727,0.447,0.815c0.193,0.104,0.547,0.43,0.889,0.281c0.23-0.101,0.094,1.459,1.201,1.113
		c0.238-0.075,0.252,0.044,0.563-0.489l0.238,0.073v0.297c0.059,0.119,0.059,0.237,0.209,0.237c0.28,0,0.533-0.4,0.859-0.579
		c0.092-0.049,0.238,0.253,0.341,0.237c0.104-0.014,0.104-0.311,0.282-0.311c0.163,0,0.238,0.341,0.608,0.311
		c0.222-0.018,0.192-0.192,0.386-0.192c0.045,0,0.297,0.192,0.341,0.237c0.192-0.147,0.222-0.267,0.401-0.326
		c0.182-0.061,0.711,0.163,0.964,0.163c0.505,0,0.431-0.505,0.489-0.935c0,0,1.182,0.763,2.16,0.763c0,0-1.908-0.881-2.494-2.396
		c0,0,1.955,2.104,3.521,2.104c0,0-2.055-1.614-2.104-2.055c0,0,2.201,1.811,3.18,1.467l-1.076-0.88c0,0-1.175-0.099-1.713-0.881
		c0,0-1.369,0.146-2.299-0.685v-0.391c0,0,1.419,1.173,2.445,0.684c0,0,1.176,1.174,2.789,1.224c0,0-1.32-0.734-1.908-1.42
		c0,0-0.979-0.195-1.467-0.683c0,0-1.077,0.146-1.418-0.344l0.195-0.147c0,0,0.879,0.343,1.32,0.196c0,0,1.32,1.224,2.936,0.734
		c0,0-2.152-0.979-3.18-1.908c0,0-0.49-0.489-1.125-0.538c0,0-0.238-1.593-2.398-1.664l-2.006-0.048c0,0-0.929,0.244-1.711-1.125
		c0,0-0.295-0.881-0.539-1.027c0,0-0.537-1.517-0.342-3.277c0,0,0.342-1.835-0.294-2.789
		C133.891-53.085,134.037-52.89,134.037-52.89 M131.896-38.298c0,0-0.904,0.741-2.003,1.336c0,0-0.415,0.266-0.371,0.386
		c0,0,0.396-0.071,0.786-0.282c0,0,0.906-0.429,1.662-1.128c0,0,0.059-0.267-0.06-0.341L131.896-38.298z M130.265-37.689
		c0,0,0.073-0.104-0.089-0.177c0,0-0.965,0.711-1.795,1.053c0,0-0.46,0.192,0.297,0.267c0,0,0.955-0.262,1.572-1.126
		C130.323-37.777,130.265-37.689,130.265-37.689 M129.774-37.971c0,0-0.697,0.148-0.831,0.089c0,0-0.667,0.46-0.979,0.564
		c0,0-0.281,0.104,0.119,0.235c0,0,1.156-0.251,1.705-0.904L129.774-37.971z M127.979-37.822c0.046-0.06,0.074-0.104,0.089-0.177
		c-0.029-0.046-0.118-0.091-0.178-0.091c-0.088,0.03-0.193,0.074-0.238,0.135c-0.043,0-0.088,0.044-0.132,0.044l-0.03,0.118
		l-0.029,0.178h0.06c0.089,0,0.192-0.015,0.253-0.058C127.861-37.704,127.936-37.793,127.979-37.822 M137.015-37.333
		c0,0-0.253-0.979-0.92-0.92c0,0-0.296,0.074-0.638,0.118l-0.549-0.014c0,0-0.342,0.073-0.135,0.414c0,0,0.268,0.178,0.313,0.742
		c0,0,0.074,0.253,0.341,0.208c0,0,0.134-0.104-0.089-0.252c0,0,0.029-0.251-0.044-0.372l0.431-0.014c0,0-0.016,0.163,0.222,0.135
		c0,0,0.089-0.149,0-0.254c0,0-0.163-0.163-0.267-0.132l0.014-0.104h0.506c0,0,0.073,0.221,0.355,0.282c0,0,0.133,0.133,0.164,0.311
		c0,0,0.296,0.223,0.296-0.118V-37.333z M134.834-38.298c-0.029-0.104-0.119-0.104-0.119-0.222c0-0.135,0.074-0.223,0.074-0.356
		c0.178,0,0.178-0.178,0.178-0.266c0-0.224-0.162-0.269-0.162-0.446c0-0.015,0.223-0.029,0.252-0.029l0.074-0.119
		c0.044,0,0.029-0.015,0.074-0.015c0.074,0,0.118,0.118,0.192,0.118c0.223,0,0.237-0.222,0.252-0.356
		c0.044-0.281,0.327-0.385,0.579-0.414c0,0.178-0.045,0.311,0.104,0.311c0.045,0,0.252-0.118,0.281-0.133
		c0.061-0.045,0.119-0.178,0.178-0.178c0.12-0.015,0.046-0.192,0.224-0.192c0.015,0,0.134,0.088,0.148,0.088
		c0.178,0,0.282-0.147,0.415-0.237c-0.029-0.015-0.074-0.044-0.119-0.044c-0.014,0-0.06,0.06-0.06,0.06h-0.147
		c-0.016-0.12,0.029-0.281-0.074-0.281c-0.074,0-0.133,0.117-0.178,0.133c-0.238,0.118-0.313,0.252-0.564,0.326l-0.044-0.133
		c-0.237,0.073-0.431,0.162-0.667,0.191c-0.031,0.208-0.104,0.431-0.313,0.431c-0.06,0-0.089-0.088-0.148-0.119
		c-0.223,0.297-0.712,0.224-0.652,0.653c0.044,0.326-0.193,0.608-0.193,0.949c0,0.119,0.268,0.326,0.431,0.326L134.834-38.298z
		 M136.629-39.261c-0.06,0-0.06-0.119-0.119-0.119c-0.266,0-0.237,0.607-0.311,0.815c-0.046,0.126,0.178,0.282,0.251,0.282
		c0.089,0,0.119-0.312,0.134-0.445C136.584-38.802,136.658-39.261,136.629-39.261 M137.193-39.425v-0.178h-0.148
		c-0.075,0.03-0.149,0.06-0.223,0.06v0.356l-0.061,0.236v0.296l-0.059,0.18c0.029,0.222,0.088,0.608,0.281,0.608
		c0.074,0,0.089-0.342,0.119-0.461l0.074-1.053L137.193-39.425z M137.607-39.499c0.059-0.089,0.016-0.222-0.059-0.222
		c-0.164,0-0.238,0.443-0.268,0.623v0.415c0.045,0.297-0.045,0.623-0.088,0.89v0.356c0.043,0.134,0.147,0.237,0.281,0.237
		c0.104,0,0.178-0.104,0.178-0.209c0-0.087-0.104-0.178-0.104-0.236c-0.045-0.222,0.014-0.371,0.014-0.594v-1.187
		C137.563-39.438,137.6-39.485,137.607-39.499 M137.875-39.307v-0.355h-0.074c-0.193,0.193-0.104,0.846-0.104,1.172
		c0,0.52-0.031,1.306,0.371,1.306h0.073v-0.192c-0.073-0.238-0.148-0.4-0.177-0.653v-0.593l-0.045-0.297v-0.357L137.875-39.307z
		 M138.542-38.831c-0.028-0.119-0.118-0.237-0.118-0.297c-0.061-0.311,0.029-0.771-0.282-0.771c-0.06,0-0.118,0.148-0.118,0.148
		l0.045,0.816c-0.045,0.312-0.016,0.756,0.089,0.964v0.298c0.028,0.192,0.133,0.386,0.326,0.386c0.074,0,0.118-0.18,0.118-0.27
		c0-0.281-0.252-0.414-0.252-0.696c0-0.252,0.09-0.326,0.192-0.533V-38.831z M138.662-38.431c-0.12,0.059-0.179,0.178-0.179,0.296
		c0,0.119,0.074,0.164,0.104,0.238l0.37,0.875c0.09-0.061,0.148-0.178,0.148-0.296c0-0.224-0.133-0.239-0.162-0.342
		c-0.104-0.282-0.208-0.476-0.252-0.771H138.662z M138.795-39.603l0.104-0.178c-0.045-0.104-0.09-0.223-0.192-0.223
		c-0.06,0-0.181,0.12-0.164,0.193c0.12,0.532,0.114,0.984,0.253,1.424c0.089,0.282,0.162,0.431,0.268,0.713
		c0.088,0.221,0.192,0.178,0.281,0.355c0.015,0.043,0.268,0.206,0.268,0.147c0-0.4-0.268-0.741-0.387-1.038
		c-0.133-0.356-0.192-0.594-0.312-0.89c-0.089-0.253,0.03-0.327-0.074-0.535L138.795-39.603z M139.463-39.646h-0.135
		c-0.029-0.224-0.073-0.356-0.266-0.356c-0.045,0-0.074,0.179-0.074,0.237c0,0.55,0.222,0.935,0.385,1.364
		c0.178,0.446,0.593,1.114,0.979,1.307h0.179v-0.061l-0.89-1.721v-0.178h0.118c0.104,0,0.222,0.386,0.253,0.579
		c0.045,0.236,0.252,0.371,0.326,0.533c0.104,0.207,0.578,0.905,0.83,0.905c0.119,0,0.148-0.09,0.148-0.148v-0.653
		c0-0.104-0.133-0.133-0.178-0.207c-0.134-0.193-0.268-0.208-0.385-0.371c-0.164-0.222-0.298-0.4-0.476-0.534
		c-0.208-0.147-0.372-1.067-0.667-1.067c-0.253,0-0.061,0.415-0.193,0.415c-0.031,0-0.074-0.044-0.09-0.073L139.463-39.646z
		 M135.68-36.696c0,0,0.045-0.043,0.045-0.058v-0.357l-0.104-0.103h-0.06l0.074,0.312c-0.015,0.089-0.09,0.237-0.09,0.237
		l0.061,0.044l0.119-0.075H135.68z M136.006-36.592c-0.134,0-0.163-0.118-0.163-0.162c0-0.03,0.401-0.253,0.46-0.297
		c0.015,0.029,0.044,0.073,0.044,0.118c0,0.044-0.112,0.058-0.118,0.104C136.199-36.621,136.125-36.592,136.006-36.592
		 M137.104-36.606l-0.119,0.045h-0.059l0.059-0.148v-0.297h0.074c0.148,0.074,0.104,0.237,0.09,0.386L137.104-36.606z
		 M136.524-44.29l2.196,0.015c0,0,2.182-0.015,2.24,1.142c0,0-0.148,0.415-0.697-0.029c0,0-0.313-0.312-0.578-0.415
		c0,0-0.253-0.059-0.135,0.147l0.119,0.09c0,0-0.015,0.162,0.061,0.237c0,0,0.088,0.251,0.43,0.178l0.147-0.014v0.087
		c0,0,0.342,0.134,0.46,0.149c0.119,0.016,0.386-0.236,0.476-0.178c0,0,0.37,0.415,0.312,0.728c0,0,0.133,0.341-0.624,0.785
		c0,0-0.267,0-0.089-0.222c0,0,0.193-0.431-0.088-0.698l-0.654-0.385c0,0-0.134-0.119-0.252-0.03c0,0-0.133,0.089,0.164,0.223
		c0,0,0.891,0.489,0.801,0.593c0,0-0.119,0.134-0.341-0.059c0,0-0.491-0.207-0.786-0.386c0,0-0.416,0.237-0.787,0.534
		c0,0-1.143,0.92-1.201,0.993v-0.355h-0.4v-0.132c0.014-0.121,0.103-0.238,0.133-0.298c-0.148-0.016-0.297-0.06-0.297-0.178
		c0-0.12,0.148-0.164,0.148-0.283c0-0.073-0.133-0.059-0.208-0.059c0-0.193,0.075-0.252,0.104-0.356
		c-0.074,0-0.193-0.045-0.193-0.118c0-0.03,0.119-0.164,0.134-0.208v-0.104l-0.237-0.044c0.03-0.194,0.119-0.194,0.119-0.356
		c0-0.118-0.163-0.147-0.163-0.268c0-0.089,0.059-0.148,0.059-0.237c0-0.061-0.118-0.015-0.163-0.061
		c-0.089-0.088-0.074-0.251-0.193-0.266v-0.179L136.524-44.29z M137.682-41.396c-0.016-0.031-0.045-0.075-0.045-0.12l0.061-0.118
		c-0.074-0.104-0.135-0.061-0.135-0.178c0-0.03,0.342-0.09,0.402-0.09h0.117v-0.148c0.164,0,0.297-0.015,0.371-0.059
		c0.061-0.044,0.016-0.193,0.061-0.237c0.073-0.074,0.163-0.029,0.236-0.06c0.074-0.029,0.059-0.164,0.104-0.208
		s0.401-0.118,0.416-0.118c0.117,0,0.207,0.148,0.237,0.206c-0.252,0.12-0.386,0.373-0.579,0.343
		c-0.059,0.208-0.414,0.269-0.594,0.4c-0.281,0.208-0.443,0.312-0.637,0.387H137.682z M137.281-34.96
		c0.134,0.045,0.207,0.178,0.342,0.178c0.178,0,0.24-0.074,0.223-0.223c-0.045-0.369-0.431-0.356-0.758-0.4h-0.711
		c-0.178,0-0.252-0.014-0.4-0.104h-0.119c-0.015,0.104,0,0.09,0,0.192c0,0.119,0.089,0.193,0.089,0.282
		c0,0.163-0.222,0.134-0.267,0.237c-0.268,0-0.386,0.06-0.386,0.282c0,0.148,0.133,0.192,0.222,0.208l0.416-0.193l0.252,0.074
		l-0.074,0.371c0.074,0.163,0.178,0.267,0.341,0.267c0.104,0,0.163-0.118,0.163-0.223c0-0.147-0.074-0.208-0.119-0.296
		c-0.014-0.045,0-0.089,0-0.134c0-0.178-0.059-0.342,0.03-0.475c0.045-0.06,0.253,0,0.356-0.015h0.355L137.281-34.96z
		 M135.219-34.336c-0.014,0.029-0.044,0.073-0.044,0.117c0,0.119,0.178,0.282,0.178,0.282c0.015-0.029,0.044-0.099,0.015-0.134
		C135.294-34.158,135.264-34.307,135.219-34.336 M136.465-33.283c0.045,0,0-0.075,0-0.119c0,0-0.178-0.267-0.207-0.267l-0.045,0.178
		C136.229-33.372,136.347-33.283,136.465-33.283 M137.934-33.921c0.074,0.192-0.029,0.341,0.06,0.385
		c0.06-0.088,0.104-0.133,0.104-0.236c0-0.104-0.09-0.148-0.148-0.178L137.934-33.921z M138.201-34.456c0,0,0.016-0.118-0.029-0.311
		c0,0-0.238-0.161-0.179,0.015c0.06,0.178,0.192,0.282,0.192,0.282L138.201-34.456z M134.715-37.185
		c-0.223,0.103-0.192,0.488-0.637,0.341l-0.209,0.015l-0.016,0.326c0.016,0.089,0.252,0.269,0.252,0.282
		c0.268,0.356,0.387,0.594,0.684,0.831c-0.016,0.044,0.06,0.059,0.06,0.104c0,0.089,0.073,0.134,0.118,0.149
		c0.029-0.061,0.09-0.075,0.148-0.075l0.223,0.148c0.089-0.044,0.104-0.134,0.223-0.134c0.06,0,0.148,0.045,0.148,0.104
		c0,0.104-0.178,0.104-0.282,0.118c-0.208,0.03-0.326,0.223-0.356,0.43v0.356c0.09,0.268,0.238,0.387,0.461,0.4
		c0.029-0.089-0.016-0.223-0.03-0.312l0.371-0.119c0.089,0.193,0.208,0.282,0.179,0.476v0.297c0.088,0.192,0.326,0.356,0.533,0.356
		c0.045,0,0.119-0.075,0.148-0.134l-0.178-0.4c0.089-0.164,0.268-0.104,0.236-0.46c-0.016-0.191-0.059-0.192-0.088-0.356h0.074
		c0.223,0,0.416,0.312,0.504,0.43c0.148,0.209,0.445,0.09,0.534,0.313l-0.089,0.282l0.207,0.044
		c0.208-0.061,0.298-0.237,0.298-0.444c0-0.268-0.356-0.432-0.416-0.624v-0.163h0.118c0.119,0.059,0.074,0.312,0.252,0.312
		s0.193-0.192,0.193-0.341c0-0.149-0.178-0.253-0.237-0.312c-0.134-0.134-0.177-0.268-0.267-0.401
		c-0.163-0.222-0.416-0.237-0.697-0.281h-1.068c-0.223-0.089-0.207-0.401-0.252-0.534c0,0-0.505,0-0.683-0.163
		c-0.179-0.163-0.43-0.206-0.43-0.86H134.715z M137.488-34.456c-0.089,0-0.133-0.162-0.147-0.192
		c-0.06-0.134-0.208-0.148-0.341-0.148c-0.045,0-0.089,0.06-0.089,0.104c0,0.119,0.104,0.075,0.134,0.135
		c0.088,0.178,0.385,0.355,0.592,0.488h0.149v-0.133C137.712-34.352,137.637-34.456,137.488-34.456 M130.992-47.108
		c0.059-0.164,0.073-0.193,0.163-0.356c-0.343-0.089-0.684,0.252-0.832,0.4l-0.399,0.268l-0.832,0.03
		c-0.073,0.044-0.222,0.044-0.191,0.266v0.312h0.637l0.297-0.193c0.163-0.415,0.46-0.4,0.787-0.593L130.992-47.108z M132.961-55.922
		c0,0-0.342-1.027,1.469-1.565c0,0-0.104,0.773-0.057,1.018c0,0-0.652,0.208-0.814,0.712
		C133.504-55.589,132.961-55.922,132.961-55.922 M130.621-46.234c0.029-0.163,0.073-0.327,0.044-0.489
		c-0.267,0.029-0.431,0.252-0.534,0.386c-0.287,0.183-0.721,0.305-1.188,0.444c-0.192,0.104-0.341,0.238-0.385,0.49
		c0.059,0.104,0.164,0.208,0.252,0.296c0.326-0.385,0.83-0.4,1.172-0.682c0.193-0.09,0.416-0.312,0.579-0.401L130.621-46.234z
		 M130.323-45.774c-0.786,0.519-1.972,1.128-1.616,1.128c0.133,0.029,0.163,0.177,1.335-0.549c0.223-0.134,0.134-0.267,0.37-0.459
		L130.323-45.774z M130.042-44.883c-0.327,0.088-0.43,0.118-0.608,0.311c-0.238,0.104-0.431,0.208-0.683,0.297
		c-0.073,0.059-0.148,0.148-0.192,0.237l0.089,0.238c0.253-0.029,0.548-0.118,0.698-0.192c0.267-0.089,0.414-0.313,0.474-0.535
		l0.147-0.179L130.042-44.883z M129.73-43.83v0.46c-0.295,0.148-0.535,0.236-0.728,0.356h-0.296l-0.045-0.282
		c0-0.339,0.297-0.297,0.52-0.4l0.355-0.193L129.73-43.83z M129.346-42.316c0.162-0.119,0.222-0.075,0.355-0.21l0.088-0.014v-0.399
		c0.03-0.017,0.045-0.061,0.061-0.104l-0.119-0.074c-0.045,0.015-0.09,0.044-0.104,0.074c-0.104,0.03-0.148,0.104-0.178,0.179
		c-0.164,0.146-0.193,0.089-0.283,0.266c-0.103,0.029-0.223,0.164-0.34,0.179v0.118c0,0.134,0.117,0.193,0.177,0.223
		c0.061-0.117,0.224-0.133,0.313-0.192L129.346-42.316z M130.16-42.036v-0.177c-0.147,0-0.163-0.044-0.281-0.044
		c-0.207,0.06-0.267,0.177-0.505,0.325l-0.059,0.104c-0.12,0.06-0.163,0.044-0.163,0.163v0.223h0.207
		c0.236-0.03,0.297-0.134,0.4-0.282l0.416-0.281v-0.061L130.16-42.036z M130.486-41.827c-0.029-0.016-0.074-0.044-0.118-0.044
		c-0.045,0-0.074,0.059-0.118,0.073c-0.148,0.059-0.668,0.46-0.683,0.563c-0.007,0.044,0,0.074,0,0.119
		c0.089,0,0.207,0.06,0.237,0.06h0.237c0.044,0,0.06-0.075,0.074-0.104c0.134-0.193,0.341-0.163,0.415-0.37l-0.06-0.119
		c0.015-0.046,0.015-0.074,0-0.118L130.486-41.827z M130.872-41.827h-0.147c-0.06-0.356-0.342-0.268-0.342-0.608
		c0-0.06,0.006-0.065,0.045-0.119c0.134-0.178,0.281-0.376,0.52-0.52c0.074-0.044,0.118-0.208,0.208-0.208h0.089v0.253
		c0,0.237-0.208,0.356-0.208,0.594l0.06,0.355c-0.06,0.119-0.134,0.148-0.193,0.268L130.872-41.827z M130.042-42.495h-0.104
		c0-0.163,0.01-0.237,0-0.37c-0.014-0.209,0.653-0.861,0.935-0.996h0.104v0.239c0,0.059,0,0.118-0.015,0.179
		c-0.03,0.073-0.119,0.177-0.119,0.177C130.68-43.104,130.294-42.495,130.042-42.495 M132.074-55.668l0.045,0.49
		c0.104,0,0,0.119,0.104,0.119c0.074,0,0.52-0.432,0.504-0.534c-0.029-0.193-0.045-0.341-0.045-0.519
		c0-0.133-0.028-0.326,0.045-0.43C132.14-56.417,132.297-56.099,132.074-55.668 M131.299-54.601l0.123,0.683
		c0,0,0.464-0.781,0.562-0.683c0,0-0.195-0.979-0.146-1.321c0,0-0.685,0.538-0.538,1.272S131.299-54.601,131.299-54.601
		 M130.907-54.455c0,0-0.489,0.489-0.489,0.929l0.276,0.472l0.44-0.733c0,0,0.114-0.473-0.179-0.717
		C130.662-54.748,130.907-54.455,130.907-54.455 M130.709-51.9c0.253,0.252,0.55,0.593,0.905,0.682
		c-0.163-0.236-0.459-0.593-0.608-0.89c-0.163-0.519-0.341-0.711-0.727-0.994l-0.133,0.149l-0.075,0.312
		c0,0.103,0.06,0.341,0.06,0.445c0.148,0.118,0.252,0.164,0.386,0.282L130.709-51.9z M130.547-51.693
		c-0.297-0.192-0.297-0.178-0.564-0.267c-0.104,0.03-0.103,0.19-0.103,0.293c0,0.223,0.014,0.137,0.147,0.241
		c0.207,0.177,0.385,0.356,0.638,0.445l0.622,0.014c-0.236-0.207-0.355-0.475-0.637-0.652L130.547-51.693z M129.684-50.788
		c0.091,0.088,0.076,0.312,0.447,0.444h0.341c0.341-0.119,0.564-0.133,0.979-0.193c0.505,0,0.281,0.134,0.668,0.134
		c0.104,0,0.207-0.089,0.237-0.193c-0.149-0.074-0.356-0.163-0.624-0.163c-0.147-0.059-0.385-0.059-0.533,0l-0.638-0.059
		c-0.356-0.134,0.029,0.104-0.297-0.06c-0.312-0.015-0.179-0.133-0.52-0.015L129.684-50.788z M131.496-50.343
		c-0.209-0.029-0.271,0.139-0.495,0.139l-1.127,0.104c-0.252,0-0.252,0.074-0.386,0.252c0.193,0.119,0.268,0.312,0.49,0.341
		l0.786-0.208c0.252-0.059,0.534-0.193,0.682-0.282c0.272,0.011,0.347,0.115,0.524,0.115c0.133,0,0.174-0.07,0.263-0.173
		L131.496-50.343z M131.244-47.702c0-0.104,0.043-0.43,0.043-0.534c0.074-0.149,0.164-0.12,0.164-0.297v-0.296
		c0-0.401,0.639-0.43,0.682-0.831c-0.162,0.03-0.385-0.06-0.548-0.089c-0.549,0-0.489,0.252-1.023,0.282
		c-0.327,0.029-0.476,0.119-0.787,0.044c-0.237,0.148-0.415,0.356-0.579,0.49c0.15,0.089,0.268,0.222,0.445,0.252
		c0.342-0.015,0.728-0.208,0.965-0.282c0.326-0.104,0.668-0.282,0.846-0.267c-0.172,0.188-0.23,0.242-0.234,0.236
		c-0.016-0.013,0.331-0.422-0.077,0.179c-0.178,0.208-0.489,0.237-0.771,0.282c-0.163,0.074-0.489,0.148-0.756,0.148
		c-0.267,0.119-0.476,0.341-0.356,0.564l0.727,0.059c0.208-0.133,0.282-0.207,0.489-0.326c0.223-0.089,0.371-0.312,0.608-0.355
		l0.119,0.133l-0.49,0.341l-0.667,0.46c-0.223,0.044-0.534,0-0.757-0.045c-0.133,0.059-0.193,0.223-0.237,0.296
		c0,0.104-0.193,0.178,0.638,0.238c0.356-0.06,0.652-0.297,0.801-0.535c0.208-0.133,0.223-0.192,0.476-0.251h0.147L131.244-47.702z
		 M133.572-53.325c0,0-0.118-1.78,0.506-2.299c0,0,0-0.282,0.162-0.49c0,0-0.742,0.311-0.846,0.905c0,0-0.281,1.29-0.133,1.958
		c0,0,0.044,0.297,0.236,0.252c0,0,0.119-0.045,0.074-0.297C133.528-53.547,133.572-53.325,133.572-53.325 M133.053-55.476
		c0,0-0.593,0.267-0.667,1.231c0,0,0.104,1.157,0.476,1.676c0,0,0.296,0.163,0.237-0.223c0,0-0.237-1.32,0.222-2.641
		c0,0,0-0.192-0.236-0.044C132.846-55.327,133.053-55.476,133.053-55.476 M132.52-52.717c0,0-0.445-1.172-0.49-1.72
		c0,0-0.355,0.029-0.326,0.919s0.371,1.543,0.623,1.661l0.119-0.147l0.148-0.044l0.119-0.252c0,0-0.031-0.252-0.178-0.4
		L132.52-52.717z M132.356-51.173l-0.179-0.252c0,0-0.029-0.372-0.148-0.416c-0.118-0.044-0.696-1.558-0.711-1.795
		c0,0-0.476,0.43-0.297,1.039c0.162,0.558,0.801,1.113,0.905,1.247c0,0,0.177,0.222,0.163,0.43c0,0,0.223,0.208,0.326,0.074
		c0,0,0.178-0.074-0.045-0.297S132.356-51.173,132.356-51.173 M130.65-43.993c0.029-0.016,0.044-0.06,0.059-0.104l-0.059-0.519
		h-0.119c-0.297,0.237-0.594,0.267-0.594,0.594c0,0.059-0.059,0.118-0.059,0.177c0,0.193,0.015,0.445,0.178,0.445
		c0.119,0,0.09-0.133,0.163-0.163c0.237-0.089,0.282-0.355,0.475-0.445L130.65-43.993z"/>
</g>
<g>
	<polygon class="st6" points="184.576,31.135 263.576,31.135 263.576,110.135 184.576,110.135 184.576,31.135 	"/>
	<path class="st2" d="M232.853,68.644c0-0.618-1.001-0.667-1.432-0.667h-1.313l-0.894,3.193h0.979l0.28-1.12
		C231.466,70.05,232.853,69.951,232.853,68.644L232.853,68.644z M231.723,69.098c-0.112,0.22-0.423,0.359-0.668,0.359h-0.344
		l0.215-0.951h0.27c0.242,0,0.57,0.076,0.57,0.369L231.723,69.098L231.723,69.098z"/>
	<polygon class="st2" points="227.245,70.261 228.579,70.261 228.763,69.595 227.417,69.595 227.245,70.261 	"/>
	<polygon class="st2" points="242.424,69.996 242.305,67.977 240.906,67.977 240.151,71.17 240.938,71.17 241.519,68.886 
		241.638,71.17 242.563,71.17 243.813,68.886 243.295,71.17 244.167,71.17 244.921,67.977 243.5,67.977 242.424,69.996 	"/>
	<path class="st2" d="M234.414,67.977c-0.824,1.041-1.562,2.146-2.379,3.193h1.163l0.613-0.909h1.238l0.14,0.909h1.141
		c-0.067-0.068-0.615-2.893-0.646-3.193H234.414L234.414,67.977z M234.21,69.573l0.646-0.888l0.129,0.888H234.21L234.21,69.573z"/>
	<polygon class="st2" points="238.699,67.977 237.622,67.977 236.869,71.17 239.485,71.17 239.657,70.482 238.118,70.482 
		238.699,67.977 	"/>
	<path class="st2" d="M214.521,69.31l-0.151,0.687h0.409l-0.118,0.486c-0.065,0.063-0.339,0.085-0.431,0.085
		c-0.434,0-0.829-0.139-0.829-0.635c0-0.818,0.731-1.279,1.497-1.279c0.378,0,0.684,0.113,1.044,0.181l0.118-0.772
		c-0.409-0.021-0.805-0.148-1.228-0.148c-1.238,0-2.476,0.784-2.476,2.104c0,0.762,0.604,1.237,1.356,1.237h0.538
		c0.43,0,0.888-0.081,1.313-0.138l0.409-1.808H214.521L214.521,69.31z"/>
	<path class="st2" d="M204.164,68.653c0.277,0,0.523,0.095,0.785,0.116l0.087-0.739c-0.284-0.035-0.586-0.117-0.872-0.117
		c-1.23,0-2.443,0.766-2.443,2.073c0,0.775,0.672,1.269,1.432,1.269h0.377c0.24,0,0.549-0.042,0.785-0.085l0.259-0.771
		c-0.253,0.056-0.525,0.116-0.786,0.116h-0.377c-0.373,0-0.635-0.323-0.635-0.666C202.775,69.11,203.459,68.653,204.164,68.653
		L204.164,68.653z"/>
	<polygon class="st2" points="223.638,71.17 226.405,71.17 226.545,70.482 224.866,70.482 225.005,69.912 226.438,69.912 
		226.577,69.225 225.156,69.225 225.296,68.653 226.986,68.653 227.158,67.977 224.402,67.977 223.638,71.17 	"/>
	<polygon class="st2" points="223.832,67.977 220.635,67.977 220.495,68.653 221.539,68.653 220.958,71.17 222.002,71.17 
		222.604,68.653 223.649,68.653 223.832,67.977 	"/>
	<path class="st2" d="M207.458,67.913c-1.237,0-2.476,0.802-2.476,2.115c0,0.768,0.75,1.227,1.475,1.227h0.42
		c0.931,0,1.779-0.577,2.088-1.428c0.05-0.135,0.13-0.31,0.13-0.455v-0.358C209.095,68.237,208.107,67.913,207.458,67.913
		L207.458,67.913z M208.018,69.437c0,0.022-0.048,0.176-0.057,0.208c-0.114,0.392-0.27,0.635-0.672,0.793
		c-0.088,0.034-0.209,0.077-0.305,0.077h-0.301c-0.367,0-0.636-0.323-0.636-0.666c0-0.669,0.558-1.195,1.228-1.195
		c0.299,0,0.465,0.105,0.646,0.328c0.038,0.046,0.048,0.114,0.097,0.232V69.437L208.018,69.437z"/>
	<path class="st2" d="M219.525,67.977h-1.28c-0.732,1.082-1.553,2.161-2.357,3.193h1.162l0.613-0.909h1.249l0.15,0.909h1.123
		c-0.015-0.111-0.087-0.334-0.11-0.443C219.945,70.134,219.553,68.496,219.525,67.977L219.525,67.977z M218.073,69.573l0.613-0.888
		l0.172,0.888H218.073L218.073,69.573z"/>
	<polygon class="st2" points="211.075,67.977 210.042,67.977 209.288,71.17 211.861,71.17 212.033,70.482 210.505,70.482 
		211.075,67.977 	"/>
	<polygon class="st2" points="252.693,71.17 253.737,71.17 254.491,67.977 253.447,67.977 252.693,71.17 	"/>
	<path class="st2" d="M257.979,67.977l-1.571,2.391l-0.291-2.391h-1.099c0.035,0.822,0.38,1.639,0.463,2.453l0.086,0.74h1.25
		c0.782-1.047,1.477-2.169,2.292-3.193H257.979L257.979,67.977z"/>
	<polygon class="st2" points="251.175,67.977 250.131,67.977 249.378,71.17 251.994,71.17 252.134,70.482 250.594,70.482 
		251.175,67.977 	"/>
	<polygon class="st2" points="258.905,71.17 261.661,71.17 261.834,70.482 260.121,70.482 260.262,69.912 261.693,69.912 
		261.834,69.225 260.412,69.225 260.552,68.653 262.242,68.653 262.415,67.977 259.658,67.977 258.905,71.17 	"/>
	<path class="st2" d="M247.569,67.913c-1.169,0-2.455,0.777-2.455,2.041c0,0.813,0.662,1.301,1.465,1.301h0.42
		c0.97,0,2.206-0.845,2.206-1.883v-0.358C249.205,68.223,248.228,67.913,247.569,67.913L247.569,67.913z M247.096,70.515h-0.291
		c-0.267,0-0.624-0.272-0.624-0.55v-0.232c0-0.337,0.384-0.848,0.688-0.983c0.15-0.067,0.354-0.096,0.518-0.096
		c0.275,0,0.539,0.108,0.731,0.486c-0.01,0.065,0.021,0.151,0.021,0.223C248.14,69.892,247.68,70.515,247.096,70.515L247.096,70.515
		z"/>
	<path class="st8" d="M185.738,69.394c0,0,0.102-3.661,4.285-3.711h3.138l-0.704,3.101l-2.588,0.009
		c-0.862,0.007-1.027,0.716-1.027,0.716s-0.051,0.746,0.776,0.83l2.486,0.002l-0.715,3.152l-1.45,0.005
		C185.604,73.408,185.738,69.394,185.738,69.394L185.738,69.394z M199.622,69.394c0,0-0.187-3.661-4.369-3.711h-1.333l-0.697,3.101
		l2.184,0.009c0.863,0.007,1.027,0.716,1.027,0.716s0.051,0.746-0.775,0.83l-2.791,0.002l-1.207,5.244l2.951,0.004l0.49-2.092
		l0.236,0.001C199.672,73.408,199.622,69.394,199.622,69.394L199.622,69.394z"/>
</g>
<g>
	<g>
		<g>
			<g>
				<path class="st3" d="M64.987,19.029c-1.675,1.641-2.503,3.655-2.503,5.988c0,4.719,3.807,8.441,8.506,8.441
					c4.716,0,8.51-3.705,8.51-8.441c0-2.318-0.849-4.298-2.49-5.973c-1.657-1.675-3.664-2.503-6.02-2.503
					C68.652,16.542,66.646,17.37,64.987,19.029 M55.135,25.559h5.735v-2.57h-5.735V19.4h6.249v-2.589h-8.936v16.394H61.4v-2.588
					h-6.266V25.559z M15.723,16.812v16.394h2.692V16.812H15.723z M3.967,33.205c3.011,0,5.326-0.678,6.88-2.08
					c1.779-1.59,2.679-3.622,2.679-6.107c0-2.587-0.917-4.669-2.741-6.227C9.244,17.474,6.96,16.812,4,16.812H0.5v16.394H3.967z
					 M30.512,29.619l1.5,3.586h2.979l-6.984-16.443h-1.357l-7.167,16.443h2.956l1.572-3.654c0.041-0.102,0.056-0.17,0.073-0.236
					c0.069,0.033,0.163,0.066,0.284,0.117c0.884,0.34,1.935,0.525,2.961,0.525c1.02,0,2.015-0.203,2.608-0.406
					c0.3-0.102,0.402-0.152,0.49-0.203C30.44,29.416,30.496,29.568,30.512,29.619z M47.852,21.821l2.046-1.76
					c-1.762-2.353-4.117-3.52-6.889-3.52c-4.716,0-8.525,3.774-8.525,8.492c0,4.617,3.792,8.426,8.406,8.426
					c1.171,0,2.285-0.254,3.364-0.746c1.054-0.475,1.969-1.133,2.711-1.994c0.712-0.797,1.17-1.709,1.438-2.709
					c0.221-0.828,0.357-1.844,0.285-3.061l-0.03-0.49h-7.381v2.588h4.535c-0.116,1.014-0.638,1.896-1.558,2.623
					c-0.993,0.811-2.132,1.201-3.397,1.201c-1.467,0-2.786-0.607-4.012-1.813c-1.098-1.115-1.65-2.451-1.65-4.007
					c0-1.643,0.57-3.061,1.755-4.247c1.121-1.132,2.471-1.675,4.028-1.675C44.976,19.129,46.548,20.043,47.852,21.821z
					 M75.099,20.839c1.152,1.117,1.705,2.519,1.705,4.159c0,1.626-0.569,3.012-1.705,4.164c-1.131,1.133-2.505,1.709-4.108,1.709
					c-3.231,0-5.807-2.657-5.807-5.873c0-1.622,0.577-3.026,1.713-4.176c1.116-1.134,2.508-1.692,4.094-1.692
					C72.577,19.129,73.953,19.705,75.099,20.839z M4.055,19.4c2.298,0,3.917,0.473,4.936,1.371c1.217,1.065,1.826,2.471,1.826,4.227
					c0,1.676-0.593,3.063-1.754,4.148c-1.02,0.963-2.679,1.471-5.008,1.471H3.304V19.4H4.055z M25.044,27.031
					c0.047-0.103,0.134-0.271,0.166-0.357l2.069-5.006l2.03,5.055c0.032,0.088,0.104,0.223,0.149,0.342l-0.251,0.05
					c-0.577,0.153-1.217,0.255-1.881,0.255c-0.654,0-1.263-0.086-1.911-0.255C25.295,27.08,25.132,27.031,25.044,27.031z"/>
			</g>
		</g>
	</g>
</g>
</svg>
